<?xml version="1.0" standalone="no"?>
<!DOCTYPE svg PUBLIC "-//W3C//DTD SVG 1.1//EN" "http://www.w3.org/Graphics/SVG/1.1/DTD/svg11.dtd" >
<svg>
<metadata>
Created by FontForge 20090914 at Sat Sep 24 13:20:20 2016
 By www-data
ParaGraph JV
</metadata>
<defs>
<font id="Herold" horiz-adv-x="300" >
  <font-face 
    font-family="Herold"
    font-weight="400"
    font-stretch="normal"
    units-per-em="1000"
    panose-1="0 0 0 0 0 0 0 0 0 0"
    ascent="800"
    descent="-200"
    x-height="579.996"
    cap-height="700.001"
    bbox="-24.001 -80.0029 863 920"
    underline-thickness="50"
    underline-position="-75"
    unicode-range="U+0020-U+203A"
  />
<missing-glyph horiz-adv-x="920" 
d="M57 0v920h806v-920h-806zM806 57v806h-692v-806h692z" />
    <glyph glyph-name=".notdef" horiz-adv-x="920" 
d="M57 0v920h806v-920h-806zM806 57v806h-692v-806h692z" />
    <glyph glyph-name="space" unicode=" " 
 />
    <glyph glyph-name="exclam" unicode="!" horiz-adv-x="200" 
d="M106 170c-16 0 -26.832 7 -32.499 21s-8.5 32.667 -8.5 56c-7.33301 86 -17.333 181.333 -30 286c-4 33.333 -6 57.666 -6 72.999c0 28.667 9 49.334 27 62.001c12 8 26.667 12 44 12c18 0 31.667 -3 41 -9c20 -12.667 30 -36 30 -70c0 -19.333 -1.16699 -46 -3.5 -80
s-9.83301 -124.333 -22.5 -271l-4 -43c-4.66699 -24.667 -16.334 -37 -35.001 -37zM46.001 71c0 22 4.99902 39 14.999 51s24 18 42 18c18.667 0 32.167 -6.33301 40.5 -19s12.5 -29.334 12.5 -50.001c0 -28.667 -6 -49 -18 -61c-9.33301 -9.33301 -21.666 -14 -36.999 -14
c-16 0 -28.667 5.33301 -38 16c-11.333 12.667 -17 32.334 -17 59.001z" />
    <glyph glyph-name="quotedbl" unicode="&#x22;" 
d="M80 704c17.333 0 30.833 -5.33301 40.5 -16s14.5 -25 14.5 -43c0 -15.333 -5.66699 -46.333 -17 -93c-13.333 -54.667 -26 -82 -38 -82s-24.167 25 -36.5 75s-18.5 83.333 -18.5 100c0 18.667 4.5 33.167 13.5 43.5s22.833 15.5 41.5 15.5zM220 704
c17.333 0 30.833 -5.33301 40.5 -16s14.5 -25 14.5 -43c0 -15.333 -5.66699 -46.333 -17 -93c-13.333 -54.667 -26 -82 -38 -82s-24.167 25 -36.5 75s-18.5 83.333 -18.5 100c0 18.667 4.5 33.167 13.5 43.5s22.833 15.5 41.5 15.5z" />
    <glyph glyph-name="numbersign" unicode="#" horiz-adv-x="430" 
d="M75 90l26.002 97h-53c-14.667 0 -22 7.66699 -22 23c0 10.667 5.33301 17.667 16 21c1.33301 0 4 0.666992 8 2h63l32 120h-63c-14.667 0 -22 7.66699 -22 23c0 10.667 5.33301 17.667 16 21c1.33301 0 4 0.666992 8 2h73l27 100
c0.666992 3.33301 2.16699 7.66602 4.5 12.999s8.16602 8 17.499 8s16.333 -2.66699 21 -8c2.66699 -3.33301 4 -8.33301 4 -15c0 -2 -0.666992 -5.66699 -2 -11l-24 -87h75l27 100c0.666992 3.33301 2.16699 7.66602 4.5 12.999s8.16602 8 17.499 8c16.667 0 25 -7 25 -21
c0 -2 -0.666992 -6.33301 -2 -13l-24 -87h53c6 0 11.333 -1.16699 16 -3.5s7 -8.83301 7 -19.5s-4.33301 -17.667 -13 -21c-4 -1.33301 -7.33301 -2 -10 -2h-65l-32 -120h62c6 0 11.333 -1.16699 16 -3.5s7 -8.83301 7 -19.5s-4.33301 -17.667 -13 -21
c-4 -1.33301 -7.33301 -2 -10 -2h-74l-30 -112c-2.66699 -10 -10 -15 -22 -15c-8 0 -14.167 2.83301 -18.5 8.5s-5.5 12.834 -3.5 21.501l26 97h-75l-30 -112c-2.66699 -10 -10 -15 -22 -15c-8 0 -14.167 2.83301 -18.5 8.5s-5.5 12.834 -3.5 21.501zM161.002 233h75l32 120
h-75z" />
    <glyph glyph-name="dollar" unicode="$" horiz-adv-x="286" 
d="M192 753v-48.0029c0 -3.33301 2.33301 -5.33301 7 -6l30 -4.5c15.333 -2.33301 27.333 -8.5 36 -18.5c6 -6.66699 9 -14.334 9 -23.001c0 -8 -0.833008 -20.833 -2.5 -38.5s-2.5 -30.5 -2.5 -38.5v-18c2 -14 3.33301 -24.333 4 -31l3 -32
c0 -9.33301 -1.66699 -15.666 -5 -18.999s-8 -5 -14 -5c-4.66699 0 -8.83398 1.66699 -12.501 5s-7.16699 7.33301 -10.5 12c-5.33301 10 -11.5 17.333 -18.5 22s-14.833 7 -23.5 7c-13.333 0 -22.5 -4.5 -27.5 -13.5s-7.5 -18.167 -7.5 -27.5
c0 -11.333 2.66699 -26.833 8 -46.5s19 -59.167 41 -118.5l45 -121c12 -34.667 18 -63 18 -85c0 -27.333 -7 -50 -21 -68c-10.667 -13.333 -24 -23.333 -40 -30c-2.66699 -1.33301 -7.66699 -2.83301 -15 -4.5s-11 -4.5 -11 -8.5v-47c0 -10 -3.16699 -17 -9.5 -21
s-13.166 -6 -20.499 -6c-11.333 0 -19.166 2.5 -23.499 7.5s-6.5 11.5 -6.5 19.5v45c0 5.33301 -6.66699 8.83301 -20 10.5s-25 3.83398 -35 6.50098c-24 6.66699 -39.333 12.667 -46 18s-10 12.333 -10 21l3 30l3 32c0 4 -0.166992 8.83301 -0.5 14.5
s-1.5 13.167 -3.5 22.5l-3 21c0 8.66699 2.16699 14.834 6.5 18.501s9.83301 5.5 16.5 5.5s12.5 -4 17.5 -12l12.5 -20c7.33301 -11.333 13 -18.666 17 -21.999c7.33301 -6 16.333 -9 27 -9c10 0 18 2.83301 24 8.5s9 15.167 9 28.5c0 12 -8.83301 38.5 -26.5 79.5
s-30.5 72.167 -38.5 93.5c-12 33.333 -23.5 73.333 -34.5 120s-16.5 82.667 -16.5 108c0 27.333 6.33301 52.166 19 74.499s31.334 38.5 56.001 48.5c7.33301 2.66699 14 4.33398 20 5.00098s9.66699 1.66699 11 3l2 6v49c0 10 3.16699 17 9.5 21s13.166 6 20.499 6
c11.333 0 19.166 -2.5 23.499 -7.5s6.5 -11.5 6.5 -19.5z" />
    <glyph glyph-name="percent" unicode="%" horiz-adv-x="600" 
d="M153 12l251.001 692.001c4 10.667 10 16 18 16c6.66699 0 13 -1.83301 19 -5.5s9 -9.5 9 -17.5c0 -2 -0.666992 -5 -2 -9l-252 -694c-3.33301 -9.33301 -9.33301 -14 -18 -14c-6.66699 0 -12.834 1.66699 -18.501 5s-8.5 8.66602 -8.5 15.999c0 2 0.666992 5.66699 2 11z
M30.001 370.001v230c0 42 13 71.667 39 89c16 10.667 36 16 60 16c38 0 64.333 -13 79 -39c8 -14 12 -32.333 12 -55v-219c0 -31.333 -4.66699 -56 -14 -74c-15.333 -28.667 -42.333 -43 -81 -43c-40 0 -67.333 12 -82 36c-8.66699 14 -13 33.667 -13 59zM99.001 557.001
v-151.999c0 -8.66699 1.66699 -15.834 5 -21.501s10.333 -8.5 21 -8.5c16 0 24 8.33301 24 25v157c0 6.66699 -1.33301 12.167 -4 16.5s-5.5 7.33301 -8.5 9s-7.16699 2.5 -12.5 2.5c-6 0 -10.667 -1 -14 -3c-7.33301 -4.66699 -11 -13 -11 -25zM380.001 90.002v230
c0 42 13 71.667 39 89c16 10.667 36 16 60 16c38 0 64.333 -13 79 -39c8 -14 12 -32.333 12 -55v-219c0 -31.333 -4.66699 -56 -14 -74c-15.333 -28.667 -42.333 -43 -81 -43c-40 0 -67.333 12 -82 36c-8.66699 14 -13 33.667 -13 59zM450.001 277.002v-152
c0 -8.66699 1.66699 -15.834 5 -21.501s10.333 -8.5 21 -8.5c16 0 24 8.33301 24 25v157c0 13.333 -5.33301 22 -16 26c-1.33301 0.666992 -4.33301 1.33398 -9 2.00098c-6 0 -10.667 -1 -14 -3c-7.33301 -4.66699 -11 -13 -11 -25z" />
    <glyph glyph-name="ampersand" unicode="&#x26;" horiz-adv-x="380" 
d="M115 357c0 3.33301 -1.33203 7.99902 -3.99902 13.999l-17 35c-10 20.667 -16.333 36.334 -19 47.001c-4.66699 16.667 -7 37.334 -7 62.001c0 44 10.667 84.333 32 121c26.667 45.333 63 68 109 68c29.333 0 51.833 -9.5 67.5 -28.5s23.5 -45.833 23.5 -80.5
c0 -15.333 -2.16699 -32.5 -6.5 -51.5s-12 -41.667 -23 -68s-20.833 -45.833 -29.5 -58.5c-13.333 -19.333 -20 -31.333 -20 -36c0 -5.33301 2.16699 -11.666 6.5 -18.999s8.5 -11 12.5 -11c10.667 0 20.667 6.66699 30 20s22.666 20 39.999 20
c14 0 25.833 -3.16699 35.5 -9.5s14.5 -14.5 14.5 -24.5c0 -9.33301 -5 -18 -15 -26c-6.66699 -4.66699 -13 -9.33398 -19 -14.001c-12 -9.33301 -21.667 -19.333 -29 -30c-9.33301 -13.333 -14 -25.666 -14 -36.999c0 -5.33301 4.33301 -14 13 -26l16 -23
c10 -14.667 18 -31.167 24 -49.5s9 -37.166 9 -56.499c0 -44.667 -8.66699 -73.667 -26 -87c-10.667 -8 -30 -12 -58 -12c-20.667 0 -35 2.16699 -43 6.5s-12 9.83301 -12 16.5c0 5.33301 5 10.833 15 16.5s18 13.167 24 22.5s9 18.333 9 27c0 11.333 -2 19.333 -6 24
s-8.66699 7 -14 7c-4 0 -8.33301 -4.33301 -13 -13s-7.66699 -14.334 -9 -17.001c-12.667 -28.667 -25.334 -50 -38.001 -64c-16 -17.333 -34.667 -26 -56 -26c-25.333 0 -46.666 9 -63.999 27c-22.667 23.333 -34 58.666 -34 105.999c0 32.667 5.16699 63.667 15.5 93
s27.5 60.333 51.5 93c8 9.33301 13.333 15.666 16 18.999c8 10 12 17.667 12 23zM155.001 535.999c0 -13.333 2.33203 -25.667 6.99902 -37s9.33398 -17 14.001 -17c6 0 13 8.66699 21 26c5.33301 11.333 8 21 8 29c0 8.66699 -1.83301 16.167 -5.5 22.5
s-9.16699 9.5 -16.5 9.5s-13.833 -2.5 -19.5 -7.5s-8.5 -13.5 -8.5 -25.5zM156 251.998c-8.66699 0 -17.168 -8.83301 -25.501 -26.5s-12.5 -35.167 -12.5 -52.5c0 -16.667 6.33301 -25 19 -25c10 0 21.167 5.5 33.5 16.5s18.5 20.833 18.5 29.5s-4.16699 20.5 -12.5 35.5
s-15.166 22.5 -20.499 22.5z" />
    <glyph glyph-name="quotesingle" unicode="'" horiz-adv-x="160" 
d="M80 704c17.333 0 30.833 -5.33301 40.5 -16s14.5 -25 14.5 -43c0 -15.333 -5.66699 -46.333 -17 -93c-13.333 -54.667 -26 -82 -38 -82s-24.167 25 -36.5 75s-18.5 83.333 -18.5 100c0 18.667 4.5 33.167 13.5 43.5s22.833 15.5 41.5 15.5z" />
    <glyph glyph-name="parenleft" unicode="(" horiz-adv-x="220" 
d="M130 302c0 -76 7.33203 -143 21.999 -201l48 -144c0 -11.333 -5 -17 -15 -17c-24 0 -55 39 -93 117c-41.333 84.667 -62 165.334 -62 242.001c0 56 8.33301 110.333 25 163c14.667 47.333 35.667 91.666 63 132.999c17.333 26.667 31.333 45.834 42 57.501
s18.334 17.5 23.001 17.5c11.333 0 17 -4.66699 17 -14c0 -3.33301 -5.66699 -19.333 -17 -48c-8.66699 -22 -16.5 -46.5 -23.5 -73.5s-13.167 -58.833 -18.5 -95.5c-7.33301 -48.667 -11 -94.334 -11 -137.001z" />
    <glyph glyph-name="parenright" unicode=")" horiz-adv-x="220" 
d="M90 308c0 76 -7.33203 143.001 -21.999 201.001l-48 144c0 11.333 5 17 15 17c24 0 55 -39 93 -117c41.333 -84.667 62 -165.334 62 -242.001c0 -56 -7.83301 -109 -23.5 -159s-37.167 -95.667 -64.5 -137c-17.333 -26.667 -31.333 -45.834 -42 -57.501
s-18.334 -17.5 -23.001 -17.5c-11.333 0 -17 4.66699 -17 14c0 3.33301 5.66699 19.333 17 48c8.66699 22 16.5 46.5 23.5 73.5s13.667 61.833 20 104.5s9.5 85.334 9.5 128.001z" />
    <glyph glyph-name="asterisk" unicode="*" horiz-adv-x="320" 
d="M157 704c16 0 29.1689 -1.83398 39.502 -5.50098s15.5 -11.5 15.5 -23.5c0 -5.33301 -1.33301 -10.333 -4 -15s-6.33398 -9.66699 -11.001 -15c-8.66699 -8.66699 -13 -16.667 -13 -24c0 -6 2.66699 -9 8 -9c4 0 8 2.16699 12 6.5s8.5 10.166 13.5 17.499
s10 13.166 15 17.499s11.167 6.5 18.5 6.5c11.333 0 20.666 -5.66699 27.999 -17s11 -24.666 11 -39.999c0 -20 -8.66699 -30 -26 -30l-25 3l-20 1c-8.66699 0 -13 -4 -13 -12c0 -5.33301 3.66699 -9.33301 11 -12s13.666 -4.83398 18.999 -6.50098l18 -5.5
c10.667 -4.66699 16 -12 16 -22c0 -12.667 -8 -25 -24 -37s-30.667 -18 -44 -18c-10.667 0 -18.167 4.83301 -22.5 14.5s-6.5 21.834 -6.5 36.501c0 8 -0.5 14.167 -1.5 18.5s-4.5 6.5 -10.5 6.5c-6.66699 0 -11 -4.33301 -13 -13s-3.33301 -15.667 -4 -21
c-2.66699 -16.667 -7 -28.5 -13 -35.5s-13.333 -10.5 -22 -10.5c-12 0 -23.667 6 -35 18s-17 22.667 -17 32c0 8 4 15 12 21c3.33301 2.66699 9.66602 5.83398 18.999 9.50098s15.666 7.16699 18.999 10.5s5 7 5 11c0 6 -4.33301 9 -13 9c-10.667 0 -20 -1 -28 -3
s-14.333 -3 -19 -3c-14.667 0 -22 8.33301 -22 25c0 14.667 3.33301 27.834 10 39.501s14.334 17.5 23.001 17.5c4.66699 0 9.83398 -1.83301 15.501 -5.5s10.334 -7.66699 14.001 -12s7.66699 -8.16602 12 -11.499s8.5 -5 12.5 -5c7.33301 0 11 3 11 9
c0 3.33301 -3.5 9.5 -10.5 18.5s-11.333 15.167 -13 18.5s-2.5 7.66602 -2.5 12.999c0 9.33301 5.33301 17 16 23s23.667 9 39 9z" />
    <glyph glyph-name="comma" unicode="," horiz-adv-x="160" 
d="M78 174c20 0 35 -8.00098 45 -24.001s15 -39 15 -69c0 -36 -8.5 -70.833 -25.5 -104.5s-36.5 -50.5 -58.5 -50.5c-6.66699 0 -11.667 2 -15 6s-5 9 -5 15c0 4.66699 4.33301 14.667 13 30c6 12 9 20.333 9 25c0 4 -1.33301 8.66699 -4 14c-4.66699 8 -9 16 -13 24
c-6.66699 14 -11.167 25.333 -13.5 34s-3.5 18 -3.5 28c0 20.667 4.83301 37.834 14.5 51.501s23.5 20.5 41.5 20.5z" />
    <glyph glyph-name="hyphen" unicode="-" horiz-adv-x="240" 
d="M28 271c0 7.33301 -0.332031 13.334 -0.999023 18.001s-1 8 -1 10c0 11.333 5.66699 17 17 17c5.33301 0 14.666 -0.833008 27.999 -2.5s30.333 -2.5 51 -2.5l44 3l30 2c12 0 18 -4 18 -12c0 -2 -0.333008 -5.33301 -1 -10s-1 -10 -1 -16
c0 -9.33301 0.333008 -15.833 1 -19.5s1 -7.83398 1 -12.501c0 -10.667 -5.33301 -16 -16 -16c-2.66699 0 -13.667 1 -33 3s-34 3 -44 3l-49 -2l-34 -4c-8 0 -12 4.33301 -12 13l1 11z" />
    <glyph glyph-name="period" unicode="." horiz-adv-x="160" 
d="M25 77c0 28 6.00098 48.334 18.001 61.001c10 10 23 15 39 15c16.667 0 29.667 -6 39 -18s14 -31.333 14 -58c0 -22.667 -3.66699 -41 -11 -55c-9.33301 -17.333 -24 -26 -44 -26c-22.667 0 -38.334 10.667 -47.001 32c-5.33301 13.333 -8 29.666 -8 48.999z" />
    <glyph glyph-name="slash" unicode="/" horiz-adv-x="373" 
d="M28 -48l273.001 752.001c4 10.667 10 16 18 16c6.66699 0 13 -1.83301 19 -5.5s9 -9.5 9 -17.5c0 -2 -0.666992 -5 -2 -9l-274 -754c-3.33301 -9.33301 -9.33301 -14 -18 -14c-6.66699 0 -12.834 1.66699 -18.501 5s-8.5 8.66602 -8.5 15.999c0 2 0.666992 5.66699 2 11z
" />
    <glyph glyph-name="zero" unicode="0" 
d="M25 150v382.999c0 46 6.66699 82.667 20 110c21.333 43.333 58.333 65 111 65c38.667 0 68.167 -13.167 88.5 -39.5s30.5 -65.166 30.5 -116.499v-365c0 -52.667 -6 -93.667 -18 -123c-20 -48 -55.667 -72 -107 -72c-52 0 -87.667 19.667 -107 59c-12 24 -18 57 -18 99z
M119 482.999l0.00195312 -308.999c0 -14.667 1.33301 -25.334 4 -32.001c5.33301 -12 14.666 -18 27.999 -18c7.33301 0 14.166 2.83301 20.499 8.5s9.5 16.5 9.5 32.5v311c0 20 -2.33301 34 -7 42s-12.667 12 -24 12c-13.333 0 -21.833 -4.5 -25.5 -13.5
s-5.5 -20.167 -5.5 -33.5z" />
    <glyph glyph-name="one" unicode="1" horiz-adv-x="262" 
d="M108 179l-0.000976562 250c0 26.667 -2 47 -6 61c-6.66699 24 -20 39.667 -40 47c-12 4 -23.667 8.33301 -35 13c-4.66699 2 -7 5 -7 9v12c0 8 0.666992 13.167 2 15.5s6.33301 6.16602 15 11.499c15.333 9.33301 27 17.833 35 25.5s16.167 17.334 24.5 29.001l25.5 35.5
c6.66699 8 14 12 22 12h55c8.66699 0 15 -3 19 -9s6 -14.667 6 -26c0 -24.667 -0.333008 -44 -1 -58c-3.33301 -69.333 -5 -120 -5 -152v-170c0 -68 1.5 -118.833 4.5 -152.5s6.16699 -65.834 9.5 -96.501c0 -15.333 -4.66699 -25.666 -14 -30.999
c-5.33301 -3.33301 -13 -5 -23 -5l-30 2l-31 2l-68 -4c-13.333 -0 -22.333 2.33301 -27 7s-7 9.66699 -7 15c0 8.66699 8.33301 18.667 25 30c10.667 7.33301 19.334 15.333 26.001 24c9.33301 12 15.833 26.5 19.5 43.5s5.5 36.833 5.5 59.5z" />
    <glyph glyph-name="two" unicode="2" 
d="M142 490c0 12.667 -3.16895 22.501 -9.50195 29.501s-14.833 10.5 -25.5 10.5c-11.333 0 -20.666 -3 -27.999 -9s-13.166 -13 -17.499 -21s-6.83301 -12.333 -7.5 -13c-3.33301 -4 -7.33301 -6 -12 -6c-11.333 0 -17 7 -17 21c0 4.66699 0.5 14.834 1.5 30.501
s1.5 28.834 1.5 39.501c0 21.333 -0.333008 37.166 -1 47.499s-1.33398 20.166 -2.00098 29.499c0 21.333 8.5 36.5 25.5 45.5s43.167 13.5 78.5 13.5c46.667 0 81.667 -11.667 105 -35c21.333 -21.333 32 -51 32 -89c0 -38.667 -9.83301 -85 -29.5 -139l-45.5 -124
c-19.333 -50.667 -32.166 -86.667 -38.499 -108s-9.5 -36.666 -9.5 -45.999c0 -11.333 3 -19 9 -23c3.33301 -2 9 -3 17 -3c34.667 0 58.667 8.33301 72 25s20.666 25 21.999 25c4.66699 0 8.66699 -1 12 -3s5 -7 5 -15c-2 -19.333 -3.66699 -36.833 -5 -52.5
s-2 -30.834 -2 -45.501v-38c-1.33301 -10.667 -3.66602 -18.334 -6.99902 -23.001c-5.33301 -7.33301 -15 -11 -29 -11c-7.33301 0 -22 0.666992 -44 2s-35.667 2 -41 2c-17.333 0 -37.333 -1.66699 -60 -5c-9.33301 -1.33301 -22.333 -2 -39 -2
c-9.33301 0 -16.333 1.66699 -21 5c-8 6 -12 16 -12 30c0 8.66699 1.16699 21.5 3.5 38.5s8.5 45.833 18.5 86.5c6.66699 25.333 17.5 61.833 32.5 109.5s27.167 84.167 36.5 109.5c20.667 56 31 93 31 111z" />
    <glyph glyph-name="three" unicode="3" 
d="M178 256c0 40.667 -10.332 68.668 -30.999 84.001c-11.333 6.66699 -22.333 13.667 -33 21c-11.333 9.33301 -17 21 -17 35c0 11.333 2.5 20.333 7.5 27s14.333 13.5 28 20.5s22 13.167 25 18.5s4.5 12.333 4.5 21c0 14 -3.83301 25.5 -11.5 34.5
s-19.167 13.5 -34.5 13.5c-12 0 -21.667 -2.66699 -29 -8c-4.66699 -3.33301 -8.66699 -8 -12 -14s-6.5 -11.167 -9.5 -15.5s-7.83301 -6.5 -14.5 -6.5s-11.834 2.33301 -15.501 7s-5.5 11 -5.5 19c0 12.667 0.666992 23.667 2 33s2 23.333 2 42l-2 64
c0 15.333 6 27.666 18 36.999c16 12.667 42.333 19 79 19c38 0 68.333 -8.66699 91 -26c30 -23.333 45 -61.333 45 -114c0 -19.333 -0.5 -34.833 -1.5 -46.5s-3.33301 -24.167 -7 -37.5s-8.83398 -25.833 -15.501 -37.5s-10 -18.5 -10 -20.5s1.83301 -5 5.5 -9l10.5 -12
c10.667 -13.333 17.5 -27 20.5 -41s4.5 -30.333 4.5 -49v-113c0 -73.333 -6 -123.333 -18 -150c-18 -40 -55 -60 -111 -60c-46 0 -78.667 18.333 -98 55c-11.333 22 -17 48.333 -17 79c0 29.333 3.33301 50.666 10 63.999s14.334 20 23.001 20c6.66699 0 11.5 -2 14.5 -6
s6 -11.667 9 -23s7.83301 -20.666 14.5 -27.999s15 -11 25 -11c15.333 0 27.333 6.66699 36 20c12 18.667 18 50 18 94z" />
    <glyph glyph-name="four" unicode="4" horiz-adv-x="301" 
d="M162 278v63.999c0 29.333 3.66699 49.166 11 59.499s19.666 15.5 36.999 15.5c18.667 0 31.667 -9.33301 39 -28c4.66699 -12 7 -29.333 7 -52v-63c0 -4.66699 1 -7.66699 3 -9l9 -4c8.66699 -3.33301 15.667 -9 21 -17s8 -19.333 8 -34c0 -13.333 -3.16699 -25 -9.5 -35
s-12.5 -16 -18.5 -18s-10.667 -3.33301 -14 -4c-2.66699 -2.66699 -4 -10 -4 -22c0 -58.667 -4.33301 -97 -13 -115c-5.33301 -10.667 -15.333 -16 -30 -16c-10 0 -18.167 0.5 -24.5 1.5s-14.833 1.5 -25.5 1.5c-12.667 0 -24.167 -0.333008 -34.5 -1
s-20.166 -1.33398 -29.499 -2.00098c-6 0 -11 0.666992 -15 2s-6 5 -6 11c0 6.66699 6.16699 15.834 18.5 27.501s20.5 20.167 24.5 25.5c8 10.667 14.833 22.5 20.5 35.5s8.5 24.833 8.5 35.5c0 6 -1.83301 10.167 -5.5 12.5s-10.5 3.5 -20.5 3.5l-27 -1l-26 -2
c-19.333 0 -33.5 4.16699 -42.5 12.5s-13.5 18.833 -13.5 31.5c0 10 2 22.333 6 37l12 44c10 39.333 17.667 84.333 23 135s8 99 8 145c0 30.667 -0.5 53.834 -1.5 69.501s-1.83301 32.834 -2.5 51.501c0 6.66699 0.333008 10.667 1 12c3.33301 8 11.333 12 24 12
c7.33301 0 15.5 -0.833008 24.5 -2.5s17.167 -2.5 24.5 -2.5c12 0 24.667 0.833008 38 2.5s20.333 2.5 21 2.5c10 0 17.5 -3.5 22.5 -10.5s7.5 -19.5 7.5 -37.5c0 -30.667 -3.83301 -63.167 -11.5 -97.5s-26.167 -89.5 -55.5 -165.5l-24 -61
c-12.667 -31.333 -19 -50 -19 -56c0 -10 5 -15 15 -15h26c8.66699 0 13 7 13 21z" />
    <glyph glyph-name="five" unicode="5" 
d="M272 335l0.000976562 -154c0 -69.333 -13 -119.666 -39 -150.999c-21.333 -25.333 -51.333 -38 -90 -38c-30 0 -54.667 7.66699 -74 23c-27.333 21.333 -41 55 -41 101c0 32.667 3 55.167 9 67.5s13 18.5 21 18.5c6.66699 0 11.667 -2.66699 15 -8
c3.33301 -8.66699 6 -15 8 -19c10 -22.667 24.333 -34 43 -34c22 0 37 11.667 45 35c6 17.333 9 43.666 9 78.999c0 26.667 -2.66699 46.667 -8 60c-8.66699 22 -25.334 33 -50.001 33c-13.333 0 -24.333 -3.33301 -33 -10c-4.66699 -4.66699 -9 -8.5 -13 -11.5
s-8.33301 -4.5 -13 -4.5s-8.66699 1.33301 -12 4c-6 5.33301 -9 13.666 -9 24.999c2 20.667 3.66699 40.5 5 59.5s2 47.167 2 84.5c0 57.333 -0.666992 95.333 -2 114s-2.33301 34.667 -3 48c0 16.667 3.33301 28 10 34s15.667 9 27 9l26 -3l44 -4l30 -2
c12 0 22.5 1.5 31.5 4.5s18.833 4.5 29.5 4.5c7.33301 0 12.166 -1.66699 14.499 -5s3.5 -7.66602 3.5 -12.999l-1 -46c0 -18.667 0.333008 -33.667 1 -45s1.33398 -22 2.00098 -32c0 -18.667 -4.66699 -31.667 -14 -39c-6 -4.66699 -14.333 -7 -25 -7
c-9.33301 0 -23 1.5 -41 4.5s-28.333 4.5 -31 4.5c-10 0 -15 -5 -15 -15v-27c0 -16 5 -24 15 -24c7.33301 0 14 0.5 20 1.5s11.667 1.5 17 1.5c29.333 0 50.333 -7.33301 63 -22c15.333 -18 23 -52 23 -102z" />
    <glyph glyph-name="six" unicode="6" 
d="M28 157v393.002c0 51.333 10 89.666 30 114.999c22.667 28.667 56.334 43 101.001 43c26 0 49.5 -4.66699 70.5 -14s31.5 -23 31.5 -41c0 -4 -0.5 -10.5 -1.5 -19.5s-1.5 -23.167 -1.5 -42.5v-23.5c0 -7.66699 0.666992 -16.167 2 -25.5l3 -28c0 -16.667 -7 -25 -21 -25
c-6 0 -10.833 2.5 -14.5 7.5s-7.16699 9.5 -10.5 13.5c-6.66699 8 -13.834 13.667 -21.501 17s-15.5 5 -23.5 5c-31.333 0 -47 -18.333 -47 -55v-44c0 -3.33301 2 -6.33301 6 -9l10 4c10 4.66699 16 7.33398 18 8.00098c7.33301 2.66699 16.333 4 27 4
c22 0 39.333 -5 52 -15c22.667 -17.333 34 -49.333 34 -96v-184c0 -48.667 -10.667 -86.334 -32 -113.001s-52.333 -40 -93 -40c-50 0 -84 18.667 -102 56c-11.333 23.333 -17 59.666 -17 108.999zM122 266.002v-95c0 -18.667 2.16699 -31.5 6.5 -38.5
s11.5 -10.5 21.5 -10.5c9.33301 0 16.333 4.83301 21 14.5s7 22.5 7 38.5v81c0 12.667 -1 22.667 -3 30c-4 14.667 -12.333 22 -25 22c-11.333 0 -18.833 -4.5 -22.5 -13.5s-5.5 -18.5 -5.5 -28.5z" />
    <glyph glyph-name="seven" unicode="7" 
d="M172 470c0 17.333 -2.00098 29.6699 -6.00098 37.0029c-6.66699 12 -20.667 18 -42 18c-14 0 -24.5 -2.33301 -31.5 -7s-11.333 -8.83398 -13 -12.501s-4.16699 -9.5 -7.5 -17.5s-10 -12 -20 -12h-9c-8.66699 2 -13 9.33301 -13 22c0 12 0.333008 20.667 1 26
c3.33301 26.667 5 44.667 5 54c0 12 -1 27.667 -3 47s-3 31 -3 35c0 10.667 2 19 6 25c6.66699 10 17.667 15 33 15c12.667 0 22.667 -0.666992 30 -2s19.666 -2 36.999 -2s32.666 0.666992 45.999 2s30.333 2 51 2c14.667 0 24.834 -5.83301 30.501 -17.5
s8.5 -41.5 8.5 -89.5c0 -66.667 -2 -126.334 -6 -179.001c-7.33301 -92.667 -20.666 -181.334 -39.999 -266.001l-22.5 -98.5c-7.66699 -33 -18.167 -49.5 -31.5 -49.5c-20.667 -0 -31.667 0.833008 -33 2.5s-13 2.5 -35 2.5c-13.333 0 -24 -0.333008 -32 -1l-23 -2
c-14 0 -21 6.33301 -21 19c0 0.666992 13.333 17.667 40 51c16.667 21.333 32.334 49.333 47.001 84c18 42 32 93.833 42 155.5s15 114.5 15 158.5z" />
    <glyph glyph-name="eight" unicode="8" 
d="M24 175l-0.000976562 79c0 40.667 3.33301 70 10 88l24 40c0 0.666992 -3.5 8.66699 -10.5 24s-11.667 29 -14 41s-3.5 25.667 -3.5 41v70c0 40.667 5.66699 72.334 17 95.001c18.667 36.667 52.334 55 101.001 55c41.333 0 72.333 -14 93 -42
c18.667 -25.333 28 -60 28 -104v-84c0 -10.667 -1 -22.5 -3 -35.5s-4.5 -22 -7.5 -27l-10 -16.5c-3.66699 -6 -5.5 -10 -5.5 -12c0 -6.66699 3.33301 -13.334 10 -20.001c15.333 -16 23 -50.333 23 -103v-98c0 -48 -7 -85.667 -21 -113
c-20.667 -40.667 -56.667 -61 -108 -61c-49.333 0 -83.333 18 -102 54c-14 26.667 -21 69.667 -21 129zM117.999 286l-0.000976562 -111c0 -18 3.16699 -31.333 9.5 -40s14.5 -13 24.5 -13c12 0 20 5.83301 24 17.5s6 26.167 6 43.5v92c0 20.667 -2.5 36.667 -7.5 48
s-12.833 17 -23.5 17c-11.333 0 -19.666 -5 -24.999 -15s-8 -23 -8 -39zM149.998 430c10 0 17.333 4.16699 22 12.5s7 23.5 7 45.5c0 14 -2.5 24.667 -7.5 32s-12.167 11 -21.5 11c-12 0 -19.667 -4.5 -23 -13.5s-5 -19.167 -5 -30.5c0 -19.333 0.666992 -31.333 2 -36
c4 -14 12.667 -21 26 -21z" />
    <glyph glyph-name="nine" unicode="9" 
d="M24 386l-0.000976562 142.999c0 50.667 6 89 18 115c20 42.667 57 64 111 64c51.333 0 86.666 -20 105.999 -60c11.333 -23.333 17 -55 17 -95v-384c0 -48 -6 -85.333 -18 -112c-20 -43.333 -55.667 -65 -107 -65c-44.667 0 -76.667 15.667 -96 47
c-12.667 20.667 -19 46 -19 76c0 19.333 1.5 34.833 4.5 46.5s10.167 17.5 21.5 17.5c6.66699 0 11.834 -5.83301 15.501 -17.5s9.5 -20.5 17.5 -26.5s18.333 -9 31 -9c21.333 0 36.666 8 45.999 24c6.66699 12 10 27 10 45v60c0 4.66699 -2.66699 8.33398 -8 11.001
c-1.33301 -1.33301 -2.66602 -2.33301 -3.99902 -3l-19 -14.5c-6.66699 -5 -13.667 -9 -21 -12s-15.666 -4.5 -24.999 -4.5c-34 0 -57 15.667 -69 47c-8 21.333 -12 57 -12 107zM123.999 474.999l-0.000976562 -44c0 -24.667 1.5 -42.5 4.5 -53.5s10.833 -16.5 23.5 -16.5
c12 0 20 5.5 24 16.5s6 23.167 6 36.5v63c0 38 -10.333 57 -31 57c-11.333 0 -18.666 -6 -21.999 -18s-5 -25.667 -5 -41z" />
    <glyph glyph-name="colon" unicode=":" horiz-adv-x="160" 
d="M25 508c0 28 6.00098 48.334 18.001 61.001c10 10 23 15 39 15c16.667 0 29.667 -6 39 -18s14 -31.333 14 -58c0 -22.667 -3.66699 -41 -11 -55c-9.33301 -17.333 -24 -26 -44 -26c-22.667 0 -38.334 10.667 -47.001 32c-5.33301 13.333 -8 29.666 -8 48.999z
M25.001 77.001c0 28 6.00098 48.334 18.001 61.001c10 10 23 15 39 15c16.667 0 29.667 -6 39 -18s14 -31.333 14 -58c0 -22.667 -3.66699 -41 -11 -55c-9.33301 -17.333 -24 -26 -44 -26c-22.667 0 -38.334 10.667 -47.001 32c-5.33301 13.333 -8 29.666 -8 48.999z" />
    <glyph glyph-name="semicolon" unicode=";" horiz-adv-x="160" 
d="M25 508c0 28 6.00098 48.334 18.001 61.001c10 10 23 15 39 15c16.667 0 29.667 -6 39 -18s14 -31.333 14 -58c0 -22.667 -3.66699 -41 -11 -55c-9.33301 -17.333 -24 -26 -44 -26c-22.667 0 -38.334 10.667 -47.001 32c-5.33301 13.333 -8 29.666 -8 48.999z
M78.001 174.001c20 0 35 -8.00098 45 -24.001s15 -39 15 -69c0 -36 -8.5 -70.833 -25.5 -104.5s-36.5 -50.5 -58.5 -50.5c-6.66699 0 -11.667 2 -15 6s-5 9 -5 15c0 4.66699 4.33301 14.667 13 30c6 12 9 20.333 9 25c0 4 -1.33301 8.66699 -4 14c-4.66699 8 -9 16 -13 24
c-6.66699 14 -11.167 25.333 -13.5 34s-3.5 18 -3.5 28c0 20.667 4.83301 37.834 14.5 51.501s23.5 20.5 41.5 20.5z" />
    <glyph glyph-name="question" unicode="?" 
d="M37 565c-2.66699 26 -4 44.0029 -4 54.0029c0 18 11.667 32.667 35 44s48.333 17 75 17c27.333 0 51 -6 71 -18c35.333 -21.333 53 -59 53 -113c0 -38.667 -10 -81.334 -30 -128.001l-35 -79.5c-8 -18.333 -15 -36.5 -21 -54.5s-9 -31 -9 -39l3 -20l2 -19
c0 -26 -12.667 -39 -38 -39c-12.667 0 -23.667 5 -33 15c-12 13.333 -18 31.666 -18 54.999c0 20 2 39.167 6 57.5s10.5 39.5 19.5 63.5l29.5 76c6 17.333 9 30.333 9 39l-1 18c-2 7.33301 -5.83301 13.666 -11.5 18.999s-13.5 8 -23.5 8
c-7.33301 0 -13.333 -1.33301 -18 -4s-10.667 -7.83398 -18 -15.501l-13 -13.5c-5.33301 -4.66699 -11 -7 -17 -7c-4 0 -7.33301 1.33301 -10 4c-4.66699 4.66699 -7 12.334 -7 23.001c0 6.66699 0.666992 16 2 28s2 21.667 2 29zM82 71.0029c0 22 4.99902 39 14.999 51
s24 18 42 18c18.667 0 32.167 -6.33301 40.5 -19s12.5 -29.334 12.5 -50.001c0 -28.667 -6 -49 -18 -61c-9.33301 -9.33301 -21.666 -14 -36.999 -14c-16 0 -28.667 5.33301 -38 16c-11.333 12.667 -17 32.334 -17 59.001z" />
    <glyph glyph-name="A" unicode="A" horiz-adv-x="360" 
d="M176 116c-14 0 -25.167 -4.49902 -33.5 -13.499s-12.5 -20.167 -12.5 -33.5c0 -8 1.5 -15.167 4.5 -21.5l7.5 -15.5c2 -4 3 -7.66699 3 -11c0 -6 -1.66699 -11 -5 -15s-9.33301 -6 -18 -6c-6 0 -13.167 0.833008 -21.5 2.5s-17.166 2.5 -26.499 2.5l-22 -2l-24 -3
c-12 0 -18 6 -18 18c0 3.33301 0.666992 8.16602 2 14.499s2.5 11.666 3.5 15.999s3.16699 17 6.5 38s6.5 45.333 9.5 73l9.5 88.5c10 82 16.667 139.333 20 172c7.33301 124.667 11.833 202.334 13.5 233.001s13.5 46 35.5 46c6.66699 0 17.5 -0.5 32.5 -1.5
s25.167 -1.5 30.5 -1.5c16.667 0 28 0.666992 34 2s20 2 42 2c10.667 0 18.667 -2.33301 24 -7s8 -14.334 8 -29.001c0 -38.667 2.66699 -88 8 -148l10 -109c0 -80.667 2.33301 -141 7 -181c2 -16 9.33301 -56 22 -120l12 -54l6 -17.5c2.66699 -7.66699 4 -12.834 4 -15.501
c0 -12.667 -7.33301 -19 -22 -19l-20 3l-23 3h-19c-4.66699 0 -10.667 -1 -18 -3l-21 -3c-6.66699 0 -11.834 2.5 -15.501 7.5s-5.5 9.5 -5.5 13.5c0 6.66699 2.5 13.834 7.5 21.501s7.5 16.834 7.5 27.501c0 12.667 -3 23 -9 31c-8 10 -20 15 -36 15zM176 222.001
c11.333 0 19.333 3.99805 24 11.998c2.66699 4.66699 4 10.334 4 17.001v88c0 40.667 -2.5 76.5 -7.5 107.5s-11.167 46.5 -18.5 46.5c-8 0 -15 -29.167 -21 -87.5s-9 -98.833 -9 -121.5v-17c0 -15.333 1.66699 -26.666 5 -33.999s11 -11 23 -11z" />
    <glyph glyph-name="B" unicode="B" horiz-adv-x="341" 
d="M37 199l-0.00390625 299.002c0 19.333 -0.333008 38.5 -1 57.5l-2 55.5c-1.33301 12.667 -2.66602 24.5 -3.99902 35.5s-2 19.5 -2 25.5c0 11.333 2.33301 18.833 7 22.5s11 5.5 19 5.5l41 -2l42 -1c14.667 0 27.834 0.333008 39.501 1l34.5 2
c30 0 53.333 -17.167 70 -51.5s25 -79.166 25 -134.499c0 -27.333 -1.66699 -50.833 -5 -70.5s-10.666 -37.167 -21.999 -52.5c-3.33301 -4 -7.16602 -9 -11.499 -15s-6.5 -10.333 -6.5 -13c0 -4 3.33301 -11.667 10 -23s11 -19 13 -23c11.333 -22 20.333 -47.333 27 -76
s10 -57.334 10 -86.001c0 -42.667 -9.33301 -78.334 -28 -107.001c-20.667 -32 -49.334 -48 -86.001 -48c-4 0 -13.5 0.833008 -28.5 2.5s-32.5 2.5 -52.5 2.5c-27.333 0 -45.666 -0.666992 -54.999 -2s-18 -2.33301 -26 -3c-10 0 -16.667 2.5 -20 7.5s-5 10.833 -5 17.5
c4 20 7.83301 42.667 11.5 68s5.5 60.666 5.5 105.999zM146.996 527.002l-0.000976562 -37c0 -14 3.33301 -24 10 -30s14.334 -9 23.001 -9c9.33301 0 16.333 4.66699 21 14s7 24 7 44c0 18.667 -3 32 -9 40s-14.333 12 -25 12c-10 0 -17 -3.16699 -21 -9.5
s-6 -14.5 -6 -24.5zM146.995 291.002v-145.002c0 -11.333 1.5 -20.166 4.5 -26.499s11.167 -9.5 24.5 -9.5c12 0 20 2.33301 24 7c7.33301 8.66699 11 26 11 52c0 32.667 -6.5 65.334 -19.5 98.001s-24.833 49 -35.5 49c-4 0 -6.5 -2.33301 -7.5 -7s-1.5 -10.667 -1.5 -18z
" />
    <glyph glyph-name="C" unicode="C" horiz-adv-x="298" 
d="M30 264l-0.00390625 148.999c0 108 13.333 185 40 231c24.667 42.667 63.334 64 116.001 64c25.333 0 47 -3 65 -9s27 -15.667 27 -29c0 -2 -0.833008 -9.33301 -2.5 -22s-2.5 -29 -2.5 -49c0 -14.667 0.333008 -27 1 -37s1.66699 -20 3 -30
c0 -13.333 -2.16699 -23 -6.5 -29s-8.83301 -9 -13.5 -9s-8.66699 1 -12 3s-8.66602 6.83301 -15.999 14.5s-12.666 12.5 -15.999 14.5c-6.66699 4 -15 6 -25 6c-22 0 -35.5 -10.5 -40.5 -31.5s-7.5 -55.5 -7.5 -103.5v-94c0 -56 2.33301 -94 7 -114
c8.66699 -36.667 27.334 -55 56.001 -55c9.33301 0 16.833 1.83301 22.5 5.5s11.167 8.83398 16.5 15.501c6 9.33301 13 14 21 14c6 0 9.83301 -2.16699 11.5 -6.5s2.5 -9.16602 2.5 -14.499l-1 -50l1 -50c0 -16 -4 -28 -12 -36c-13.333 -13.333 -38.333 -20 -75 -20
c-49.333 0 -87 17.333 -113 52c-31.333 41.333 -47 114.666 -47 219.999z" />
    <glyph glyph-name="D" unicode="D" horiz-adv-x="345" 
d="M34 179v379c0 30.667 -1.66699 55.167 -5 73.5s-5 32.833 -5 43.5c0 16.667 7.33301 25 22 25c5.33301 0 11.333 -0.666992 18 -2s17 -2 31 -2c12.667 0 28.167 0.666992 46.5 2s33.5 2 45.5 2c36.667 0 64.667 -7.66699 84 -23c29.333 -23.333 44 -66 44 -128v-364
c0 -52.667 -4 -90.667 -12 -114c-16 -47.333 -50.333 -71 -103 -71c-25.333 -0 -40.833 0.833008 -46.5 2.5s-15.167 2.5 -28.5 2.5l-43 -2l-39 -3c-15.333 -0 -23 6.33301 -23 19c3.33301 12 6.5 29.833 9.5 53.5s4.5 59.167 4.5 106.5zM144 453l-0.000976562 -233.999v-35
c0 -20.667 1.66699 -36.667 5 -48s10 -17 20 -17c14.667 0 24.334 8.5 29.001 25.5s7 39.5 7 67.5v37v140v21c0 37.333 -1.66699 64.666 -5 81.999c-5.33301 28 -15.333 42 -30 42c-10.667 0 -17.667 -6.33301 -21 -19s-5 -28.667 -5 -48v-14z" />
    <glyph glyph-name="E" unicode="E" horiz-adv-x="320" 
d="M37 154l0.00195312 400.999c0 45.333 -2.5 72 -7.5 80s-7.5 21.333 -7.5 40c0 6.66699 2.83301 12.5 8.5 17.5s15.5 7.5 29.5 7.5c7.33301 0 19.666 -0.833008 36.999 -2.5s37.333 -2.5 60 -2.5c40 0 65.833 0.833008 77.5 2.5s20.834 2.5 27.501 2.5s12.5 -2 17.5 -6
s7.5 -11.667 7.5 -23c0 -4 -0.666992 -14.333 -2 -31s-2 -33.667 -2 -51c0 -9.33301 0.166992 -18.333 0.5 -27s1.66602 -17.834 3.99902 -27.501s3.5 -17.167 3.5 -22.5c0 -20.667 -8 -31 -24 -31c-6.66699 0 -13.667 4.33301 -21 13
c-4.66699 5.33301 -9 10.666 -13 15.999c-12.667 13.333 -26.667 20 -42 20c-13.333 0 -24 -4.33301 -32 -13s-12 -20.334 -12 -35.001c0 -8.66699 1 -15 3 -19c7.33301 -14.667 24 -22 50 -22c5.33301 0 14.5 0.666992 27.5 2s20.167 2 21.5 2
c17.333 0 30.333 -4.66699 39 -14c6.66699 -7.33301 10 -16.666 10 -27.999c0 -10 -3.83301 -19.5 -11.5 -28.5s-19.5 -13.5 -35.5 -13.5h-79c-8 0 -14.167 -3 -18.5 -9s-6.5 -16.667 -6.5 -32v-152c0 -22 3.33301 -36.333 10 -43c4.66699 -4.66699 12.667 -7 24 -7
c14 0 26 1 36 3s20.667 7.66699 32 17c3.33301 2.66699 9 8.33398 17 17.001c5.33301 6 11 9 17 9c11.333 0 17 -7.66699 17 -23c0 -13.333 -0.666992 -22.666 -2 -27.999s-2 -12.666 -2 -21.999l1 -30l1 -29c0 -10.667 -1.66699 -18 -5 -22
c-5.33301 -6.66699 -15.333 -10 -30 -10c-46 -0 -72.333 0.333008 -79 1c-26 2.66699 -48.333 4 -67 4c-26.667 0 -42.834 -0.833008 -48.501 -2.5s-15.167 -2.5 -28.5 -2.5s-20 6 -20 18c0 4 1.16699 10 3.5 18s4.66602 18.5 6.99902 31.5s3.83301 27.5 4.5 43.5
s1.33398 30.333 2.00098 43z" />
    <glyph glyph-name="F" unicode="F" horiz-adv-x="313" 
d="M37 165l0.000976562 365.002c0 40 -1.83301 69.333 -5.5 88l-11.5 57c0 10 3 16.667 9 20s12.667 5 20 5l41 -3l43 -2c20.667 0 36.334 0.333008 47.001 1c43.333 2.66699 67.333 4 72 4c15.333 0 26.333 -4.33301 33 -13s10 -21 10 -37
c0 -22 -0.833008 -37.833 -2.5 -47.5s-3.16699 -19.834 -4.5 -30.501l2 -27l2 -29c0 -13.333 -2.66699 -23 -8 -29s-11.333 -9 -18 -9c-10 0 -20.833 8.16699 -32.5 24.5s-26.834 24.5 -45.501 24.5c-17.333 0 -29.333 -6 -36 -18c-4 -7.33301 -6 -16.666 -6 -27.999
s2.33301 -20 7 -26c7.33301 -8.66699 20.333 -13 39 -13c11.333 0 22 1 32 3s19 3 27 3c34.667 0 52 -15 52 -45c0 -12.667 -3.5 -22.834 -10.5 -30.501s-17.167 -11.5 -30.5 -11.5h-89c-12 0 -19.333 -4.33301 -22 -13s-4 -30.334 -4 -65.001v-106
c0 -31.333 1.66699 -55.666 5 -72.999s8.66602 -31 15.999 -41c4 -5.33301 11.667 -12.333 23 -21c8.66699 -6.66699 13 -13.667 13 -21c0 -8.66699 -2.83301 -14.334 -8.5 -17.001s-12.167 -4 -19.5 -4c-12.667 0 -26.5 0.5 -41.5 1.5s-24.5 1.5 -28.5 1.5
c-18 0 -31.167 -0.5 -39.5 -1.5s-16.833 -1.5 -25.5 -1.5c-12.667 0 -19 5.66699 -19 17c4 17.333 7.5 38.833 10.5 64.5s4.5 53.5 4.5 83.5z" />
    <glyph glyph-name="G" unicode="G" horiz-adv-x="352" 
d="M174 370l-0.00390625 64.998c0 10.667 6 16 18 16c8.66699 0 16.334 -0.833008 23.001 -2.5s15 -2.5 25 -2.5c16.667 0 28 0.833008 34 2.5s14 2.5 24 2.5c8.66699 0 15.334 -2.16699 20.001 -6.5s7 -8.5 7 -12.5c-1.33301 -10 -2.66602 -22.5 -3.99902 -37.5
s-2 -32.833 -2 -53.5v-231c0 -20 1.66699 -36.667 5 -50c1.33301 -5.33301 3 -11.166 5 -17.499s3 -13.166 3 -20.499c0 -10.667 -4.5 -18.334 -13.5 -23.001s-27.167 -7 -54.5 -7c-72.667 0 -132.667 42.667 -180 128c-42.667 77.333 -64 164.666 -64 261.999
c0 94 16.667 170.333 50 229c36.667 64.667 89.334 97 158.001 97c34.667 0 59.334 -5.66699 74.001 -17c10.667 -8 16 -18.667 16 -32s-0.5 -23.333 -1.5 -30s-1.5 -17.667 -1.5 -33c0 -16 1.16699 -31.333 3.5 -46s3.5 -25.667 3.5 -33c0 -20.667 -6 -31 -18 -31
c-6 0 -12.667 3 -20 9l-18 18c-14.667 14 -31.334 21 -50.001 21c-30 0 -52.667 -19.333 -68 -58c-12 -30 -18 -66.667 -18 -110c0 -55.333 10.333 -107.666 31 -156.999c18 -43.333 34 -65 48 -65c6 0 9.16699 4.33301 9.5 13s0.5 14 0.5 16v146
c0 10.667 -0.333008 17.334 -1 20.001c-2.66699 9.33301 -8.66699 15.333 -18 18l-6 1c-7.33301 0 -12.5 0.5 -15.5 1.5s-4.5 4.5 -4.5 10.5z" />
    <glyph glyph-name="H" unicode="H" horiz-adv-x="376" 
d="M41 156l0.00488281 389.001c0 27.333 -2.33301 50.666 -7 69.999l-14 61c0 15.333 7.66699 23 23 23c6 0 15 -0.5 27 -1.5s24 -1.5 36 -1.5c29.333 2 47 3 53 3c7.33301 0 12.5 -1.83301 15.5 -5.5s4.5 -7.83398 4.5 -12.501c0 -6.66699 -1.66699 -13.667 -5 -21
s-6 -13.666 -8 -18.999s-3.83301 -11.333 -5.5 -18s-2.5 -15 -2.5 -25c0 -13.333 2.66699 -23.833 8 -31.5s14 -11.5 26 -11.5c9.33301 0 16.833 4.83301 22.5 14.5s8.5 20.5 8.5 32.5c0 11.333 -1 20.166 -3 26.499s-5.16699 13.666 -9.5 21.999l-9 17.5
c-1.66699 3.33301 -2.5 7 -2.5 11c0 5.33301 1.5 10 4.5 14s8.83301 6 17.5 6l29 -2l21 -1c16.667 0 29 0.333008 37 1s16.667 1.66699 26 3c7.33301 0 12.833 -2.16699 16.5 -6.5s5.5 -10.166 5.5 -17.499c-6.66699 -18.667 -12.334 -43.667 -17.001 -75
s-7 -71.333 -7 -120v-278c0 -28 0.833008 -51.833 2.5 -71.5s4.16699 -36.5 7.5 -50.5c1.33301 -5.33301 4.66602 -17.666 9.99902 -36.999c2.66699 -9.33301 4 -17 4 -23c0 -8 -2.33301 -13.5 -7 -16.5s-10.334 -4.5 -17.001 -4.5c-14.667 0 -23.334 0.666992 -26.001 2
s-11 2 -25 2c-11.333 0 -21 -0.666992 -29 -2s-16.667 -2 -26 -2c-13.333 -0 -20 6.33301 -20 19c0 10 3.33301 32.667 10 68c4 21.333 6 44.333 6 69v148c0 30 -1.66699 51.833 -5 65.5s-12.666 20.5 -27.999 20.5c-16 0 -26.333 -12.333 -31 -37s-7 -73.667 -7 -147
c0 -50 2 -90 6 -120l14 -66c0 -8.66699 -2.5 -14 -7.5 -16s-11.167 -3 -18.5 -3c-18.667 0 -30.834 0.166992 -36.501 0.5s-10.834 1.16602 -15.501 2.49902l-33 -2l-22 -2c-11.333 0 -17 6.33301 -17 19c0 2.66699 1.33301 8.16699 4 16.5s5.16699 18.5 7.5 30.5
s4.33301 24.833 6 38.5s2.5 30.834 2.5 51.501z" />
    <glyph glyph-name="I" unicode="I" horiz-adv-x="176" 
d="M33 201l0.00292969 330c0 34.667 -1.33301 62.334 -4 83.001s-5.33398 42.667 -8.00098 66c0 13.333 7.33301 20 22 20l50 -3c9.33301 0 17.166 0.333008 23.499 1l18.5 2c7.33301 0 12.666 -1.33301 15.999 -4s5 -7 5 -13c0 -5.33301 -1.33301 -15.166 -4 -29.499
s-4.16699 -23 -4.5 -26s-1.16602 -14.167 -2.49902 -33.5s-2 -39.666 -2 -60.999v-336c0 -21.333 0.333008 -42.333 1 -63s1.66699 -38.334 3 -53.001c2.66699 -10.667 4.16699 -20.5 4.5 -29.5s0.5 -19.167 0.5 -30.5c0 -14 -8 -21 -24 -21c-10 0 -20.5 0.5 -31.5 1.5
s-17.167 1.5 -18.5 1.5l-20 -1l-22 -2c-10.667 0 -16 5.66699 -16 17c0 4.66699 0.333008 8.66699 1 12c3.33301 17.333 5.66602 32.666 6.99902 45.999c0 22 0.833008 47.167 2.5 75.5s2.5 45.166 2.5 50.499z" />
    <glyph glyph-name="J" unicode="J" horiz-adv-x="271" 
d="M121 219l0.00292969 372.999c0 10 -0.833008 20.167 -2.5 30.5s-3.33398 17.833 -5.00098 22.5s-3.83398 9.83398 -6.50098 15.501s-4 11.5 -4 17.5c0 8.66699 2.33301 14.5 7 17.5s9.66699 4.5 15 4.5c3.33301 0 10.666 -0.666992 21.999 -2s21 -2 29 -2
c9.33301 0 18 0.333008 26 1s17 1.66699 27 3c8 0 13.667 -1.33301 17 -4s5 -7.33398 5 -14.001c0 -3.33301 -0.333008 -6.66602 -1 -9.99902c-2.66699 -10 -5 -19.333 -7 -28c-8 -35.333 -12 -69.333 -12 -102v-392c0 -41.333 -5 -72.666 -15 -93.999
c-20 -42.667 -58.667 -64 -116 -64c-30.667 0 -54.5 4.33301 -71.5 13s-25.5 21 -25.5 37c0 2 0.666992 9.16699 2 21.5s2 22.5 2 30.5v11c0 12 -1.16699 23.5 -3.5 34.5s-3.5 19.167 -3.5 24.5c0 7.33301 1.5 13.166 4.5 17.499s8.16699 6.5 15.5 6.5
c6 0 11.333 -3.33301 16 -10l10 -20c7.33301 -13.333 18.333 -20 33 -20c17.333 0 29.333 10 36 30c4 12.667 6 29.667 6 51z" />
    <glyph glyph-name="K" unicode="K" horiz-adv-x="363" 
d="M33 103l0.00488281 470.999c0 30.667 -2.16699 51 -6.5 61s-6.5 24.333 -6.5 43c0 5.33301 1.83301 10.333 5.5 15s10.167 7 19.5 7s17.5 -0.5 24.5 -1.5s13.167 -1.5 18.5 -1.5c15.333 0 26.666 0.5 33.999 1.5s15.666 1.5 24.999 1.5c4 0 7.83301 -1 11.5 -3
s5.5 -6.33301 5.5 -13l-14 -45.5c-4.66699 -15 -7 -29.167 -7 -42.5c0 -16.667 3.5 -29.5 10.5 -38.5s15.833 -13.5 26.5 -13.5c12 0 20.833 5.33301 26.5 16s8.5 22.667 8.5 36c0 8.66699 -0.833008 16 -2.5 22s-5.83398 16 -12.501 30l-9 18c-2 4 -3 7.66699 -3 11
c0 5.33301 1 9.66602 3 12.999c4.66699 6.66699 12.334 10 23.001 10c10 0 18.333 -0.666992 25 -2s12.667 -2 18 -2c7.33301 0 15.333 0.666992 24 2s16 2 22 2c9.33301 0 16.833 -3.33301 22.5 -10s8.5 -20.667 8.5 -42c0 -22 -4 -45 -12 -69
c-5.33301 -16 -13.333 -34 -24 -54l-22 -40c-5.33301 -12 -8 -24.667 -8 -38c0 -18 3 -47.667 9 -89c4 -29.333 9.5 -61.166 16.5 -95.499s14.167 -64.833 21.5 -91.5c5.33301 -19.333 14.666 -49 27.999 -89c7.33301 -20.667 11.333 -32 12 -34
c5.33301 -14 8 -22.667 8 -26c0 -14.667 -5 -22 -15 -22l-49 2c-8.66699 0 -16.834 -0.166992 -24.501 -0.5s-14.834 -0.833008 -21.501 -1.5c-16 0 -27.167 21 -33.5 63l-19.5 135.5l-16 115.5c-8 52 -16 78 -24 78c-4.66699 0 -8.66699 -6.66699 -12 -20
s-5 -35.333 -5 -66v-97c0 -26.667 1.16699 -52.667 3.5 -78s5.83301 -47 10.5 -65c2.66699 -10 6 -20.167 10 -30.5s6 -16.833 6 -19.5c0 -5.33301 -2 -9.33301 -6 -12s-8.66699 -4 -14 -4c-2.66699 0 -8.66699 0.666992 -18 2s-20 2 -32 2c-11.333 0 -21.333 -0.5 -30 -1.5
s-17.667 -1.83301 -27 -2.5c-6.66699 0 -11.167 2.16699 -13.5 6.5s-3.5 10.5 -3.5 18.5c0 4 0.666992 16.333 2 37s2 34.334 2 41.001z" />
    <glyph glyph-name="L" unicode="L" horiz-adv-x="278" 
d="M29 84l0.00195312 491.001c0 32.667 -1.5 53.667 -4.5 63s-4.5 23 -4.5 41c0 14 7.66699 21 23 21c5.33301 0 12 -0.5 20 -1.5s13.667 -1.5 17 -1.5c9.33301 0 19.5 0.5 30.5 1.5s17.5 1.5 19.5 1.5c16 0 24 -6.33301 24 -19c0 -8.66699 -1.33301 -16 -4 -22
c-7.33301 -16.667 -11 -39 -11 -67v-383c0 -26.667 2.66699 -45.834 8 -57.501s17.333 -17.5 36 -17.5c17.333 0 31.166 6.83301 41.499 20.5s18.5 20.5 24.5 20.5c12.667 0 19 -8.33301 19 -25c0 -13.333 -0.666992 -22.333 -2 -27s-2 -15 -2 -31
c0 -15.333 0.333008 -27.333 1 -36s1 -16.667 1 -24c0 -9.33301 -2.5 -16.833 -7.5 -22.5s-14.833 -8.5 -29.5 -8.5c-6.66699 0 -21.334 0.5 -44.001 1.5s-43.334 1.5 -62.001 1.5c-23.333 0 -40.166 -0.5 -50.499 -1.5s-20.5 -1.83301 -30.5 -2.5c-8 0 -13 2 -15 6
s-3 9 -3 15c0 14 0.833008 23 2.5 27s2.5 16 2.5 36z" />
    <glyph glyph-name="M" unicode="M" horiz-adv-x="418" 
d="M37 237l-0.000976562 277.999c0 23.333 -0.333008 44 -1 62s-1.83398 32.833 -3.50098 44.5s-3.5 23 -5.5 34s-3 18.833 -3 23.5c0 5.33301 1.66699 10 5 14s9.33301 6 18 6c8 0 15.667 -0.666992 23 -2s14.666 -2 21.999 -2c8 0 16.167 0.833008 24.5 2.5
s12.833 2.5 13.5 2.5c12.667 0 21 -8.33301 25 -25l11 -46c11.333 -39.333 18 -61 20 -65c6 -12 13 -18 21 -18c4.66699 0 10.334 5.66699 17.001 17s14.667 30.333 24 57l16 48c8 20.667 18.667 31 32 31c4.66699 0 10 -0.5 16 -1.5s12 -1.5 18 -1.5
c13.333 0 21.333 0.666992 24 2s9.66699 2 21 2c5.33301 0 10.166 -1.33301 14.499 -4s6.5 -8 6.5 -16c0 -4.66699 -1 -11.334 -3 -20.001l-6 -27c-2 -9.33301 -3.33301 -18 -4 -26s-1 -23 -1 -45v-383c0 -33.333 1.33301 -60.333 4 -81
c4.66699 -24.667 7.83398 -43 9.50098 -55s2.5 -19.333 2.5 -22c0 -10 -2 -16 -6 -18s-10.667 -3 -20 -3c-6 0 -13.167 0.333008 -21.5 1s-17.166 1.66699 -26.499 3c-9.33301 0 -17.666 -0.666992 -24.999 -2s-15.333 -2 -24 -2c-14.667 0 -22 5.66699 -22 17
c5.33301 16 9.83301 32.5 13.5 49.5s5.5 35.167 5.5 54.5v272c0 4.66699 -1 8 -3 10c-1.33301 0 -2.33301 0.333008 -3 1c-4.66699 0 -13.667 -17.667 -27 -53c-6 -15.333 -9.33301 -23.666 -10 -24.999c-6 -10 -12.667 -15 -20 -15c-9.33301 0 -18 7.66699 -26 23
c-0.666992 2 -5.33398 14.333 -14.001 37l-8 25c-2.66699 5.33301 -5.66699 8 -9 8c-2 0 -3.66699 -3 -5 -9v-272c0 -25.333 3.16699 -47.166 9.5 -65.499s9.5 -30.833 9.5 -37.5s-2.33301 -11.667 -7 -15s-10 -5 -16 -5c-2.66699 0 -9 0.666992 -19 2s-20.333 2 -31 2
c-12.667 0 -23.667 -0.666992 -33 -2s-15.666 -2 -18.999 -2c-14 0 -21 7 -21 21c0 4 1.33301 11.5 4 22.5s5 24.333 7 40s3.5 36 4.5 61s1.5 55.833 1.5 92.5z" />
    <glyph glyph-name="N" unicode="N" horiz-adv-x="378" 
d="M47 103v420.002c0 36 -1.66699 62.667 -5 80s-9.33301 36.666 -18 57.999c-2.66699 8 -4 13.667 -4 17c0 14.667 6.66699 22 20 22c4 0 9.66699 -0.5 17 -1.5s14 -1.5 20 -1.5c7.33301 0 13.5 0.333008 18.5 1l14.5 2c12.667 0 24.667 -6.33301 36 -19
c8 -8.66699 19 -24.667 33 -48l37 -60c5.33301 -8.66699 9 -13 11 -13s3.66699 3 5 9v26c0 8 -1.33301 19.5 -4 34.5s-5.83398 25.833 -9.50098 32.5l-11.5 21c0 4 1.83301 7.83301 5.5 11.5s9.83398 5.5 18.501 5.5l53 -3c11.333 0 19.833 0.5 25.5 1.5
s14.834 1.5 27.501 1.5c5.33301 0 10.166 -1 14.499 -3s6.5 -6.66699 6.5 -14c-3.33301 -12 -6.5 -28.5 -9.5 -49.5s-4.5 -47.5 -4.5 -79.5v-428c0 -22.667 1.33301 -42.334 4 -59.001s5.66699 -33.334 9 -50.001c0 -11.333 -6.66699 -17 -20 -17
c-4.66699 0 -12.334 0.666992 -23.001 2s-18.334 2 -23.001 2c-11.333 0 -19 -0.666992 -23 -2s-12 -2 -24 -2c-15.333 0 -23 7 -23 21c0 1.33301 2.66699 14 8 38c3.33301 15.333 5 30.666 5 45.999v136c0 30.667 -8.5 66.834 -25.5 108.501s-32.167 62.5 -45.5 62.5
c-4.66699 0 -7 -8.33301 -7 -25v-13.5c0 -4.33301 0.333008 -8.5 1 -12.5v-244c0 -28.667 4.33301 -53.334 13 -74.001c4.66699 -11.333 7 -20 7 -26s-1.66699 -10.333 -5 -13s-8.66602 -4 -15.999 -4l-20 1l-30 2c-11.333 0 -21 -0.333008 -29 -1l-23 -2
c-9.33301 0 -15.666 1.66699 -18.999 5s-5 8 -5 14c0 2.66699 0.333008 5.33398 1 8.00098s2.66699 8.33398 6 17.001c6.66699 18 10 37.667 10 59z" />
    <glyph glyph-name="O" unicode="O" horiz-adv-x="338" 
d="M30 157v339.001c0 74.667 11.833 128.667 35.5 162s60.5 50 110.5 50c52.667 0 89.667 -20.333 111 -61c14 -26.667 21 -60.667 21 -102v-378c0 -54 -11.667 -96.667 -35 -128s-57 -47 -101 -47c-44.667 0 -79.5 14.167 -104.5 42.5s-37.5 69.166 -37.5 122.499z
M140 492.001v-319c0 -18 2.33301 -30.5 7 -37.5s11.667 -10.5 21 -10.5c10 0 17.5 4.16699 22.5 12.5s7.5 21.5 7.5 39.5v320c0 15.333 -1 26 -3 32c-4 12.667 -12.667 19 -26 19s-21.5 -5 -24.5 -15s-4.5 -23.667 -4.5 -41z" />
    <glyph glyph-name="P" unicode="P" horiz-adv-x="341" 
d="M35 231l-0.00292969 264.998c0 56 -1.16699 97 -3.5 123s-3.5 43.667 -3.5 53c0 10 2.83301 17.167 8.5 21.5s14.167 6.5 25.5 6.5c61.333 0 104 -3 128 -9c36 -9.33301 65 -29.666 87 -60.999c12 -17.333 21.667 -38.666 29 -63.999c10 -34.667 15 -75.334 15 -122.001
c0 -90.667 -15.667 -156.667 -47 -198c-21.333 -28 -50.666 -45.333 -87.999 -52c-20.667 -3.33301 -32.667 -6.16602 -36 -8.49902s-5 -10.5 -5 -24.5c0 -22 2.5 -42.333 7.5 -61s13.167 -35 24.5 -49c8.66699 -10.667 13.5 -17.167 14.5 -19.5s1.5 -6.83301 1.5 -13.5
c0 -12 -6.66699 -18 -20 -18l-33 3l-36 2c-17.333 0 -29.666 -0.833008 -36.999 -2.5s-14.666 -2.5 -21.999 -2.5c-10.667 -0 -17.5 2.83301 -20.5 8.5s-4.5 10.167 -4.5 13.5c0 18 1.33301 34 4 48c7.33301 38 11 91.667 11 161zM144.997 406.998
c0 -38 0.666992 -61.333 2 -70c4 -24.667 12.667 -37 26 -37c10.667 0 19.667 8.83301 27 26.5s11 45.834 11 84.501c0 31.333 -4 56.333 -12 75s-17.667 28 -29 28c-12.667 0 -20 -10.333 -22 -31s-3 -40.334 -3 -59.001v-17z" />
    <glyph glyph-name="Q" unicode="Q" horiz-adv-x="336" 
d="M30 157l0.00195312 343c0 70 10.667 121 32 153c24.667 36.667 62.667 55 114 55c52.667 0 89.667 -20.333 111 -61c14 -26.667 21 -60.667 21 -102v-374c0 -34.667 -3.83301 -62.667 -11.5 -84s-18.5 -39 -32.5 -53c-5.33301 -4.66699 -12 -9 -20 -13
s-12 -7.33301 -12 -10c0 -7.33301 4 -11 12 -11c6.66699 0 12 2.16699 16 6.5s6.66699 6.83301 8 7.5c4.66699 4 10.667 6 18 6c9.33301 0 16.666 -3.33301 21.999 -10s8 -14.667 8 -24c0 -14.667 -6.83301 -27.667 -20.5 -39s-32.5 -17 -56.5 -17
c-21.333 0 -39.5 6 -54.5 18s-26.5 27.667 -34.5 47c-34.667 0 -63.334 14.5 -86.001 43.5s-34 68.5 -34 118.5zM140.002 492v-319v-24c1.33301 -12 5.33301 -18 12 -18c3.33301 0 5.66602 4.83301 6.99902 14.5s6 14.5 14 14.5c4.66699 0 8.83398 -1.83301 12.501 -5.5
s5.5 -8.5 5.5 -14.5c4.66699 6.66699 7 19 7 37v320c0 12.667 -0.666992 22.5 -2 29.5s-4.33301 12.333 -9 16s-10.667 5.5 -18 5.5c-16.667 0 -25.667 -6.66699 -27 -20s-2 -25.333 -2 -36z" />
    <glyph glyph-name="R" unicode="R" horiz-adv-x="346" 
d="M40 170l-0.00195312 389.999c0 38 -2.66699 68.333 -8 91c-2.66699 11.333 -4 20.333 -4 27c0 14.667 8.33301 22 25 22l19 -2c7.33301 -1.33301 14.5 -2 21.5 -2h22.5c16 0 30 0.666992 42 2s20.667 2 26 2c36.667 0 67.334 -10.333 92.001 -31
c30 -25.333 45 -61 45 -107v-121c0 -30.667 -1.33301 -52.667 -4 -66c-4.66699 -23.333 -15 -45.333 -31 -66c-3.33301 -4 -6.5 -8.16699 -9.5 -12.5s-4.5 -9.16602 -4.5 -14.499c0 -9.33301 1 -20 3 -32c4.66699 -20 8.33398 -37.667 11.001 -53
c11.333 -58 21.333 -99.333 30 -124l20 -56c0 -4 -1.33301 -7.83301 -4 -11.5s-7.33398 -5.5 -14.001 -5.5l-23 2l-20 2l-18 -2l-23 -2c-14 -0 -22.667 6.33301 -26 19l-10 67c-20 122.667 -34 184 -42 184c-2 0 -3.33301 -1.33301 -4 -4l-2 -8v-120l5 -69
c1.33301 -8.66699 3.5 -18.334 6.5 -29.001s4.5 -17 4.5 -19c0 -9.33301 -1.66699 -15.166 -5 -17.499s-8.66602 -3.5 -15.999 -3.5l-21 1l-29 2l-35 -2l-19 -1c-8 -0 -13.5 1.83301 -16.5 5.5s-4.5 9.5 -4.5 17.5s4.33301 30.667 13 68c4.66699 20 7 46.333 7 79z
M149.998 526.999l0.00195312 -83.002c0 -7.33301 2.66699 -13.666 8 -18.999s12.666 -8 21.999 -8c10.667 0 18.5 2.83301 23.5 8.5s7.5 13.834 7.5 24.501v63c0 15.333 -2.83301 26.833 -8.5 34.5s-13.834 11.5 -24.501 11.5c-8.66699 0 -15.5 -3.16699 -20.5 -9.5
s-7.5 -13.833 -7.5 -22.5z" />
    <glyph glyph-name="S" unicode="S" horiz-adv-x="286" 
d="M140 166c0 8.66699 -9.99805 36.998 -29.998 84.998c-15.333 36 -27.333 66 -36 90c-10.667 29.333 -19.5 57.5 -26.5 84.5s-12.667 52.333 -17 76s-6.5 45.5 -6.5 65.5c0 43.333 13 77.666 39 102.999s62 38 108 38c39.333 0 67.666 -6.66699 84.999 -20
c12 -9.33301 18 -21 18 -35c0 -7.33301 -0.833008 -19.333 -2.5 -36s-2.5 -30.334 -2.5 -41.001v-18c2 -14 3.33301 -24.333 4 -31l3 -32c0 -9.33301 -1.66699 -15.666 -5 -18.999s-8 -5 -14 -5c-4.66699 0 -8.83398 1.66699 -12.501 5s-7.16699 7.33301 -10.5 12
c-2.66699 6 -6.66699 11.333 -12 16c-9.33301 8.66699 -19.333 13 -30 13c-12 0 -20.833 -4.33301 -26.5 -13s-8.5 -18 -8.5 -28c0 -11.333 2.66699 -26.833 8 -46.5s19 -59.167 41 -118.5l45 -121c12 -34.667 18 -63 18 -85c0 -40.667 -15.333 -71 -46 -91
c-22.667 -14.667 -49 -22 -79 -22c-27.333 0 -54 4 -80 12c-35.333 10.667 -53 25.334 -53 44.001l3 30l3 32c0 4 -0.166992 8.83301 -0.5 14.5s-1.5 13.167 -3.5 22.5l-3 21c0 8.66699 2.16699 14.834 6.5 18.501s9.83301 5.5 16.5 5.5s12.5 -4 17.5 -12l12.5 -20
c7.33301 -11.333 13 -18.666 17 -21.999c7.33301 -6 16.333 -9 27 -9c10 0 18 2.83301 24 8.5s9 15.167 9 28.5z" />
    <glyph glyph-name="T" unicode="T" horiz-adv-x="298" 
d="M91 103l0.00390625 374.998c0 12.667 -1.33301 22 -4 28s-8.33398 9 -17.001 9c-9.33301 0 -17 -5 -23 -15l-8 -12.5c-2.66699 -4.33301 -6.33398 -6.5 -11.001 -6.5c-12 0 -18 8 -18 24c0 8.66699 0.5 18 1.5 28s2 18.833 3 26.5s1.5 17 1.5 28v25.5l-1 36l-1 26
c0 7.33301 1.66699 13.333 5 18s10.333 7 21 7c12 0 25.333 -1.16699 40 -3.5s37.667 -3.5 69 -3.5c36.667 0 59 1.16699 67 3.5s23.333 3.5 46 3.5c8.66699 0 14.667 -2.33301 18 -7s5 -9.66699 5 -15c0 -8 -0.333008 -18 -1 -30s-1 -24.667 -1 -38
c0 -28.667 0.5 -50.5 1.5 -65.5s2.16699 -28.833 3.5 -41.5c0 -14.667 -5.66699 -22 -17 -22c-5.33301 0 -10 2.66699 -14 8c-4 7.33301 -7 12.333 -9 15c-5.33301 9.33301 -13 14 -23 14c-8.66699 0 -14.834 -3.66699 -18.501 -11s-5.5 -22 -5.5 -44v-336
c0 -13.333 0.666992 -26.166 2 -38.499s3.66602 -23.333 6.99902 -33l8 -23c2 -5.66699 3 -10.5 3 -14.5c0 -7.33301 -1.66699 -12.166 -5 -14.499s-7.66602 -3.5 -12.999 -3.5l-26 3l-29 1c-9.33301 0 -19 -0.666992 -29 -2s-16.667 -2 -20 -2
c-15.333 -0 -23 6.33301 -23 19c0 5.33301 1 10 3 14c5.33301 14 8.66602 23.833 9.99902 29.5s2 19.167 2 40.5z" />
    <glyph glyph-name="U" unicode="U" horiz-adv-x="343" 
d="M33 147l-0.00390625 425.998c0 14.667 -0.333008 28.334 -1 41.001s-2.16699 23.167 -4.5 31.5s-4.16602 15.5 -5.49902 21.5s-2 11.667 -2 17c0 10.667 6 16 18 16c8 0 16.833 -0.5 26.5 -1.5s19.834 -1.5 30.501 -1.5c9.33301 0 15.833 0.5 19.5 1.5
s13.167 1.5 28.5 1.5c12 0 18 -5.33301 18 -16c0 -10 -4 -32.333 -12 -67c-4 -17.333 -6 -36.666 -6 -57.999v-355c0 -17.333 1.66699 -31.333 5 -42s10.333 -16 21 -16s17.834 4.83301 21.501 14.5s5.5 23.5 5.5 41.5v390c0 25.333 -1.16699 42 -3.5 50
s-4.83301 15.667 -7.5 23s-4 13 -4 17c0 8 1.83301 13 5.5 15s8.16699 3 13.5 3l18 -1l30 -1c15.333 0 27.333 0.333008 36 1s15.667 1 21 1c12 0 18 -5.33301 18 -16s-1.66699 -21.334 -5 -32.001c-8 -26 -12 -59.667 -12 -101v-394c0 -44 -6.66699 -78.333 -20 -103
c-22 -41.333 -61.667 -62 -119 -62c-53.333 0 -90.666 18 -111.999 54c-14.667 24.667 -22 58.334 -22 101.001z" />
    <glyph glyph-name="V" unicode="V" horiz-adv-x="334" 
d="M161 4c-16.667 -2.66699 -28.332 -3.99512 -34.999 -3.99512c-12.667 0 -24.167 14.167 -34.5 42.5s-23.833 83.166 -40.5 164.499c-8.66699 42 -15.667 82.667 -21 122s-8 77.666 -8 114.999l-2 85c0 72 2.33301 118.5 7 139.5s16 31.5 34 31.5l21 -2l21 -1
c10 0 18 0.5 24 1.5s9.33301 1.5 10 1.5c14.667 0 22 -5.66699 22 -17c0 -6 -1 -12 -3 -18c-8.66699 -28 -14.167 -47.333 -16.5 -58s-4.5 -30.667 -6.5 -60s-3 -53 -3 -71c0 -42.667 2 -90.834 6 -144.501s9 -93.5 15 -119.5c1.33301 -8.66699 3 -16.834 5 -24.501
s4.66699 -11.5 8 -11.5c2.66699 0 5 3.33301 7 10s4 15.667 6 27c6 24.667 12 68.5 18 131.5s9 116.5 9 160.5c0 26 -1 48 -3 66s-4.33301 32.833 -7 44.5s-6.16699 24.167 -10.5 37.5s-6.5 22 -6.5 26c0 14 9 21 27 21c6.66699 0 12.5 -0.333008 17.5 -1l15.5 -2l18 2l13 1
c16.667 0 27.667 -7 33 -21c8.66699 -22.667 13 -71 13 -145l-3 -92c0 -44.667 -3.66699 -87 -11 -127c-2 -11.333 -11.667 -52.333 -29 -123c-20.667 -82.667 -35.834 -135.334 -45.501 -158.001s-20.5 -34 -32.5 -34l-15 2z" />
    <glyph glyph-name="W" unicode="W" horiz-adv-x="486" 
d="M193 258l0.00292969 160.996c0 44.667 -4.33301 72.334 -13 83.001c-4.66699 6 -7 16 -7 30c0 12.667 7 19 21 19l23 -3l29 -3c12.667 0 24 1.33301 34 4s16.667 4 20 4c13.333 0 20 -6 20 -18c0 -3.33301 -0.666992 -6.33301 -2 -9
c-7.33301 -14 -12.333 -26.167 -15 -36.5s-5 -21.833 -7 -34.5s-3 -26.334 -3 -41.001v-189c0 -22.667 1.66699 -39.5 5 -50.5s8.66602 -16.5 15.999 -16.5c13.333 0 23.666 25.833 30.999 77.5s11 115.5 11 191.5c0 97.333 -16 163 -48 197c-16 16.667 -24 35.667 -24 57
c0 12.667 6.66699 19 20 19c10 0 18 -0.5 24 -1.5s11.667 -1.5 17 -1.5c8 0 16.833 0.5 26.5 1.5s14.834 1.5 15.501 1.5c22.667 0 40 -14.667 52 -44c18 -43.333 27 -119.333 27 -228c0 -114 -13.833 -213.833 -41.5 -299.5s-57.834 -128.5 -90.501 -128.5l-22 3l-23 -3
c-9.33301 0 -17 3.33301 -23 10c-2.66699 2.66699 -5.5 6.83398 -8.5 12.501l-7.5 14.5c-4.66699 8.66699 -9.66699 13 -15 13c-4 0 -8.66699 -3.33301 -14 -10c-2.66699 -3.33301 -6.83398 -9.16602 -12.501 -17.499s-10.167 -14.166 -13.5 -17.499s-8 -5 -14 -5l-26 2
l-27 -2c-32.667 0 -60 52.333 -82 157c-17.333 82.667 -26 157.667 -26 225c0 98.667 7.5 176.334 22.5 233.001s35.167 85 60.5 85c6.66699 0 13.167 -0.833008 19.5 -2.5s14.166 -2.5 23.499 -2.5c11.333 0 20 0.666992 26 2l19 3c10.667 0 16 -5.33301 16 -16
c0 -4 -1 -8 -3 -12l-13 -20c-18 -26.667 -31.333 -55 -40 -85c-14 -49.333 -21 -116 -21 -200c0 -74 4.33301 -129.667 13 -167c6.66699 -28 14.334 -42 23.001 -42c12 0 20 12.333 24 37c2 12.667 3 33.667 3 63z" />
    <glyph glyph-name="X" unicode="X" horiz-adv-x="380" 
d="M128 433l-71 192.005c-4 10 -10.167 21.167 -18.5 33.5s-12.5 20.5 -12.5 24.5c0 3.33301 0.833008 7 2.5 11s7.83398 6 18.501 6l27 -2l30 -1l34 1l22 2c12.667 0 19 -4.66699 19 -14c0 -2.66699 -1 -7 -3 -13s-3 -11.333 -3 -16c0 -6.66699 0.666992 -12 2 -16l19 -71
c0.666992 -4 3 -6 7 -6c3.33301 0 6.33301 6 9 18s6 23.833 10 35.5s6 22.167 6 31.5c0 4.66699 -1 8.66699 -3 12c-4.66699 8 -7 15.333 -7 22c0 11.333 6 17 18 17l26 -3l36 -3c11.333 0 23 1 35 3s20 3 24 3c10 0 15 -5.66699 15 -17
c0 -5.33301 -2.16699 -10.5 -6.5 -15.5l-10.5 -12c-2.66699 -3 -7.5 -12.667 -14.5 -29s-11.5 -27.5 -13.5 -33.5l-63 -164c-4.66699 -12.667 -7.16699 -19.834 -7.5 -21.501s-0.5 -4.83398 -0.5 -9.50098c0 -8 6.5 -34.667 19.5 -80s24.833 -89.333 35.5 -132
c8 -33.333 14 -56.5 18 -69.5s11 -34.5 21 -64.5c2.66699 -6.66699 4.66699 -12 6 -16s4 -8.33301 8 -13s6 -8 6 -10c0 -8.66699 -7 -13 -21 -13c-11.333 0 -22.833 0.833008 -34.5 2.5s-18.167 2.5 -19.5 2.5c-3.33301 0 -12 -0.833008 -26 -2.5s-25.333 -2.5 -34 -2.5
c-12 0 -18 5 -18 15c0 8.66699 2.16699 15.167 6.5 19.5s6.5 11.833 6.5 22.5c0 6 -1.16699 15 -3.5 27s-7.5 31.667 -15.5 59l-16 53c-1.33301 3.33301 -2.33301 6.66602 -3 9.99902c-1.33301 -0.666992 -2.33301 -1.33398 -3 -2.00098
c-3.33301 -4.66699 -5.33301 -9.33398 -6 -14.001s-2 -11.167 -4 -19.5s-8 -26.5 -18 -54.5l-7 -20c-3.33301 -11.333 -5 -23 -5 -35s2.66699 -21.667 8 -29s8 -13 8 -17s-0.333008 -6.33301 -1 -7c-4 -5.33301 -11 -8 -21 -8c-8 -0 -17.333 0.833008 -28 2.5
s-22.334 2.5 -35.001 2.5c-16.667 0 -27.5 -0.833008 -32.5 -2.5s-10.5 -2.5 -16.5 -2.5c-12.667 -0 -19 5.33301 -19 16c0 4 3.5 11.667 10.5 23s13.167 25 18.5 41l90 284c4.66699 13.333 7 24.333 7 33c0 10 -2.66699 22 -8 36z" />
    <glyph glyph-name="Y" unicode="Y" horiz-adv-x="330" 
d="M161 161c0 2 -0.834961 3.66992 -2.50195 5.00293s-4.83398 3.33301 -9.50098 6c-25.333 14 -44 29 -56 45c-21.333 28.667 -36 70.667 -44 126c-3.33301 25.333 -8 88.666 -14 189.999c-2 34.667 -5.33301 61.667 -10 81s-11 35 -19 47c-4 6 -6 11.333 -6 16
c0 6.66699 1.83301 12.167 5.5 16.5s10.5 6.5 20.5 6.5c5.33301 0 11.333 -0.666992 18 -2s13 -2 19 -2c7.33301 0 14 0.666992 20 2s15.667 2 29 2c8.66699 0 15.334 -2.66699 20.001 -8s7 -16 7 -32v-169c0 -52 4.33301 -91.667 13 -119s18.334 -41 29.001 -41
c10 0 16.833 12.5 20.5 37.5s5.5 57.5 5.5 97.5c0 35.333 -1 65.5 -3 90.5s-6.66699 47.5 -14 67.5c-4 11.333 -9.66699 22.166 -17 32.499s-11 18.166 -11 23.499c0 13.333 8 20 24 20c8.66699 0 19 -0.5 31 -1.5s19.667 -1.5 23 -1.5c14 0 24.5 0.5 31.5 1.5
s12.167 1.5 15.5 1.5c8.66699 0 14.667 -3 18 -9s5 -14.667 5 -26c0 -82.667 -2.16699 -158.5 -6.5 -227.5s-10.666 -129.5 -18.999 -181.5s-18.833 -101.667 -31.5 -149c-19.333 -71.333 -38 -107 -56 -107c-2 0 -8 0.666992 -18 2s-21.667 2 -35 2l-32 -2l-30 -2h-11
c-10 2.66699 -15 10 -15 22c0 7.33301 7 16 21 26c22.667 16 35.667 26 39 30c9.33301 10 18 22 26 36c12.667 22 19 37.667 19 47z" />
    <glyph glyph-name="Z" unicode="Z" horiz-adv-x="299" 
d="M128 487c0 12 -3.66797 19.502 -11.001 22.502s-13.666 4.5 -18.999 4.5c-12.667 0 -25 -6.66699 -37 -20c-2.66699 -2.66699 -5 -5.33398 -7 -8.00098c-5.33301 -5.33301 -11.666 -8 -18.999 -8c-10 0 -16.667 3 -20 9s-5 12.667 -5 20c0 10 1.66699 20 5 30
c12.667 38 20.5 65.667 23.5 83l10.5 63c4 11.333 15.667 17 35 17c6 0 20.667 -0.833008 44 -2.5s39.666 -2.5 48.999 -2.5c26.667 0 41.667 0.833008 45 2.5s19 2.5 47 2.5c8 0 13.333 -1.83301 16 -5.5s4 -8.16699 4 -13.5c0 -14.667 -6.33301 -47.334 -19 -98.001
l-51 -195c-20.667 -78 -33.834 -130 -39.501 -156s-8.5 -43.667 -8.5 -53c0 -14 2.83301 -23 8.5 -27s12.167 -6 19.5 -6c10 0 17.667 1.66699 23 5c6 6 10.833 10.667 14.5 14s8.5 6.83301 14.5 10.5s11.333 5.5 16 5.5c14.667 0 22 -7.66699 22 -23
c0 -4.66699 -2.66699 -14.5 -8 -29.5s-10 -32 -14 -51s-8 -39.5 -12 -61.5c-4 -10.667 -15.333 -16 -34 -16c-20 -0 -34.167 0.833008 -42.5 2.5s-22.833 2.5 -43.5 2.5c-28.667 0 -50.5 -0.833008 -65.5 -2.5s-24.5 -2.5 -28.5 -2.5c-6 0 -11.333 1 -16 3
c-8 4 -12 10 -12 18c0 2.66699 7.66699 31 23 85s31 113.667 47 179c20.667 85.333 33.334 138.833 38.001 160.5s7 35.5 7 41.5z" />
    <glyph glyph-name="bracketleft" unicode="[" horiz-adv-x="240" 
d="M130 560l-0.000976562 -513.002c0 -18 2 -29.333 6 -34c6.66699 -8 23.334 -12 50.001 -12c15.333 0 24.833 -1 28.5 -3s5.5 -8 5.5 -18v-19c0 -9.33301 -3.33301 -15.166 -10 -17.499s-24.667 -3.5 -54 -3.5h-84c-13.333 0 -22 2.66699 -26 8s-6 12.333 -6 21
c2.66699 30.667 5.16699 75.5 7.5 134.5s3.5 127.167 3.5 204.5c0 66 -1 119 -3 159c-5.33301 106.667 -8 161 -8 163c0 15.333 2.66699 25 8 29c9.33301 7.33301 31.333 11 66 11h24.5c8.33301 0 17.166 0.333008 26.499 1c22.667 0 37.5 -1.83301 44.5 -5.5
s10.5 -9.16699 10.5 -16.5v-22c0 -7.33301 -2 -12.666 -6 -15.999s-13.667 -5 -29 -5c-25.333 0 -41.666 -4.33301 -48.999 -13c-4 -4.66699 -6 -15.667 -6 -33z" />
    <glyph glyph-name="bracketright" unicode="]" horiz-adv-x="240" 
d="M110 50l0.00195312 513.002c0 18 -2 29.333 -6 34c-6.66699 8 -23.334 12 -50.001 12h-16c-5.33301 0 -9.66602 1 -12.999 3s-5 8 -5 18v19c0 9.33301 3.33301 15.166 10 17.499s24.667 3.5 54 3.5h84c13.333 0 22 -2.66699 26 -8s6 -12.333 6 -21
s-1.83301 -46.5 -5.5 -113.5s-5.5 -143.5 -5.5 -229.5c0 -68.667 1.16699 -126.667 3.5 -174s4.83301 -95.333 7.5 -144c0 -15.333 -2.66699 -25 -8 -29c-9.33301 -7.33301 -31.333 -11 -66 -11h-25c-8.66699 0 -17.334 -0.333008 -26.001 -1
c-22.667 0 -37.5 1.83301 -44.5 5.5s-10.5 9.16699 -10.5 16.5v22c0 7.33301 2 12.666 6 15.999s13.667 5 29 5c25.333 0 41.666 4.33301 48.999 13c4 4.66699 6 15.667 6 33z" />
    <glyph glyph-name="grave" unicode="`" horiz-adv-x="190" 
d="M88 709l38.001 2c7.33301 0 12.333 -2.5 15 -7.5s4 -9.5 4 -13.5l-1 -22c0 -6.66699 0.666992 -12.667 2 -18s2.66602 -10 3.99902 -14c3.33301 -6 5.83301 -10.667 7.5 -14s2.5 -7 2.5 -11l-1 -5c-2 -4 -4.66699 -6.33301 -8 -7s-6.33301 -1 -9 -1
c-27.333 0 -52.833 10.167 -76.5 30.5s-35.5 40.833 -35.5 61.5c0 9.33301 2.33301 15.333 7 18s10 4 16 4c8.66699 0 15.167 -0.5 19.5 -1.5s9.5 -1.5 15.5 -1.5z" />
    <glyph glyph-name="a" unicode="a" horiz-adv-x="306" 
d="M267 434l-0.00195312 -266.002c0 -14 0.5 -30 1.5 -48s4.16699 -37.667 9.5 -59c2.66699 -10 5.33398 -19.167 8.00098 -27.5s4 -14.166 4 -17.499c0 -5.33301 -2 -9.33301 -6 -12s-8.66699 -4 -14 -4l-20 2l-19 2l-21 -2l-20 -2c-13.333 0 -20 5.66699 -20 17l1 13
c0 2.66699 -2.33301 5.33398 -7 8.00098c-2 0 -9.33301 -6.33301 -22 -19c-5.33301 -5.33301 -10.666 -9.66602 -15.999 -12.999c-10.667 -6.66699 -21.334 -10 -32.001 -10c-29.333 0 -50 15 -62 45c-8 20 -12 47 -12 81c0 50 7.33301 89.667 22 119
c10.667 21.333 32.667 48 66 80l34 33c18 19.333 27 38.333 27 57c0 9.33301 -2.83301 16.833 -8.5 22.5s-14.5 8.5 -26.5 8.5c-9.33301 0 -17.5 -1.16699 -24.5 -3.5s-14.833 -7.83301 -23.5 -16.5c-6 -6.66699 -12.5 -13.5 -19.5 -20.5s-13.5 -10.5 -19.5 -10.5
c-12 0 -18 8 -18 24c0 7.33301 0.833008 17 2.5 29s2.5 20.333 2.5 25c0 10.667 -0.5 20.5 -1.5 29.5s-1.5 18.167 -1.5 27.5c0 15.333 7.33301 27.666 22 36.999c12 6.66699 25.333 11.834 40 15.501s35.334 5.5 62.001 5.5c20.667 0 37.5 -2.66699 50.5 -8
s23.833 -12.333 32.5 -21c13.333 -14.667 22 -33.334 26 -56.001c2 -12 3 -33.667 3 -65zM172.998 158.998v91c0 8.66699 -2 13 -6 13c-2.66699 0 -6.16699 -2.16699 -10.5 -6.5s-8.16602 -8.83301 -11.499 -13.5c-20.667 -28 -31 -57 -31 -87
c0 -12.667 1.66699 -22.5 5 -29.5s9.33301 -10.5 18 -10.5c11.333 0 20.166 4.66699 26.499 14s9.5 19 9.5 29z" />
    <glyph glyph-name="b" unicode="b" horiz-adv-x="297" 
d="M32 172l-0.000976562 367c0 18 -0.833008 33.667 -2.5 47s-4.5 29.666 -8.5 48.999c-1.33301 6 -3.5 14.333 -6.5 25s-4.5 17.667 -4.5 21c0 6.66699 1.66699 11.334 5 14.001s8 4 14 4l44 -1l26 2c8.66699 0 15.834 -1.66699 21.501 -5s8.5 -10.333 8.5 -21
c0 -7.33301 -0.5 -14.166 -1.5 -20.499s-1.5 -13.166 -1.5 -20.499v-83c0 -6.66699 2.33301 -10 7 -10c4 0 8.16699 1.83301 12.5 5.5s6.83301 5.83398 7.5 6.50098c13.333 12 28 18 44 18c30 0 51 -17.333 63 -52c8.66699 -25.333 13 -60.666 13 -105.999v-281
c0 -36 -3 -64 -9 -84c-10 -34 -29 -51 -57 -51c-10.667 0 -19.5 2.16699 -26.5 6.5s-14.833 11.166 -23.5 20.499c-11.333 12.667 -18.333 19 -21 19c-6.66699 0 -10 -4.33301 -10 -13l1 -15c0 -5.33301 -2 -9.33301 -6 -12
c-1.33301 -0.666992 -3.33301 -1.33398 -6 -2.00098c-6 0 -11.5 0.833008 -16.5 2.5s-9.83301 2.5 -14.5 2.5l-20 -2l-22 -3c-16.667 0 -25 7.66699 -25 23c0 7.33301 1.66699 15.833 5 25.5s5.5 19.667 6.5 30s1.83301 26.666 2.5 48.999s1 37.166 1 44.499zM125.999 339
l-0.000976562 -159c0 -17.333 2.33301 -31.5 7 -42.5s12.334 -16.5 23.001 -16.5s17.667 7 21 21c1.33301 6 2 19 2 39v165c0 20.667 -2.33301 36.167 -7 46.5s-11.667 15.5 -21 15.5c-11.333 0 -18.333 -6.5 -21 -19.5s-4 -29.5 -4 -49.5z" />
    <glyph glyph-name="c" unicode="c" horiz-adv-x="251" 
d="M24 155l0.00390625 268.001c0 58 13.333 100.667 40 128c21.333 22 48.666 33 81.999 33c17.333 0 33.333 -3 48 -9c21.333 -8.66699 32 -21.667 32 -39c0 -6.66699 -0.666992 -14.667 -2 -24s-2 -21 -2 -35c0 -16 0.666992 -25.333 2 -28s2 -13.667 2 -33
c0 -10 -2 -16.667 -6 -20s-8 -5 -12 -5c-8.66699 0 -15.334 2.66699 -20.001 8c-1.33301 1.33301 -4.33301 5 -9 11c-6.66699 8.66699 -16.667 13 -30 13c-10.667 0 -18.5 -6 -23.5 -18s-7.5 -32 -7.5 -60v-147c0 -27.333 3.66699 -46.5 11 -57.5s17.666 -16.5 30.999 -16.5
s24 5 32 15c2.66699 5.33301 5.5 10 8.5 14s7.5 6 13.5 6c12.667 0 19 -6.66699 19 -20c0 -6 -0.5 -13.167 -1.5 -21.5s-1.5 -15.5 -1.5 -21.5c0 -9.33301 0.833008 -18.5 2.5 -27.5s2.5 -14.5 2.5 -16.5c0 -18 -8.33301 -31.833 -25 -41.5s-38.667 -14.5 -66 -14.5
c-48.667 0 -82.334 18.667 -101.001 56c-12.667 25.333 -19 59.666 -19 102.999z" />
    <glyph glyph-name="d" unicode="d" horiz-adv-x="303" 
d="M24 132l0.000976562 289.998c0 35.333 3 64 9 86c11.333 41.333 32.666 62 63.999 62c4.66699 0 10 -0.5 16 -1.5s12.667 -4.5 20 -10.5c3.33301 -2.66699 8.66602 -7.33398 15.999 -14.001c5.33301 -4.66699 9.33301 -7 12 -7c2 0 4 2.66699 6 8v61
c0 12 -0.833008 25.5 -2.5 40.5s-2.5 24.167 -2.5 27.5c0 11.333 2 18.5 6 21.5s9.66699 4.5 17 4.5c13.333 0 22.5 -0.5 27.5 -1.5s10.167 -1.83301 15.5 -2.5l36 3c12.667 0 19 -5.33301 19 -16c0 -6 -0.333008 -10.333 -1 -13
c-3.33301 -9.33301 -6.33301 -18.833 -9 -28.5s-4.83398 -21.5 -6.50098 -35.5s-2.5 -31.667 -2.5 -53v-401c0 -18 0.833008 -34 2.5 -48s5.5 -30.167 11.5 -48.5s9 -30.166 9 -35.499c0 -13.333 -6.66699 -20 -20 -20c-10 0 -16.667 0.666992 -20 2s-10.666 2 -21.999 2
c-12 0 -19.167 -0.833008 -21.5 -2.5s-7.5 -2.5 -15.5 -2.5c-10.667 0 -16 6 -16 18v15c0 2.66699 -3 5.33398 -9 8.00098c-4 0 -8.83301 -3.5 -14.5 -10.5s-9.83398 -11.833 -12.501 -14.5c-5.33301 -6 -11.166 -10.667 -17.499 -14s-14.166 -5 -23.499 -5
c-28.667 0 -48.667 17.667 -60 53c-7.33301 22.667 -11 50.334 -11 83.001zM118.001 355.998l-0.000976562 -173.001c0 -22.667 1.16699 -39.167 3.5 -49.5s9.5 -15.5 21.5 -15.5c7.33301 0 13 2.66699 17 8c6.66699 8 10 22.667 10 44v190
c0 16.667 -2.66699 28.334 -8 35.001s-11.666 10 -18.999 10c-10 0 -16.667 -4.83301 -20 -14.5s-5 -21.167 -5 -34.5z" />
    <glyph glyph-name="e" unicode="e" horiz-adv-x="280" 
d="M24 179l-0.00195312 249.999c0 61.333 12.333 104 37 128c18 18 44.333 27 79 27c28 0 51.333 -6.33301 70 -19c36 -24 54 -67 54 -129v-67c0 -59.333 -31.333 -109.333 -94 -150c-29.333 -19.333 -44 -42 -44 -68c0 -12 3.83301 -20.833 11.5 -26.5s16.5 -8.5 26.5 -8.5
c8.66699 0 16.834 2 24.501 6s14.5 11.333 20.5 22l10 20c4.66699 6.66699 10 10 16 10c10 0 15 -7.33301 15 -22c0 -5.33301 -0.5 -11.333 -1.5 -18s-1.5 -15 -1.5 -25c0 -10.667 0.5 -22.5 1.5 -35.5s1.5 -19.833 1.5 -20.5c0 -17.333 -8.16699 -31.166 -24.5 -41.499
s-38.166 -15.5 -65.499 -15.5c-56 0 -94.667 22.333 -116 67c-13.333 28 -20 66.667 -20 116zM117.998 397.999v-101c0 -12 4 -18 12 -18c8.66699 0 18 7.66699 28 23c12.667 19.333 19 42.333 19 69c0 28.667 -2.83301 47.667 -8.5 57s-14.167 14 -25.5 14
c-8.66699 0 -15 -3 -19 -9s-6 -17.667 -6 -35z" />
    <glyph glyph-name="f" unicode="f" horiz-adv-x="190" 
d="M29 106v329.005v22c0 22 -1 44 -3 66c0 8.66699 -1 21.667 -3 39s-3 30.333 -3 39c0 38.667 10 66.667 30 84c14.667 12.667 33.667 19 57 19c16 0 31.833 -2.33301 47.5 -7s23.5 -12.334 23.5 -23.001v-49v-19.5c0 -6.33301 0.333008 -12.166 1 -17.499
c0 -12.667 -4.66699 -19 -14 -19l-24 3c-9.33301 0 -16 -2 -20 -6s-6 -9.66699 -6 -17c0 -6.66699 2.16699 -11.834 6.5 -15.501s12.5 -6.5 24.5 -8.5s19.5 -4.5 22.5 -7.5s4.5 -7.16699 4.5 -12.5c-0.666992 -6.66699 -1 -11.334 -1 -14.001v-41
c1.33301 -12 2 -20.667 2 -26c0 -6 -1 -10.333 -3 -13s-5.33301 -5.16699 -10 -7.5s-9.66699 -5.16602 -15 -8.49902c-10.667 -7.33301 -17.167 -19.5 -19.5 -36.5s-3.5 -47.167 -3.5 -90.5v-62c0 -45.333 1 -76.833 3 -94.5s7.66699 -33.834 17 -48.501l18 -22
c8.66699 -10.667 13 -18.334 13 -23.001c0 -12 -8.66699 -18 -26 -18c-6 0 -12.333 0.666992 -19 2s-17 2 -31 2l-28 -2l-22 -2c-8 0 -13.667 0.666992 -17 2c-7.33301 3.33301 -11 9.66602 -11 18.999c0 15.333 0.666992 24.666 2 27.999c4.66699 12 7 31 7 57z" />
    <glyph glyph-name="g" unicode="g" horiz-adv-x="286" 
d="M20 338l-0.00292969 70c0 70.667 10.667 118.667 32 144l46 32c1.33301 18.667 4.83301 33.334 10.5 44.001s17.167 16 34.5 16c19.333 0 31.666 -5.66699 36.999 -17c2.66699 -5.33301 4 -15 4 -29c0 -7.33301 1.66699 -12 5 -14c15.333 -8 25 -13.333 29 -16
c17.333 -12 29.333 -29.833 36 -53.5s10 -52.167 10 -85.5v-100c0 -40 -4.5 -72 -13.5 -96s-23.167 -43 -42.5 -57l-12.5 -8c-3 -2 -6.5 -5 -10.5 -9s-6 -7.66699 -6 -11c0 -6 2.33301 -11.167 7 -15.5s10.334 -8.16602 17.001 -11.499
c18.667 -10.667 32.334 -21 41.001 -31c14.667 -17.333 22 -39.666 22 -66.999c0 -40 -17.667 -68.333 -53 -85c-22.667 -10.667 -51 -16 -85 -16c-40 0 -68.333 6.33301 -85 19c-13.333 10 -20 23.333 -20 40l3 18l2 16c0 8 -1 16 -3 24s-3 16.333 -3 25
c0 12.667 5.33301 19 16 19c6 0 14.333 -5.33301 25 -16c8 -8 16.333 -14.667 25 -20s17 -8 25 -8c6.66699 0 11.834 1.83301 15.501 5.5s5.5 8.16699 5.5 13.5c0 11.333 -10.333 21.666 -31 30.999c-13.333 5.33301 -20.666 8.66602 -21.999 9.99902
c-8 5.33301 -12 12.333 -12 21c0 4.66699 1.33301 9 4 13l9 9c2 2 4.5 4.66699 7.5 8s4.5 6.66602 4.5 9.99902c0 5.33301 -4 11 -12 17c-14 10.667 -22.333 17.667 -25 21c-16 19.333 -26.167 40.5 -30.5 63.5s-6.5 48.5 -6.5 76.5zM113.997 400v-71
c0 -17.333 2.5 -31 7.5 -41s11.5 -15 19.5 -15c9.33301 0 16.5 4.83301 21.5 14.5s7.5 21.5 7.5 35.5v69c0 16.667 -2 29.667 -6 39c-6 13.333 -14 20 -24 20c-8 0 -14.333 -4.5 -19 -13.5s-7 -21.5 -7 -37.5z" />
    <glyph glyph-name="h" unicode="h" horiz-adv-x="310" 
d="M37 119l0.00195312 439.999c0 10 -0.166992 21.667 -0.5 35s-3.83301 29.333 -10.5 48l-7 21c-2 6 -3 10.667 -3 14c0 6 1.66699 11 5 15s9.33301 6 18 6l26 -2l25 2l21 2c16 0 24 -9 24 -27l-2 -33l-2 -40v-31c0 -14 3 -21 9 -21c2 0 4.83301 2.33301 8.5 7
s7.16699 8.33398 10.5 11.001c13.333 12 29 18 47 18c30.667 0 51.334 -14.667 62.001 -44c6 -17.333 9 -46 9 -86v-343c0 -35.333 3.66699 -58 11 -68c4 -5.33301 6 -13.666 6 -24.999c0 -12 -7 -18 -21 -18c-8.66699 0 -16.334 0.5 -23.001 1.5s-14.334 1.5 -23.001 1.5
s-16 -0.333008 -22 -1s-11.667 -1.33398 -17 -2.00098c-12 -0 -18 5.33301 -18 16c2.66699 8 5.16699 16.5 7.5 25.5s3.83301 17 4.5 24s1 16.167 1 27.5v276c0 38 -8.66699 57 -26 57s-26 -20.667 -26 -62v-269v-20.5c0 -7.66699 1.5 -16.5 4.5 -26.5
s5.33301 -17.167 7 -21.5s2.5 -7.5 2.5 -9.5c0 -4 -1.33301 -7.83301 -4 -11.5s-7 -5.5 -13 -5.5c-12 0 -19.333 0.5 -22 1.5s-9 1.5 -19 1.5l-41 -3c-14 -0 -21 5.33301 -21 16c3.33301 12 6.16602 24.333 8.49902 37s3.5 34.667 3.5 66z" />
    <glyph glyph-name="i" unicode="i" horiz-adv-x="170" 
d="M34 136v325.996c0 33.333 -2.5 53.833 -7.5 61.5s-7.5 20.5 -7.5 38.5c0 6 1.33301 10.333 4 13s8 4 16 4l48 -2c12 0 22.5 0.5 31.5 1.5s13.833 1.5 14.5 1.5c7.33301 0 12.333 -1.33301 15 -4s4 -6 4 -10c0 -3.33301 -1 -7.66602 -3 -12.999
c-4 -9.33301 -6.33301 -15.666 -7 -18.999c-4 -14 -6 -36 -6 -66v-321c0 -13.333 1.33301 -33.666 4 -60.999s5.66699 -44.166 9 -50.499s5 -12.5 5 -18.5c0 -11.333 -7 -17 -21 -17l-16 2c-4.66699 1.33301 -10 2 -16 2h-14c-9.33301 0 -16 -0.666992 -20 -2
s-12.333 -2 -25 -2c-13.333 0 -20 5.66699 -20 17c0 4 1.5 11 4.5 21s4.83301 17.667 5.5 23zM16 646.996c0 13.333 5.00098 25 15.001 35c12.667 12 30 18 52 18c21.333 0 37.666 -4.66699 48.999 -14s17 -21 17 -35s-5 -25.667 -15 -35c-12.667 -12 -30.667 -18 -54 -18
c-21.333 0 -37.333 4.66699 -48 14s-16 21 -16 35z" />
    <glyph glyph-name="j" unicode="j" horiz-adv-x="200" 
d="M66 110l0.000976562 318.999c0 53.333 -3.66699 86.666 -11 99.999c-4 7.33301 -6 19 -6 35c0 10.667 7 16 21 16l20 -2l27 -2c10 0 17.667 0.666992 23 2s11 2 17 2c12.667 0 19 -6 19 -18c0 -4.66699 -0.666992 -11 -2 -19c-4 -24 -6 -39.667 -6 -47v-443
c0 -51.333 -9.33301 -87 -28 -107c-12.667 -13.333 -31.667 -20 -57 -20c-16.667 0 -31 2.33301 -43 7c-16.667 6.66699 -25 16.334 -25 29.001c0 12 0.5 20.5 1.5 25.5s1.5 10.5 1.5 16.5c0 17.333 -1.33301 31.333 -4 42s-4 17.334 -4 20.001c0 14 5.66699 21 17 21
c5.33301 0 9.66602 -1.66699 12.999 -5s8.33301 -5 15 -5c5.33301 0 8.5 2.5 9.5 7.5s1.5 13.5 1.5 25.5zM45.001 646.999c0 16 5.49902 28.832 16.499 38.499s27.5 14.5 49.5 14.5c19.333 0 35 -4.66699 47 -14s18 -21.666 18 -36.999c0 -16 -6.16699 -28.5 -18.5 -37.5
s-28.166 -13.5 -47.499 -13.5c-18.667 0 -34.167 4 -46.5 12s-18.5 20.333 -18.5 37z" />
    <glyph glyph-name="k" unicode="k" horiz-adv-x="320" 
d="M32 144l0.00390625 278.993c0 56.667 -1 99.5 -3 128.5s-3.66699 50.667 -5 65s-3.33301 28 -6 41s-4 21.167 -4 24.5c0 6.66699 2 11.334 6 14.001s8.33301 4 13 4l21 -2l19 -1c12.667 0 21.5 0.333008 26.5 1s9.5 1.33398 13.5 2.00098
c6.66699 0 11.167 -2.66699 13.5 -8s3.5 -12.333 3.5 -21c0 -1.33301 -0.5 -10.666 -1.5 -27.999s-1.5 -41.666 -1.5 -72.999c0 -63.333 11 -95 33 -95c18 0 27 9.66699 27 29c0 7.33301 -0.833008 13 -2.5 17s-4.83398 9 -9.50098 15c-2 2 -4 4.33301 -6 7
c-4 5.33301 -6 11 -6 17c0 13.333 6.33301 20 19 20c2 0 7 -0.666992 15 -2s18.333 -2 31 -2c12 0 20.667 0.666992 26 2s10.666 2 15.999 2c6.66699 0 13.5 -4.33301 20.5 -13s10.5 -21.334 10.5 -38.001c0 -33.333 -9.83301 -60.5 -29.5 -81.5s-29.5 -46.5 -29.5 -76.5
c0 -14.667 0.666992 -28.167 2 -40.5s4.66602 -30.166 9.99902 -53.499c6.66699 -35.333 13.667 -70.5 21 -105.5s16.333 -71.5 27 -109.5c2.66699 -9.33301 5.66699 -18.333 9 -27s5 -14.667 5 -18c-0.666992 -2 -1 -3.33301 -1 -4c-3.33301 -8 -9 -12 -17 -12
c-6 0 -11.833 0.833008 -17.5 2.5s-13.834 2.5 -24.501 2.5c-15.333 0 -26 -1 -32 -3s-12 -3 -18 -3c-11.333 0 -17 6.33301 -17 19c0 9.33301 0.666992 17.333 2 24s2 16.667 2 30c0 22.667 -6 62.667 -18 120c-14 66 -26.333 99 -37 99c-6 0 -9.5 -5.33301 -10.5 -16
s-1.5 -26 -1.5 -46v-75c0 -35.333 2.16699 -62.666 6.5 -81.999s8.83301 -38.333 13.5 -57c0 -10.667 -6.33301 -16 -19 -16c-0.666992 0 -5.66699 0.833008 -15 2.5s-18.333 2.5 -27 2.5l-25 -2l-20 -3c-10.667 0 -16 5.66699 -16 17c2 8.66699 3.83301 23.834 5.5 45.501
s2.5 48.834 2.5 81.501z" />
    <glyph glyph-name="l" unicode="l" horiz-adv-x="168" 
d="M33 248l-0.00292969 197c0 46 -1.83301 87.333 -5.5 124l-11.5 112v10c2 6 8.33301 9 19 9c6 0 13.167 -0.5 21.5 -1.5s14.5 -1.5 18.5 -1.5c4.66699 0 11.334 0.5 20.001 1.5s17 1.5 25 1.5c7.33301 0 12 -1 14 -3s3 -8.33301 3 -19
c0 -6.66699 -0.333008 -19.334 -1 -38.001s-1 -33 -1 -43v-355c0 -41.333 0.333008 -72.666 1 -93.999s2.33398 -40.833 5.00098 -58.5s5.16699 -32.834 7.5 -45.501s3.5 -20.667 3.5 -24c0 -13.333 -6 -20 -18 -20c-3.33301 0 -9.66602 0.666992 -18.999 2s-21 2 -35 2
c-8 0 -16.667 -0.666992 -26 -2s-15 -2 -17 -2c-12.667 0 -19 6.66699 -19 20c0 4.66699 0.666992 8.33398 2 11.001c4.66699 8.66699 7 25 7 49c0 12 1 36 3 72s3 68 3 96z" />
    <glyph glyph-name="m" unicode="m" horiz-adv-x="449" 
d="M33 175l0.00585938 243.999c0 34 -1.83301 61.167 -5.5 81.5l-11.5 61.5c0 12 7 18 21 18c7.33301 0 12.666 -0.666992 15.999 -2s10.333 -2 21 -2c13.333 0 23.333 0.666992 30 2s11 2 13 2c11.333 0 17 -6 17 -18c0 -3.33301 -0.5 -7.33301 -1.5 -12
s-1.5 -8.66699 -1.5 -12c0 -8 2.33301 -12 7 -12c4 0 14 9.66699 30 29s34.667 29 56 29c16 0 29.667 -6.66699 41 -20c6 -8 10.667 -13.667 14 -17c6.66699 -7.33301 11.667 -11 15 -11c11.333 0 21.166 7.83301 29.499 23.5s23.5 23.5 45.5 23.5
c20.667 0 35.334 -10.667 44.001 -32c6.66699 -16 10 -36.667 10 -62v-386c0 -10.667 1.66699 -25.5 5 -44.5s5 -32.5 5 -40.5c0 -12 -5 -18 -15 -18c-4 0 -10.333 0.666992 -19 2s-16.334 2 -23.001 2s-13 -0.666992 -19 -2s-12.667 -2 -20 -2c-8 0 -13 1.83301 -15 5.5
s-3 8.16699 -3 13.5c0 8 1 17 3 27c4.66699 22.667 7 38.667 7 48v274c0 18 -1.33301 32.667 -4 44s-9.33398 17 -20.001 17c-10 0 -17.5 -3.83301 -22.5 -11.5s-7.5 -19.834 -7.5 -36.501v-292c0 -14 0.166992 -22.167 0.5 -24.5s2.5 -10.166 6.5 -23.499l6 -26
c0 -10 -5.33301 -15 -16 -15l-26 3l-24 1c-12.667 0 -20.334 -0.666992 -23.001 -2s-6.66699 -2 -12 -2c-12 0 -18 5 -18 15c3.33301 14 6.16602 27.667 8.49902 41s3.5 25 3.5 35v299c0 14 -2.33301 23.667 -7 29s-10.334 8 -17.001 8
c-15.333 0 -24.166 -6.33301 -26.499 -19s-3.5 -24.667 -3.5 -36v-295c0 -21.333 2 -33.333 6 -36s6 -11 6 -25c0 -10.667 -7 -16 -21 -16c-4.66699 0 -12 0.5 -22 1.5s-16 1.5 -18 1.5c-9.33301 0 -17.833 -0.5 -25.5 -1.5s-11.834 -1.5 -12.501 -1.5
c-8 0 -13.333 2.16699 -16 6.5s-4 8.83301 -4 13.5c0 8.66699 1.33301 19.334 4 32.001c6 29.333 9 70.333 9 123z" />
    <glyph glyph-name="n" unicode="n" horiz-adv-x="292" 
d="M27 106l0.00292969 350c0 27.333 -1.16699 50 -3.5 68s-3.5 29.667 -3.5 35c0 14 5.66699 21 17 21l35 -3c8 0 16.5 0.5 25.5 1.5s15.5 1.5 19.5 1.5c12 0 18 -6.33301 18 -19l-1 -13c0 -1.33301 0.5 -2.5 1.5 -3.5l2.5 -2.5c2.66699 0 6.66699 3 12 9l16 18
c10 10 22.333 15 37 15c17.333 0 31.333 -6 42 -18c16 -18 24 -46.333 24 -85v-396c0 -20 1.16699 -34.333 3.5 -43s3.5 -16.667 3.5 -24c0 -12 -7 -18 -21 -18c-10.667 0 -19.667 0.5 -27 1.5s-12 1.5 -14 1.5c-6.66699 0 -11.834 -0.5 -15.501 -1.5
s-10.167 -1.5 -19.5 -1.5c-12 -0 -18 5.33301 -18 16c0 2 0.333008 4.33301 1 7c3.33301 11.333 5.33301 19 6 23c4.66699 24.667 7 52.334 7 83.001v234c0 16.667 -1.33301 29.334 -4 38.001s-9.33398 13 -20.001 13c-12 0 -20 -6.83301 -24 -20.5s-6 -29.834 -6 -48.501
v-249c0 -15.333 1 -29 3 -41s3.83301 -20.333 5.5 -25s2.5 -8.33398 2.5 -11.001c0 -8.66699 -2.5 -14 -7.5 -16s-10.5 -3 -16.5 -3c-12.667 0 -21.834 0.5 -27.501 1.5s-9.16699 1.5 -10.5 1.5l-18 -2l-16 -1c-13.333 -0 -20 5.33301 -20 16c0 5.33301 2.33301 22.333 7 51
c2.66699 16.667 4 29.667 4 39z" />
    <glyph glyph-name="o" unicode="o" horiz-adv-x="297" 
d="M24 175l-0.000976562 229c0 57.333 10.5 101.666 31.5 132.999s52.167 47 93.5 47c50 0 85 -20 105 -60c12.667 -26 19 -62.667 19 -110v-225c0 -53.333 -5.66699 -93.666 -17 -120.999c-20 -48 -56.333 -72 -109 -72c-43.333 0 -74.666 15.5 -93.999 46.5
s-29 75.167 -29 132.5zM117.999 360v-164.999c0 -26 1.83301 -45.667 5.5 -59s12.167 -20 25.5 -20c12 0 20 6.16699 24 18.5s6 28.166 6 47.499v17v158c0 22 -1.33301 38 -4 48c-4.66699 18 -14 27 -28 27c-10 0 -17.333 -5 -22 -15s-7 -29 -7 -57z" />
    <glyph glyph-name="p" unicode="p" horiz-adv-x="304" 
d="M37 80v348.001c0 18.667 -1 38 -3 58s-5.33301 36 -10 48c-1.33301 3.33301 -2.33301 6.66602 -3 9.99902c-3.33301 9.33301 -5 15.333 -5 18c0 12 7.66699 18 23 18c1.33301 0 6.66602 -0.333008 15.999 -1s17.666 -1 24.999 -1c10.667 0 20 0.333008 28 1
s12.333 1 13 1c10 0 15.667 -4.66699 17 -14v-19c0 -5.33301 2 -8 6 -8c2.66699 0 5.16699 1.66699 7.5 5l8.5 12c8.66699 8.66699 18 15.5 28 20.5s18.333 7.5 25 7.5c27.333 0 46.333 -18.667 57 -56c6.66699 -24 10 -59 10 -105v-132c0 -68.667 -4.66699 -119 -14 -151
c-15.333 -53.333 -45.333 -80 -90 -80c-10.667 0 -19.667 3 -27 9s-11 13.333 -11 22c0 10 2.66699 18.333 8 25c8 8 14 14.333 18 19c12.667 14.667 19.5 35.167 20.5 61.5s1.5 53.833 1.5 82.5v22c0 34.667 -2 63.167 -6 85.5s-12.667 33.5 -26 33.5
c-9.33301 0 -15.5 -5.16699 -18.5 -15.5s-4.5 -25.166 -4.5 -44.499v-33v-232c0 -58.667 11.333 -98.667 34 -120c10.667 -10 16 -19 16 -27c0 -6 -2.16699 -10.5 -6.5 -13.5s-10.166 -4.5 -17.499 -4.5c-14 0 -26.5 0.666992 -37.5 2s-20.167 2 -27.5 2
c-12 0 -21.667 -0.333008 -29 -1s-14.666 -1.66699 -21.999 -3c-11.333 0 -17 6 -17 18c3.33301 14 6.33301 31.667 9 53s4 47.666 4 78.999z" />
    <glyph glyph-name="q" unicode="q" horiz-adv-x="308" 
d="M173 151l0.00292969 228.002c0 14.667 -0.666992 24.667 -2 30c-3.33301 12 -9.66602 18 -18.999 18c-18 0 -28.167 -19.5 -30.5 -58.5s-3.5 -75.5 -3.5 -109.5c0 -58.667 6.66699 -99.334 20 -122.001c2.66699 -4 8 -11 16 -21c5.33301 -6 8 -13 8 -21
c0 -23.333 -12.333 -35 -37 -35c-44 0 -73.667 28 -89 84c-8 30 -12 76.333 -12 139v129c0 52.667 2.33301 89 7 109c10 42 31.667 63 65 63c11.333 0 21.166 -2.66699 29.499 -8s15.666 -12.5 21.999 -21.5s11.833 -13.5 16.5 -13.5c4 0 6 2.66699 6 8l-1 15
c0 6.66699 2 11 6 13s8.33301 3 13 3c9.33301 0 18 -0.5 26 -1.5s12.667 -1.5 14 -1.5c10.667 0 19.5 0.5 26.5 1.5s12.167 1.5 15.5 1.5c14.667 0 22 -4.66699 22 -14c0 -2.66699 -1.66699 -8 -5 -16s-6.33301 -17.333 -9 -28s-5.16699 -23.834 -7.5 -39.501
s-3.5 -32.834 -3.5 -51.501v-384v-31c0 -7.33301 2 -18.666 6 -33.999c1.33301 -6.66699 2.83301 -13 4.5 -19s2.5 -10.667 2.5 -14c0 -8 -2.33301 -13.167 -7 -15.5s-9 -3.5 -13 -3.5c-6.66699 0 -15.834 0.833008 -27.501 2.5s-20.834 2.5 -27.501 2.5
c-16 0 -26.833 -0.833008 -32.5 -2.5s-15.5 -2.5 -29.5 -2.5c-6.66699 0 -11.167 1.66699 -13.5 5s-3.5 7.33301 -3.5 12c0 8.66699 2 15 6 19c14 12.667 23.333 26.167 28 40.5s8 33 10 56s3 52.5 3 88.5z" />
    <glyph glyph-name="r" unicode="r" horiz-adv-x="234" 
d="M31 169l-0.000976562 259.001c0 18 -0.5 34.5 -1.5 49.5s-2.16699 28.167 -3.5 39.5s-2.66602 20.333 -3.99902 27s-2 11.334 -2 14.001c0 8.66699 2.33301 14.5 7 17.5s10.334 4.5 17.001 4.5c8.66699 -1.33301 21 -2 37 -2l38 2c6.66699 0 11.5 -2.16699 14.5 -6.5
s4.5 -8.83301 4.5 -13.5l-1 -15c0 -6.66699 2.33301 -10 7 -10c2 0.666992 3.83301 1.66699 5.5 3s4.16699 4 7.5 8c10 14 15.333 21.333 16 22c8 8 17.667 12 29 12c7.33301 0 12.833 -2.5 16.5 -7.5s5.5 -14.5 5.5 -28.5c0 -6.66699 -0.666992 -17.834 -2 -33.501
s-2 -34.5 -2 -56.5l1 -42l2 -34c0 -8.66699 -1.33301 -17 -4 -25s-8.33398 -12 -17.001 -12c-6.66699 0 -12 2.66699 -16 8c-0.666992 1.33301 -4.66699 7.66602 -12 18.999s-11.333 17.333 -12 18c-4.66699 4.66699 -10 7 -16 7c-11.333 0 -17.666 -5 -18.999 -15
s-2 -21.667 -2 -35v-176c0 -27.333 1.66699 -49.333 5 -66s11.666 -32.667 24.999 -48l16.5 -18c3.66699 -4 5.5 -9 5.5 -15c0 -9.33301 -2.5 -15 -7.5 -17s-10.5 -3 -16.5 -3c-4.66699 0 -13.667 0.666992 -27 2s-24.333 2 -33 2c-14.667 0 -23.667 -0.666992 -27 -2
s-12 -2 -26 -2c-8 -0 -14 2.33301 -18 7s-6 11 -6 19c0 6.66699 1 14 3 22l6.5 27c2.33301 10 3.83301 22.833 4.5 38.5s1 34.167 1 55.5z" />
    <glyph glyph-name="s" unicode="s" horiz-adv-x="255" 
d="M140 137c0 5.33301 -3.33203 16.1621 -9.99902 32.4951s-22 48.833 -46 97.5c-19.333 40 -33.333 70.667 -42 92c-16 40.667 -24 73.667 -24 99c0 34 8.66699 62 26 84c22 28 56 42 102 42c23.333 0 44.333 -3.5 63 -10.5s28 -18.5 28 -34.5c0 -8 -0.666992 -15 -2 -21
l-3.5 -16c-1 -4.66699 -1.5 -10 -1.5 -16v-14c0 -10.667 1 -22.667 3 -36s3 -22.666 3 -27.999c0 -6.66699 -1.66699 -12.5 -5 -17.5s-8 -7.5 -14 -7.5s-13.833 6.16699 -23.5 18.5s-20.167 18.5 -31.5 18.5c-6 0 -11.667 -1.66699 -17 -5s-8 -9.33301 -8 -18v-9
c1.33301 -4.66699 3.16602 -10.667 5.49902 -18s6.33301 -17.666 12 -30.999s16.5 -36.666 32.5 -69.999c22.667 -48.667 34.667 -74.667 36 -78c10.667 -26.667 16 -51.667 16 -75c0 -36 -9.33301 -64.333 -28 -85c-21.333 -23.333 -53 -35 -95 -35
c-42.667 0 -71.334 5.33301 -86.001 16c-9.33301 6.66699 -14 17 -14 31l2 24l1 28c0 15.333 -0.5 27 -1.5 35s-1.5 14 -1.5 18c0 6.66699 1 11.334 3 14.001s6 4.66699 12 6c5.33301 0 10 -3 14 -9c4.66699 -9.33301 8.33398 -16.333 11.001 -21
c7.33301 -11.333 15 -19.166 23 -23.499s16.667 -6.5 26 -6.5c10.667 0 19.167 2.83301 25.5 8.5s9.5 12.5 9.5 20.5z" />
    <glyph glyph-name="t" unicode="t" horiz-adv-x="206" 
d="M55 185l0.00195312 179.002c0 26.667 -1.83301 44.167 -5.5 52.5s-11 15.333 -22 21s-16.5 14.5 -16.5 26.5v30v38c0 12 5 20.333 15 25l24 8c4.66699 3.33301 7.66699 8.66602 9 15.999s2 15 2 23v49c0 12 5.83301 18.833 17.5 20.5s20.834 4.16699 27.501 7.5
s12.667 6 18 8s10 3 14 3c10 0 15 -6.33301 15 -19v-54c0 -18 0.666992 -30.333 2 -37s5.66602 -12.334 12.999 -17.001c8 -2 14.5 -4 19.5 -6s7.5 -7.66699 7.5 -17c0 -3.33301 -0.333008 -8.5 -1 -15.5s-1 -14.833 -1 -23.5c0 -10 0.5 -18 1.5 -24s1.5 -11.333 1.5 -16
c0 -9.33301 -1.33301 -15.333 -4 -18s-8.33398 -6 -17.001 -10s-14.667 -8 -18 -12c-5.33301 -6.66699 -8 -16.667 -8 -30v-263c0 -28 1.83301 -47.5 5.5 -58.5s10.167 -20.5 19.5 -28.5l14.5 -12c5 -4 7.5 -8.66699 7.5 -14c0 -11.333 -9 -17 -27 -17
c-6 0 -16 0.666992 -30 2s-24.333 2 -31 2c-5.33301 0 -11.333 -0.666992 -18 -2s-14.334 -2 -23.001 -2c-9.33301 -0 -15.833 1.83301 -19.5 5.5s-5.5 9.5 -5.5 17.5c0 10.667 1.33301 21.667 4 33c6 25.333 9 68.333 9 129z" />
    <glyph glyph-name="u" unicode="u" horiz-adv-x="314" 
d="M37 84l-0.00195312 344.998c0 16.667 -1.16699 37 -3.5 61s-5.83301 41.667 -10.5 53l-4.5 11.5c-1.66699 4.33301 -2.5 7.83301 -2.5 10.5c0 10 7 15 21 15l38 -2l40 2c9.33301 0 15.833 -3.33301 19.5 -10s5.5 -14 5.5 -22c0 -5.33301 -1.5 -17.333 -4.5 -36
s-4.5 -42 -4.5 -70v-241c0 -23.333 0.666992 -38.333 2 -45c4 -18.667 12.333 -28 25 -28s20 6.5 22 19.5s3 22.5 3 28.5v285c0 18 -2 34 -6 48c-9.33301 32.667 -14 49.334 -14 50.001c0 10 2.5 16 7.5 18s11.167 3 18.5 3l42 -2l32 2c2.66699 0 6.5 -0.833008 11.5 -2.5
s7.5 -7.16699 7.5 -16.5c0 -4 -0.833008 -11.833 -2.5 -23.5s-2.5 -26.5 -2.5 -44.5v-324c0 -17.333 0.833008 -35 2.5 -53s4.83398 -36.667 9.50098 -56c2.66699 -9.33301 4.83398 -17.166 6.50098 -23.499s2.5 -11.833 2.5 -16.5c0 -8.66699 -2.16699 -14.167 -6.5 -16.5
s-9.16602 -3.5 -14.499 -3.5l-21 2l-16 1c-10.667 0 -16.834 -0.5 -18.501 -1.5s-7.83398 -1.5 -18.501 -1.5c-6 0 -10.167 1.66699 -12.5 5s-4.16602 10 -5.49902 20s-4 15 -8 15c-3.33301 0 -7.83301 -2.83301 -13.5 -8.5l-16.5 -16.5
c-7.33301 -5.33301 -14.5 -9.83301 -21.5 -13.5s-15.167 -5.5 -24.5 -5.5c-16 0 -29.667 5.66699 -41 17c-15.333 16 -23 39.667 -23 71z" />
    <glyph glyph-name="v" unicode="v" horiz-adv-x="284" 
d="M137 2l-22 -2.00098c-27.333 0 -51.666 58.333 -72.999 175c-17.333 95.333 -26 177.333 -26 246c0 64.667 2.66699 107.334 8 128.001s13.666 31 24.999 31l11 -1l17 -1c6.66699 0 13 0.166992 19 0.5s12 0.833008 18 1.5c12.667 0 19 -6 19 -18
c0 -4.66699 -1 -11.5 -3 -20.5s-4 -18.833 -6 -29.5c-4.66699 -24 -8.16699 -48.333 -10.5 -73s-3.5 -43.667 -3.5 -57c0 -60.667 3.66699 -112.167 11 -154.5s14.333 -63.5 21 -63.5c8 0 15.333 23.333 22 70s10 96.667 10 150c0 42 -1.66699 76.333 -5 103
c-4.66699 24.667 -9 49.667 -13 75c0 12 6.66699 18 20 18l26 -2l31 2c14 0 23.333 -9.16699 28 -27.5s7 -59.5 7 -123.5c0 -61.333 -3 -116.333 -9 -165s-16 -96 -30 -142c-16 -52 -28.667 -85.333 -38 -100s-20 -22 -32 -22l-10 1z" />
    <glyph glyph-name="w" unicode="w" horiz-adv-x="420" 
d="M165 199l-0.00390625 158.001c0 22 -1.66699 39 -5 51c-4.66699 12 -9 24 -13 36c0 7.33301 2 11.833 6 13.5s10 2.5 18 2.5c9.33301 0 16.333 -0.5 21 -1.5s11.667 -1.5 21 -1.5l28 2l19 1c12 0 18 -4.66699 18 -14c0 -4.66699 -0.833008 -9 -2.5 -13
s-4.66699 -10.167 -9 -18.5s-7.33301 -17.333 -9 -27s-2.5 -18.834 -2.5 -27.501v-160c0 -19.333 1 -34.166 3 -44.499s7 -15.5 15 -15.5c10 0 18.667 20 26 60s11 87 11 141c0 42.667 -3.66699 77.667 -11 105s-18.666 53.666 -33.999 78.999c-1.33301 2 -7 9.33301 -17 22
c-6 7.33301 -9 13.333 -9 18c0 10 6.66699 15 20 15l20 -2l24 -1c7.33301 0 13.5 0.333008 18.5 1l14.5 2c20.667 0 37.167 -24 49.5 -72s18.5 -108.667 18.5 -182c0 -70 -8.33301 -138 -25 -204c-20.667 -81.333 -47.334 -122 -80.001 -122l-21 1l-16 -1
c-6 0 -11.167 2 -15.5 6s-8.33301 8.66699 -12 14s-7.83398 10 -12.501 14s-9 6 -13 6c-3.33301 0 -6.16602 -0.833008 -8.49902 -2.5s-6.66602 -7 -12.999 -16s-11.166 -14.833 -14.499 -17.5s-8.33301 -4 -15 -4l-18 1l-19 -1c-24.667 0 -47.667 30 -69 90
c-24 67.333 -36 150.333 -36 249c0 54.667 5.66699 105.334 17 152.001c14.667 59.333 34.334 89 59.001 89c7.33301 0 14.833 -0.5 22.5 -1.5s12.834 -1.5 15.501 -1.5c12.667 0 21.5 0.5 26.5 1.5s8.16699 1.5 9.5 1.5c11.333 0 17 -4.33301 17 -13
c0 -4.66699 -3.66699 -11.834 -11 -21.501s-13 -17.834 -17 -24.501c-30 -48 -45 -111 -45 -189c0 -48 3.5 -92.167 10.5 -132.5s16.167 -60.5 27.5 -60.5c5.33301 0 9.5 5.33301 12.5 16s4.5 25.334 4.5 44.001z" />
    <glyph glyph-name="x" unicode="x" horiz-adv-x="348" 
d="M113 319c0 6 -4.83008 24.9971 -14.4971 56.9971s-19.834 62.667 -30.501 92s-20 51.666 -28 66.999l-16 28c0 4.66699 2 8.66699 6 12s11 5 21 5l16 -1l31 -3l26 2l24 2c8 0 13.333 -2 16 -6s4 -9.33301 4 -16l-2 -23l-2 -23c0 -18 2.83301 -34.167 8.5 -48.5
s10.834 -21.5 15.501 -21.5s9.66699 7.33301 15 22s8 27 8 37c0 14 -4.66699 26.667 -14 38s-14 19.333 -14 24c0 6.66699 2.66699 11.167 8 13.5s11 3.5 17 3.5c6.66699 0 14.667 -0.666992 24 -2s15.666 -2 18.999 -2c6 0 13.333 0.666992 22 2s14.334 2 17.001 2
c10.667 0 18.5 -4.16699 23.5 -12.5s7.5 -24.166 7.5 -47.499c0 -29.333 -6.33301 -58.666 -19 -87.999c-6.66699 -16 -17.334 -34.333 -32.001 -55l-28 -41c-9.33301 -14 -14 -26.667 -14 -38c0 -14.667 8.66699 -47 26 -97c13.333 -37.333 24 -65 32 -83
c10 -25.333 19.333 -46.666 28 -63.999c12 -24 18 -37.333 18 -40c0 -9.33301 -8 -14 -24 -14c-9.33301 0 -16.5 0.5 -21.5 1.5s-15.833 1.5 -32.5 1.5l-25 -1l-19 -2c-12.667 0 -20.334 4.66699 -23.001 14c0 1.33301 -0.333008 3.66602 -1 6.99902
c0 2.66699 0.833008 8.33398 2.5 17.001s2.5 17 2.5 25c0 19.333 -5.33301 44.333 -16 75s-20.334 46 -29.001 46c-5.33301 0 -10.666 -6 -15.999 -18s-8 -29 -8 -51c0 -20.667 3.5 -39 10.5 -55s16.167 -26.833 27.5 -32.5s17 -11.5 17 -17.5
c0 -5.33301 -4.83301 -10.833 -14.5 -16.5l-28.5 -16.5c-4.66699 -3.33301 -13.334 -11 -26.001 -23c-8.66699 -8 -15.667 -12 -21 -12c-12.667 0 -27 14 -43 42c-18.667 32.667 -28 68.334 -28 107.001c0 24.667 4.66699 50.667 14 78c3.33301 10 10.333 26.167 21 48.5
s24.667 44.5 42 66.5c13.333 17.333 20 29 20 35z" />
    <glyph glyph-name="y" unicode="y" horiz-adv-x="312" 
d="M49 336l-0.000976562 83.998c0 31.333 -2.33301 57.5 -7 78.5s-11 36.833 -19 47.5c-4 6 -6 11.667 -6 17c0 11.333 6.66699 17 20 17c4 0 9.66699 -0.666992 17 -2s15 -2 23 -2c9.33301 0 16.833 0.333008 22.5 1s11.834 1.66699 18.501 3
c11.333 0 19.333 -4.66699 24 -14c2.66699 -5.33301 4 -12.333 4 -21l-1 -21l-2 -38v-130c0 -34 0.666992 -55.667 2 -65c4 -28 13.333 -42 28 -42c8.66699 0 14.334 6.66699 17.001 20s4 31.333 4 54v20v83c0 18.667 -1.16699 37.834 -3.5 57.501
s-6.83301 35.834 -13.5 48.501c-4 8 -8 13.667 -12 17s-6 6.33301 -6 9c0 5.33301 2 10.333 6 15s10 7 18 7l39 -2l41 2c8.66699 0 14.167 -2 16.5 -6s3.5 -12.333 3.5 -25v-31c3.33301 -95.333 5 -148 5 -158c0 -80 -10.667 -168.333 -32 -265
c-24 -110 -49.667 -165 -77 -165c-6 0 -11.333 0.666992 -16 2s-12.334 2 -23.001 2l-59 -4c-8.66699 0 -15.5 1 -20.5 3s-7.5 6.66699 -7.5 14s8 17.333 24 30c21.333 16.667 35.333 29.167 42 37.5s13.167 18.333 19.5 30s9.5 21.5 9.5 29.5c-26 20 -48.333 48.667 -67 86
c-21.333 41.333 -32 100 -32 176z" />
    <glyph glyph-name="z" unicode="z" horiz-adv-x="290" 
d="M129 397c0 17.333 -11.666 25.9971 -34.999 25.9971c-16.667 0 -30.667 -6.33301 -42 -19c-2.66699 -4 -4.66699 -6.66699 -6 -8c-4.66699 -6 -10.667 -9 -18 -9c-6 0 -10.5 1.83301 -13.5 5.5s-4.5 8.16699 -4.5 13.5c0 4.66699 1.66699 11.167 5 19.5
s5.66602 14.5 6.99902 18.5c4 10.667 8 23.834 12 39.501s6.33301 25.834 7 30.501l12 48c4 12 15 18 33 18c9.33301 0 22.333 -0.666992 39 -2s29.334 -2 38.001 -2c29.333 2.66699 51.333 4 66 4c9.33301 0 16.333 -2 21 -6c7.33301 -6.66699 11 -18.334 11 -35.001
c0 -10.667 -3.66699 -34.334 -11 -71.001c-12 -56.667 -25.333 -108.667 -40 -156c-5.33301 -17.333 -17.333 -52 -36 -104c-7.33301 -21.333 -12.166 -36.166 -14.499 -44.499s-3.5 -14.5 -3.5 -18.5c0 -8 3.33301 -13.167 10 -15.5s16.334 -3.5 29.001 -3.5
c17.333 0 32.666 5.16699 45.999 15.5s21.333 15.5 24 15.5c4 0 7.5 -1.83301 10.5 -5.5s4.5 -8.5 4.5 -14.5c0 -7.33301 -2.66699 -19 -8 -35c-7.33301 -21.333 -11.666 -36.333 -12.999 -45c-4 -24 -8.83301 -39.5 -14.5 -46.5s-14.167 -10.5 -25.5 -10.5
c-8 0 -20.333 0.666992 -37 2s-33.334 2 -50.001 2c-20.667 0 -37.334 -0.5 -50.001 -1.5s-25.334 -1.83301 -38.001 -2.5c-8.66699 0 -15 2.33301 -19 7s-6 11.334 -6 20.001s5.16699 30.834 15.5 66.501s23.5 77.167 39.5 124.5l35 102c13.333 40 20 65.667 20 77z" />
    <glyph glyph-name="c128" horiz-adv-x="420" 
d="M91 103l0.00195312 375.002c0 12.667 -1.33301 22 -4 28s-8.33398 9 -17.001 9c-9.33301 0 -17 -5 -23 -15l-8 -12.5c-2.66699 -4.33301 -6.33398 -6.5 -11.001 -6.5c-12 0 -18 8 -18 24c0 8.66699 0.5 18 1.5 28s2 18.833 3 26.5s1.5 17 1.5 28v25.5l-1 36l-1 26
c0 7.33301 1.66699 13.333 5 18s10.333 7 21 7c17.333 -2 33.333 -3.66699 48 -5s38.334 -2 71.001 -2c39.333 0 65.666 0.666992 78.999 2c32.667 3.33301 50.667 5 54 5c8.66699 0 14.667 -2.33301 18 -7s5 -9.66699 5 -15l-2 -68c0 -34.667 0.5 -57.334 1.5 -68.001
s2.5 -22.334 4.5 -35.001c0 -14.667 -6 -22 -18 -22c-4.66699 0 -9.83398 3 -15.501 9l-11.5 12c-5.33301 4.66699 -11.666 7.83398 -18.999 9.50098s-14 2.5 -20 2.5c-14.667 0 -24 -4.5 -28 -13.5s-6 -22.833 -6 -41.5v-55c0 -8.66699 3 -13 9 -13
c10 4 21.333 7.83301 34 11.5s26.667 5.5 42 5.5c44.667 0 74.667 -15 90 -45c9.33301 -18 14 -45.667 14 -83v-106c0 -60.667 -6.33301 -105 -19 -133c-16 -35.333 -45 -53 -87 -53c-16.667 0 -29.334 3 -38.001 9s-13 16.667 -13 32c0 14 0.5 30 1.5 48s1.5 29.333 1.5 34
l-2 52c0 16 5 24 15 24c6.66699 0 10.667 -4.66699 12 -14c0 -8.66699 2.66699 -13 8 -13c7.33301 0 11 8.66699 11 26v36c0 17.333 -3 29.666 -9 36.999s-15.333 11 -28 11c-18 0 -29.5 -4.66699 -34.5 -14s-7.5 -22 -7.5 -38v-135c0 -16 1 -31.333 3 -46
s3 -22.334 3 -23.001c0 -7.33301 -1.66699 -12.166 -5 -14.499s-7.66602 -3.5 -12.999 -3.5c-13.333 0 -21 0.666992 -23 2s-9.33301 2 -22 2c-10.667 0 -18.667 -0.666992 -24 -2s-12.333 -2 -21 -2c-15.333 0 -23 7 -23 21c0 16 1.33301 26 4 30
c7.33301 10.667 11 28 11 52z" />
    <glyph glyph-name="c129" horiz-adv-x="305" 
d="M37 165l0.00195312 364.999c0 40 -1.83301 69.333 -5.5 88l-11.5 57c0 10 3 16.667 9 20s12.667 5 20 5c25.333 0 41.166 -0.833008 47.499 -2.5s21.833 -2.5 46.5 -2.5c26 0 49.333 0.833008 70 2.5s37 2.5 49 2.5c14.667 0 24.334 -3.66699 29.001 -11
c2.66699 -4 4 -10.333 4 -19c0 -12.667 -0.666992 -22.167 -2 -28.5s-2 -11.166 -2 -14.499l-3 -35c0 -22.667 0.333008 -38.5 1 -47.5s1.66699 -18.5 3 -28.5c0 -12 -1.83301 -21.333 -5.5 -28s-9.83398 -10 -18.501 -10s-15.667 3 -21 9
c-6.66699 9.33301 -11.667 16 -15 20c-6 8 -12.167 13.333 -18.5 16s-14.833 4 -25.5 4c-18 0 -29.333 -4.5 -34 -13.5s-7 -26.5 -7 -52.5v-284c0 -31.333 1.66699 -55.666 5 -72.999s8.66602 -31 15.999 -41c4 -5.33301 11.667 -12.333 23 -21
c8.66699 -6.66699 13 -13.667 13 -21c0 -8.66699 -2.83301 -14.334 -8.5 -17.001s-12.167 -4 -19.5 -4c-12.667 0 -26.5 0.5 -41.5 1.5s-24.5 1.5 -28.5 1.5c-18 0 -31.167 -0.5 -39.5 -1.5s-16.833 -1.5 -25.5 -1.5c-12.667 0 -19 5.66699 -19 17
c4 17.333 7.5 38.833 10.5 64.5s4.5 53.5 4.5 83.5zM159.002 818.999c9.33301 0 16.1689 0.498047 20.502 1.49805s9.16602 1.5 14.499 1.5c15.333 0 23 -7.33301 23 -22c0 -21.333 -11.667 -42 -35 -62s-49 -30 -77 -30c-12 0 -18 4.33301 -18 13
c0 3.33301 1.33301 7.5 4 12.5s4.66699 9.16699 6 12.5s2.66602 7.83301 3.99902 13.5s2 11.834 2 18.501l-1 22c0 2.66699 0.5 6.83398 1.5 12.501s6.83301 8.5 17.5 8.5z" />
    <glyph glyph-name="c141" horiz-adv-x="363" 
d="M33 103l0.00390625 471c0 30.667 -2.16699 51 -6.5 61s-6.5 24.333 -6.5 43c0 5.33301 1.83301 10.333 5.5 15s10.167 7 19.5 7s17.5 -0.5 24.5 -1.5s13.167 -1.5 18.5 -1.5c15.333 0 26.666 0.5 33.999 1.5s15.666 1.5 24.999 1.5c4 0 7.83301 -1 11.5 -3
s5.5 -6.33301 5.5 -13l-14 -45.5c-4.66699 -15 -7 -29.167 -7 -42.5c0 -16.667 3.5 -29.5 10.5 -38.5s15.833 -13.5 26.5 -13.5c12 0 20.833 5.33301 26.5 16s8.5 22.667 8.5 36c0 8.66699 -0.833008 16 -2.5 22s-5.83398 16 -12.501 30l-9 18c-2 4 -3 7.66699 -3 11
c0 5.33301 1 9.66602 3 12.999c4.66699 6.66699 12.334 10 23.001 10c10 0 18.333 -0.666992 25 -2s12.667 -2 18 -2c7.33301 0 15.333 0.666992 24 2s16 2 22 2c9.33301 0 16.833 -3.33301 22.5 -10s8.5 -20.667 8.5 -42c0 -22 -4 -45 -12 -69
c-5.33301 -16 -13.333 -34 -24 -54l-22 -40c-5.33301 -12 -8 -24.667 -8 -38c0 -24 5.5 -66.833 16.5 -128.5s21.333 -110.167 31 -145.5s21.167 -71 34.5 -107c8.66699 -23.333 13 -38 13 -44c0 -14.667 -5 -22 -15 -22l-49 2c-8.66699 0 -16.834 -0.166992 -24.501 -0.5
s-14.834 -0.833008 -21.501 -1.5c-16 0 -27.167 21 -33.5 63l-19.5 135.5l-16 115.5c-8 52 -16 78 -24 78c-4.66699 0 -8.66699 -6.66699 -12 -20s-5 -35.333 -5 -66v-97c0 -26.667 1.16699 -52.667 3.5 -78s5.83301 -47 10.5 -65c2.66699 -10 6 -20.167 10 -30.5
s6 -16.833 6 -19.5c0 -5.33301 -2 -9.33301 -6 -12s-8.66699 -4 -14 -4c-2.66699 0 -8.66699 0.666992 -18 2s-20 2 -32 2c-11.333 0 -21.333 -0.5 -30 -1.5s-17.667 -1.83301 -27 -2.5c-6.66699 0 -11.167 2.16699 -13.5 6.5s-3.5 10.5 -3.5 18.5c0 4 0.666992 16.333 2 37
s2 34.334 2 41.001zM188.004 819c9.33301 0 16.1689 0.498047 20.502 1.49805s9.16602 1.5 14.499 1.5c15.333 0 23 -7.33301 23 -22c0 -21.333 -11.667 -42 -35 -62s-49 -30 -77 -30c-12 0 -18 4.33301 -18 13c0 3.33301 1.33301 7.5 4 12.5s4.66699 9.16699 6 12.5
s2.66602 7.83301 3.99902 13.5s2 11.834 2 18.501l-1 22c0 2.66699 0.5 6.83398 1.5 12.501s6.83301 8.5 17.5 8.5z" />
    <glyph glyph-name="c142" horiz-adv-x="422" 
d="M91 103v375.001c0 12.667 -1.33301 22 -4 28s-8.33398 9 -17.001 9c-9.33301 0 -17 -5 -23 -15l-8 -12.5c-2.66699 -4.33301 -6.33398 -6.5 -11.001 -6.5c-12 0 -18 8 -18 24c0 8.66699 0.5 18 1.5 28s2 18.833 3 26.5s1.5 17 1.5 28v25.5l-1 36l-1 26
c0 7.33301 1.66699 13.333 5 18s10.333 7 21 7c17.333 -2 33.333 -3.66699 48 -5s38.334 -2 71.001 -2c39.333 0 65.666 0.666992 78.999 2c32.667 3.33301 50.667 5 54 5c8.66699 0 14.667 -2.33301 18 -7s5 -9.66699 5 -15l-2 -68c0 -34.667 0.5 -57.334 1.5 -68.001
s2.5 -22.334 4.5 -35.001c0 -14.667 -6 -22 -18 -22c-6.66699 0 -12 2.33301 -16 7s-7.66699 9.33398 -11 14.001c-8 8 -21 12 -39 12c-12.667 0 -21.5 -3.66699 -26.5 -11s-7.5 -22 -7.5 -44v-55c0 -8.66699 3 -13 9 -13c11.333 0 20.833 2.83301 28.5 8.5
s22.5 8.5 44.5 8.5c28.667 0 51.334 -7.66699 68.001 -23c21.333 -20 32 -51.667 32 -95v-183c0 -12 0.666992 -23.167 2 -33.5s3.83301 -20 7.5 -29s6.16699 -15.667 7.5 -20s2 -9.5 2 -15.5c0 -8.66699 -5.33301 -13 -16 -13c-4 0 -12.333 0.666992 -25 2
s-23.334 2 -32.001 2c-7.33301 0 -18 -0.666992 -32 -2s-22.667 -2 -26 -2c-7.33301 0 -12.166 1.66699 -14.499 5s-3.5 7.33301 -3.5 12c0 3.33301 0.333008 5.66602 1 6.99902c3.33301 6 6.5 12.5 9.5 19.5s5.33301 16.5 7 28.5s2.5 22.333 2.5 31v113
c0 18.667 -3 31.334 -9 38.001s-15.333 10 -28 10c-16 0 -25.833 -4.33301 -29.5 -13s-5.5 -21.667 -5.5 -39v-85c0 -14 0.833008 -27.333 2.5 -40s4 -23.334 7 -32.001l7.5 -22c2 -6 3 -11 3 -15c0 -7.33301 -1.66699 -12.166 -5 -14.499s-7.66602 -3.5 -12.999 -3.5l-26 3
l-29 1c-9.33301 0 -19 -0.666992 -29 -2s-16.667 -2 -20 -2c-15.333 0 -23 7 -23 21c0 5.33301 1 10.333 3 15c4.66699 11.333 7.5 18.5 8.5 21.5s1.83301 9.5 2.5 19.5s1 18.667 1 26z" />
    <glyph glyph-name="c143" horiz-adv-x="361" 
d="M35 136l0.00195312 429.004c0 20 -0.333008 35.833 -1 47.5s-2.33398 24 -5.00098 37s-4.83398 22.167 -6.50098 27.5s-2.5 8.66602 -2.5 9.99902c0.666992 2.66699 1.33398 4.66699 2.00098 6c3.33301 4.66699 8.33301 7 15 7c3.33301 0 11.166 -0.5 23.499 -1.5
s24.166 -1.5 35.499 -1.5h23c6.66699 0 11.334 0.333008 14.001 1l15 2c10 0 15 -4 15 -12c0 -4 -0.666992 -8.33301 -2 -13c-4 -14 -7 -26.833 -9 -38.5s-3.66699 -24.334 -5 -38.001s-2 -29.834 -2 -48.501v-349c0 -25.333 2.33301 -43.5 7 -54.5s15.667 -16.5 33 -16.5
c10 0 17.667 4.5 23 13.5s8 27.167 8 54.5v368c0 28 -3 57 -9 87c-1.33301 7.33301 -3 14 -5 20s-3 11 -3 15c0 2 0.333008 4.5 1 7.5s4.66699 4.5 12 4.5l20 -2l33 -2c8.66699 0 18.334 0.666992 29.001 2s19.667 2 27 2c13.333 0 20 -5 20 -15
c0 -10.667 -1.33301 -21 -4 -31c-7.33301 -28 -11 -64 -11 -108v-412c0 -11.333 0.333008 -22.666 1 -33.999s1.83398 -22.333 3.50098 -33s3.5 -21 5.5 -31s3 -16.333 3 -19c0 -7.33301 -2 -12 -6 -14s-9 -3 -15 -3c-8.66699 0 -18.834 0.833008 -30.501 2.5
s-20.167 2.5 -25.5 2.5c-16 0 -27.667 -1.66699 -35 -5c-15.333 -6.66699 -23 -18.667 -23 -36c-1.33301 -14 -3 -22.333 -5 -25c-4 -6 -10.667 -9 -20 -9c-8.66699 0 -14.334 3 -17.001 9s-4 13.667 -4 23c0 14 -3.5 24.5 -10.5 31.5s-17.833 10.5 -32.5 10.5
c-10.667 0 -24 -0.666992 -40 -2s-27 -2 -33 -2c-13.333 0 -20 6.66699 -20 20c0 9.33301 0.666992 16.666 2 21.999s2.33301 10.166 3 14.499s2.16699 15.5 4.5 33.5s3.5 33.333 3.5 46z" />
    <glyph glyph-name="c144" horiz-adv-x="301" 
d="M37 119l-0.00195312 473.001c0 5.33301 -2.33301 8 -7 8c-7.33301 0 -15.666 -0.666992 -24.999 -2s-15.333 -2 -18 -2c-7.33301 0 -11 5 -11 15v12c0 7.33301 3.66699 11 11 11l18 -3l20 -2c4.66699 0 7 2 7 6c0 3.33301 -3 9.66602 -9 18.999
c-4.66699 10.667 -7 18.334 -7 23.001c0 7.33301 2 12.666 6 15.999s9.66699 5 17 5l26 -2l25 2l21 2c16 0 24 -9 24 -27l-2 -34c0 -6.66699 2 -10 6 -10h18c20 0 33.333 0.5 40 1.5s12.334 2.16699 17.001 3.5c6 0 9 -3 9 -9v-20c0 -6 -3 -9 -9 -9
c-0.666992 0 -6.66699 0.666992 -18 2s-24.333 2 -39 2h-19c-4.66699 0 -7 -3.33301 -7 -10v-51c0 -14 3 -21 9 -21c2 0 4.83301 2.33301 8.5 7s7.16699 8.33398 10.5 11.001c13.333 12 29 18 47 18c30.667 0 51.334 -14.667 62.001 -44c6 -17.333 9 -46 9 -86v-303
c0 -79.333 -7.66699 -133 -23 -161c-12 -22.667 -33 -34 -63 -34c-17.333 0 -28.5 2.66699 -33.5 8s-7.5 12.666 -7.5 21.999l2 34l2 38l-4 59v12c0.666992 2.66699 3.66699 5.66699 9 9c2.66699 0 5.33398 -1 8.00098 -3c0 -0.666992 0.333008 -1.33398 1 -2.00098
c3.33301 -3.33301 5.66602 -5 6.99902 -5c3.33301 0 5.5 2 6.5 6s1.5 9.66699 1.5 17v218c0 38 -8.66699 57 -26 57s-26 -20.667 -26 -62v-289c0 -17.333 -1.16699 -29.166 -3.5 -35.499s-8.5 -9.5 -18.5 -9.5c-4.66699 0 -9 0.5 -13 1.5s-9 1.5 -15 1.5
c-4.66699 0 -9.5 -0.5 -14.5 -1.5s-11.833 -1.5 -20.5 -1.5c-14 -0 -21 5.33301 -21 16c3.33301 12 6.16602 24.333 8.49902 37s3.5 34.667 3.5 66z" />
    <glyph glyph-name="c157" horiz-adv-x="322" 
d="M38 157l-0.00195312 309c0 16 -1 29.167 -3 39.5s-3.66699 18.166 -5 23.499l-7 36c0 10 6.33301 15 19 15c10 0 20 -0.5 30 -1.5s15.667 -1.5 17 -1.5c10.667 0 17 0.5 19 1.5s9.66699 1.5 23 1.5c12.667 0 19 -6.33301 19 -19c0 -2.66699 -1.5 -6.83398 -4.5 -12.501
s-4.83301 -9.5 -5.5 -11.5c-5.33301 -12.667 -8 -26 -8 -40v-26c0 -11.333 0.666992 -19.333 2 -24s4.66602 -7 9.99902 -7c10.667 0 22.834 8.16699 36.501 24.5s20.5 32.833 20.5 49.5c0 8.66699 -2.66699 17.334 -8 26.001l-6 9c-4 6 -6 11.333 -6 16c0 10 6 15 18 15
c2.66699 0 8.66699 -0.666992 18 -2s19 -2 29 -2c11.333 0 20 0.666992 26 2s11.333 2 16 2c6.66699 0 12.167 -3.33301 16.5 -10s6.5 -17.667 6.5 -33c0 -12.667 -2.33301 -25.5 -7 -38.5s-13 -27.167 -25 -42.5s-20 -27 -24 -35c-6.66699 -12.667 -10 -26.334 -10 -41.001
c0 -15.333 2.66699 -38.666 8 -69.999l32 -185c8 -51.333 16.333 -84.666 25 -99.999c2.66699 -4.66699 4 -9 4 -13c0 -8 -6 -12 -18 -12c-6 0 -15 0.5 -27 1.5s-20.667 1.5 -26 1.5c-17.333 -2 -29.666 -3 -36.999 -3c-9.33301 0 -14.833 1.5 -16.5 4.5
s-2.5 7.83301 -2.5 14.5c0 1.33301 0.833008 5.66602 2.5 12.999s2.5 13.333 2.5 18c0 26.667 -2.66699 57.834 -8 93.501l-15 98.5c-4.66699 30 -7 45.667 -7 47c-3.33301 13.333 -8.66602 20 -15.999 20c-6 0 -9.83301 -2.5 -11.5 -7.5s-2.5 -10.5 -2.5 -16.5v-142
c0 -16 0.166992 -31.667 0.5 -47s1.83301 -29.666 4.5 -42.999l5.5 -27.5c1 -5 1.5 -9.16699 1.5 -12.5c0 -8.66699 -7.33301 -13 -22 -13l-21 2l-22 1c-10.667 0 -19 -0.333008 -25 -1s-11.667 -1.33398 -17 -2.00098c-6 -0 -10 0.333008 -12 1
c-6 2.66699 -9 7.66699 -9 15c0 13.333 2 23.333 6 30c10.667 18.667 16 55.667 16 111zM167.998 709c9.33301 0 16.1689 0.498047 20.502 1.49805s9.16602 1.5 14.499 1.5c15.333 0 23 -7.33301 23 -22c0 -21.333 -11.667 -42 -35 -62s-49 -30 -77 -30
c-12 0 -18 4.33301 -18 13c0 3.33301 1.33301 7.5 4 12.5s4.66699 9.16699 6 12.5s2.66602 7.83301 3.99902 13.5s2 11.834 2 18.501l-1 22c0 2.66699 0.5 6.83398 1.5 12.501s6.83301 8.5 17.5 8.5z" />
    <glyph glyph-name="c158" horiz-adv-x="310" 
d="M37 119v473c0 5.33301 -2.33301 8 -7 8c-7.33301 0 -15.666 -0.666992 -24.999 -2s-15.333 -2 -18 -2c-7.33301 0 -11 5 -11 15v12c0 7.33301 3.66699 11 11 11l18 -3l20 -2c4.66699 0 7 2 7 6c0 3.33301 -3 9.66602 -9 18.999c-4.66699 10.667 -7 18.334 -7 23.001
c0 7.33301 2 12.666 6 15.999s9.66699 5 17 5l26 -2l25 2l21 2c16 0 24 -9 24 -27l-2 -34c0 -6.66699 2 -10 6 -10h18c20 0 33.333 0.5 40 1.5s12.334 2.16699 17.001 3.5c6 0 9 -3 9 -9v-20c0 -6 -3 -9 -9 -9c-0.666992 0 -6.66699 0.666992 -18 2s-24.333 2 -39 2h-19
c-4.66699 0 -7 -3.33301 -7 -10v-51c0 -14 3 -21 9 -21c2 0 4.83301 2.33301 8.5 7s7.16699 8.33398 10.5 11.001c13.333 12 29 18 47 18c30.667 0 51.334 -14.667 62.001 -44c6 -17.333 9 -46 9 -86v-313c0 -35.333 3.66699 -58 11 -68c4 -5.33301 6 -13.666 6 -24.999
c0 -12 -7 -18 -21 -18c-8.66699 0 -16.334 0.5 -23.001 1.5s-14.334 1.5 -23.001 1.5s-16 -0.333008 -22 -1s-11.667 -1.33398 -17 -2.00098c-12 -0 -18 5.33301 -18 16c2.66699 8 5.16699 16.5 7.5 25.5s3.83301 17 4.5 24s1 16.167 1 27.5v246c0 38 -8.66699 57 -26 57
s-26 -20.667 -26 -62v-239v-20.5c0 -7.66699 1.5 -16.5 4.5 -26.5s5.33301 -17.167 7 -21.5s2.5 -7.5 2.5 -9.5c0 -4 -1.33301 -7.83301 -4 -11.5s-7 -5.5 -13 -5.5c-12 0 -19.333 0.5 -22 1.5s-9 1.5 -19 1.5l-41 -3c-14 -0 -21 5.33301 -21 16
c3.33301 12 6.16602 24.333 8.49902 37s3.5 34.667 3.5 66z" />
    <glyph glyph-name="nonbreakingspace" unicode="&#xa0;" horiz-adv-x="500" 
 />
    <glyph glyph-name="exclamdown" unicode="&#xa1;" horiz-adv-x="330" 
d="M161 161c0 2 -0.834961 3.66992 -2.50195 5.00293s-4.83398 3.33301 -9.50098 6c-25.333 14 -44 29 -56 45c-21.333 28.667 -36 70.667 -44 126c-3.33301 25.333 -8 88.666 -14 189.999c-2 34.667 -5.33301 61.667 -10 81s-11 35 -19 47c-4 6 -6 11.333 -6 16
c0 6.66699 1.83301 12.167 5.5 16.5s10.5 6.5 20.5 6.5c5.33301 0 11.333 -0.666992 18 -2s13 -2 19 -2c7.33301 0 14 0.666992 20 2s15.667 2 29 2c8.66699 0 15.334 -2.66699 20.001 -8s7 -16 7 -32v-169c0 -52 4.33301 -91.667 13 -119s18.334 -41 29.001 -41
c10 0 16.833 12.5 20.5 37.5s5.5 57.5 5.5 97.5c0 35.333 -1 65.5 -3 90.5s-6.66699 47.5 -14 67.5c-4 11.333 -9.66699 22.166 -17 32.499s-11 18.166 -11 23.499c0 13.333 8 20 24 20c8.66699 0 19 -0.5 31 -1.5s19.667 -1.5 23 -1.5c14 0 24.5 0.5 31.5 1.5
s12.167 1.5 15.5 1.5c8.66699 0 14.667 -3 18 -9s5 -14.667 5 -26c0 -82.667 -2.16699 -158.5 -6.5 -227.5s-10.666 -129.5 -18.999 -181.5s-18.833 -101.667 -31.5 -149c-19.333 -71.333 -38 -107 -56 -107c-2 0 -8 0.666992 -18 2s-21.667 2 -35 2l-32 -2l-30 -2h-11
c-10 2.66699 -15 10 -15 22c0 7.33301 7 16 21 26c22.667 16 35.667 26 39 30c9.33301 10 18 22 26 36c12.667 22 19 37.667 19 47zM160.998 754.003c13.333 0 22.666 1.99902 27.999 5.99902s8 8.66699 8 14c0 6 -4.83301 10.667 -14.5 14s-14.5 7 -14.5 11
c0.666992 2.66699 1.33398 5 2.00098 7s3.33398 3 8.00098 3c2.66699 0 7 -0.333008 13 -1s13.667 -1 23 -1l36 2c8.66699 0 15.5 -2.83301 20.5 -8.5s7.5 -13.167 7.5 -22.5c0 -18.667 -9 -33.667 -27 -45s-48 -17 -90 -17c-50 0 -84.333 6.33301 -103 19
c-13.333 9.33301 -20 23 -20 41c0 14 2.16699 23 6.5 27s10.166 6 17.499 6l11 -1l25 -3l38 2c9.33301 0 14 -2.66699 14 -8c0 -3.33301 -2.33301 -6.33301 -7 -9l-12 -7c-3.33301 -3.33301 -5 -6.66602 -5 -9.99902c0 -6.66699 3 -11.5 9 -14.5s14.667 -4.5 26 -4.5z" />
    <glyph glyph-name="cent" unicode="&#xa2;" horiz-adv-x="312" 
d="M49 336l-0.000976562 83.9971c0 16.667 -1 33.5 -3 50.5s-5.16699 32.5 -9.5 46.5s-8.83301 23 -13.5 27s-7 9 -7 15c0 4.66699 2 9.33398 6 14.001s9 7 15 7c4 0 9.66699 -0.666992 17 -2s15 -2 23 -2c9.33301 0 16.833 0.333008 22.5 1s11.834 1.66699 18.501 3
c11.333 0 19.333 -4.66699 24 -14c2.66699 -5.33301 4 -12.333 4 -21l-1 -21l-2 -38v-130c0 -34 0.666992 -55.667 2 -65c4 -28 13.333 -42 28 -42c8.66699 0 14.334 6.66699 17.001 20s4 31.333 4 54v20v83c0 18.667 -1.16699 37.834 -3.5 57.501
s-6.83301 35.834 -13.5 48.501c-4 8 -8 13.667 -12 17s-6 6.33301 -6 9c0 5.33301 2 10.333 6 15s10 7 18 7l39 -2l41 2c8.66699 0 14.167 -2 16.5 -6s3.5 -12.333 3.5 -25v-31c3.33301 -95.333 5 -148 5 -158c0 -80 -10.667 -168.333 -32 -265
c-24 -110 -49.667 -165 -77 -165c-6 0 -11.333 0.666992 -16 2s-12.334 2 -23.001 2l-59 -4c-8.66699 0 -15.5 1 -20.5 3s-7.5 6.66699 -7.5 14s8 17.333 24 30c21.333 16.667 35.333 29.167 42 37.5s13.167 18.333 19.5 30s9.5 21.5 9.5 29.5c-26 20 -48.333 48.667 -67 86
c-21.333 41.333 -32 100 -32 176zM154.999 645.997c7.33301 0 13.667 0.665039 19 1.99805s8 5.33301 8 12c0 6 -3.33301 10.833 -10 14.5s-10 7.83398 -10 12.501c0 8.66699 6 13 18 13l28 -3l30 2c18.667 0 28 -11 28 -33c0 -16.667 -7 -30 -21 -40
c-18.667 -13.333 -48.334 -20 -89.001 -20c-43.333 0 -73.666 6.66699 -90.999 20c-12.667 10 -19 23.667 -19 41c0 10.667 1.16699 18.834 3.5 24.501s8.5 8.5 18.5 8.5l32 -3l32 2c10.667 0 16 -3.66699 16 -11c0 -4.66699 -3.83301 -8.5 -11.5 -11.5
s-11.5 -7.16699 -11.5 -12.5c0 -4 2.5 -8 7.5 -12s12.5 -6 22.5 -6z" />
    <glyph glyph-name="sterling" unicode="&#xa3;" horiz-adv-x="271" 
d="M121 219l0.00292969 372.999c0 10 -0.833008 20.167 -2.5 30.5s-3.33398 17.833 -5.00098 22.5s-3.83398 9.83398 -6.50098 15.501s-4 11.5 -4 17.5c0 8.66699 2.33301 14.5 7 17.5s9.66699 4.5 15 4.5c3.33301 0 10.666 -0.666992 21.999 -2s21 -2 29 -2
c9.33301 0 18 0.333008 26 1s17 1.66699 27 3c8 0 13.667 -1.33301 17 -4s5 -7.33398 5 -14.001c0 -3.33301 -0.333008 -6.66602 -1 -9.99902c-2.66699 -10 -5 -19.333 -7 -28c-8 -35.333 -12 -69.333 -12 -102v-392c0 -41.333 -5 -72.666 -15 -93.999
c-20 -42.667 -58.667 -64 -116 -64c-30.667 0 -54.5 4.33301 -71.5 13s-25.5 21 -25.5 37c0 2 0.666992 9.16699 2 21.5s2 22.5 2 30.5v11c0 12 -1.16699 23.5 -3.5 34.5s-3.5 19.167 -3.5 24.5c0 7.33301 1.5 13.166 4.5 17.499s8.16699 6.5 15.5 6.5
c6 0 11.333 -3.33301 16 -10l10 -20c7.33301 -13.333 18.333 -20 33 -20c17.333 0 29.333 10 36 30c4 12.667 6 29.667 6 51z" />
    <glyph glyph-name="yen" unicode="&#xa5;" horiz-adv-x="308" 
d="M37 165l-0.00292969 364.997c0 40 -1.83301 69.333 -5.5 88l-11.5 57c0 12 3.33301 19.167 10 21.5s17.334 3.5 32.001 3.5c7.33301 0 19.333 -0.833008 36 -2.5s28.334 -2.5 35.001 -2.5c28.667 0 49.5 2.16699 62.5 6.5s25.833 14.833 38.5 31.5
s19.334 25.334 20.001 26.001c6.66699 7.33301 14.667 11 24 11c8 0 13.333 -2.83301 16 -8.5s4 -12.167 4 -19.5c0 -6.66699 -1.66699 -24 -5 -52s-5 -53.333 -5 -76c0 -11.333 0.666992 -21.666 2 -30.999s2 -18.333 2 -27c0 -16 -2.33301 -26.333 -7 -31
s-11.667 -7 -21 -7c-7.33301 0 -13.166 0.5 -17.499 1.5s-9.33301 2 -15 3l-16.5 3c-5.33301 1 -12 1.5 -20 1.5c-20 0 -33 -4.16699 -39 -12.5s-9 -26.166 -9 -53.499v-284c0 -31.333 1.66699 -55.666 5 -72.999s8.66602 -31 15.999 -41c4 -5.33301 11.667 -12.333 23 -21
c8.66699 -6.66699 13 -13.667 13 -21c0 -8.66699 -2.83301 -14.334 -8.5 -17.001s-12.167 -4 -19.5 -4c-12.667 0 -26.5 0.5 -41.5 1.5s-24.5 1.5 -28.5 1.5c-18 0 -31.167 -0.5 -39.5 -1.5s-16.833 -1.5 -25.5 -1.5c-12.667 0 -19 5.66699 -19 17
c4 17.333 7.5 38.833 10.5 64.5s4.5 53.5 4.5 83.5z" />
    <glyph glyph-name="section" unicode="&#xa7;" horiz-adv-x="360" 
d="M176 708c47.333 0 80.333 -7.00195 99 -21.002c13.333 -10 20 -22.667 20 -38c0 -22 -1.33301 -36 -4 -42s-4 -17.333 -4 -34c0 -10.667 0.666992 -19 2 -25s2 -14.667 2 -26c0 -10 -2.16699 -17.167 -6.5 -21.5s-10.166 -6.5 -17.499 -6.5c-8.66699 0 -15.5 3 -20.5 9
s-9.83301 12.667 -14.5 20c-14.667 17.333 -29 26 -43 26c-13.333 0 -20 -7 -20 -21c0 -12.667 8.33301 -27.667 25 -45c6.66699 -7.33301 19.334 -19.666 38.001 -36.999c32 -29.333 56 -56.333 72 -81c22 -33.333 33 -67.333 33 -102
c0 -14.667 -1.83301 -28.167 -5.5 -40.5s-9.83398 -25.833 -18.501 -40.5l-14 -22c-4 -6 -6 -10.667 -6 -14c0 -2.66699 1.83301 -7.66699 5.5 -15s6.33398 -13 8.00098 -17s3.5 -12.333 5.5 -25s3 -23.334 3 -32.001c0 -37.333 -11.5 -66.166 -34.5 -86.499
s-55.167 -30.5 -96.5 -30.5c-44 0 -80.5 6.33301 -109.5 19s-43.5 29.334 -43.5 50.001c0.666992 7.33301 1.5 17.166 2.5 29.499s1.5 22.166 1.5 29.499l-1 25l-3 27c0 11.333 3 19.333 9 24s12.667 7 20 7c9.33301 0 17.666 -5.33301 24.999 -16l18 -34
c8.66699 -15.333 18.667 -26.333 30 -33c7.33301 -4 14.333 -6 21 -6c9.33301 0 16.5 2.16699 21.5 6.5s7.5 9.83301 7.5 16.5c0 8.66699 -1.83301 15.834 -5.5 21.501s-10.167 13.167 -19.5 22.5c-90 86.667 -135 153 -135 199c0 16.667 2.16699 31.834 6.5 45.501
s11.833 27.167 22.5 40.5c6 7.33301 12.333 13.666 19 18.999s10 9 10 11c-10 16 -19 34.333 -27 55s-12 46.334 -12 77.001c0 33.333 6.33301 60 19 80c21.333 34.667 59.666 52 114.999 52zM114 349.998c0 -16 11.333 -35.999 34 -59.999l36 -36
c14.667 -14.667 25.167 -24.334 31.5 -29.001s10.833 -7 13.5 -7c10.667 0 16 7.66699 16 23c0 14 -5 28.333 -15 43c-5.33301 8 -15 19 -29 33c-44 44.667 -67.333 67 -70 67c-3.33301 0 -7 -4.16699 -11 -12.5s-6 -15.5 -6 -21.5z" />
    <glyph glyph-name="dieresis" unicode="&#xa8;" horiz-adv-x="320" 
d="M37 154l0.00195312 400.999c0 45.333 -2.5 72 -7.5 80s-7.5 21.333 -7.5 40c0 6.66699 2.83301 12.5 8.5 17.5s15.5 7.5 29.5 7.5c7.33301 0 19.666 -0.833008 36.999 -2.5s37.333 -2.5 60 -2.5c40 0 65.833 0.833008 77.5 2.5s20.834 2.5 27.501 2.5s12.5 -2 17.5 -6
s7.5 -11.667 7.5 -23c0 -4 -0.666992 -14.333 -2 -31s-2 -33.667 -2 -51c0 -9.33301 0.166992 -18.333 0.5 -27s1.66602 -17.834 3.99902 -27.501s3.5 -17.167 3.5 -22.5c0 -20.667 -8 -31 -24 -31c-6.66699 0 -13.667 4.33301 -21 13
c-4.66699 5.33301 -9 10.666 -13 15.999c-12.667 13.333 -26.667 20 -42 20c-13.333 0 -24 -4.33301 -32 -13s-12 -20.334 -12 -35.001c0 -8.66699 1 -15 3 -19c7.33301 -14.667 24 -22 50 -22c5.33301 0 14.5 0.666992 27.5 2s20.167 2 21.5 2
c17.333 0 30.333 -4.66699 39 -14c6.66699 -7.33301 10 -16.666 10 -27.999c0 -10 -3.83301 -19.5 -11.5 -28.5s-19.5 -13.5 -35.5 -13.5h-79c-8 0 -14.167 -3 -18.5 -9s-6.5 -16.667 -6.5 -32v-152c0 -22 3.33301 -36.333 10 -43c4.66699 -4.66699 12.667 -7 24 -7
c14 0 26 1 36 3s20.667 7.66699 32 17c3.33301 2.66699 9 8.33398 17 17.001c5.33301 6 11 9 17 9c11.333 0 17 -7.66699 17 -23c0 -13.333 -0.666992 -22.666 -2 -27.999s-2 -12.666 -2 -21.999l1 -30l1 -29c0 -10.667 -1.66699 -18 -5 -22
c-5.33301 -6.66699 -15.333 -10 -30 -10c-46 -0 -72.333 0.333008 -79 1c-26 2.66699 -48.333 4 -67 4c-26.667 0 -42.834 -0.833008 -48.501 -2.5s-15.167 -2.5 -28.5 -2.5s-20 6 -20 18c0 4 1.16699 10 3.5 18s4.66602 18.5 6.99902 31.5s3.83301 27.5 4.5 43.5
s1.33398 30.333 2.00098 43zM44.002 760.999c0 14 4.99902 25.667 14.999 35s24 14 42 14c16.667 0 29.667 -4.5 39 -13.5s14 -19.5 14 -31.5c0 -12.667 -4 -23.334 -12 -32.001c-10 -11.333 -24.667 -17 -44 -17c-17.333 0 -30.666 4.33301 -39.999 13
s-14 19.334 -14 32.001zM174.001 760.999c0 14 4.99902 25.667 14.999 35s24 14 42 14c16.667 0 29.667 -4.5 39 -13.5s14 -19.5 14 -31.5c0 -12.667 -4 -23.334 -12 -32.001c-10 -11.333 -24.667 -17 -44 -17c-17.333 0 -30.666 4.33301 -39.999 13s-14 19.334 -14 32.001z
" />
    <glyph glyph-name="ordfeminine" unicode="&#xaa;" horiz-adv-x="297" 
d="M30 264l0.000976562 148.997c0 84 7.33301 147.333 22 190c24 70 68.667 105 134 105c23.333 0 42 -2.66699 56 -8c22.667 -8.66699 34 -22.667 34 -42c0 -5.33301 -0.333008 -13.833 -1 -25.5s-1 -22.5 -1 -32.5l1 -46l2 -42c0 -7.33301 -1.5 -12.666 -4.5 -15.999
s-6.16699 -5 -9.5 -5c-4 0 -8.66699 2.83301 -14 8.5s-10.333 11.5 -15 17.5c-5.33301 4.66699 -12 8.83398 -20 12.501s-16.333 5.5 -25 5.5c-16 0 -27.667 -4.33301 -35 -13c-10 -11.333 -15 -32 -15 -62c0 -20.667 3.5 -34.5 10.5 -41.5s22.5 -10.5 46.5 -10.5l17 1l22 2
c12 0 21.5 -3 28.5 -9s10.5 -15.667 10.5 -29c0 -12.667 -3.83301 -22 -11.5 -28s-17.834 -9 -30.501 -9h-48c-20 0 -33 -5.66699 -39 -17c-3.33301 -6 -5 -15.333 -5 -28v-32c0 -36 3 -63 9 -81c10 -29.333 28 -44 54 -44c9.33301 0 16.833 1.83301 22.5 5.5
s11.167 8.83398 16.5 15.501c6 9.33301 13 14 21 14c6 0 9.83301 -2.16699 11.5 -6.5s2.5 -9.16602 2.5 -14.499l-1 -50l1 -50c0 -16 -4 -28 -12 -36c-13.333 -13.333 -38.333 -20 -75 -20c-49.333 0 -87 17.333 -113 52c-31.333 41.333 -47 114.666 -47 219.999z" />
    <glyph glyph-name="guillemotleft" unicode="&#xab;" 
d="M92 310l67 -99c2.66699 -4 3.33398 -7 2.00098 -9c-0.666992 -1.33301 -3.33398 -2 -8.00098 -2l-22 1l-16 -1c-6 0 -11 3 -15 9l-59 93l-3 8l3 8l59 93c4 6 9 9 15 9l16 -1l22 1c4.66699 0 7.33398 -0.666992 8.00098 -2c1.33301 -2 0.666016 -5 -2.00098 -9zM192 310
l67 -99c2.66699 -4 3.33398 -7 2.00098 -9c-0.666992 -1.33301 -3.33398 -2 -8.00098 -2l-22 1l-16 -1c-6 0 -11 3 -15 9l-59 93c-2 3.33301 -3 6 -3 8s1 4.66699 3 8l59 93c4 6 9 9 15 9l16 -1l22 1c6 0 9 -1.33301 9 -4l-3 -7z" />
    <glyph glyph-name="minus" unicode="&#xad;" horiz-adv-x="240" 
d="M28 271c0 7.33301 -0.332031 13.334 -0.999023 18.001s-1 8 -1 10c0 11.333 5.66699 17 17 17c5.33301 0 14.666 -0.833008 27.999 -2.5s30.333 -2.5 51 -2.5l44 3l30 2c12 0 18 -4 18 -12c0 -2 -0.333008 -5.33301 -1 -10s-1 -10 -1 -16
c0 -9.33301 0.333008 -15.833 1 -19.5s1 -7.83398 1 -12.501c0 -10.667 -5.33301 -16 -16 -16c-2.66699 0 -13.667 1 -33 3s-34 3 -44 3l-49 -2l-34 -4c-8 0 -12 4.33301 -12 13l1 11z" />
    <glyph glyph-name="macron" unicode="&#xaf;" horiz-adv-x="220" 
d="M55 201l0.00292969 329.999c0 34.667 -1.33301 62.334 -4 83.001s-5.33398 42.667 -8.00098 66c0 13.333 7.33301 20 22 20l50 -3c9.33301 0 17.166 0.333008 23.499 1l18.5 2c7.33301 0 12.666 -1.33301 15.999 -4s5 -7 5 -13c0 -5.33301 -1.33301 -15.166 -4 -29.499
s-4.16699 -23 -4.5 -26s-1.16602 -14.167 -2.49902 -33.5s-2 -39.666 -2 -60.999v-336c0 -56 1.5 -84.667 4.5 -86s4.5 -31.333 4.5 -90c0 -14 -8 -21 -24 -21c-10 0 -20.5 0.5 -31.5 1.5s-17.167 1.5 -18.5 1.5l-20 -1l-22 -2c-10.667 0 -16 5.66699 -16 17
c0 4.66699 0.333008 8.66699 1 12c3.33301 17.333 5.66602 32.666 6.99902 45.999c0 22 0.833008 47.167 2.5 75.5s2.5 45.166 2.5 50.499zM10.0029 760.999c0 11.333 4.16699 22.332 12.5 32.999s20.166 16 35.499 16c28 0 42 -15 42 -45c0 -15.333 -4 -27.333 -12 -36
s-19 -13 -33 -13c-15.333 0 -26.666 4.83301 -33.999 14.5s-11 19.834 -11 30.501zM120.003 760.998c0 15.333 4.33301 27.334 13 36.001s20 13 34 13c14.667 0 25.5 -4.5 32.5 -13.5s10.5 -19.5 10.5 -31.5c0 -12.667 -3 -23.334 -9 -32.001
c-8 -11.333 -20.333 -17 -37 -17c-29.333 0 -44 15 -44 45z" />
    <glyph glyph-name="twosuperior" unicode="&#xb2;" horiz-adv-x="176" 
d="M33 201l0.00292969 330c0 34.667 -1.33301 62.334 -4 83.001s-5.33398 42.667 -8.00098 66c0 13.333 7.33301 20 22 20l50 -3c9.33301 0 17.166 0.333008 23.499 1l18.5 2c7.33301 0 12.666 -1.33301 15.999 -4s5 -7 5 -13c0 -5.33301 -1.33301 -15.166 -4 -29.499
s-4.16699 -23 -4.5 -26s-1.16602 -14.167 -2.49902 -33.5s-2 -39.666 -2 -60.999v-336c0 -21.333 0.333008 -42.333 1 -63s1.66699 -38.334 3 -53.001c2.66699 -10.667 4.16699 -20.5 4.5 -29.5s0.5 -19.167 0.5 -30.5c0 -14 -8 -21 -24 -21c-10 0 -20.5 0.5 -31.5 1.5
s-17.167 1.5 -18.5 1.5l-20 -1l-22 -2c-10.667 0 -16 5.66699 -16 17c0 4.66699 0.333008 8.66699 1 12c3.33301 17.333 5.66602 32.666 6.99902 45.999c0 22 0.833008 47.167 2.5 75.5s2.5 45.166 2.5 50.499z" />
    <glyph glyph-name="threesuperior" unicode="&#xb3;" horiz-adv-x="170" 
d="M34 136v325.996c0 33.333 -2.5 53.833 -7.5 61.5s-7.5 20.5 -7.5 38.5c0 6 1.33301 10.333 4 13s8 4 16 4l48 -2c12 0 22.5 0.5 31.5 1.5s13.833 1.5 14.5 1.5c7.33301 0 12.333 -1.33301 15 -4s4 -6 4 -10c0 -3.33301 -1 -7.66602 -3 -12.999
c-4 -9.33301 -6.33301 -15.666 -7 -18.999c-4 -14 -6 -36 -6 -66v-321c0 -13.333 1.33301 -33.666 4 -60.999s5.66699 -44.166 9 -50.499s5 -12.5 5 -18.5c0 -11.333 -7 -17 -21 -17l-16 2c-4.66699 1.33301 -10 2 -16 2h-14c-9.33301 0 -16 -0.666992 -20 -2
s-12.333 -2 -25 -2c-13.333 0 -20 5.66699 -20 17c0 4 1.5 11 4.5 21s4.83301 17.667 5.5 23zM16 646.996c0 13.333 5.00098 25 15.001 35c12.667 12 30 18 52 18c21.333 0 37.666 -4.66699 48.999 -14s17 -21 17 -35s-5 -25.667 -15 -35c-12.667 -12 -30.667 -18 -54 -18
c-21.333 0 -37.333 4.66699 -48 14s-16 21 -16 35z" />
    <glyph glyph-name="acute" unicode="&#xb4;" horiz-adv-x="243" 
d="M33 148l-0.00195312 296.995c0 28.667 -1.5 52 -4.5 70s-5.33301 30 -7 36s-2.5 9.66699 -2.5 11c0 8 2.16699 13 6.5 15s9.83301 3 16.5 3c14.667 0 27.5 -0.833008 38.5 -2.5s21.833 -2.5 32.5 -2.5c18 0 32.333 2.33301 43 7s21 15 31 31l13 24
c4.66699 8.66699 10.334 13 17.001 13c4.66699 0 8.5 -1.83301 11.5 -5.5s4.5 -11.167 4.5 -22.5c0 -18 -1.66699 -41.667 -5 -71s-5 -49.666 -5 -60.999c0 -10.667 0.666992 -19.667 2 -27s2 -18.333 2 -33c0 -6.66699 -0.666992 -12.167 -2 -16.5s-5 -6.5 -11 -6.5
c-9.33301 5.33301 -19 10.166 -29 14.499s-21.333 6.5 -34 6.5c-10.667 0 -17.334 -4.66699 -20.001 -14s-4 -31.333 -4 -66v-34v-141c0 -36 1.5 -63.167 4.5 -81.5s7.83301 -32.166 14.5 -41.499c6.66699 -7.33301 11.334 -13 14.001 -17c6 -7.33301 9 -13.666 9 -18.999
c0 -6 -2.16699 -9.83301 -6.5 -11.5s-9.16602 -2.5 -14.499 -2.5c-3.33301 0 -13 0.833008 -29 2.5s-28.667 2.5 -38 2.5l-26 -2l-21 -3c-12 0 -18 6.33301 -18 19c0 4.66699 0.833008 9.83398 2.5 15.501s3.66699 13.334 6 23.001s4.33301 23.334 6 41.001
s2.5 34.167 2.5 49.5z" />
    <glyph glyph-name="paragraph" unicode="&#xb6;" horiz-adv-x="420" 
d="M193 185v184.996c0 12 -1 21 -3 27c-4 11.333 -11.333 17 -22 17c-2 0 -6.33301 -1 -13 -3s-16 -3 -28 -3c-31.333 0 -55.333 9.33301 -72 28s-25 47.334 -25 86.001c0 56.667 16.167 101.834 48.5 135.501s76.5 50.5 132.5 50.5c12.667 0 24.5 -0.833008 35.5 -2.5
s28 -5 51 -10s39.833 -7.5 50.5 -7.5c6 0 12.833 0.333008 20.5 1s16.167 1.66699 25.5 3c6.66699 0 10 -4.33301 10 -13c0 -12.667 -4 -24 -12 -34c-10.667 -13.333 -26 -20 -46 -20c-8 0 -15 0.666992 -21 2s-15 2 -27 2c-15.333 0 -25.5 -4.16699 -30.5 -12.5
s-7.5 -17.833 -7.5 -28.5c0 -18.667 1.66699 -67.5 5 -146.5l8.5 -207.5c2.33301 -59.333 3.5 -105 3.5 -137c0 -51.333 -4.33301 -89 -13 -113c-15.333 -42.667 -45.666 -64 -90.999 -64c-28 0 -51.333 8 -70 24c-22.667 19.333 -34 47.666 -34 84.999
c0 20.667 3.33301 36.334 10 47.001s16.667 16 30 16c7.33301 0 12.666 -0.666992 15.999 -2s6.83301 -3.66602 10.5 -6.99902s7.5 -6.16602 11.5 -8.49902s8.33301 -3.5 13 -3.5c15.333 0 25.333 13 30 39c2 12 3 37 3 75z" />
    <glyph glyph-name="periodcentered" unicode="&#xb7;" horiz-adv-x="160" 
d="M25 275c0 28 6.00098 48.334 18.001 61.001c10 10 23 15 39 15c16.667 0 29.667 -6 39 -18s14 -31.333 14 -58c0 -22.667 -3.66699 -41 -11 -55c-9.33301 -17.333 -24 -26 -44 -26c-22.667 0 -38.334 10.667 -47.001 32c-5.33301 13.333 -8 29.666 -8 48.999z" />
    <glyph glyph-name="periodcentered" unicode="&#x2219;" horiz-adv-x="160" 
d="M25 275c0 28 6.00098 48.334 18.001 61.001c10 10 23 15 39 15c16.667 0 29.667 -6 39 -18s14 -31.333 14 -58c0 -22.667 -3.66699 -41 -11 -55c-9.33301 -17.333 -24 -26 -44 -26c-22.667 0 -38.334 10.667 -47.001 32c-5.33301 13.333 -8 29.666 -8 48.999z" />
    <glyph glyph-name="cedilla" unicode="&#xb8;" horiz-adv-x="280" 
d="M24 179l-0.00195312 249.999c0 61.333 12.333 104 37 128c18 18 44.333 27 79 27c28 0 51.333 -6.33301 70 -19c36 -24 54 -67 54 -129v-67c0 -59.333 -31.333 -109.333 -94 -150c-29.333 -19.333 -44 -42 -44 -68c0 -12 3.83301 -20.833 11.5 -26.5s16.5 -8.5 26.5 -8.5
c8.66699 0 16.834 2 24.501 6s14.5 11.333 20.5 22l10 20c4.66699 6.66699 10 10 16 10c10 0 15 -7.33301 15 -22c0 -5.33301 -0.5 -11.333 -1.5 -18s-1.5 -15 -1.5 -25c0 -10.667 0.5 -22.5 1.5 -35.5s1.5 -19.833 1.5 -20.5c0 -17.333 -8.16699 -31.166 -24.5 -41.499
s-38.166 -15.5 -65.499 -15.5c-56 0 -94.667 22.333 -116 67c-13.333 28 -20 66.667 -20 116zM117.998 397.999v-101c0 -12 4 -18 12 -18c8.66699 0 18 7.66699 28 23c12.667 19.333 19 42.333 19 69c0 28.667 -2.83301 47.667 -8.5 57s-14.167 14 -25.5 14
c-8.66699 0 -15 -3 -19 -9s-6 -17.667 -6 -35zM23.998 650.999c0 14 4.99902 25.667 14.999 35s24 14 42 14c16.667 0 29.667 -4.5 39 -13.5s14 -19.5 14 -31.5c0 -12.667 -4 -23.334 -12 -32.001c-10 -11.333 -24.667 -17 -44 -17c-17.333 0 -30.666 4.33301 -39.999 13
s-14 19.334 -14 32.001zM153.997 650.999c0 14 4.99902 25.667 14.999 35s24 14 42 14c16.667 0 29.667 -4.5 39 -13.5s14 -19.5 14 -31.5c0 -12.667 -4 -23.334 -12 -32.001c-10 -11.333 -24.667 -17 -44 -17c-17.333 0 -30.666 4.33301 -39.999 13s-14 19.334 -14 32.001z
" />
    <glyph glyph-name="onesuperior" unicode="&#xb9;" horiz-adv-x="640" 
d="M47 103v420.002c0 41.333 -2.66699 71.666 -8 90.999c-6.66699 20 -13 40 -19 60c0 8.66699 1.83301 15.167 5.5 19.5s8.5 6.5 14.5 6.5c4 0 9.66699 -0.5 17 -1.5s14 -1.5 20 -1.5c7.33301 0 13.5 0.333008 18.5 1l14.5 2c12.667 0 24.667 -6.33301 36 -19
c8 -8.66699 19 -24.667 33 -48l37 -60c5.33301 -8.66699 9 -13 11 -13s3.66699 3 5 9v26c0 8 -1.33301 19.5 -4 34.5s-5.83398 25.833 -9.50098 32.5l-11.5 21c0 4 1.83301 7.83301 5.5 11.5s9.83398 5.5 18.501 5.5l53 -3c11.333 0 19.833 0.5 25.5 1.5
s14.834 1.5 27.501 1.5c5.33301 0 10.166 -1 14.499 -3s6.5 -6.66699 6.5 -14c-3.33301 -12 -6.5 -28.5 -9.5 -49.5s-4.5 -47.5 -4.5 -79.5v-428c0 -22.667 1.33301 -42.334 4 -59.001s5.66699 -33.334 9 -50.001c0 -11.333 -6.66699 -17 -20 -17
c-4.66699 0 -12.334 0.666992 -23.001 2s-18.334 2 -23.001 2c-11.333 0 -19 -0.666992 -23 -2s-12 -2 -24 -2c-15.333 0 -23 7 -23 21c0 1.33301 2.66699 14 8 38c3.33301 15.333 5 30.666 5 45.999v136c0 30.667 -8.5 66.834 -25.5 108.501s-32.167 62.5 -45.5 62.5
c-4.66699 0 -7 -8.33301 -7 -25v-13.5c0 -4.33301 0.333008 -8.5 1 -12.5v-244c0 -28.667 4.33301 -53.334 13 -74.001c4.66699 -11.333 7 -20 7 -26s-1.66699 -10.333 -5 -13s-8.66602 -4 -15.999 -4l-20 1l-30 2c-11.333 0 -21 -0.333008 -29 -1l-23 -2
c-9.33301 0 -15.666 1.66699 -18.999 5s-5 8 -5 14c0 2.66699 0.333008 5.33398 1 8.00098s2.66699 8.33398 6 17.001c6.66699 18 10 37.667 10 59zM410 290.002v190c0 42 13 71.667 39 89c16 10.667 36 16 60 16c38 0 64.333 -13 79 -39c8 -14 12 -32.333 12 -55v-179
c0 -31.333 -4.66699 -56 -14 -74c-15.333 -28.667 -42.333 -43 -81 -43c-40 0 -67.333 12 -82 36c-8.66699 14 -13 33.667 -13 59zM480 437.002v-112.001c0 -8 1.5 -15 4.5 -21s10.167 -9 21.5 -9c16 0 24 8.33301 24 25v117c0 13.333 -5.33301 22 -16 26
c-1.33301 0.666992 -4.33301 1.33398 -9 2.00098c-6 0 -10.667 -1 -14 -3c-7.33301 -4.66699 -11 -13 -11 -25zM413 115.001c0 7.33301 -0.332031 13.334 -0.999023 18.001s-1 8 -1 10c0 11.333 5.66699 17 17 17c5.33301 0 14.666 -0.833008 27.999 -2.5
s30.333 -2.5 51 -2.5l44 3l30 2c12 0 18 -4 18 -12c0 -2 -0.333008 -5.33301 -1 -10s-1 -10 -1 -16c0 -9.33301 0.333008 -15.833 1 -19.5s1 -7.83398 1 -12.501c0 -10.667 -5.33301 -16 -16 -16c-2.66699 0 -13.667 1 -33 3s-34 3 -44 3l-49 -2l-34 -4
c-8 0 -12 4.33301 -12 13l1 11z" />
    <glyph glyph-name="ordmasculine" unicode="&#xba;" horiz-adv-x="251" 
d="M24 155v268.001c0 58 13.333 100.667 40 128c21.333 22 48.666 33 81.999 33c17.333 0 33.333 -3 48 -9c21.333 -8.66699 32 -21.667 32 -39l-2 -23l-2 -36c0 -8 0.666992 -17 2 -27s2 -18 2 -24c0 -10.667 -1.66699 -17.5 -5 -20.5s-7.66602 -4.5 -12.999 -4.5
c-8.66699 0 -15.667 1.83301 -21 5.5s-9.66602 6.5 -12.999 8.5c-7.33301 5.33301 -15.666 8 -24.999 8c-14 0 -22.667 -4.5 -26 -13.5s-5 -23.833 -5 -44.5c0 -12 2 -20 6 -24s9 -6 15 -6h42c15.333 0 25.333 -3.33301 30 -10c2.66699 -4 4 -11 4 -21
c0 -12.667 -2.33301 -21.667 -7 -27s-12 -8 -22 -8h-40c-12 0 -19.667 -2.66699 -23 -8s-5 -12 -5 -20v-43c0 -27.333 3.66699 -46.5 11 -57.5s17.666 -16.5 30.999 -16.5s24 5 32 15c2.66699 5.33301 5.5 10 8.5 14s7.5 6 13.5 6c12.667 0 19 -6.66699 19 -20
c0 -6 -0.5 -13.167 -1.5 -21.5s-1.5 -15.5 -1.5 -21.5c0 -9.33301 0.833008 -18.5 2.5 -27.5s2.5 -14.5 2.5 -16.5c0 -18 -8.33301 -31.833 -25 -41.5s-38.667 -14.5 -66 -14.5c-48.667 0 -82.334 18.667 -101.001 56c-12.667 25.333 -19 59.666 -19 102.999z" />
    <glyph glyph-name="guillemotright" unicode="&#xbb;" 
d="M208 310l-67 99c-2.66699 4 -3.33398 7 -2.00098 9c0.666992 1.33301 3.33398 2 8.00098 2l22 -1l16 1c6 0 11 -3 15 -9l59 -93l3 -8l-3 -8l-59 -93c-4 -6 -9 -9 -15 -9l-16 1l-22 -1c-4.66699 0 -7.33398 0.666992 -8.00098 2c-1.33301 2 -0.666016 5 2.00098 9z
M108 310l-67 99l-3 7c0 2.66699 3 4 9 4l22 -1l16 1c6 0 11 -3 15 -9l59 -93c2 -3.33301 3 -6 3 -8s-1 -4.66699 -3 -8l-59 -93c-4 -6 -9 -9 -15 -9l-16 1l-22 -1c-4.66699 0 -7.33398 0.666992 -8.00098 2c-1.33301 2 -0.666016 5 2.00098 9z" />
    <glyph glyph-name="onequarter" unicode="&#xbc;" horiz-adv-x="200" 
d="M66 110l0.000976562 318.999c0 53.333 -3.66699 86.666 -11 99.999c-4 7.33301 -6 19 -6 35c0 10.667 7 16 21 16l20 -2l27 -2c10 0 17.667 0.666992 23 2s11 2 17 2c12.667 0 19 -6 19 -18c0 -4.66699 -0.666992 -11 -2 -19c-4 -24 -6 -39.667 -6 -47v-443
c0 -51.333 -9.33301 -87 -28 -107c-12.667 -13.333 -31.667 -20 -57 -20c-16.667 0 -31 2.33301 -43 7c-16.667 6.66699 -25 16.334 -25 29.001c0 12 0.5 20.5 1.5 25.5s1.5 10.5 1.5 16.5c0 17.333 -1.33301 31.333 -4 42s-4 17.334 -4 20.001c0 14 5.66699 21 17 21
c5.33301 0 9.66602 -1.66699 12.999 -5s8.33301 -5 15 -5c5.33301 0 8.5 2.5 9.5 7.5s1.5 13.5 1.5 25.5zM45.001 646.999c0 16 5.49902 28.832 16.499 38.499s27.5 14.5 49.5 14.5c19.333 0 35 -4.66699 47 -14s18 -21.666 18 -36.999c0 -16 -6.16699 -28.5 -18.5 -37.5
s-28.166 -13.5 -47.499 -13.5c-18.667 0 -34.167 4 -46.5 12s-18.5 20.333 -18.5 37z" />
    <glyph glyph-name="onehalf" unicode="&#xbd;" horiz-adv-x="286" 
d="M140 166c0 8.66699 -9.99805 36.998 -29.998 84.998c-15.333 36 -27.333 66 -36 90c-10.667 29.333 -19.5 57.5 -26.5 84.5s-12.667 52.333 -17 76s-6.5 45.5 -6.5 65.5c0 43.333 13 77.666 39 102.999s62 38 108 38c39.333 0 67.666 -6.66699 84.999 -20
c12 -9.33301 18 -21 18 -35c0 -7.33301 -0.833008 -19.333 -2.5 -36s-2.5 -30.334 -2.5 -41.001v-18c2 -14 3.33301 -24.333 4 -31l3 -32c0 -9.33301 -1.66699 -15.666 -5 -18.999s-8 -5 -14 -5c-4.66699 0 -8.83398 1.66699 -12.501 5s-7.16699 7.33301 -10.5 12
c-2.66699 6 -6.66699 11.333 -12 16c-9.33301 8.66699 -19.333 13 -30 13c-12 0 -20.833 -4.33301 -26.5 -13s-8.5 -18 -8.5 -28c0 -11.333 2.66699 -26.833 8 -46.5s19 -59.167 41 -118.5l45 -121c12 -34.667 18 -63 18 -85c0 -40.667 -15.333 -71 -46 -91
c-22.667 -14.667 -49 -22 -79 -22c-27.333 0 -54 4 -80 12c-35.333 10.667 -53 25.334 -53 44.001l3 30l3 32c0 4 -0.166992 8.83301 -0.5 14.5s-1.5 13.167 -3.5 22.5l-3 21c0 8.66699 2.16699 14.834 6.5 18.501s9.83301 5.5 16.5 5.5s12.5 -4 17.5 -12l12.5 -20
c7.33301 -11.333 13 -18.666 17 -21.999c7.33301 -6 16.333 -9 27 -9c10 0 18 2.83301 24 8.5s9 15.167 9 28.5z" />
    <glyph glyph-name="threequarters" unicode="&#xbe;" horiz-adv-x="255" 
d="M140 137c0 5.33301 -3.33203 16.1621 -9.99902 32.4951s-22 48.833 -46 97.5c-19.333 40 -33.333 70.667 -42 92c-16 40.667 -24 73.667 -24 99c0 34 8.66699 62 26 84c22 28 56 42 102 42c23.333 0 44.333 -3.5 63 -10.5s28 -18.5 28 -34.5c0 -8 -0.666992 -15 -2 -21
l-3.5 -16c-1 -4.66699 -1.5 -10 -1.5 -16v-14c0 -10.667 1 -22.667 3 -36s3 -22.666 3 -27.999c0 -6.66699 -1.66699 -12.5 -5 -17.5s-8 -7.5 -14 -7.5s-13.833 6.16699 -23.5 18.5s-20.167 18.5 -31.5 18.5c-6 0 -11.667 -1.66699 -17 -5s-8 -9.33301 -8 -18v-9
c1.33301 -4.66699 3.16602 -10.667 5.49902 -18s6.33301 -17.666 12 -30.999s16.5 -36.666 32.5 -69.999c22.667 -48.667 34.667 -74.667 36 -78c10.667 -26.667 16 -51.667 16 -75c0 -36 -9.33301 -64.333 -28 -85c-21.333 -23.333 -53 -35 -95 -35
c-42.667 0 -71.334 5.33301 -86.001 16c-9.33301 6.66699 -14 17 -14 31l2 24l1 28c0 15.333 -0.5 27 -1.5 35s-1.5 14 -1.5 18c0 6.66699 1 11.334 3 14.001s6 4.66699 12 6c5.33301 0 10 -3 14 -9c4.66699 -9.33301 8.33398 -16.333 11.001 -21
c7.33301 -11.333 15 -19.166 23 -23.499s16.667 -6.5 26 -6.5c10.667 0 19.167 2.83301 25.5 8.5s9.5 12.5 9.5 20.5z" />
    <glyph glyph-name="questiondown" unicode="&#xbf;" horiz-adv-x="197" 
d="M46 136v325.996c0 33.333 -2.5 53.833 -7.5 61.5s-7.5 20.5 -7.5 38.5c0 6 1.33301 10.333 4 13s8 4 16 4l48 -2c12 0 22.5 0.5 31.5 1.5s13.833 1.5 14.5 1.5c7.33301 0 12.333 -1.33301 15 -4s4 -6 4 -10c0 -3.33301 -1 -7.66602 -3 -12.999
c-4 -9.33301 -6.33301 -15.666 -7 -18.999c-4 -14 -6 -36 -6 -66v-321c0 -13.333 1.33301 -33.666 4 -60.999s5.66699 -44.166 9 -50.499s5 -12.5 5 -18.5c0 -11.333 -7 -17 -21 -17l-16 2c-4.66699 1.33301 -10 2 -16 2h-14c-9.33301 0 -16 -0.666992 -20 -2
s-12.333 -2 -25 -2c-13.333 0 -20 5.66699 -20 17c0 4 1.5 11 4.5 21s4.83301 17.667 5.5 23zM10 650.996c0 15.333 4 27.332 12 35.999s17.667 13 29 13c12 0 21.167 -4.66699 27.5 -14s9.5 -19.666 9.5 -30.999c0 -14.667 -3.33301 -26.5 -10 -35.5
s-16.667 -13.5 -30 -13.5c-25.333 0 -38 15 -38 45zM109 650.995c0 15.333 4 27.332 12 35.999s17.667 13 29 13c12 0 21.167 -4.66699 27.5 -14s9.5 -19.666 9.5 -30.999c0 -14.667 -3.33301 -26.5 -10 -35.5s-16.667 -13.5 -30 -13.5c-25.333 0 -38 15 -38 45z" />
    <glyph glyph-name="Agrave" unicode="&#xc0;" horiz-adv-x="360" 
d="M176 116c-17.333 0 -30 -6.33398 -38 -19.001c-5.33301 -8.66699 -8 -19 -8 -31c0 -6.66699 1.5 -13 4.5 -19l7.5 -15c2 -4 3 -8.66699 3 -14c0 -12 -7.66699 -18 -23 -18c-6 0 -13.167 0.833008 -21.5 2.5s-17.166 2.5 -26.499 2.5l-22 -2l-24 -3c-12 0 -18 6 -18 18
c15.333 22 29 71.167 41 147.5s18 189.5 18 339.5l8 170c4 16 15 24 33 24c6.66699 0 17.5 -0.5 32.5 -1.5s25.167 -1.5 30.5 -1.5c16.667 0 28 0.666992 34 2s20 2 42 2c24 0 38.333 -15.167 43 -45.5s7 -112.833 7 -247.5c0 -80.667 2.33301 -141 7 -181
c2 -16 9.33301 -56 22 -120l12 -54l6 -17.5c2.66699 -7.66699 4 -12.834 4 -15.501c0 -12.667 -7.33301 -19 -22 -19l-20 3l-23 3h-19c-4.66699 0 -10.667 -1 -18 -3l-21 -3c-6.66699 0 -11.834 2.5 -15.501 7.5s-5.5 9.5 -5.5 13.5c0 6.66699 2.5 13.834 7.5 21.501
s7.5 16.834 7.5 27.501c0 12.667 -3 23 -9 31c-8 10 -20 15 -36 15zM176 221.999c11.333 0 19.333 3.99805 24 11.998c2.66699 4.66699 4 10.334 4 17.001v88c0 40.667 -2.5 76.5 -7.5 107.5s-11.167 46.5 -18.5 46.5c-8 0 -15 -29.167 -21 -87.5s-9 -98.833 -9 -121.5v-17
c0 -15.333 1.66699 -26.666 5 -33.999s11 -11 23 -11z" />
    <glyph glyph-name="Agrave" unicode="&#x410;" horiz-adv-x="360" 
d="M176 116c-17.333 0 -30 -6.33398 -38 -19.001c-5.33301 -8.66699 -8 -19 -8 -31c0 -6.66699 1.5 -13 4.5 -19l7.5 -15c2 -4 3 -8.66699 3 -14c0 -12 -7.66699 -18 -23 -18c-6 0 -13.167 0.833008 -21.5 2.5s-17.166 2.5 -26.499 2.5l-22 -2l-24 -3c-12 0 -18 6 -18 18
c15.333 22 29 71.167 41 147.5s18 189.5 18 339.5l8 170c4 16 15 24 33 24c6.66699 0 17.5 -0.5 32.5 -1.5s25.167 -1.5 30.5 -1.5c16.667 0 28 0.666992 34 2s20 2 42 2c24 0 38.333 -15.167 43 -45.5s7 -112.833 7 -247.5c0 -80.667 2.33301 -141 7 -181
c2 -16 9.33301 -56 22 -120l12 -54l6 -17.5c2.66699 -7.66699 4 -12.834 4 -15.501c0 -12.667 -7.33301 -19 -22 -19l-20 3l-23 3h-19c-4.66699 0 -10.667 -1 -18 -3l-21 -3c-6.66699 0 -11.834 2.5 -15.501 7.5s-5.5 9.5 -5.5 13.5c0 6.66699 2.5 13.834 7.5 21.501
s7.5 16.834 7.5 27.501c0 12.667 -3 23 -9 31c-8 10 -20 15 -36 15zM176 221.999c11.333 0 19.333 3.99805 24 11.998c2.66699 4.66699 4 10.334 4 17.001v88c0 40.667 -2.5 76.5 -7.5 107.5s-11.167 46.5 -18.5 46.5c-8 0 -15 -29.167 -21 -87.5s-9 -98.833 -9 -121.5v-17
c0 -15.333 1.66699 -26.666 5 -33.999s11 -11 23 -11z" />
    <glyph glyph-name="Aacute" unicode="&#xc1;" horiz-adv-x="362" 
d="M41 154l-0.000976562 389.001c0 14 -0.333008 29.833 -1 47.5s-1.83398 32 -3.50098 43s-3.66699 21.667 -6 32s-3.5 16.833 -3.5 19.5c0 9.33301 6.33301 14 19 14c13.333 0 35 -0.833008 65 -2.5s52 -2.5 66 -2.5l51 2h19c18 2.66699 30.333 4 37 4
c8 0 13.333 -2.16699 16 -6.5s4 -9.83301 4 -16.5l-2 -65c0 -12 0.166992 -23.333 0.5 -34s0.833008 -21 1.5 -31v-15c0 -11.333 -1 -18.333 -3 -21s-6 -4 -12 -4c-7.33301 0 -13 3.33301 -17 10c-8 12.667 -12.333 19.334 -13 20.001c-6 6.66699 -13 12 -21 16
s-17.333 6 -28 6c-22 0 -37 -5.83301 -45 -17.5s-12 -28.834 -12 -51.501v-51v-10c1.33301 -5.33301 3.66602 -8 6.99902 -8c2 0.666992 3.66699 1.33398 5 2.00098c6 3.33301 10.667 5.66602 14 6.99902c9.33301 4 18 6.83301 26 8.5s17.333 2.5 28 2.5
c34.667 0 59.834 -10.167 75.501 -30.5s23.5 -48.166 23.5 -83.499v-198c0 -42.667 -11.167 -74.834 -33.5 -96.501s-53.5 -32.5 -93.5 -32.5c-19.333 0 -35.333 0.833008 -48 2.5s-23.667 2.5 -33 2.5h-23.5c-7.66699 0 -16.167 -0.666992 -25.5 -2l-35 -3
c-13.333 0 -20 5 -20 15c0 3.33301 1.33301 9.5 4 18.5s4.83398 17.833 6.50098 26.5s3.83398 20.667 6.50098 36s4 34.666 4 57.999zM150.999 269.001v-113c0 -20.667 4.33301 -35 13 -43c5.33301 -4.66699 12.333 -7 21 -7c14.667 0 25 5.66699 31 17
c4 7.33301 6 16.333 6 27v112c0 17.333 -2.66699 30.333 -8 39s-15 13 -29 13c-12.667 0 -21.5 -3.5 -26.5 -10.5s-7.5 -18.5 -7.5 -34.5z" />
    <glyph glyph-name="Aacute" unicode="&#x411;" horiz-adv-x="362" 
d="M41 154l-0.000976562 389.001c0 14 -0.333008 29.833 -1 47.5s-1.83398 32 -3.50098 43s-3.66699 21.667 -6 32s-3.5 16.833 -3.5 19.5c0 9.33301 6.33301 14 19 14c13.333 0 35 -0.833008 65 -2.5s52 -2.5 66 -2.5l51 2h19c18 2.66699 30.333 4 37 4
c8 0 13.333 -2.16699 16 -6.5s4 -9.83301 4 -16.5l-2 -65c0 -12 0.166992 -23.333 0.5 -34s0.833008 -21 1.5 -31v-15c0 -11.333 -1 -18.333 -3 -21s-6 -4 -12 -4c-7.33301 0 -13 3.33301 -17 10c-8 12.667 -12.333 19.334 -13 20.001c-6 6.66699 -13 12 -21 16
s-17.333 6 -28 6c-22 0 -37 -5.83301 -45 -17.5s-12 -28.834 -12 -51.501v-51v-10c1.33301 -5.33301 3.66602 -8 6.99902 -8c2 0.666992 3.66699 1.33398 5 2.00098c6 3.33301 10.667 5.66602 14 6.99902c9.33301 4 18 6.83301 26 8.5s17.333 2.5 28 2.5
c34.667 0 59.834 -10.167 75.501 -30.5s23.5 -48.166 23.5 -83.499v-198c0 -42.667 -11.167 -74.834 -33.5 -96.501s-53.5 -32.5 -93.5 -32.5c-19.333 0 -35.333 0.833008 -48 2.5s-23.667 2.5 -33 2.5h-23.5c-7.66699 0 -16.167 -0.666992 -25.5 -2l-35 -3
c-13.333 0 -20 5 -20 15c0 3.33301 1.33301 9.5 4 18.5s4.83398 17.833 6.50098 26.5s3.83398 20.667 6.50098 36s4 34.666 4 57.999zM150.999 269.001v-113c0 -20.667 4.33301 -35 13 -43c5.33301 -4.66699 12.333 -7 21 -7c14.667 0 25 5.66699 31 17
c4 7.33301 6 16.333 6 27v112c0 17.333 -2.66699 30.333 -8 39s-15 13 -29 13c-12.667 0 -21.5 -3.5 -26.5 -10.5s-7.5 -18.5 -7.5 -34.5z" />
    <glyph glyph-name="Acircumflex" unicode="&#xc2;" horiz-adv-x="341" 
d="M37 199l-0.00390625 299.002c0 19.333 -0.333008 38.5 -1 57.5l-2 55.5c-1.33301 12.667 -2.66602 24.5 -3.99902 35.5s-2 19.5 -2 25.5c0 11.333 2.33301 18.833 7 22.5s11 5.5 19 5.5l41 -2l42 -1c14.667 0 27.834 0.333008 39.501 1l34.5 2
c30 0 53.333 -17.167 70 -51.5s25 -79.166 25 -134.499c0 -27.333 -1.66699 -50.833 -5 -70.5s-10.666 -37.167 -21.999 -52.5c-3.33301 -4 -7.16602 -9 -11.499 -15s-6.5 -10.333 -6.5 -13c0 -4 3.33301 -11.667 10 -23s11 -19 13 -23c11.333 -22 20.333 -47.333 27 -76
s10 -57.334 10 -86.001c0 -42.667 -9.33301 -78.334 -28 -107.001c-20.667 -32 -49.334 -48 -86.001 -48c-4 0 -13.5 0.833008 -28.5 2.5s-32.5 2.5 -52.5 2.5c-27.333 0 -45.666 -0.666992 -54.999 -2s-18 -2.33301 -26 -3c-10 0 -16.667 2.5 -20 7.5s-5 10.833 -5 17.5
c4 20 7.83301 42.667 11.5 68s5.5 60.666 5.5 105.999zM146.996 527.002l-0.000976562 -37c0 -14 3.33301 -24 10 -30s14.334 -9 23.001 -9c9.33301 0 16.333 4.66699 21 14s7 24 7 44c0 18.667 -3 32 -9 40s-14.333 12 -25 12c-10 0 -17 -3.16699 -21 -9.5
s-6 -14.5 -6 -24.5zM146.995 291.002v-145.002c0 -11.333 1.5 -20.166 4.5 -26.499s11.167 -9.5 24.5 -9.5c12 0 20 2.33301 24 7c7.33301 8.66699 11 26 11 52c0 32.667 -6.5 65.334 -19.5 98.001s-24.833 49 -35.5 49c-4 0 -6.5 -2.33301 -7.5 -7s-1.5 -10.667 -1.5 -18z
" />
    <glyph glyph-name="Acircumflex" unicode="&#x412;" horiz-adv-x="341" 
d="M37 199l-0.00390625 299.002c0 19.333 -0.333008 38.5 -1 57.5l-2 55.5c-1.33301 12.667 -2.66602 24.5 -3.99902 35.5s-2 19.5 -2 25.5c0 11.333 2.33301 18.833 7 22.5s11 5.5 19 5.5l41 -2l42 -1c14.667 0 27.834 0.333008 39.501 1l34.5 2
c30 0 53.333 -17.167 70 -51.5s25 -79.166 25 -134.499c0 -27.333 -1.66699 -50.833 -5 -70.5s-10.666 -37.167 -21.999 -52.5c-3.33301 -4 -7.16602 -9 -11.499 -15s-6.5 -10.333 -6.5 -13c0 -4 3.33301 -11.667 10 -23s11 -19 13 -23c11.333 -22 20.333 -47.333 27 -76
s10 -57.334 10 -86.001c0 -42.667 -9.33301 -78.334 -28 -107.001c-20.667 -32 -49.334 -48 -86.001 -48c-4 0 -13.5 0.833008 -28.5 2.5s-32.5 2.5 -52.5 2.5c-27.333 0 -45.666 -0.666992 -54.999 -2s-18 -2.33301 -26 -3c-10 0 -16.667 2.5 -20 7.5s-5 10.833 -5 17.5
c4 20 7.83301 42.667 11.5 68s5.5 60.666 5.5 105.999zM146.996 527.002l-0.000976562 -37c0 -14 3.33301 -24 10 -30s14.334 -9 23.001 -9c9.33301 0 16.333 4.66699 21 14s7 24 7 44c0 18.667 -3 32 -9 40s-14.333 12 -25 12c-10 0 -17 -3.16699 -21 -9.5
s-6 -14.5 -6 -24.5zM146.995 291.002v-145.002c0 -11.333 1.5 -20.166 4.5 -26.499s11.167 -9.5 24.5 -9.5c12 0 20 2.33301 24 7c7.33301 8.66699 11 26 11 52c0 32.667 -6.5 65.334 -19.5 98.001s-24.833 49 -35.5 49c-4 0 -6.5 -2.33301 -7.5 -7s-1.5 -10.667 -1.5 -18z
" />
    <glyph glyph-name="Atilde" unicode="&#xc3;" horiz-adv-x="305" 
d="M37 165l0.00195312 364.999c0 40 -1.83301 69.333 -5.5 88l-11.5 57c0 10 3 16.667 9 20s12.667 5 20 5c25.333 0 41.166 -0.833008 47.499 -2.5s21.833 -2.5 46.5 -2.5c26 0 49.333 0.833008 70 2.5s37 2.5 49 2.5c14.667 0 24.334 -3.66699 29.001 -11
c2.66699 -4 4 -10.333 4 -19c0 -12.667 -0.666992 -22.167 -2 -28.5s-2 -11.166 -2 -14.499l-3 -35c0 -22.667 0.333008 -38.5 1 -47.5s1.66699 -18.5 3 -28.5c0 -12 -1.83301 -21.333 -5.5 -28s-9.83398 -10 -18.501 -10s-15.667 3 -21 9
c-6.66699 9.33301 -11.667 16 -15 20c-6 8 -12.167 13.333 -18.5 16s-14.833 4 -25.5 4c-18 0 -29.333 -4.5 -34 -13.5s-7 -26.5 -7 -52.5v-284c0 -31.333 1.66699 -55.666 5 -72.999s8.66602 -31 15.999 -41c4 -5.33301 11.667 -12.333 23 -21
c8.66699 -6.66699 13 -13.667 13 -21c0 -8.66699 -2.83301 -14.334 -8.5 -17.001s-12.167 -4 -19.5 -4c-12.667 0 -26.5 0.5 -41.5 1.5s-24.5 1.5 -28.5 1.5c-18 0 -31.167 -0.5 -39.5 -1.5s-16.833 -1.5 -25.5 -1.5c-12.667 0 -19 5.66699 -19 17
c4 17.333 7.5 38.833 10.5 64.5s4.5 53.5 4.5 83.5z" />
    <glyph glyph-name="Atilde" unicode="&#x413;" horiz-adv-x="305" 
d="M37 165l0.00195312 364.999c0 40 -1.83301 69.333 -5.5 88l-11.5 57c0 10 3 16.667 9 20s12.667 5 20 5c25.333 0 41.166 -0.833008 47.499 -2.5s21.833 -2.5 46.5 -2.5c26 0 49.333 0.833008 70 2.5s37 2.5 49 2.5c14.667 0 24.334 -3.66699 29.001 -11
c2.66699 -4 4 -10.333 4 -19c0 -12.667 -0.666992 -22.167 -2 -28.5s-2 -11.166 -2 -14.499l-3 -35c0 -22.667 0.333008 -38.5 1 -47.5s1.66699 -18.5 3 -28.5c0 -12 -1.83301 -21.333 -5.5 -28s-9.83398 -10 -18.501 -10s-15.667 3 -21 9
c-6.66699 9.33301 -11.667 16 -15 20c-6 8 -12.167 13.333 -18.5 16s-14.833 4 -25.5 4c-18 0 -29.333 -4.5 -34 -13.5s-7 -26.5 -7 -52.5v-284c0 -31.333 1.66699 -55.666 5 -72.999s8.66602 -31 15.999 -41c4 -5.33301 11.667 -12.333 23 -21
c8.66699 -6.66699 13 -13.667 13 -21c0 -8.66699 -2.83301 -14.334 -8.5 -17.001s-12.167 -4 -19.5 -4c-12.667 0 -26.5 0.5 -41.5 1.5s-24.5 1.5 -28.5 1.5c-18 0 -31.167 -0.5 -39.5 -1.5s-16.833 -1.5 -25.5 -1.5c-12.667 0 -19 5.66699 -19 17
c4 17.333 7.5 38.833 10.5 64.5s4.5 53.5 4.5 83.5z" />
    <glyph glyph-name="Adieresis" unicode="&#xc4;" horiz-adv-x="374" 
d="M326 551l-0.000976562 -397c0 -34 0.666992 -55.667 2 -65s4 -15.666 8 -18.999c2 -1.33301 7.16699 -3.33301 15.5 -6s12.5 -9.33398 12.5 -20.001l-2 -44l1 -34l1 -21c0 -9.33301 -1.33301 -15.833 -4 -19.5s-7.66699 -5.5 -15 -5.5c-8.66699 0 -15.667 4.66699 -21 14
c-16.667 30 -27.834 47 -33.501 51s-19.167 7.5 -40.5 10.5s-47.666 4.5 -78.999 4.5c-30 -0 -52.167 -2.16699 -66.5 -6.5s-26.833 -14.833 -37.5 -31.5l-14 -28c-5.33301 -9.33301 -12.333 -14 -21 -14c-6.66699 0 -12 2.16699 -16 6.5s-6 9.5 -6 15.5
c0 2 0.666992 8 2 18s2 22.333 2 37c0 13.333 -0.666992 23 -2 29s-2 13.333 -2 22c0 8 2 13.333 6 16c6.66699 2.66699 12.834 5 18.501 7s10 8.16699 13 18.5s9 75.666 18 195.999s13.5 201.166 13.5 242.499c0 37.333 -1.33301 64 -4 80c-6 36.667 -9 61.334 -9 74.001
c0 8.66699 2.16699 13.834 6.5 15.501s9.5 2.5 15.5 2.5l113 -5c38.667 0 61.667 0.333008 69 1c28.667 2.66699 47.334 4 56.001 4c13.333 0 20 -5.33301 20 -16c0 -2.66699 -1.16699 -8 -3.5 -16s-4.83301 -18 -7.5 -30s-4.83398 -26 -6.50098 -42s-2.5 -31 -2.5 -45z
M215.999 155v360.999c0 18 -6.66699 27 -20 27c-10.667 0 -17.334 -6 -20.001 -18s-4 -38.333 -4 -79c0 -56.667 -1.33301 -95.667 -4 -117c-6 -47.333 -9 -76.666 -9 -87.999c0 -31.333 -1.16699 -53.333 -3.5 -66s-4.16602 -23.667 -5.49902 -33
c0 -12 2.66699 -20.667 8 -26s14.333 -8 27 -8c14 0 22.667 3.83301 26 11.5s5 19.5 5 35.5z" />
    <glyph glyph-name="Adieresis" unicode="&#x414;" horiz-adv-x="374" 
d="M326 551l-0.000976562 -397c0 -34 0.666992 -55.667 2 -65s4 -15.666 8 -18.999c2 -1.33301 7.16699 -3.33301 15.5 -6s12.5 -9.33398 12.5 -20.001l-2 -44l1 -34l1 -21c0 -9.33301 -1.33301 -15.833 -4 -19.5s-7.66699 -5.5 -15 -5.5c-8.66699 0 -15.667 4.66699 -21 14
c-16.667 30 -27.834 47 -33.501 51s-19.167 7.5 -40.5 10.5s-47.666 4.5 -78.999 4.5c-30 -0 -52.167 -2.16699 -66.5 -6.5s-26.833 -14.833 -37.5 -31.5l-14 -28c-5.33301 -9.33301 -12.333 -14 -21 -14c-6.66699 0 -12 2.16699 -16 6.5s-6 9.5 -6 15.5
c0 2 0.666992 8 2 18s2 22.333 2 37c0 13.333 -0.666992 23 -2 29s-2 13.333 -2 22c0 8 2 13.333 6 16c6.66699 2.66699 12.834 5 18.501 7s10 8.16699 13 18.5s9 75.666 18 195.999s13.5 201.166 13.5 242.499c0 37.333 -1.33301 64 -4 80c-6 36.667 -9 61.334 -9 74.001
c0 8.66699 2.16699 13.834 6.5 15.501s9.5 2.5 15.5 2.5l113 -5c38.667 0 61.667 0.333008 69 1c28.667 2.66699 47.334 4 56.001 4c13.333 0 20 -5.33301 20 -16c0 -2.66699 -1.16699 -8 -3.5 -16s-4.83301 -18 -7.5 -30s-4.83398 -26 -6.50098 -42s-2.5 -31 -2.5 -45z
M215.999 155v360.999c0 18 -6.66699 27 -20 27c-10.667 0 -17.334 -6 -20.001 -18s-4 -38.333 -4 -79c0 -56.667 -1.33301 -95.667 -4 -117c-6 -47.333 -9 -76.666 -9 -87.999c0 -31.333 -1.16699 -53.333 -3.5 -66s-4.16602 -23.667 -5.49902 -33
c0 -12 2.66699 -20.667 8 -26s14.333 -8 27 -8c14 0 22.667 3.83301 26 11.5s5 19.5 5 35.5z" />
    <glyph glyph-name="Aring" unicode="&#xc5;" horiz-adv-x="320" 
d="M37 154l0.00195312 400.999c0 45.333 -2.5 72 -7.5 80s-7.5 21.333 -7.5 40c0 6.66699 2.83301 12.5 8.5 17.5s15.5 7.5 29.5 7.5c7.33301 0 19.666 -0.833008 36.999 -2.5s37.333 -2.5 60 -2.5c40 0 65.833 0.833008 77.5 2.5s20.834 2.5 27.501 2.5s12.5 -2 17.5 -6
s7.5 -11.667 7.5 -23c0 -4 -0.666992 -14.333 -2 -31s-2 -33.667 -2 -51c0 -9.33301 0.166992 -18.333 0.5 -27s1.66602 -17.834 3.99902 -27.501s3.5 -17.167 3.5 -22.5c0 -20.667 -8 -31 -24 -31c-6.66699 0 -13.667 4.33301 -21 13
c-4.66699 5.33301 -9 10.666 -13 15.999c-12.667 13.333 -26.667 20 -42 20c-13.333 0 -24 -4.33301 -32 -13s-12 -20.334 -12 -35.001c0 -8.66699 1 -15 3 -19c7.33301 -14.667 24 -22 50 -22c5.33301 0 14.5 0.666992 27.5 2s20.167 2 21.5 2
c17.333 0 30.333 -4.66699 39 -14c6.66699 -7.33301 10 -16.666 10 -27.999c0 -10 -3.83301 -19.5 -11.5 -28.5s-19.5 -13.5 -35.5 -13.5h-79c-8 0 -14.167 -3 -18.5 -9s-6.5 -16.667 -6.5 -32v-152c0 -22 3.33301 -36.333 10 -43c4.66699 -4.66699 12.667 -7 24 -7
c14 0 26 1 36 3s20.667 7.66699 32 17c3.33301 2.66699 9 8.33398 17 17.001c5.33301 6 11 9 17 9c11.333 0 17 -7.66699 17 -23c0 -13.333 -0.666992 -22.666 -2 -27.999s-2 -12.666 -2 -21.999l1 -30l1 -29c0 -10.667 -1.66699 -18 -5 -22
c-5.33301 -6.66699 -15.333 -10 -30 -10c-46 -0 -72.333 0.333008 -79 1c-26 2.66699 -48.333 4 -67 4c-26.667 0 -42.834 -0.833008 -48.501 -2.5s-15.167 -2.5 -28.5 -2.5s-20 6 -20 18c0 4 1.16699 10 3.5 18s4.66602 18.5 6.99902 31.5s3.83301 27.5 4.5 43.5
s1.33398 30.333 2.00098 43z" />
    <glyph glyph-name="Aring" unicode="&#x415;" horiz-adv-x="320" 
d="M37 154l0.00195312 400.999c0 45.333 -2.5 72 -7.5 80s-7.5 21.333 -7.5 40c0 6.66699 2.83301 12.5 8.5 17.5s15.5 7.5 29.5 7.5c7.33301 0 19.666 -0.833008 36.999 -2.5s37.333 -2.5 60 -2.5c40 0 65.833 0.833008 77.5 2.5s20.834 2.5 27.501 2.5s12.5 -2 17.5 -6
s7.5 -11.667 7.5 -23c0 -4 -0.666992 -14.333 -2 -31s-2 -33.667 -2 -51c0 -9.33301 0.166992 -18.333 0.5 -27s1.66602 -17.834 3.99902 -27.501s3.5 -17.167 3.5 -22.5c0 -20.667 -8 -31 -24 -31c-6.66699 0 -13.667 4.33301 -21 13
c-4.66699 5.33301 -9 10.666 -13 15.999c-12.667 13.333 -26.667 20 -42 20c-13.333 0 -24 -4.33301 -32 -13s-12 -20.334 -12 -35.001c0 -8.66699 1 -15 3 -19c7.33301 -14.667 24 -22 50 -22c5.33301 0 14.5 0.666992 27.5 2s20.167 2 21.5 2
c17.333 0 30.333 -4.66699 39 -14c6.66699 -7.33301 10 -16.666 10 -27.999c0 -10 -3.83301 -19.5 -11.5 -28.5s-19.5 -13.5 -35.5 -13.5h-79c-8 0 -14.167 -3 -18.5 -9s-6.5 -16.667 -6.5 -32v-152c0 -22 3.33301 -36.333 10 -43c4.66699 -4.66699 12.667 -7 24 -7
c14 0 26 1 36 3s20.667 7.66699 32 17c3.33301 2.66699 9 8.33398 17 17.001c5.33301 6 11 9 17 9c11.333 0 17 -7.66699 17 -23c0 -13.333 -0.666992 -22.666 -2 -27.999s-2 -12.666 -2 -21.999l1 -30l1 -29c0 -10.667 -1.66699 -18 -5 -22
c-5.33301 -6.66699 -15.333 -10 -30 -10c-46 -0 -72.333 0.333008 -79 1c-26 2.66699 -48.333 4 -67 4c-26.667 0 -42.834 -0.833008 -48.501 -2.5s-15.167 -2.5 -28.5 -2.5s-20 6 -20 18c0 4 1.16699 10 3.5 18s4.66602 18.5 6.99902 31.5s3.83301 27.5 4.5 43.5
s1.33398 30.333 2.00098 43z" />
    <glyph glyph-name="AE" unicode="&#xc6;" horiz-adv-x="525" 
d="M205 150l0.00195312 174.999v18c0 13.333 -1 24 -3 32s-6 12 -12 12c-11.333 0 -20 -23 -26 -69l-15 -171c-6.66699 -70 -11.834 -112 -15.501 -126s-11.167 -21 -22.5 -21c-6.66699 0 -15.5 0.5 -26.5 1.5s-18.833 1.5 -23.5 1.5c-10.667 0 -19 -0.333008 -25 -1l-18 -2
c-12 0 -18 5.33301 -18 16c0 6.66699 5.66699 22.334 17 47.001c8 18 15.667 46.333 23 85c15.333 83.333 26.833 150.333 34.5 201s11.5 87.667 11.5 111c0 12 -1 22.333 -3 31s-6 19.334 -12 32.001l-26 51c-10 22.667 -15 46.667 -15 72c0 15.333 0.666992 25.333 2 30
c4 15.333 13.333 23 28 23c12 0 19.5 -0.5 22.5 -1.5s9.83301 -1.5 20.5 -1.5c3.33301 0.666992 9.33301 1.33398 18 2.00098s18.667 1 30 1s17 -4 17 -12c0 -4 -4.16699 -12.833 -12.5 -26.5s-12.5 -30.5 -12.5 -50.5c0 -19.333 5.5 -37.333 16.5 -54s21.833 -25 32.5 -25
c12.667 0 19.667 6.83301 21 20.5s2 29.834 2 48.501c0 19.333 -1 32.333 -3 39c-4 8 -7 14.333 -9 19c-7.33301 16.667 -11 25.667 -11 27c0 6 1.66699 9.66699 5 11s7.33301 2.33301 12 3c5.33301 0 13 -0.5 23 -1.5s21.333 -1.5 34 -1.5
c15.333 0 26.666 0.666992 33.999 2s13.666 2 18.999 2c12 0 18 -4.33301 18 -13c0 -6.66699 -3.16699 -15.5 -9.5 -26.5s-10.5 -25.167 -12.5 -42.5s-3 -30.666 -3 -39.999c0 -19.333 2 -32 6 -38s10.333 -9 19 -9c13.333 0 25.166 9.66699 35.499 29s15.5 39.333 15.5 60
c0 15.333 -4.33301 30.333 -13 45c-4.66699 8 -7 15 -7 21c0 8.66699 5 13 15 13l24 -1l26 -2c12.667 0 22.667 0.333008 30 1l22 2c15.333 0 23 -14.333 23 -43c0 -20 -5 -42.667 -15 -68c-5.33301 -14.667 -13.833 -32.334 -25.5 -53.001s-18.667 -34.667 -21 -42
s-3.5 -17.333 -3.5 -30c0 -26.667 5.66699 -78.334 17 -155.001c8 -55.333 16.667 -107.333 26 -156c7.33301 -40 14.666 -69 21.999 -87c11.333 -28.667 17 -44.334 17 -47.001c0 -11.333 -4.66699 -17 -14 -17c-3.33301 0 -8.16602 0.333008 -14.499 1
s-18.166 1 -35.499 1l-28 -1l-18 -2c-12.667 0 -20.667 9.16699 -24 27.5s-10 75.166 -20 170.499c-2.66699 23.333 -5.66699 60.666 -9 111.999s-11 77 -23 77c-9.33301 0 -15.666 -11.167 -18.999 -33.5s-5 -64.5 -5 -126.5c0 -22 1 -48 3 -78s4.33301 -53.833 7 -71.5
s6.33398 -32.5 11.001 -44.5c2 -4.66699 3 -9.66699 3 -15c0 -6 -1.5 -10.5 -4.5 -13.5s-8.16699 -4.5 -15.5 -4.5c-4.66699 0 -12.334 0.666992 -23.001 2s-21.667 2 -33 2c-8 0 -19.333 -0.666992 -34 -2s-23.667 -2 -27 -2c-12 0 -18 5.33301 -18 16
c0 4.66699 1.5 11.667 4.5 21s5.16699 16.333 6.5 21c6.66699 28.667 10 59.334 10 92.001z" />
    <glyph glyph-name="AE" unicode="&#x416;" horiz-adv-x="525" 
d="M205 150l0.00195312 174.999v18c0 13.333 -1 24 -3 32s-6 12 -12 12c-11.333 0 -20 -23 -26 -69l-15 -171c-6.66699 -70 -11.834 -112 -15.501 -126s-11.167 -21 -22.5 -21c-6.66699 0 -15.5 0.5 -26.5 1.5s-18.833 1.5 -23.5 1.5c-10.667 0 -19 -0.333008 -25 -1l-18 -2
c-12 0 -18 5.33301 -18 16c0 6.66699 5.66699 22.334 17 47.001c8 18 15.667 46.333 23 85c15.333 83.333 26.833 150.333 34.5 201s11.5 87.667 11.5 111c0 12 -1 22.333 -3 31s-6 19.334 -12 32.001l-26 51c-10 22.667 -15 46.667 -15 72c0 15.333 0.666992 25.333 2 30
c4 15.333 13.333 23 28 23c12 0 19.5 -0.5 22.5 -1.5s9.83301 -1.5 20.5 -1.5c3.33301 0.666992 9.33301 1.33398 18 2.00098s18.667 1 30 1s17 -4 17 -12c0 -4 -4.16699 -12.833 -12.5 -26.5s-12.5 -30.5 -12.5 -50.5c0 -19.333 5.5 -37.333 16.5 -54s21.833 -25 32.5 -25
c12.667 0 19.667 6.83301 21 20.5s2 29.834 2 48.501c0 19.333 -1 32.333 -3 39c-4 8 -7 14.333 -9 19c-7.33301 16.667 -11 25.667 -11 27c0 6 1.66699 9.66699 5 11s7.33301 2.33301 12 3c5.33301 0 13 -0.5 23 -1.5s21.333 -1.5 34 -1.5
c15.333 0 26.666 0.666992 33.999 2s13.666 2 18.999 2c12 0 18 -4.33301 18 -13c0 -6.66699 -3.16699 -15.5 -9.5 -26.5s-10.5 -25.167 -12.5 -42.5s-3 -30.666 -3 -39.999c0 -19.333 2 -32 6 -38s10.333 -9 19 -9c13.333 0 25.166 9.66699 35.499 29s15.5 39.333 15.5 60
c0 15.333 -4.33301 30.333 -13 45c-4.66699 8 -7 15 -7 21c0 8.66699 5 13 15 13l24 -1l26 -2c12.667 0 22.667 0.333008 30 1l22 2c15.333 0 23 -14.333 23 -43c0 -20 -5 -42.667 -15 -68c-5.33301 -14.667 -13.833 -32.334 -25.5 -53.001s-18.667 -34.667 -21 -42
s-3.5 -17.333 -3.5 -30c0 -26.667 5.66699 -78.334 17 -155.001c8 -55.333 16.667 -107.333 26 -156c7.33301 -40 14.666 -69 21.999 -87c11.333 -28.667 17 -44.334 17 -47.001c0 -11.333 -4.66699 -17 -14 -17c-3.33301 0 -8.16602 0.333008 -14.499 1
s-18.166 1 -35.499 1l-28 -1l-18 -2c-12.667 0 -20.667 9.16699 -24 27.5s-10 75.166 -20 170.499c-2.66699 23.333 -5.66699 60.666 -9 111.999s-11 77 -23 77c-9.33301 0 -15.666 -11.167 -18.999 -33.5s-5 -64.5 -5 -126.5c0 -22 1 -48 3 -78s4.33301 -53.833 7 -71.5
s6.33398 -32.5 11.001 -44.5c2 -4.66699 3 -9.66699 3 -15c0 -6 -1.5 -10.5 -4.5 -13.5s-8.16699 -4.5 -15.5 -4.5c-4.66699 0 -12.334 0.666992 -23.001 2s-21.667 2 -33 2c-8 0 -19.333 -0.666992 -34 -2s-23.667 -2 -27 -2c-12 0 -18 5.33301 -18 16
c0 4.66699 1.5 11.667 4.5 21s5.16699 16.333 6.5 21c6.66699 28.667 10 59.334 10 92.001z" />
    <glyph glyph-name="Ccedilla" unicode="&#xc7;" 
d="M170 201l0.00878906 79.998c0 16.667 -4.33301 29.667 -13 39s-20.667 14 -36 14h-51c-12.667 0 -21 2 -25 6c-6.66699 6.66699 -10 16.334 -10 29.001c0 11.333 3 20.333 9 27s14.667 10 26 10h51c12.667 0 23.167 4.83301 31.5 14.5s12.5 22.167 12.5 37.5
c0 18.667 -2 34 -6 46c-8 22.667 -22.333 34 -43 34c-12.667 0 -23.334 -2 -32.001 -6c-4.66699 -2 -10 -5.66699 -16 -11c-0.666992 -0.666992 -6.33398 -7.66699 -17.001 -21c-6 -7.33301 -11.333 -11 -16 -11c-9.33301 0 -14 7.33301 -14 22c0 4 0.5 11.667 1.5 23
s1.5 27.333 1.5 48v16v13c-1.33301 6.66699 -2 11.334 -2 14.001l-2 26c0 23.333 16 39.666 48 48.999c18 5.33301 38 8 60 8c48 0 82 -11.667 102 -35c28 -32.667 42 -96 42 -190c0 -22.667 -1 -40.5 -3 -53.5s-8.33301 -25.833 -19 -38.5l-9 -10.5
c-2 -2.33301 -3 -4.5 -3 -6.5l4 -6c15.333 -12 24.666 -22.333 27.999 -31c6.66699 -16 10 -36.333 10 -61v-126c0 -54.667 -18 -96 -54 -124c-28.667 -22.667 -63 -34 -103 -34c-22.667 0 -44.334 4.66699 -65.001 14c-24.667 11.333 -37 25.333 -37 42
c0 5.33301 0.333008 12.666 1 21.999s1 20 1 32c0 17.333 -0.333008 29.833 -1 37.5s-1.33398 14.834 -2.00098 21.501c0 6.66699 1.33301 11.5 4 14.5s5.66699 4.5 9 4.5c5.33301 0 10.166 -3 14.499 -9s8.16602 -11.667 11.499 -17c6 -9.33301 13.167 -16.333 21.5 -21
s18.166 -7 29.499 -7c17.333 0 31.666 6.33301 42.999 19s17 31.334 17 56.001z" />
    <glyph glyph-name="Ccedilla" unicode="&#x417;" 
d="M170 201l0.00878906 79.998c0 16.667 -4.33301 29.667 -13 39s-20.667 14 -36 14h-51c-12.667 0 -21 2 -25 6c-6.66699 6.66699 -10 16.334 -10 29.001c0 11.333 3 20.333 9 27s14.667 10 26 10h51c12.667 0 23.167 4.83301 31.5 14.5s12.5 22.167 12.5 37.5
c0 18.667 -2 34 -6 46c-8 22.667 -22.333 34 -43 34c-12.667 0 -23.334 -2 -32.001 -6c-4.66699 -2 -10 -5.66699 -16 -11c-0.666992 -0.666992 -6.33398 -7.66699 -17.001 -21c-6 -7.33301 -11.333 -11 -16 -11c-9.33301 0 -14 7.33301 -14 22c0 4 0.5 11.667 1.5 23
s1.5 27.333 1.5 48v16v13c-1.33301 6.66699 -2 11.334 -2 14.001l-2 26c0 23.333 16 39.666 48 48.999c18 5.33301 38 8 60 8c48 0 82 -11.667 102 -35c28 -32.667 42 -96 42 -190c0 -22.667 -1 -40.5 -3 -53.5s-8.33301 -25.833 -19 -38.5l-9 -10.5
c-2 -2.33301 -3 -4.5 -3 -6.5l4 -6c15.333 -12 24.666 -22.333 27.999 -31c6.66699 -16 10 -36.333 10 -61v-126c0 -54.667 -18 -96 -54 -124c-28.667 -22.667 -63 -34 -103 -34c-22.667 0 -44.334 4.66699 -65.001 14c-24.667 11.333 -37 25.333 -37 42
c0 5.33301 0.333008 12.666 1 21.999s1 20 1 32c0 17.333 -0.333008 29.833 -1 37.5s-1.33398 14.834 -2.00098 21.501c0 6.66699 1.33301 11.5 4 14.5s5.66699 4.5 9 4.5c5.33301 0 10.166 -3 14.499 -9s8.16602 -11.667 11.499 -17c6 -9.33301 13.167 -16.333 21.5 -21
s18.166 -7 29.499 -7c17.333 0 31.666 6.33301 42.999 19s17 31.334 17 56.001z" />
    <glyph glyph-name="Egrave" unicode="&#xc8;" horiz-adv-x="391" 
d="M38 177l0.00195312 392.995c0 36 -1.66699 62.333 -5 79c-4.66699 12.667 -9 25.334 -13 38.001c0 6 1.83301 9.66699 5.5 11s8.83398 2 15.501 2c8 0 16 -0.666992 24 -2s17.333 -2 28 -2h24c6.66699 0 11.667 0.333008 15 1l26 3c10 0 15 -4.33301 15 -13
c0 -4.66699 -1.66699 -10 -5 -16c-6.66699 -12 -10 -18.333 -10 -19c-4 -8.66699 -6.66699 -19.667 -8 -33s-2 -24.666 -2 -33.999v-133c3.33301 0 6.66602 0.333008 9.99902 1c5.33301 6.66699 17 26 35 58s29.833 55 35.5 69s8.5 29 8.5 45
c0 9.33301 -0.833008 17 -2.5 23s-4.16699 12.333 -7.5 19c-5.33301 10.667 -8 17.334 -8 20.001c0 8.66699 6.66699 13 20 13c12 0 20.333 -0.666992 25 -2s12 -2 22 -2s18.333 0.666992 25 2s20 2 40 2c4 0 8 -0.333008 12 -1s6 -3.66699 6 -9
c-4.66699 -15.333 -8.83398 -31.833 -12.501 -49.5s-5.5 -37.167 -5.5 -58.5v-398c0 -36 0.833008 -63.5 2.5 -82.5s3.5 -32.5 5.5 -40.5c3.33301 -8.66699 5.33301 -15 6 -19c4 -13.333 6 -22.666 6 -27.999c0 -6 -2.16699 -9.83301 -6.5 -11.5s-8.83301 -2.5 -13.5 -2.5
c-20 0 -32.5 0.833008 -37.5 2.5s-12.167 2.5 -21.5 2.5c-12.667 0 -21.834 -0.833008 -27.501 -2.5s-13.834 -2.5 -24.501 -2.5c-6.66699 0 -11.5 1.83301 -14.5 5.5s-4.5 7.83398 -4.5 12.501c0 2.66699 1.5 7.66699 4.5 15s5.66699 15 8 23s4.16602 20.667 5.49902 38
s2 33.333 2 48v159l2 39c-1.33301 4.66699 -2.66602 7 -3.99902 7c-4 0 -10.5 -8 -19.5 -24s-20.833 -38.667 -35.5 -68l-19 -42c-11.333 -26.667 -17 -51 -17 -73c0 -19.333 0.5 -33.5 1.5 -42.5s3.33301 -18.833 7 -29.5l10.5 -29.5c3.33301 -9 5 -15.5 5 -19.5
c0 -12.667 -7.33301 -19 -22 -19c-13.333 0 -21.333 0.666992 -24 2s-12.667 2 -30 2c-14 0 -23.667 -0.666992 -29 -2s-13.666 -2 -24.999 -2c-14 -0 -21 5.33301 -21 16c0 4 0.833008 9.5 2.5 16.5l6 25.5c2.33301 10 4.33301 28.833 6 56.5s2.5 48.5 2.5 62.5z" />
    <glyph glyph-name="Egrave" unicode="&#x418;" horiz-adv-x="391" 
d="M38 177l0.00195312 392.995c0 36 -1.66699 62.333 -5 79c-4.66699 12.667 -9 25.334 -13 38.001c0 6 1.83301 9.66699 5.5 11s8.83398 2 15.501 2c8 0 16 -0.666992 24 -2s17.333 -2 28 -2h24c6.66699 0 11.667 0.333008 15 1l26 3c10 0 15 -4.33301 15 -13
c0 -4.66699 -1.66699 -10 -5 -16c-6.66699 -12 -10 -18.333 -10 -19c-4 -8.66699 -6.66699 -19.667 -8 -33s-2 -24.666 -2 -33.999v-133c3.33301 0 6.66602 0.333008 9.99902 1c5.33301 6.66699 17 26 35 58s29.833 55 35.5 69s8.5 29 8.5 45
c0 9.33301 -0.833008 17 -2.5 23s-4.16699 12.333 -7.5 19c-5.33301 10.667 -8 17.334 -8 20.001c0 8.66699 6.66699 13 20 13c12 0 20.333 -0.666992 25 -2s12 -2 22 -2s18.333 0.666992 25 2s20 2 40 2c4 0 8 -0.333008 12 -1s6 -3.66699 6 -9
c-4.66699 -15.333 -8.83398 -31.833 -12.501 -49.5s-5.5 -37.167 -5.5 -58.5v-398c0 -36 0.833008 -63.5 2.5 -82.5s3.5 -32.5 5.5 -40.5c3.33301 -8.66699 5.33301 -15 6 -19c4 -13.333 6 -22.666 6 -27.999c0 -6 -2.16699 -9.83301 -6.5 -11.5s-8.83301 -2.5 -13.5 -2.5
c-20 0 -32.5 0.833008 -37.5 2.5s-12.167 2.5 -21.5 2.5c-12.667 0 -21.834 -0.833008 -27.501 -2.5s-13.834 -2.5 -24.501 -2.5c-6.66699 0 -11.5 1.83301 -14.5 5.5s-4.5 7.83398 -4.5 12.501c0 2.66699 1.5 7.66699 4.5 15s5.66699 15 8 23s4.16602 20.667 5.49902 38
s2 33.333 2 48v159l2 39c-1.33301 4.66699 -2.66602 7 -3.99902 7c-4 0 -10.5 -8 -19.5 -24s-20.833 -38.667 -35.5 -68l-19 -42c-11.333 -26.667 -17 -51 -17 -73c0 -19.333 0.5 -33.5 1.5 -42.5s3.33301 -18.833 7 -29.5l10.5 -29.5c3.33301 -9 5 -15.5 5 -19.5
c0 -12.667 -7.33301 -19 -22 -19c-13.333 0 -21.333 0.666992 -24 2s-12.667 2 -30 2c-14 0 -23.667 -0.666992 -29 -2s-13.666 -2 -24.999 -2c-14 -0 -21 5.33301 -21 16c0 4 0.833008 9.5 2.5 16.5l6 25.5c2.33301 10 4.33301 28.833 6 56.5s2.5 48.5 2.5 62.5z" />
    <glyph glyph-name="Eacute" unicode="&#xc9;" horiz-adv-x="391" 
d="M38 177l0.00195312 392.995c0 36 -1.66699 62.333 -5 79c-4.66699 12.667 -9 25.334 -13 38.001c0 6 1.83301 9.66699 5.5 11s8.83398 2 15.501 2c8 0 16 -0.666992 24 -2s17.333 -2 28 -2h24c6.66699 0 11.667 0.333008 15 1l26 3c10 0 15 -4.33301 15 -13
c0 -4.66699 -1.66699 -10 -5 -16c-6.66699 -12 -10 -18.333 -10 -19c-4 -8.66699 -6.66699 -19.667 -8 -33s-2 -24.666 -2 -33.999v-133c3.33301 0 6.66602 0.333008 9.99902 1c5.33301 6.66699 17 26 35 58s29.833 55 35.5 69s8.5 29 8.5 45
c0 9.33301 -0.833008 17 -2.5 23s-4.16699 12.333 -7.5 19c-5.33301 10.667 -8 17.334 -8 20.001c0 8.66699 6.66699 13 20 13c12 0 20.333 -0.666992 25 -2s12 -2 22 -2s18.333 0.666992 25 2s20 2 40 2c4 0 8 -0.333008 12 -1s6 -3.66699 6 -9
c-4.66699 -15.333 -8.83398 -31.833 -12.501 -49.5s-5.5 -37.167 -5.5 -58.5v-398c0 -36 0.833008 -63.5 2.5 -82.5s3.5 -32.5 5.5 -40.5c3.33301 -8.66699 5.33301 -15 6 -19c4 -13.333 6 -22.666 6 -27.999c0 -6 -2.16699 -9.83301 -6.5 -11.5s-8.83301 -2.5 -13.5 -2.5
c-20 0 -32.5 0.833008 -37.5 2.5s-12.167 2.5 -21.5 2.5c-12.667 0 -21.834 -0.833008 -27.501 -2.5s-13.834 -2.5 -24.501 -2.5c-6.66699 0 -11.5 1.83301 -14.5 5.5s-4.5 7.83398 -4.5 12.501c0 2.66699 1.5 7.66699 4.5 15s5.66699 15 8 23s4.16602 20.667 5.49902 38
s2 33.333 2 48v159l2 39c-1.33301 4.66699 -2.66602 7 -3.99902 7c-4 0 -10.5 -8 -19.5 -24s-20.833 -38.667 -35.5 -68l-19 -42c-11.333 -26.667 -17 -51 -17 -73c0 -19.333 0.5 -33.5 1.5 -42.5s3.33301 -18.833 7 -29.5l10.5 -29.5c3.33301 -9 5 -15.5 5 -19.5
c0 -12.667 -7.33301 -19 -22 -19c-13.333 0 -21.333 0.666992 -24 2s-12.667 2 -30 2c-14 0 -23.667 -0.666992 -29 -2s-13.666 -2 -24.999 -2c-14 -0 -21 5.33301 -21 16c0 4 0.833008 9.5 2.5 16.5l6 25.5c2.33301 10 4.33301 28.833 6 56.5s2.5 48.5 2.5 62.5z
M197.002 754.995c13.333 0 22.666 2.00098 27.999 6.00098s8 8.66699 8 14c0 6 -4.83301 10.667 -14.5 14s-14.5 7 -14.5 11c0.666992 2.66699 1.33398 5 2.00098 7s3.33398 3 8.00098 3c2.66699 0 7 -0.333008 13 -1s13.667 -1 23 -1l36 2
c8.66699 0 15.5 -2.83301 20.5 -8.5s7.5 -13.167 7.5 -22.5c0 -18.667 -9 -33.667 -27 -45s-48 -17 -90 -17c-50 0 -84.333 6.33301 -103 19c-13.333 9.33301 -20 23 -20 41c0 14 2.16699 23 6.5 27s10.166 6 17.499 6l11 -1l25 -3l38 2c9.33301 0 14 -3.33301 14 -10
c0 -8.66699 -4 -13.334 -12 -14.001s-12 -4 -12 -10c0 -6.66699 3 -11.5 9 -14.5s14.667 -4.5 26 -4.5z" />
    <glyph glyph-name="Eacute" unicode="&#x419;" horiz-adv-x="391" 
d="M38 177l0.00195312 392.995c0 36 -1.66699 62.333 -5 79c-4.66699 12.667 -9 25.334 -13 38.001c0 6 1.83301 9.66699 5.5 11s8.83398 2 15.501 2c8 0 16 -0.666992 24 -2s17.333 -2 28 -2h24c6.66699 0 11.667 0.333008 15 1l26 3c10 0 15 -4.33301 15 -13
c0 -4.66699 -1.66699 -10 -5 -16c-6.66699 -12 -10 -18.333 -10 -19c-4 -8.66699 -6.66699 -19.667 -8 -33s-2 -24.666 -2 -33.999v-133c3.33301 0 6.66602 0.333008 9.99902 1c5.33301 6.66699 17 26 35 58s29.833 55 35.5 69s8.5 29 8.5 45
c0 9.33301 -0.833008 17 -2.5 23s-4.16699 12.333 -7.5 19c-5.33301 10.667 -8 17.334 -8 20.001c0 8.66699 6.66699 13 20 13c12 0 20.333 -0.666992 25 -2s12 -2 22 -2s18.333 0.666992 25 2s20 2 40 2c4 0 8 -0.333008 12 -1s6 -3.66699 6 -9
c-4.66699 -15.333 -8.83398 -31.833 -12.501 -49.5s-5.5 -37.167 -5.5 -58.5v-398c0 -36 0.833008 -63.5 2.5 -82.5s3.5 -32.5 5.5 -40.5c3.33301 -8.66699 5.33301 -15 6 -19c4 -13.333 6 -22.666 6 -27.999c0 -6 -2.16699 -9.83301 -6.5 -11.5s-8.83301 -2.5 -13.5 -2.5
c-20 0 -32.5 0.833008 -37.5 2.5s-12.167 2.5 -21.5 2.5c-12.667 0 -21.834 -0.833008 -27.501 -2.5s-13.834 -2.5 -24.501 -2.5c-6.66699 0 -11.5 1.83301 -14.5 5.5s-4.5 7.83398 -4.5 12.501c0 2.66699 1.5 7.66699 4.5 15s5.66699 15 8 23s4.16602 20.667 5.49902 38
s2 33.333 2 48v159l2 39c-1.33301 4.66699 -2.66602 7 -3.99902 7c-4 0 -10.5 -8 -19.5 -24s-20.833 -38.667 -35.5 -68l-19 -42c-11.333 -26.667 -17 -51 -17 -73c0 -19.333 0.5 -33.5 1.5 -42.5s3.33301 -18.833 7 -29.5l10.5 -29.5c3.33301 -9 5 -15.5 5 -19.5
c0 -12.667 -7.33301 -19 -22 -19c-13.333 0 -21.333 0.666992 -24 2s-12.667 2 -30 2c-14 0 -23.667 -0.666992 -29 -2s-13.666 -2 -24.999 -2c-14 -0 -21 5.33301 -21 16c0 4 0.833008 9.5 2.5 16.5l6 25.5c2.33301 10 4.33301 28.833 6 56.5s2.5 48.5 2.5 62.5z
M197.002 754.995c13.333 0 22.666 2.00098 27.999 6.00098s8 8.66699 8 14c0 6 -4.83301 10.667 -14.5 14s-14.5 7 -14.5 11c0.666992 2.66699 1.33398 5 2.00098 7s3.33398 3 8.00098 3c2.66699 0 7 -0.333008 13 -1s13.667 -1 23 -1l36 2
c8.66699 0 15.5 -2.83301 20.5 -8.5s7.5 -13.167 7.5 -22.5c0 -18.667 -9 -33.667 -27 -45s-48 -17 -90 -17c-50 0 -84.333 6.33301 -103 19c-13.333 9.33301 -20 23 -20 41c0 14 2.16699 23 6.5 27s10.166 6 17.499 6l11 -1l25 -3l38 2c9.33301 0 14 -3.33301 14 -10
c0 -8.66699 -4 -13.334 -12 -14.001s-12 -4 -12 -10c0 -6.66699 3 -11.5 9 -14.5s14.667 -4.5 26 -4.5z" />
    <glyph glyph-name="Ecircumflex" unicode="&#xca;" horiz-adv-x="363" 
d="M33 103l0.00390625 471c0 30.667 -2.16699 51 -6.5 61s-6.5 24.333 -6.5 43c0 5.33301 1.83301 10.333 5.5 15s10.167 7 19.5 7s17.5 -0.5 24.5 -1.5s13.167 -1.5 18.5 -1.5c15.333 0 26.666 0.5 33.999 1.5s15.666 1.5 24.999 1.5c4 0 7.83301 -1 11.5 -3
s5.5 -6.33301 5.5 -13l-14 -45.5c-4.66699 -15 -7 -29.167 -7 -42.5c0 -16.667 3.5 -29.5 10.5 -38.5s15.833 -13.5 26.5 -13.5c12 0 20.833 5.33301 26.5 16s8.5 22.667 8.5 36c0 8.66699 -0.833008 16 -2.5 22s-5.83398 16 -12.501 30l-9 18c-2 4 -3 7.66699 -3 11
c0 5.33301 1 9.66602 3 12.999c4.66699 6.66699 12.334 10 23.001 10c10 0 18.333 -0.666992 25 -2s12.667 -2 18 -2c7.33301 0 15.333 0.666992 24 2s16 2 22 2c9.33301 0 16.833 -3.33301 22.5 -10s8.5 -20.667 8.5 -42c0 -22 -4 -45 -12 -69
c-5.33301 -16 -13.333 -34 -24 -54l-22 -40c-5.33301 -12 -8 -24.667 -8 -38c0 -24 5.5 -66.833 16.5 -128.5s21.333 -110.167 31 -145.5s21.167 -71 34.5 -107c8.66699 -23.333 13 -38 13 -44c0 -14.667 -5 -22 -15 -22l-49 2c-8.66699 0 -16.834 -0.166992 -24.501 -0.5
s-14.834 -0.833008 -21.501 -1.5c-16 0 -27.167 21 -33.5 63l-19.5 135.5l-16 115.5c-8 52 -16 78 -24 78c-4.66699 0 -8.66699 -6.66699 -12 -20s-5 -35.333 -5 -66v-97c0 -26.667 1.16699 -52.667 3.5 -78s5.83301 -47 10.5 -65c2.66699 -10 6 -20.167 10 -30.5
s6 -16.833 6 -19.5c0 -5.33301 -2 -9.33301 -6 -12s-8.66699 -4 -14 -4c-2.66699 0 -8.66699 0.666992 -18 2s-20 2 -32 2c-11.333 0 -21.333 -0.5 -30 -1.5s-17.667 -1.83301 -27 -2.5c-6.66699 0 -11.167 2.16699 -13.5 6.5s-3.5 10.5 -3.5 18.5c0 4 0.666992 16.333 2 37
s2 34.334 2 41.001z" />
    <glyph glyph-name="Ecircumflex" unicode="&#x41a;" horiz-adv-x="363" 
d="M33 103l0.00390625 471c0 30.667 -2.16699 51 -6.5 61s-6.5 24.333 -6.5 43c0 5.33301 1.83301 10.333 5.5 15s10.167 7 19.5 7s17.5 -0.5 24.5 -1.5s13.167 -1.5 18.5 -1.5c15.333 0 26.666 0.5 33.999 1.5s15.666 1.5 24.999 1.5c4 0 7.83301 -1 11.5 -3
s5.5 -6.33301 5.5 -13l-14 -45.5c-4.66699 -15 -7 -29.167 -7 -42.5c0 -16.667 3.5 -29.5 10.5 -38.5s15.833 -13.5 26.5 -13.5c12 0 20.833 5.33301 26.5 16s8.5 22.667 8.5 36c0 8.66699 -0.833008 16 -2.5 22s-5.83398 16 -12.501 30l-9 18c-2 4 -3 7.66699 -3 11
c0 5.33301 1 9.66602 3 12.999c4.66699 6.66699 12.334 10 23.001 10c10 0 18.333 -0.666992 25 -2s12.667 -2 18 -2c7.33301 0 15.333 0.666992 24 2s16 2 22 2c9.33301 0 16.833 -3.33301 22.5 -10s8.5 -20.667 8.5 -42c0 -22 -4 -45 -12 -69
c-5.33301 -16 -13.333 -34 -24 -54l-22 -40c-5.33301 -12 -8 -24.667 -8 -38c0 -24 5.5 -66.833 16.5 -128.5s21.333 -110.167 31 -145.5s21.167 -71 34.5 -107c8.66699 -23.333 13 -38 13 -44c0 -14.667 -5 -22 -15 -22l-49 2c-8.66699 0 -16.834 -0.166992 -24.501 -0.5
s-14.834 -0.833008 -21.501 -1.5c-16 0 -27.167 21 -33.5 63l-19.5 135.5l-16 115.5c-8 52 -16 78 -24 78c-4.66699 0 -8.66699 -6.66699 -12 -20s-5 -35.333 -5 -66v-97c0 -26.667 1.16699 -52.667 3.5 -78s5.83301 -47 10.5 -65c2.66699 -10 6 -20.167 10 -30.5
s6 -16.833 6 -19.5c0 -5.33301 -2 -9.33301 -6 -12s-8.66699 -4 -14 -4c-2.66699 0 -8.66699 0.666992 -18 2s-20 2 -32 2c-11.333 0 -21.333 -0.5 -30 -1.5s-17.667 -1.83301 -27 -2.5c-6.66699 0 -11.167 2.16699 -13.5 6.5s-3.5 10.5 -3.5 18.5c0 4 0.666992 16.333 2 37
s2 34.334 2 41.001z" />
    <glyph glyph-name="Edieresis" unicode="&#xcb;" horiz-adv-x="348" 
d="M204 165l0.00195312 347.998c0 6 -1.5 11.5 -4.5 16.5s-6.5 7.5 -10.5 7.5c-10 0 -16.667 -5.5 -20 -16.5s-5 -25.167 -5 -42.5c0 -67.333 -2 -126.666 -6 -177.999c-7.33301 -72 -13.333 -134 -18 -186c0 -37.333 -4.33301 -65 -13 -83c-12.667 -26 -34.667 -39 -66 -39
c-16.667 0 -29.334 3 -38.001 9s-13 16.667 -13 32l3 102l-2 52c0 16 5 24 15 24c6 0 9.33301 -3.5 10 -10.5s2.33398 -11.833 5.00098 -14.5l5 -2c3.33301 0 5.83301 2.66699 7.5 8s3.16699 14.666 4.5 27.999s3.33301 46 6 98c5.33301 98 8 162.333 8 193v19
c0 24.667 -0.666992 44.667 -2 60s-3 30.833 -5 46.5s-3.66699 25.834 -5 30.501s-2 9.66699 -2 15c0 12 8 18 24 18c11.333 0 28.833 -0.5 52.5 -1.5l58.5 -2.5l67 2l56 2c4.66699 0 9.5 -0.833008 14.5 -2.5s7.5 -7.16699 7.5 -16.5c0 -5.33301 -0.333008 -9 -1 -11
c-6 -16.667 -10.333 -31 -13 -43c-6.66699 -33.333 -10 -67 -10 -101v-411c0 -10.667 0.333008 -20.667 1 -30s2.16699 -18.333 4.5 -27l6.5 -25c2 -8 3 -13.333 3 -16c0 -10.667 -5.66699 -16 -17 -16c-6.66699 0 -17.834 0.5 -33.501 1.5s-25.834 1.5 -30.501 1.5
c-16 0 -27 -0.5 -33 -1.5s-12 -1.83301 -18 -2.5c-10 0 -15 4.66699 -15 14c0 4.66699 1.33301 11.334 4 20.001s4.66699 16 6 22c4 14 7 28.833 9 44.5s3 37.167 3 64.5z" />
    <glyph glyph-name="Edieresis" unicode="&#x41b;" horiz-adv-x="348" 
d="M204 165l0.00195312 347.998c0 6 -1.5 11.5 -4.5 16.5s-6.5 7.5 -10.5 7.5c-10 0 -16.667 -5.5 -20 -16.5s-5 -25.167 -5 -42.5c0 -67.333 -2 -126.666 -6 -177.999c-7.33301 -72 -13.333 -134 -18 -186c0 -37.333 -4.33301 -65 -13 -83c-12.667 -26 -34.667 -39 -66 -39
c-16.667 0 -29.334 3 -38.001 9s-13 16.667 -13 32l3 102l-2 52c0 16 5 24 15 24c6 0 9.33301 -3.5 10 -10.5s2.33398 -11.833 5.00098 -14.5l5 -2c3.33301 0 5.83301 2.66699 7.5 8s3.16699 14.666 4.5 27.999s3.33301 46 6 98c5.33301 98 8 162.333 8 193v19
c0 24.667 -0.666992 44.667 -2 60s-3 30.833 -5 46.5s-3.66699 25.834 -5 30.501s-2 9.66699 -2 15c0 12 8 18 24 18c11.333 0 28.833 -0.5 52.5 -1.5l58.5 -2.5l67 2l56 2c4.66699 0 9.5 -0.833008 14.5 -2.5s7.5 -7.16699 7.5 -16.5c0 -5.33301 -0.333008 -9 -1 -11
c-6 -16.667 -10.333 -31 -13 -43c-6.66699 -33.333 -10 -67 -10 -101v-411c0 -10.667 0.333008 -20.667 1 -30s2.16699 -18.333 4.5 -27l6.5 -25c2 -8 3 -13.333 3 -16c0 -10.667 -5.66699 -16 -17 -16c-6.66699 0 -17.834 0.5 -33.501 1.5s-25.834 1.5 -30.501 1.5
c-16 0 -27 -0.5 -33 -1.5s-12 -1.83301 -18 -2.5c-10 0 -15 4.66699 -15 14c0 4.66699 1.33301 11.334 4 20.001s4.66699 16 6 22c4 14 7 28.833 9 44.5s3 37.167 3 64.5z" />
    <glyph glyph-name="Igrave" unicode="&#xcc;" horiz-adv-x="418" 
d="M37 237l-0.000976562 277.999c0 23.333 -0.333008 44 -1 62s-1.83398 32.833 -3.50098 44.5s-3.5 23 -5.5 34s-3 18.833 -3 23.5c0 5.33301 1.66699 10 5 14s9.33301 6 18 6c8 0 15.667 -0.666992 23 -2s14.666 -2 21.999 -2c8 0 16.167 0.833008 24.5 2.5
s12.833 2.5 13.5 2.5c12.667 0 21 -8.33301 25 -25l11 -46c11.333 -39.333 18 -61 20 -65c6 -12 13 -18 21 -18c4.66699 0 10.334 5.66699 17.001 17s14.667 30.333 24 57l16 48c8 20.667 18.667 31 32 31c4.66699 0 10 -0.5 16 -1.5s12 -1.5 18 -1.5
c13.333 0 21.333 0.666992 24 2s9.66699 2 21 2c5.33301 0 10.166 -1.33301 14.499 -4s6.5 -8 6.5 -16c0 -4.66699 -1 -11.334 -3 -20.001l-6 -27c-2 -9.33301 -3.33301 -18 -4 -26s-1 -23 -1 -45v-383c0 -33.333 1.33301 -60.333 4 -81
c4.66699 -24.667 7.83398 -43 9.50098 -55s2.5 -19.333 2.5 -22c0 -10 -2 -16 -6 -18s-10.667 -3 -20 -3c-6 0 -13.167 0.333008 -21.5 1s-17.166 1.66699 -26.499 3c-9.33301 0 -17.666 -0.666992 -24.999 -2s-15.333 -2 -24 -2c-14.667 0 -22 5.66699 -22 17
c5.33301 16 9.83301 32.5 13.5 49.5s5.5 35.167 5.5 54.5v272c0 4.66699 -1 8 -3 10c-1.33301 0 -2.33301 0.333008 -3 1c-4.66699 0 -13.667 -17.667 -27 -53c-6 -15.333 -9.33301 -23.666 -10 -24.999c-6 -10 -12.667 -15 -20 -15c-9.33301 0 -18 7.66699 -26 23
c-0.666992 2 -5.33398 14.333 -14.001 37l-8 25c-2.66699 5.33301 -5.66699 8 -9 8c-2 0 -3.66699 -3 -5 -9v-272c0 -25.333 3.16699 -47.166 9.5 -65.499s9.5 -30.833 9.5 -37.5s-2.33301 -11.667 -7 -15s-10 -5 -16 -5c-2.66699 0 -9 0.666992 -19 2s-20.333 2 -31 2
c-12.667 0 -23.667 -0.666992 -33 -2s-15.666 -2 -18.999 -2c-14 0 -21 7 -21 21c0 4 1.33301 11.5 4 22.5s5 24.333 7 40s3.5 36 4.5 61s1.5 55.833 1.5 92.5z" />
    <glyph glyph-name="Igrave" unicode="&#x41c;" horiz-adv-x="418" 
d="M37 237l-0.000976562 277.999c0 23.333 -0.333008 44 -1 62s-1.83398 32.833 -3.50098 44.5s-3.5 23 -5.5 34s-3 18.833 -3 23.5c0 5.33301 1.66699 10 5 14s9.33301 6 18 6c8 0 15.667 -0.666992 23 -2s14.666 -2 21.999 -2c8 0 16.167 0.833008 24.5 2.5
s12.833 2.5 13.5 2.5c12.667 0 21 -8.33301 25 -25l11 -46c11.333 -39.333 18 -61 20 -65c6 -12 13 -18 21 -18c4.66699 0 10.334 5.66699 17.001 17s14.667 30.333 24 57l16 48c8 20.667 18.667 31 32 31c4.66699 0 10 -0.5 16 -1.5s12 -1.5 18 -1.5
c13.333 0 21.333 0.666992 24 2s9.66699 2 21 2c5.33301 0 10.166 -1.33301 14.499 -4s6.5 -8 6.5 -16c0 -4.66699 -1 -11.334 -3 -20.001l-6 -27c-2 -9.33301 -3.33301 -18 -4 -26s-1 -23 -1 -45v-383c0 -33.333 1.33301 -60.333 4 -81
c4.66699 -24.667 7.83398 -43 9.50098 -55s2.5 -19.333 2.5 -22c0 -10 -2 -16 -6 -18s-10.667 -3 -20 -3c-6 0 -13.167 0.333008 -21.5 1s-17.166 1.66699 -26.499 3c-9.33301 0 -17.666 -0.666992 -24.999 -2s-15.333 -2 -24 -2c-14.667 0 -22 5.66699 -22 17
c5.33301 16 9.83301 32.5 13.5 49.5s5.5 35.167 5.5 54.5v272c0 4.66699 -1 8 -3 10c-1.33301 0 -2.33301 0.333008 -3 1c-4.66699 0 -13.667 -17.667 -27 -53c-6 -15.333 -9.33301 -23.666 -10 -24.999c-6 -10 -12.667 -15 -20 -15c-9.33301 0 -18 7.66699 -26 23
c-0.666992 2 -5.33398 14.333 -14.001 37l-8 25c-2.66699 5.33301 -5.66699 8 -9 8c-2 0 -3.66699 -3 -5 -9v-272c0 -25.333 3.16699 -47.166 9.5 -65.499s9.5 -30.833 9.5 -37.5s-2.33301 -11.667 -7 -15s-10 -5 -16 -5c-2.66699 0 -9 0.666992 -19 2s-20.333 2 -31 2
c-12.667 0 -23.667 -0.666992 -33 -2s-15.666 -2 -18.999 -2c-14 0 -21 7 -21 21c0 4 1.33301 11.5 4 22.5s5 24.333 7 40s3.5 36 4.5 61s1.5 55.833 1.5 92.5z" />
    <glyph glyph-name="Iacute" unicode="&#xcd;" horiz-adv-x="376" 
d="M41 156l0.00488281 389.001c0 27.333 -2.33301 50.666 -7 69.999l-14 61c0 15.333 7.66699 23 23 23c6 0 15 -0.5 27 -1.5s24 -1.5 36 -1.5c29.333 2 47 3 53 3c7.33301 0 12.5 -1.83301 15.5 -5.5s4.5 -7.83398 4.5 -12.501c0 -6.66699 -1.66699 -13.667 -5 -21
s-6 -13.666 -8 -18.999s-3.83301 -11.333 -5.5 -18s-2.5 -15 -2.5 -25c0 -13.333 2.66699 -23.833 8 -31.5s14 -11.5 26 -11.5c9.33301 0 16.833 4.83301 22.5 14.5s8.5 20.5 8.5 32.5c0 11.333 -1 20.166 -3 26.499s-5.16699 13.666 -9.5 21.999l-9 17.5
c-1.66699 3.33301 -2.5 7 -2.5 11c0 5.33301 1.5 10 4.5 14s8.83301 6 17.5 6l29 -2l21 -1c16.667 0 29 0.333008 37 1s16.667 1.66699 26 3c7.33301 0 12.833 -2.16699 16.5 -6.5s5.5 -10.166 5.5 -17.499c-6.66699 -18.667 -12.334 -43.667 -17.001 -75
s-7 -71.333 -7 -120v-278c0 -28 0.833008 -51.833 2.5 -71.5s4.16699 -36.5 7.5 -50.5c1.33301 -5.33301 4.66602 -17.666 9.99902 -36.999c2.66699 -9.33301 4 -17 4 -23c0 -8 -2.33301 -13.5 -7 -16.5s-10.334 -4.5 -17.001 -4.5c-14.667 0 -23.334 0.666992 -26.001 2
s-11 2 -25 2c-11.333 0 -21 -0.666992 -29 -2s-16.667 -2 -26 -2c-13.333 -0 -20 6.33301 -20 19c0 10 3.33301 32.667 10 68c4 21.333 6 44.333 6 69v148c0 30 -1.66699 51.833 -5 65.5s-12.666 20.5 -27.999 20.5c-16 0 -26.333 -12.333 -31 -37s-7 -73.667 -7 -147
c0 -50 2 -90 6 -120l14 -66c0 -8.66699 -2.5 -14 -7.5 -16s-11.167 -3 -18.5 -3c-18.667 0 -30.834 0.166992 -36.501 0.5s-10.834 1.16602 -15.501 2.49902l-33 -2l-22 -2c-11.333 0 -17 6.33301 -17 19c0 2.66699 1.33301 8.16699 4 16.5s5.16699 18.5 7.5 30.5
s4.33301 24.833 6 38.5s2.5 30.834 2.5 51.501z" />
    <glyph glyph-name="Iacute" unicode="&#x41d;" horiz-adv-x="376" 
d="M41 156l0.00488281 389.001c0 27.333 -2.33301 50.666 -7 69.999l-14 61c0 15.333 7.66699 23 23 23c6 0 15 -0.5 27 -1.5s24 -1.5 36 -1.5c29.333 2 47 3 53 3c7.33301 0 12.5 -1.83301 15.5 -5.5s4.5 -7.83398 4.5 -12.501c0 -6.66699 -1.66699 -13.667 -5 -21
s-6 -13.666 -8 -18.999s-3.83301 -11.333 -5.5 -18s-2.5 -15 -2.5 -25c0 -13.333 2.66699 -23.833 8 -31.5s14 -11.5 26 -11.5c9.33301 0 16.833 4.83301 22.5 14.5s8.5 20.5 8.5 32.5c0 11.333 -1 20.166 -3 26.499s-5.16699 13.666 -9.5 21.999l-9 17.5
c-1.66699 3.33301 -2.5 7 -2.5 11c0 5.33301 1.5 10 4.5 14s8.83301 6 17.5 6l29 -2l21 -1c16.667 0 29 0.333008 37 1s16.667 1.66699 26 3c7.33301 0 12.833 -2.16699 16.5 -6.5s5.5 -10.166 5.5 -17.499c-6.66699 -18.667 -12.334 -43.667 -17.001 -75
s-7 -71.333 -7 -120v-278c0 -28 0.833008 -51.833 2.5 -71.5s4.16699 -36.5 7.5 -50.5c1.33301 -5.33301 4.66602 -17.666 9.99902 -36.999c2.66699 -9.33301 4 -17 4 -23c0 -8 -2.33301 -13.5 -7 -16.5s-10.334 -4.5 -17.001 -4.5c-14.667 0 -23.334 0.666992 -26.001 2
s-11 2 -25 2c-11.333 0 -21 -0.666992 -29 -2s-16.667 -2 -26 -2c-13.333 -0 -20 6.33301 -20 19c0 10 3.33301 32.667 10 68c4 21.333 6 44.333 6 69v148c0 30 -1.66699 51.833 -5 65.5s-12.666 20.5 -27.999 20.5c-16 0 -26.333 -12.333 -31 -37s-7 -73.667 -7 -147
c0 -50 2 -90 6 -120l14 -66c0 -8.66699 -2.5 -14 -7.5 -16s-11.167 -3 -18.5 -3c-18.667 0 -30.834 0.166992 -36.501 0.5s-10.834 1.16602 -15.501 2.49902l-33 -2l-22 -2c-11.333 0 -17 6.33301 -17 19c0 2.66699 1.33301 8.16699 4 16.5s5.16699 18.5 7.5 30.5
s4.33301 24.833 6 38.5s2.5 30.834 2.5 51.501z" />
    <glyph glyph-name="Icircumflex" unicode="&#xce;" horiz-adv-x="338" 
d="M30 157v339.001c0 74.667 11.833 128.667 35.5 162s60.5 50 110.5 50c52.667 0 89.667 -20.333 111 -61c14 -26.667 21 -60.667 21 -102v-378c0 -54 -11.667 -96.667 -35 -128s-57 -47 -101 -47c-44.667 0 -79.5 14.167 -104.5 42.5s-37.5 69.166 -37.5 122.499z
M140 492.001v-319c0 -18 2.33301 -30.5 7 -37.5s11.667 -10.5 21 -10.5c10 0 17.5 4.16699 22.5 12.5s7.5 21.5 7.5 39.5v320c0 15.333 -1 26 -3 32c-4 12.667 -12.667 19 -26 19s-21.5 -5 -24.5 -15s-4.5 -23.667 -4.5 -41z" />
    <glyph glyph-name="Icircumflex" unicode="&#x41e;" horiz-adv-x="338" 
d="M30 157v339.001c0 74.667 11.833 128.667 35.5 162s60.5 50 110.5 50c52.667 0 89.667 -20.333 111 -61c14 -26.667 21 -60.667 21 -102v-378c0 -54 -11.667 -96.667 -35 -128s-57 -47 -101 -47c-44.667 0 -79.5 14.167 -104.5 42.5s-37.5 69.166 -37.5 122.499z
M140 492.001v-319c0 -18 2.33301 -30.5 7 -37.5s11.667 -10.5 21 -10.5c10 0 17.5 4.16699 22.5 12.5s7.5 21.5 7.5 39.5v320c0 15.333 -1 26 -3 32c-4 12.667 -12.667 19 -26 19s-21.5 -5 -24.5 -15s-4.5 -23.667 -4.5 -41z" />
    <glyph glyph-name="Idieresis" unicode="&#xcf;" horiz-adv-x="364" 
d="M39 133l-0.000976562 421.002c0 14 -1 28.833 -3 44.5s-4.5 30.334 -7.5 44.001s-5.16699 23.167 -6.5 28.5s-2 9 -2 11c0 7.33301 2 12.166 6 14.499s8.66699 3.5 14 3.5c6 0 16 -0.833008 30 -2.5s24.667 -2.5 32 -2.5l97 -3c11.333 0 32.333 1.33301 63 4s49 4 55 4
c10 0 16.667 -1.16699 20 -3.5s5 -6.5 5 -12.5c0 -18.667 -1.33301 -31.334 -4 -38.001c-7.33301 -18.667 -11 -48 -11 -88v-420c0 -30.667 1.83301 -54.167 5.5 -70.5s7.5 -32.5 11.5 -48.5c0 -12.667 -5.33301 -19 -16 -19c-12 0 -22 0.833008 -30 2.5s-18 2.5 -30 2.5
s-21.833 -0.833008 -29.5 -2.5s-14.167 -2.5 -19.5 -2.5c-4.66699 0.666992 -8 1.33398 -10 2.00098c-6.66699 3.33301 -10 9.33301 -10 18c0 9.33301 1.66699 18.666 5 27.999c8.66699 24.667 13 48.667 13 72v358c0 16.667 -1.33301 28.667 -4 36
c-5.33301 15.333 -15.333 23 -30 23s-24.667 -7 -30 -21c-2.66699 -7.33301 -4 -20 -4 -38v-357c0 -32 4.33301 -58.667 13 -80c4 -10 6 -17 6 -21c0 -6 -1.83301 -10.833 -5.5 -14.5s-10.167 -5.5 -19.5 -5.5c-6.66699 0 -13.167 0.833008 -19.5 2.5
s-16.166 2.5 -29.499 2.5c-18 0 -30.667 -0.666992 -38 -2s-14 -2.33301 -20 -3c-10.667 0 -16 5.66699 -16 17c0 4 1.33301 10.333 4 19s4.66699 15.667 6 21c6 25.333 9 50.666 9 75.999z" />
    <glyph glyph-name="Idieresis" unicode="&#x41f;" horiz-adv-x="364" 
d="M39 133l-0.000976562 421.002c0 14 -1 28.833 -3 44.5s-4.5 30.334 -7.5 44.001s-5.16699 23.167 -6.5 28.5s-2 9 -2 11c0 7.33301 2 12.166 6 14.499s8.66699 3.5 14 3.5c6 0 16 -0.833008 30 -2.5s24.667 -2.5 32 -2.5l97 -3c11.333 0 32.333 1.33301 63 4s49 4 55 4
c10 0 16.667 -1.16699 20 -3.5s5 -6.5 5 -12.5c0 -18.667 -1.33301 -31.334 -4 -38.001c-7.33301 -18.667 -11 -48 -11 -88v-420c0 -30.667 1.83301 -54.167 5.5 -70.5s7.5 -32.5 11.5 -48.5c0 -12.667 -5.33301 -19 -16 -19c-12 0 -22 0.833008 -30 2.5s-18 2.5 -30 2.5
s-21.833 -0.833008 -29.5 -2.5s-14.167 -2.5 -19.5 -2.5c-4.66699 0.666992 -8 1.33398 -10 2.00098c-6.66699 3.33301 -10 9.33301 -10 18c0 9.33301 1.66699 18.666 5 27.999c8.66699 24.667 13 48.667 13 72v358c0 16.667 -1.33301 28.667 -4 36
c-5.33301 15.333 -15.333 23 -30 23s-24.667 -7 -30 -21c-2.66699 -7.33301 -4 -20 -4 -38v-357c0 -32 4.33301 -58.667 13 -80c4 -10 6 -17 6 -21c0 -6 -1.83301 -10.833 -5.5 -14.5s-10.167 -5.5 -19.5 -5.5c-6.66699 0 -13.167 0.833008 -19.5 2.5
s-16.166 2.5 -29.499 2.5c-18 0 -30.667 -0.666992 -38 -2s-14 -2.33301 -20 -3c-10.667 0 -16 5.66699 -16 17c0 4 1.33301 10.333 4 19s4.66699 15.667 6 21c6 25.333 9 50.666 9 75.999z" />
    <glyph glyph-name="Eth" unicode="&#xd0;" horiz-adv-x="341" 
d="M35 231l-0.00292969 264.999c0 56 -1.16699 97 -3.5 123s-3.5 43.667 -3.5 53c0 10 2.83301 17.167 8.5 21.5s14.167 6.5 25.5 6.5c102 0 170.667 -18 206 -54s53 -103.333 53 -202c0 -90.667 -15.667 -156.667 -47 -198c-21.333 -28 -50.666 -45.333 -87.999 -52
c-20.667 -3.33301 -32.667 -6.16602 -36 -8.49902s-5 -10.5 -5 -24.5c0 -22 2.5 -42.333 7.5 -61s13.167 -35 24.5 -49c8.66699 -10.667 13.5 -17.167 14.5 -19.5s1.5 -6.83301 1.5 -13.5c0 -12 -6.66699 -18 -20 -18l-33 3l-36 2c-17.333 0 -29.666 -0.833008 -36.999 -2.5
s-14.666 -2.5 -21.999 -2.5c-10.667 -0 -17.5 2.83301 -20.5 8.5s-4.5 10.167 -4.5 13.5c0 18 1.33301 34 4 48c7.33301 38 11 91.667 11 161zM144.997 406.999c0 -38 0.666992 -61.333 2 -70c4 -24.667 12.667 -37 26 -37c10.667 0 19.667 8.83301 27 26.5
s11 45.834 11 84.501c0 31.333 -4 56.333 -12 75s-17.667 28 -29 28c-12.667 0 -20 -10.333 -22 -31s-3 -40.334 -3 -59.001v-17z" />
    <glyph glyph-name="Eth" unicode="&#x420;" horiz-adv-x="341" 
d="M35 231l-0.00292969 264.999c0 56 -1.16699 97 -3.5 123s-3.5 43.667 -3.5 53c0 10 2.83301 17.167 8.5 21.5s14.167 6.5 25.5 6.5c102 0 170.667 -18 206 -54s53 -103.333 53 -202c0 -90.667 -15.667 -156.667 -47 -198c-21.333 -28 -50.666 -45.333 -87.999 -52
c-20.667 -3.33301 -32.667 -6.16602 -36 -8.49902s-5 -10.5 -5 -24.5c0 -22 2.5 -42.333 7.5 -61s13.167 -35 24.5 -49c8.66699 -10.667 13.5 -17.167 14.5 -19.5s1.5 -6.83301 1.5 -13.5c0 -12 -6.66699 -18 -20 -18l-33 3l-36 2c-17.333 0 -29.666 -0.833008 -36.999 -2.5
s-14.666 -2.5 -21.999 -2.5c-10.667 -0 -17.5 2.83301 -20.5 8.5s-4.5 10.167 -4.5 13.5c0 18 1.33301 34 4 48c7.33301 38 11 91.667 11 161zM144.997 406.999c0 -38 0.666992 -61.333 2 -70c4 -24.667 12.667 -37 26 -37c10.667 0 19.667 8.83301 27 26.5
s11 45.834 11 84.501c0 31.333 -4 56.333 -12 75s-17.667 28 -29 28c-12.667 0 -20 -10.333 -22 -31s-3 -40.334 -3 -59.001v-17z" />
    <glyph glyph-name="Ntilde" unicode="&#xd1;" horiz-adv-x="298" 
d="M30 264l-0.00390625 148.999c0 108 13.333 185 40 231c24.667 42.667 63.334 64 116.001 64c25.333 0 47 -3 65 -9s27 -15.667 27 -29c0 -2 -0.833008 -9.33301 -2.5 -22s-2.5 -29 -2.5 -49c0 -14.667 0.333008 -27 1 -37s1.66699 -20 3 -30
c0 -13.333 -2.16699 -23 -6.5 -29s-8.83301 -9 -13.5 -9s-8.66699 1 -12 3s-8.66602 6.83301 -15.999 14.5s-12.666 12.5 -15.999 14.5c-6.66699 4 -15 6 -25 6c-22 0 -35.5 -10.5 -40.5 -31.5s-7.5 -55.5 -7.5 -103.5v-94c0 -56 2.33301 -94 7 -114
c8.66699 -36.667 27.334 -55 56.001 -55c9.33301 0 16.833 1.83301 22.5 5.5s11.167 8.83398 16.5 15.501c6 9.33301 13 14 21 14c6 0 9.83301 -2.16699 11.5 -6.5s2.5 -9.16602 2.5 -14.499l-1 -50l1 -50c0 -16 -4 -28 -12 -36c-13.333 -13.333 -38.333 -20 -75 -20
c-49.333 0 -87 17.333 -113 52c-31.333 41.333 -47 114.666 -47 219.999z" />
    <glyph glyph-name="Ntilde" unicode="&#x421;" horiz-adv-x="298" 
d="M30 264l-0.00390625 148.999c0 108 13.333 185 40 231c24.667 42.667 63.334 64 116.001 64c25.333 0 47 -3 65 -9s27 -15.667 27 -29c0 -2 -0.833008 -9.33301 -2.5 -22s-2.5 -29 -2.5 -49c0 -14.667 0.333008 -27 1 -37s1.66699 -20 3 -30
c0 -13.333 -2.16699 -23 -6.5 -29s-8.83301 -9 -13.5 -9s-8.66699 1 -12 3s-8.66602 6.83301 -15.999 14.5s-12.666 12.5 -15.999 14.5c-6.66699 4 -15 6 -25 6c-22 0 -35.5 -10.5 -40.5 -31.5s-7.5 -55.5 -7.5 -103.5v-94c0 -56 2.33301 -94 7 -114
c8.66699 -36.667 27.334 -55 56.001 -55c9.33301 0 16.833 1.83301 22.5 5.5s11.167 8.83398 16.5 15.501c6 9.33301 13 14 21 14c6 0 9.83301 -2.16699 11.5 -6.5s2.5 -9.16602 2.5 -14.499l-1 -50l1 -50c0 -16 -4 -28 -12 -36c-13.333 -13.333 -38.333 -20 -75 -20
c-49.333 0 -87 17.333 -113 52c-31.333 41.333 -47 114.666 -47 219.999z" />
    <glyph glyph-name="Ograve" unicode="&#xd2;" horiz-adv-x="298" 
d="M91 103l0.00390625 374.998c0 12.667 -1.33301 22 -4 28s-8.33398 9 -17.001 9c-9.33301 0 -17 -5 -23 -15l-8 -12.5c-2.66699 -4.33301 -6.33398 -6.5 -11.001 -6.5c-12 0 -18 8 -18 24c0 8.66699 0.5 18 1.5 28s2 18.833 3 26.5s1.5 17 1.5 28v25.5l-1 36l-1 26
c0 7.33301 1.66699 13.333 5 18s10.333 7 21 7c12 0 25.333 -1.16699 40 -3.5s37.667 -3.5 69 -3.5c36.667 0 59 1.16699 67 3.5s23.333 3.5 46 3.5c8.66699 0 14.667 -2.33301 18 -7s5 -9.66699 5 -15c0 -8 -0.333008 -18 -1 -30s-1 -24.667 -1 -38
c0 -28.667 0.5 -50.5 1.5 -65.5s2.16699 -28.833 3.5 -41.5c0 -14.667 -5.66699 -22 -17 -22c-5.33301 0 -10 2.66699 -14 8c-4 7.33301 -7 12.333 -9 15c-5.33301 9.33301 -13 14 -23 14c-8.66699 0 -14.834 -3.66699 -18.501 -11s-5.5 -22 -5.5 -44v-336
c0 -13.333 0.666992 -26.166 2 -38.499s3.66602 -23.333 6.99902 -33l8 -23c2 -5.66699 3 -10.5 3 -14.5c0 -7.33301 -1.66699 -12.166 -5 -14.499s-7.66602 -3.5 -12.999 -3.5l-26 3l-29 1c-9.33301 0 -19 -0.666992 -29 -2s-16.667 -2 -20 -2
c-15.333 -0 -23 6.33301 -23 19c0 5.33301 1 10 3 14c5.33301 14 8.66602 23.833 9.99902 29.5s2 19.167 2 40.5z" />
    <glyph glyph-name="Ograve" unicode="&#x422;" horiz-adv-x="298" 
d="M91 103l0.00390625 374.998c0 12.667 -1.33301 22 -4 28s-8.33398 9 -17.001 9c-9.33301 0 -17 -5 -23 -15l-8 -12.5c-2.66699 -4.33301 -6.33398 -6.5 -11.001 -6.5c-12 0 -18 8 -18 24c0 8.66699 0.5 18 1.5 28s2 18.833 3 26.5s1.5 17 1.5 28v25.5l-1 36l-1 26
c0 7.33301 1.66699 13.333 5 18s10.333 7 21 7c12 0 25.333 -1.16699 40 -3.5s37.667 -3.5 69 -3.5c36.667 0 59 1.16699 67 3.5s23.333 3.5 46 3.5c8.66699 0 14.667 -2.33301 18 -7s5 -9.66699 5 -15c0 -8 -0.333008 -18 -1 -30s-1 -24.667 -1 -38
c0 -28.667 0.5 -50.5 1.5 -65.5s2.16699 -28.833 3.5 -41.5c0 -14.667 -5.66699 -22 -17 -22c-5.33301 0 -10 2.66699 -14 8c-4 7.33301 -7 12.333 -9 15c-5.33301 9.33301 -13 14 -23 14c-8.66699 0 -14.834 -3.66699 -18.501 -11s-5.5 -22 -5.5 -44v-336
c0 -13.333 0.666992 -26.166 2 -38.499s3.66602 -23.333 6.99902 -33l8 -23c2 -5.66699 3 -10.5 3 -14.5c0 -7.33301 -1.66699 -12.166 -5 -14.499s-7.66602 -3.5 -12.999 -3.5l-26 3l-29 1c-9.33301 0 -19 -0.666992 -29 -2s-16.667 -2 -20 -2
c-15.333 -0 -23 6.33301 -23 19c0 5.33301 1 10 3 14c5.33301 14 8.66602 23.833 9.99902 29.5s2 19.167 2 40.5z" />
    <glyph glyph-name="Oacute" unicode="&#xd3;" horiz-adv-x="330" 
d="M161 161c0 2 -0.834961 3.66992 -2.50195 5.00293s-4.83398 3.33301 -9.50098 6c-25.333 14 -44 29 -56 45c-21.333 28.667 -36 70.667 -44 126c-3.33301 25.333 -8 88.666 -14 189.999c-2 34.667 -5.33301 61.667 -10 81s-11 35 -19 47c-4 6 -6 11.333 -6 16
c0 6.66699 1.83301 12.167 5.5 16.5s10.5 6.5 20.5 6.5c5.33301 0 11.333 -0.666992 18 -2s13 -2 19 -2c7.33301 0 14 0.666992 20 2s15.667 2 29 2c8.66699 0 15.334 -2.66699 20.001 -8s7 -16 7 -32v-169c0 -52 4.33301 -91.667 13 -119s18.334 -41 29.001 -41
c10 0 16.833 12.5 20.5 37.5s5.5 57.5 5.5 97.5c0 35.333 -1 65.5 -3 90.5s-6.66699 47.5 -14 67.5c-4 11.333 -9.66699 22.166 -17 32.499s-11 18.166 -11 23.499c0 13.333 8 20 24 20c8.66699 0 19 -0.5 31 -1.5s19.667 -1.5 23 -1.5c14 0 24.5 0.5 31.5 1.5
s12.167 1.5 15.5 1.5c8.66699 0 14.667 -3 18 -9s5 -14.667 5 -26c0 -82.667 -2.16699 -158.5 -6.5 -227.5s-10.666 -129.5 -18.999 -181.5s-18.833 -101.667 -31.5 -149c-19.333 -71.333 -38 -107 -56 -107c-2 0 -8 0.666992 -18 2s-21.667 2 -35 2l-32 -2l-30 -2h-11
c-10 2.66699 -15 10 -15 22c0 7.33301 7 16 21 26c22.667 16 35.667 26 39 30c9.33301 10 18 22 26 36c12.667 22 19 37.667 19 47z" />
    <glyph glyph-name="Oacute" unicode="&#x423;" horiz-adv-x="330" 
d="M161 161c0 2 -0.834961 3.66992 -2.50195 5.00293s-4.83398 3.33301 -9.50098 6c-25.333 14 -44 29 -56 45c-21.333 28.667 -36 70.667 -44 126c-3.33301 25.333 -8 88.666 -14 189.999c-2 34.667 -5.33301 61.667 -10 81s-11 35 -19 47c-4 6 -6 11.333 -6 16
c0 6.66699 1.83301 12.167 5.5 16.5s10.5 6.5 20.5 6.5c5.33301 0 11.333 -0.666992 18 -2s13 -2 19 -2c7.33301 0 14 0.666992 20 2s15.667 2 29 2c8.66699 0 15.334 -2.66699 20.001 -8s7 -16 7 -32v-169c0 -52 4.33301 -91.667 13 -119s18.334 -41 29.001 -41
c10 0 16.833 12.5 20.5 37.5s5.5 57.5 5.5 97.5c0 35.333 -1 65.5 -3 90.5s-6.66699 47.5 -14 67.5c-4 11.333 -9.66699 22.166 -17 32.499s-11 18.166 -11 23.499c0 13.333 8 20 24 20c8.66699 0 19 -0.5 31 -1.5s19.667 -1.5 23 -1.5c14 0 24.5 0.5 31.5 1.5
s12.167 1.5 15.5 1.5c8.66699 0 14.667 -3 18 -9s5 -14.667 5 -26c0 -82.667 -2.16699 -158.5 -6.5 -227.5s-10.666 -129.5 -18.999 -181.5s-18.833 -101.667 -31.5 -149c-19.333 -71.333 -38 -107 -56 -107c-2 0 -8 0.666992 -18 2s-21.667 2 -35 2l-32 -2l-30 -2h-11
c-10 2.66699 -15 10 -15 22c0 7.33301 7 16 21 26c22.667 16 35.667 26 39 30c9.33301 10 18 22 26 36c12.667 22 19 37.667 19 47z" />
    <glyph glyph-name="Ocircumflex" unicode="&#xd4;" horiz-adv-x="488" 
d="M30 253l0.00195312 151.998c0 70 11 119.333 33 148c17.333 23.333 46.666 38 87.999 44c10.667 1.33301 21.667 3 33 5c3.33301 1.33301 5 5.33301 5 12c0 14.667 -2.33301 29 -7 43c-2 6 -4.33301 11.667 -7 17s-4 9.33301 -4 12c0 6 2 9.83301 6 11.5s9 2.5 15 2.5
c8 0 16 -0.666992 24 -2s17.667 -2 29 -2c14.667 0 25.834 0.333008 33.501 1s15.5 1.66699 23.5 3c5.33301 0 9 -1 11 -3s3.66699 -5.33301 5 -10c0 -4 -1 -8.33301 -3 -13c-4 -10 -7.33301 -19 -10 -27s-4.66699 -15.5 -6 -22.5s-2 -11.833 -2 -14.5
c0 -6 4.5 -9.5 13.5 -10.5s24.5 -4.16699 46.5 -9.5c40.667 -10 69 -31 85 -63c10.667 -21.333 16 -51.333 16 -90v-156c0 -78 -19 -130 -57 -156c-7.33301 -4.66699 -38.333 -14 -93 -28c-5.33301 -1.33301 -8 -5.33301 -8 -12c0 -20 2.83301 -36.333 8.5 -49
s8.5 -20.667 8.5 -24c0 -8 -5.66699 -12 -17 -12c-6.66699 0 -16 0.5 -28 1.5s-21 1.5 -27 1.5c-15.333 0 -28.5 -0.5 -39.5 -1.5s-17.167 -1.5 -18.5 -1.5c-9.33301 0 -14 4.66699 -14 14c0 4.66699 2.5 13.334 7.5 26.001s7.5 25.334 7.5 38.001
c0 8 -4.83301 13.167 -14.5 15.5s-17.834 4 -24.501 5s-13.334 2.5 -20.001 4.5c-38.667 12 -66 33.667 -82 65c-11.333 22.667 -17 51 -17 85zM193.002 212.998l-0.000976562 250.001c0 8.66699 -3 13 -9 13c-11.333 0 -20.333 -4.33301 -27 -13
c-11.333 -14.667 -17 -39.334 -17 -74.001v-118c0 -23.333 3.83301 -41.5 11.5 -54.5s18.834 -19.5 33.501 -19.5c5.33301 0 8 5.33301 8 16zM295.001 467.999l-0.000976562 -261.001c0 -6.66699 2.66699 -10 8 -10c10 0 18.667 4.66699 26 14c12.667 16 19 42 19 78v114
c0 28.667 -5 49.334 -15 62.001c-7.33301 9.33301 -16.666 14 -27.999 14c-6.66699 0 -10 -3.66699 -10 -11z" />
    <glyph glyph-name="Ocircumflex" unicode="&#x424;" horiz-adv-x="488" 
d="M30 253l0.00195312 151.998c0 70 11 119.333 33 148c17.333 23.333 46.666 38 87.999 44c10.667 1.33301 21.667 3 33 5c3.33301 1.33301 5 5.33301 5 12c0 14.667 -2.33301 29 -7 43c-2 6 -4.33301 11.667 -7 17s-4 9.33301 -4 12c0 6 2 9.83301 6 11.5s9 2.5 15 2.5
c8 0 16 -0.666992 24 -2s17.667 -2 29 -2c14.667 0 25.834 0.333008 33.501 1s15.5 1.66699 23.5 3c5.33301 0 9 -1 11 -3s3.66699 -5.33301 5 -10c0 -4 -1 -8.33301 -3 -13c-4 -10 -7.33301 -19 -10 -27s-4.66699 -15.5 -6 -22.5s-2 -11.833 -2 -14.5
c0 -6 4.5 -9.5 13.5 -10.5s24.5 -4.16699 46.5 -9.5c40.667 -10 69 -31 85 -63c10.667 -21.333 16 -51.333 16 -90v-156c0 -78 -19 -130 -57 -156c-7.33301 -4.66699 -38.333 -14 -93 -28c-5.33301 -1.33301 -8 -5.33301 -8 -12c0 -20 2.83301 -36.333 8.5 -49
s8.5 -20.667 8.5 -24c0 -8 -5.66699 -12 -17 -12c-6.66699 0 -16 0.5 -28 1.5s-21 1.5 -27 1.5c-15.333 0 -28.5 -0.5 -39.5 -1.5s-17.167 -1.5 -18.5 -1.5c-9.33301 0 -14 4.66699 -14 14c0 4.66699 2.5 13.334 7.5 26.001s7.5 25.334 7.5 38.001
c0 8 -4.83301 13.167 -14.5 15.5s-17.834 4 -24.501 5s-13.334 2.5 -20.001 4.5c-38.667 12 -66 33.667 -82 65c-11.333 22.667 -17 51 -17 85zM193.002 212.998l-0.000976562 250.001c0 8.66699 -3 13 -9 13c-11.333 0 -20.333 -4.33301 -27 -13
c-11.333 -14.667 -17 -39.334 -17 -74.001v-118c0 -23.333 3.83301 -41.5 11.5 -54.5s18.834 -19.5 33.501 -19.5c5.33301 0 8 5.33301 8 16zM295.001 467.999l-0.000976562 -261.001c0 -6.66699 2.66699 -10 8 -10c10 0 18.667 4.66699 26 14c12.667 16 19 42 19 78v114
c0 28.667 -5 49.334 -15 62.001c-7.33301 9.33301 -16.666 14 -27.999 14c-6.66699 0 -10 -3.66699 -10 -11z" />
    <glyph glyph-name="Otilde" unicode="&#xd5;" horiz-adv-x="380" 
d="M128 433l-71 192.005c-4 10 -10.167 21.167 -18.5 33.5s-12.5 20.5 -12.5 24.5c0 3.33301 0.833008 7 2.5 11s7.83398 6 18.501 6l27 -2l30 -1l34 1l22 2c12.667 0 19 -4.66699 19 -14c0 -2.66699 -1 -7 -3 -13s-3 -11.333 -3 -16c0 -6.66699 0.666992 -12 2 -16l19 -71
c0.666992 -4 3 -6 7 -6c3.33301 0 6.33301 6 9 18s6 23.833 10 35.5s6 22.167 6 31.5c0 4.66699 -1 8.66699 -3 12c-4.66699 8 -7 15.333 -7 22c0 11.333 6 17 18 17l26 -3l36 -3c11.333 0 23 1 35 3s20 3 24 3c10 0 15 -5.66699 15 -17
c0 -5.33301 -2.16699 -10.5 -6.5 -15.5l-10.5 -12c-2.66699 -3 -7.5 -12.667 -14.5 -29s-11.5 -27.5 -13.5 -33.5l-63 -164c-4.66699 -12.667 -7.16699 -19.834 -7.5 -21.501s-0.5 -4.83398 -0.5 -9.50098c0 -8 6.5 -34.667 19.5 -80s24.833 -89.333 35.5 -132
c8 -33.333 14 -56.5 18 -69.5s11 -34.5 21 -64.5c2.66699 -6.66699 4.66699 -12 6 -16s4 -8.33301 8 -13s6 -8 6 -10c0 -8.66699 -7 -13 -21 -13c-11.333 0 -22.833 0.833008 -34.5 2.5s-18.167 2.5 -19.5 2.5c-3.33301 0 -12 -0.833008 -26 -2.5s-25.333 -2.5 -34 -2.5
c-12 0 -18 5 -18 15c0 8.66699 2.16699 15.167 6.5 19.5s6.5 11.833 6.5 22.5c0 6 -1.16699 15 -3.5 27s-7.5 31.667 -15.5 59l-16 53c-1.33301 3.33301 -2.33301 6.66602 -3 9.99902c-1.33301 -0.666992 -2.33301 -1.33398 -3 -2.00098
c-3.33301 -4.66699 -5.33301 -9.33398 -6 -14.001s-2 -11.167 -4 -19.5s-8 -26.5 -18 -54.5l-7 -20c-3.33301 -11.333 -5 -23 -5 -35s2.66699 -21.667 8 -29s8 -13 8 -17s-0.333008 -6.33301 -1 -7c-4 -5.33301 -11 -8 -21 -8c-8 -0 -17.333 0.833008 -28 2.5
s-22.334 2.5 -35.001 2.5c-16.667 0 -27.5 -0.833008 -32.5 -2.5s-10.5 -2.5 -16.5 -2.5c-12.667 -0 -19 5.33301 -19 16c0 4 3.5 11.667 10.5 23s13.167 25 18.5 41l90 284c4.66699 13.333 7 24.333 7 33c0 10 -2.66699 22 -8 36z" />
    <glyph glyph-name="Otilde" unicode="&#x425;" horiz-adv-x="380" 
d="M128 433l-71 192.005c-4 10 -10.167 21.167 -18.5 33.5s-12.5 20.5 -12.5 24.5c0 3.33301 0.833008 7 2.5 11s7.83398 6 18.501 6l27 -2l30 -1l34 1l22 2c12.667 0 19 -4.66699 19 -14c0 -2.66699 -1 -7 -3 -13s-3 -11.333 -3 -16c0 -6.66699 0.666992 -12 2 -16l19 -71
c0.666992 -4 3 -6 7 -6c3.33301 0 6.33301 6 9 18s6 23.833 10 35.5s6 22.167 6 31.5c0 4.66699 -1 8.66699 -3 12c-4.66699 8 -7 15.333 -7 22c0 11.333 6 17 18 17l26 -3l36 -3c11.333 0 23 1 35 3s20 3 24 3c10 0 15 -5.66699 15 -17
c0 -5.33301 -2.16699 -10.5 -6.5 -15.5l-10.5 -12c-2.66699 -3 -7.5 -12.667 -14.5 -29s-11.5 -27.5 -13.5 -33.5l-63 -164c-4.66699 -12.667 -7.16699 -19.834 -7.5 -21.501s-0.5 -4.83398 -0.5 -9.50098c0 -8 6.5 -34.667 19.5 -80s24.833 -89.333 35.5 -132
c8 -33.333 14 -56.5 18 -69.5s11 -34.5 21 -64.5c2.66699 -6.66699 4.66699 -12 6 -16s4 -8.33301 8 -13s6 -8 6 -10c0 -8.66699 -7 -13 -21 -13c-11.333 0 -22.833 0.833008 -34.5 2.5s-18.167 2.5 -19.5 2.5c-3.33301 0 -12 -0.833008 -26 -2.5s-25.333 -2.5 -34 -2.5
c-12 0 -18 5 -18 15c0 8.66699 2.16699 15.167 6.5 19.5s6.5 11.833 6.5 22.5c0 6 -1.16699 15 -3.5 27s-7.5 31.667 -15.5 59l-16 53c-1.33301 3.33301 -2.33301 6.66602 -3 9.99902c-1.33301 -0.666992 -2.33301 -1.33398 -3 -2.00098
c-3.33301 -4.66699 -5.33301 -9.33398 -6 -14.001s-2 -11.167 -4 -19.5s-8 -26.5 -18 -54.5l-7 -20c-3.33301 -11.333 -5 -23 -5 -35s2.66699 -21.667 8 -29s8 -13 8 -17s-0.333008 -6.33301 -1 -7c-4 -5.33301 -11 -8 -21 -8c-8 -0 -17.333 0.833008 -28 2.5
s-22.334 2.5 -35.001 2.5c-16.667 0 -27.5 -0.833008 -32.5 -2.5s-10.5 -2.5 -16.5 -2.5c-12.667 -0 -19 5.33301 -19 16c0 4 3.5 11.667 10.5 23s13.167 25 18.5 41l90 284c4.66699 13.333 7 24.333 7 33c0 10 -2.66699 22 -8 36z" />
    <glyph glyph-name="Odieresis" unicode="&#xd6;" horiz-adv-x="362" 
d="M35 136l0.000976562 428.998c0 20 -0.333008 35.833 -1 47.5s-2.33398 24 -5.00098 37s-4.83398 22.167 -6.50098 27.5s-2.5 8.66602 -2.5 9.99902c0.666992 2.66699 1.33398 4.66699 2.00098 6c3.33301 4.66699 8.33301 7 15 7c3.33301 0 11.166 -0.5 23.499 -1.5
s24.166 -1.5 35.499 -1.5h23c6.66699 0 11.334 0.333008 14.001 1l15 2c10 0 15 -4 15 -12c0 -16.667 -3 -33 -9 -49s-9 -45.667 -9 -89v-349c0 -30.667 3.16699 -50.167 9.5 -58.5s16.5 -12.5 30.5 -12.5c10.667 0 18.5 4.33301 23.5 13s7.5 27 7.5 55v368
c0 26.667 -1.66699 47 -5 61c-8 33.333 -12 53.666 -12 60.999c0 2 0.333008 4.5 1 7.5s4.66699 4.5 12 4.5l20 -2l33 -2c8.66699 0 18.334 0.666992 29.001 2s19.667 2 27 2c13.333 0 20 -5 20 -15c0 -10.667 -1.33301 -21 -4 -31c-7.33301 -28 -11 -64 -11 -108v-430
c0 -15.333 1.33301 -26.333 4 -33s6.5 -11.667 11.5 -15s8.66699 -6.16602 11 -8.49902s3.5 -7.16602 3.5 -14.499l-2 -30c0 -6 0.666992 -15 2 -27s2 -22 2 -30c0 -10.667 -1.33301 -18 -4 -22s-7.33398 -6 -14.001 -6c-11.333 0 -22.333 9 -33 27
c-7.33301 12.667 -14 21.334 -20 26.001c-12 9.33301 -27.167 15.5 -45.5 18.5s-45.166 4.5 -80.499 4.5c-36 0 -60.5 -0.666992 -73.5 -2s-28.167 -2.66602 -45.5 -3.99902c-8.66699 0 -14.167 2 -16.5 6s-3.5 8.66699 -3.5 14c0 32 2.16699 54.167 6.5 66.5
s6.5 28.833 6.5 49.5z" />
    <glyph glyph-name="Odieresis" unicode="&#x426;" horiz-adv-x="362" 
d="M35 136l0.000976562 428.998c0 20 -0.333008 35.833 -1 47.5s-2.33398 24 -5.00098 37s-4.83398 22.167 -6.50098 27.5s-2.5 8.66602 -2.5 9.99902c0.666992 2.66699 1.33398 4.66699 2.00098 6c3.33301 4.66699 8.33301 7 15 7c3.33301 0 11.166 -0.5 23.499 -1.5
s24.166 -1.5 35.499 -1.5h23c6.66699 0 11.334 0.333008 14.001 1l15 2c10 0 15 -4 15 -12c0 -16.667 -3 -33 -9 -49s-9 -45.667 -9 -89v-349c0 -30.667 3.16699 -50.167 9.5 -58.5s16.5 -12.5 30.5 -12.5c10.667 0 18.5 4.33301 23.5 13s7.5 27 7.5 55v368
c0 26.667 -1.66699 47 -5 61c-8 33.333 -12 53.666 -12 60.999c0 2 0.333008 4.5 1 7.5s4.66699 4.5 12 4.5l20 -2l33 -2c8.66699 0 18.334 0.666992 29.001 2s19.667 2 27 2c13.333 0 20 -5 20 -15c0 -10.667 -1.33301 -21 -4 -31c-7.33301 -28 -11 -64 -11 -108v-430
c0 -15.333 1.33301 -26.333 4 -33s6.5 -11.667 11.5 -15s8.66699 -6.16602 11 -8.49902s3.5 -7.16602 3.5 -14.499l-2 -30c0 -6 0.666992 -15 2 -27s2 -22 2 -30c0 -10.667 -1.33301 -18 -4 -22s-7.33398 -6 -14.001 -6c-11.333 0 -22.333 9 -33 27
c-7.33301 12.667 -14 21.334 -20 26.001c-12 9.33301 -27.167 15.5 -45.5 18.5s-45.166 4.5 -80.499 4.5c-36 0 -60.5 -0.666992 -73.5 -2s-28.167 -2.66602 -45.5 -3.99902c-8.66699 0 -14.167 2 -16.5 6s-3.5 8.66699 -3.5 14c0 32 2.16699 54.167 6.5 66.5
s6.5 28.833 6.5 49.5z" />
    <glyph glyph-name="multiply" unicode="&#xd7;" horiz-adv-x="350" 
d="M29 487l0.00488281 101.998c0 16 -2 31.333 -6 46c-8.66699 32 -13 49.333 -13 52c0 8.66699 5.33301 13 16 13c7.33301 0 18.166 -0.666992 32.499 -2s22.5 -2 24.5 -2c6 0 14.667 0.666992 26 2s18.666 2 21.999 2c12 0 18 -5.66699 18 -17
c0 -2.66699 -1.33301 -6.5 -4 -11.5s-5.16699 -10.5 -7.5 -16.5s-4.33301 -15 -6 -27s-2.5 -22.333 -2.5 -31v-123c0 -18.667 3 -31.334 9 -38.001s15.333 -10 28 -10c16 0 26.333 5.66699 31 17c2.66699 6 4 17.667 4 35v134c0 24.667 -2.83301 40.834 -8.5 48.501
s-8.5 16.167 -8.5 25.5c0 6 2.16699 9.83301 6.5 11.5s9.16602 2.5 14.499 2.5c12 0 22.333 -0.666992 31 -2s16 -2 22 -2c9.33301 0 19 0.666992 29 2s18.667 2 26 2c11.333 0 17 -4.66699 17 -14c0 -4 -1 -8.83301 -3 -14.5s-4 -11.834 -6 -18.501
c-6.66699 -24.667 -10 -51 -10 -79v-470c0 -27.333 3.66699 -48.666 11 -63.999c4 -8.66699 6 -17 6 -25c0 -10 -6.66699 -15 -20 -15c-18 0 -30.333 0.833008 -37 2.5s-17.334 2.5 -32.001 2.5l-31 -2l-26 -3c-10 0 -16.5 1.16699 -19.5 3.5s-4.5 5.5 -4.5 9.5
c0 4.66699 1.33301 9.33398 4 14.001l19 33.5c6 11 10.833 25.667 14.5 44s5.5 35.5 5.5 51.5v95c0.666992 11.333 1 19.333 1 24c0 8 -2 12 -6 12c-2.66699 0 -6 -1 -10 -3c-12.667 -6 -28.334 -9 -47.001 -9c-44.667 0 -76 11 -94 33c-12 14.667 -18 34.667 -18 60
c0 8.66699 0.333008 24.834 1 48.501s1 47.167 1 70.5z" />
    <glyph glyph-name="multiply" unicode="&#x427;" horiz-adv-x="350" 
d="M29 487l0.00488281 101.998c0 16 -2 31.333 -6 46c-8.66699 32 -13 49.333 -13 52c0 8.66699 5.33301 13 16 13c7.33301 0 18.166 -0.666992 32.499 -2s22.5 -2 24.5 -2c6 0 14.667 0.666992 26 2s18.666 2 21.999 2c12 0 18 -5.66699 18 -17
c0 -2.66699 -1.33301 -6.5 -4 -11.5s-5.16699 -10.5 -7.5 -16.5s-4.33301 -15 -6 -27s-2.5 -22.333 -2.5 -31v-123c0 -18.667 3 -31.334 9 -38.001s15.333 -10 28 -10c16 0 26.333 5.66699 31 17c2.66699 6 4 17.667 4 35v134c0 24.667 -2.83301 40.834 -8.5 48.501
s-8.5 16.167 -8.5 25.5c0 6 2.16699 9.83301 6.5 11.5s9.16602 2.5 14.499 2.5c12 0 22.333 -0.666992 31 -2s16 -2 22 -2c9.33301 0 19 0.666992 29 2s18.667 2 26 2c11.333 0 17 -4.66699 17 -14c0 -4 -1 -8.83301 -3 -14.5s-4 -11.834 -6 -18.501
c-6.66699 -24.667 -10 -51 -10 -79v-470c0 -27.333 3.66699 -48.666 11 -63.999c4 -8.66699 6 -17 6 -25c0 -10 -6.66699 -15 -20 -15c-18 0 -30.333 0.833008 -37 2.5s-17.334 2.5 -32.001 2.5l-31 -2l-26 -3c-10 0 -16.5 1.16699 -19.5 3.5s-4.5 5.5 -4.5 9.5
c0 4.66699 1.33301 9.33398 4 14.001l19 33.5c6 11 10.833 25.667 14.5 44s5.5 35.5 5.5 51.5v95c0.666992 11.333 1 19.333 1 24c0 8 -2 12 -6 12c-2.66699 0 -6 -1 -10 -3c-12.667 -6 -28.334 -9 -47.001 -9c-44.667 0 -76 11 -94 33c-12 14.667 -18 34.667 -18 60
c0 8.66699 0.333008 24.834 1 48.501s1 47.167 1 70.5z" />
    <glyph glyph-name="Oslash" unicode="&#xd8;" horiz-adv-x="546" 
d="M37 135l0.000976562 430.004c0 29.333 -1.83301 52.666 -5.5 69.999s-7.5 34.333 -11.5 51c0 9.33301 5.33301 14 16 14c2.66699 0 9.33398 -0.666992 20.001 -2s23 -2 37 -2c11.333 0 21 0.333008 29 1s16.333 1.66699 25 3c11.333 0 17 -4 17 -12
c-4 -12 -7.83301 -25.5 -11.5 -40.5s-5.5 -35.5 -5.5 -61.5v-397c0 -18.667 2 -32.167 6 -40.5s13.667 -12.5 29 -12.5c24 0 36 9.33301 36 28v414c0 16 -0.666992 28 -2 36s-4 21.333 -8 40c-3.33301 10.667 -6.33301 21.667 -9 33c0 8.66699 6.33301 13 19 13l22 -2l33 -1
l31 1l26 2c6.66699 0 11.167 -1.16699 13.5 -3.5s3.5 -5.16602 3.5 -8.49902c0 -2.66699 -1.5 -7.83398 -4.5 -15.501s-5.83301 -15.834 -8.5 -24.501s-4.33398 -18.667 -5.00098 -30s-1 -23 -1 -35v-379c0 -24.667 2.33301 -42.167 7 -52.5s14 -15.5 28 -15.5
c15.333 0 25.666 5.66699 30.999 17c3.33301 6.66699 5 18 5 34v370c0 25.333 -1.16699 44.5 -3.5 57.5l-5.5 31c-1.33301 7.66699 -3.33301 15.167 -6 22.5s-4 12.666 -4 15.999c0 10.667 7 16 21 16c3.33301 0 11.666 -0.666992 24.999 -2s23.333 -2 30 -2
c12.667 0 23.334 0.666992 32.001 2s14 2 16 2c14 0 21 -4.66699 21 -14c0 -4.66699 -3.33301 -21.334 -10 -50.001c-4 -17.333 -6 -39.333 -6 -66v-398c0 -42.667 1.66699 -70.667 5 -84c8 -32 12 -55.333 12 -70c0 -12 -7 -18 -21 -18c-38 2 -74.833 3.66699 -110.5 5
s-73.5 2 -113.5 2c-103.333 0 -171 -1.66699 -203 -5c-12.667 -1.33301 -24 -2 -34 -2c-13.333 0 -20 5.66699 -20 17l6 39c2.66699 18 4.5 31.5 5.5 40.5s1.5 21.833 1.5 38.5z" />
    <glyph glyph-name="Oslash" unicode="&#x428;" horiz-adv-x="546" 
d="M37 135l0.000976562 430.004c0 29.333 -1.83301 52.666 -5.5 69.999s-7.5 34.333 -11.5 51c0 9.33301 5.33301 14 16 14c2.66699 0 9.33398 -0.666992 20.001 -2s23 -2 37 -2c11.333 0 21 0.333008 29 1s16.333 1.66699 25 3c11.333 0 17 -4 17 -12
c-4 -12 -7.83301 -25.5 -11.5 -40.5s-5.5 -35.5 -5.5 -61.5v-397c0 -18.667 2 -32.167 6 -40.5s13.667 -12.5 29 -12.5c24 0 36 9.33301 36 28v414c0 16 -0.666992 28 -2 36s-4 21.333 -8 40c-3.33301 10.667 -6.33301 21.667 -9 33c0 8.66699 6.33301 13 19 13l22 -2l33 -1
l31 1l26 2c6.66699 0 11.167 -1.16699 13.5 -3.5s3.5 -5.16602 3.5 -8.49902c0 -2.66699 -1.5 -7.83398 -4.5 -15.501s-5.83301 -15.834 -8.5 -24.501s-4.33398 -18.667 -5.00098 -30s-1 -23 -1 -35v-379c0 -24.667 2.33301 -42.167 7 -52.5s14 -15.5 28 -15.5
c15.333 0 25.666 5.66699 30.999 17c3.33301 6.66699 5 18 5 34v370c0 25.333 -1.16699 44.5 -3.5 57.5l-5.5 31c-1.33301 7.66699 -3.33301 15.167 -6 22.5s-4 12.666 -4 15.999c0 10.667 7 16 21 16c3.33301 0 11.666 -0.666992 24.999 -2s23.333 -2 30 -2
c12.667 0 23.334 0.666992 32.001 2s14 2 16 2c14 0 21 -4.66699 21 -14c0 -4.66699 -3.33301 -21.334 -10 -50.001c-4 -17.333 -6 -39.333 -6 -66v-398c0 -42.667 1.66699 -70.667 5 -84c8 -32 12 -55.333 12 -70c0 -12 -7 -18 -21 -18c-38 2 -74.833 3.66699 -110.5 5
s-73.5 2 -113.5 2c-103.333 0 -171 -1.66699 -203 -5c-12.667 -1.33301 -24 -2 -34 -2c-13.333 0 -20 5.66699 -20 17l6 39c2.66699 18 4.5 31.5 5.5 40.5s1.5 21.833 1.5 38.5z" />
    <glyph glyph-name="Ugrave" unicode="&#xd9;" horiz-adv-x="554" 
d="M37 135l0.00195312 430c0 29.333 -1.83301 52.666 -5.5 69.999s-7.5 34.333 -11.5 51c0 9.33301 5.33301 14 16 14c2.66699 0 9.33398 -0.666992 20.001 -2s23 -2 37 -2c11.333 0 21 0.333008 29 1s16.333 1.66699 25 3c11.333 0 17 -4 17 -12
c-4 -12 -7.83301 -25.5 -11.5 -40.5s-5.5 -35.5 -5.5 -61.5v-397c0 -18.667 2 -32.167 6 -40.5s13.667 -12.5 29 -12.5c24 0 36 9.33301 36 28v414c0 16 -0.666992 28 -2 36s-4 21.333 -8 40c-3.33301 10.667 -6.33301 21.667 -9 33c0 8.66699 6.33301 13 19 13l22 -2l33 -1
l31 1l26 2c6.66699 0 11.167 -1.16699 13.5 -3.5s3.5 -5.16602 3.5 -8.49902c0 -2.66699 -1.5 -7.83398 -4.5 -15.501s-5.83301 -15.834 -8.5 -24.501s-4.33398 -18.667 -5.00098 -30s-1 -23 -1 -35v-379c0 -24.667 2.33301 -42.167 7 -52.5s14 -15.5 28 -15.5
c15.333 0 25.666 5.66699 30.999 17c3.33301 6.66699 5 18 5 34v370c0 25.333 -1.16699 44.5 -3.5 57.5l-5.5 31c-1.33301 7.66699 -3.33301 15.167 -6 22.5s-4 12.666 -4 15.999c0 10.667 7 16 21 16c3.33301 0 11.666 -0.666992 24.999 -2s23.333 -2 30 -2
c12.667 0 23.334 0.666992 32.001 2s14 2 16 2c14 0 21 -4.66699 21 -14c0 -14.667 -2.66699 -28.667 -8 -42s-8 -41.333 -8 -84v-409v-23c0 -14.667 0.833008 -25.5 2.5 -32.5s5.66699 -12.667 12 -17s12.5 -8.16602 18.5 -11.499c5.33301 -5.33301 8 -13.666 8 -24.999
c0 -6 -0.5 -13.5 -1.5 -22.5s-1.5 -16.167 -1.5 -21.5c0 -11.333 0.333008 -20.166 1 -26.499l2 -19.5c0 -14.667 -6.33301 -22 -19 -22c-10.667 0 -19.334 5.33301 -26.001 16c-11.333 17.333 -21.666 30 -30.999 38s-26.333 14 -51 18s-73.334 6 -146.001 6
c-94 0 -153.333 -1.33301 -178 -4s-43 -4 -55 -4c-13.333 0 -20 5.66699 -20 17l6 39c2.66699 18 4.5 31.5 5.5 40.5s1.5 21.833 1.5 38.5z" />
    <glyph glyph-name="Ugrave" unicode="&#x429;" horiz-adv-x="554" 
d="M37 135l0.00195312 430c0 29.333 -1.83301 52.666 -5.5 69.999s-7.5 34.333 -11.5 51c0 9.33301 5.33301 14 16 14c2.66699 0 9.33398 -0.666992 20.001 -2s23 -2 37 -2c11.333 0 21 0.333008 29 1s16.333 1.66699 25 3c11.333 0 17 -4 17 -12
c-4 -12 -7.83301 -25.5 -11.5 -40.5s-5.5 -35.5 -5.5 -61.5v-397c0 -18.667 2 -32.167 6 -40.5s13.667 -12.5 29 -12.5c24 0 36 9.33301 36 28v414c0 16 -0.666992 28 -2 36s-4 21.333 -8 40c-3.33301 10.667 -6.33301 21.667 -9 33c0 8.66699 6.33301 13 19 13l22 -2l33 -1
l31 1l26 2c6.66699 0 11.167 -1.16699 13.5 -3.5s3.5 -5.16602 3.5 -8.49902c0 -2.66699 -1.5 -7.83398 -4.5 -15.501s-5.83301 -15.834 -8.5 -24.501s-4.33398 -18.667 -5.00098 -30s-1 -23 -1 -35v-379c0 -24.667 2.33301 -42.167 7 -52.5s14 -15.5 28 -15.5
c15.333 0 25.666 5.66699 30.999 17c3.33301 6.66699 5 18 5 34v370c0 25.333 -1.16699 44.5 -3.5 57.5l-5.5 31c-1.33301 7.66699 -3.33301 15.167 -6 22.5s-4 12.666 -4 15.999c0 10.667 7 16 21 16c3.33301 0 11.666 -0.666992 24.999 -2s23.333 -2 30 -2
c12.667 0 23.334 0.666992 32.001 2s14 2 16 2c14 0 21 -4.66699 21 -14c0 -14.667 -2.66699 -28.667 -8 -42s-8 -41.333 -8 -84v-409v-23c0 -14.667 0.833008 -25.5 2.5 -32.5s5.66699 -12.667 12 -17s12.5 -8.16602 18.5 -11.499c5.33301 -5.33301 8 -13.666 8 -24.999
c0 -6 -0.5 -13.5 -1.5 -22.5s-1.5 -16.167 -1.5 -21.5c0 -11.333 0.333008 -20.166 1 -26.499l2 -19.5c0 -14.667 -6.33301 -22 -19 -22c-10.667 0 -19.334 5.33301 -26.001 16c-11.333 17.333 -21.666 30 -30.999 38s-26.333 14 -51 18s-73.334 6 -146.001 6
c-94 0 -153.333 -1.33301 -178 -4s-43 -4 -55 -4c-13.333 0 -20 5.66699 -20 17l6 39c2.66699 18 4.5 31.5 5.5 40.5s1.5 21.833 1.5 38.5z" />
    <glyph glyph-name="Uacute" unicode="&#xda;" horiz-adv-x="418" 
d="M96 160l0.000976562 312.002c0 16 -1.66699 27 -5 33s-9.33301 9 -18 9c-6.66699 0 -11.5 -1.33301 -14.5 -4s-6.5 -6.66699 -10.5 -12s-7.5 -9 -10.5 -11s-5.83301 -3 -8.5 -3c-4 0 -7.33301 1.33301 -10 4c-4.66699 5.33301 -7 13.333 -7 24c0 7.33301 0.5 19 1.5 35
s1.5 31.333 1.5 46c0 26.667 -0.666992 44.667 -2 54s-2.33301 17.666 -3 24.999c0 11.333 3.16699 18.833 9.5 22.5s17.5 5.5 33.5 5.5l54 -3l26 -3.5c7.33301 -1 13.666 -1.5 18.999 -1.5c10.667 0 22.667 0.833008 36 2.5s20.333 2.5 21 2.5c9.33301 0 14 -4 14 -12
c0 -4.66699 -1.66699 -13 -5 -25s-5.5 -20.5 -6.5 -25.5s-2 -14.833 -3 -29.5s-1.83301 -26.334 -2.5 -35.001v-135c0 -7.33301 2.66699 -11 8 -11c6 2 12.667 4.5 20 7.5s15.5 5.33301 24.5 7s17.5 2.5 25.5 2.5c43.333 0 73.333 -18.667 90 -56
c9.33301 -21.333 14 -48.333 14 -81v-184c0 -50.667 -19 -85.334 -57 -104.001c-20.667 -10 -46.667 -15 -78 -15l-41 1l-52 2c-18.667 0 -30 -0.666992 -34 -2s-14 -2 -30 -2c-8 0 -13.5 1.83301 -16.5 5.5s-4.5 8.83398 -4.5 15.501c0 5.33301 1.16699 11.5 3.5 18.5
l7.5 23c2.66699 8.33301 5 23.833 7 46.5s3 39.667 3 51zM206.001 250.002v-67c0 -31.333 2 -51.5 6 -60.5s12.333 -13.5 25 -13.5c14 0 23.667 2.33301 29 7c8 6.66699 12 20.667 12 42v97c0 16 -1.66699 28 -5 36c-5.33301 13.333 -15.333 20 -30 20
c-15.333 0 -25.333 -4.83301 -30 -14.5s-7 -22.167 -7 -37.5v-9z" />
    <glyph glyph-name="Uacute" unicode="&#x42a;" horiz-adv-x="418" 
d="M96 160l0.000976562 312.002c0 16 -1.66699 27 -5 33s-9.33301 9 -18 9c-6.66699 0 -11.5 -1.33301 -14.5 -4s-6.5 -6.66699 -10.5 -12s-7.5 -9 -10.5 -11s-5.83301 -3 -8.5 -3c-4 0 -7.33301 1.33301 -10 4c-4.66699 5.33301 -7 13.333 -7 24c0 7.33301 0.5 19 1.5 35
s1.5 31.333 1.5 46c0 26.667 -0.666992 44.667 -2 54s-2.33301 17.666 -3 24.999c0 11.333 3.16699 18.833 9.5 22.5s17.5 5.5 33.5 5.5l54 -3l26 -3.5c7.33301 -1 13.666 -1.5 18.999 -1.5c10.667 0 22.667 0.833008 36 2.5s20.333 2.5 21 2.5c9.33301 0 14 -4 14 -12
c0 -4.66699 -1.66699 -13 -5 -25s-5.5 -20.5 -6.5 -25.5s-2 -14.833 -3 -29.5s-1.83301 -26.334 -2.5 -35.001v-135c0 -7.33301 2.66699 -11 8 -11c6 2 12.667 4.5 20 7.5s15.5 5.33301 24.5 7s17.5 2.5 25.5 2.5c43.333 0 73.333 -18.667 90 -56
c9.33301 -21.333 14 -48.333 14 -81v-184c0 -50.667 -19 -85.334 -57 -104.001c-20.667 -10 -46.667 -15 -78 -15l-41 1l-52 2c-18.667 0 -30 -0.666992 -34 -2s-14 -2 -30 -2c-8 0 -13.5 1.83301 -16.5 5.5s-4.5 8.83398 -4.5 15.501c0 5.33301 1.16699 11.5 3.5 18.5
l7.5 23c2.66699 8.33301 5 23.833 7 46.5s3 39.667 3 51zM206.001 250.002v-67c0 -31.333 2 -51.5 6 -60.5s12.333 -13.5 25 -13.5c14 0 23.667 2.33301 29 7c8 6.66699 12 20.667 12 42v97c0 16 -1.66699 28 -5 36c-5.33301 13.333 -15.333 20 -30 20
c-15.333 0 -25.333 -4.83301 -30 -14.5s-7 -22.167 -7 -37.5v-9z" />
    </font>
</defs>
</svg>
