<?xml version="1.0" standalone="no"?>
<!DOCTYPE svg PUBLIC "-//W3C//DTD SVG 1.1//EN" "http://www.w3.org/Graphics/SVG/1.1/DTD/svg11.dtd" >
<svg>
<metadata>
Created by FontForge 20090622 at Fri Sep 23 13:35:45 2016
 By deploy user
ParaGraph JV
</metadata>
<defs>
<font id="Herold" horiz-adv-x="300" >
  <font-face 
    font-family="Herold"
    font-weight="400"
    font-stretch="normal"
    units-per-em="1000"
    panose-1="0 0 0 0 0 0 0 0 0 0"
    ascent="800"
    descent="-200"
    x-height="580"
    cap-height="700"
    bbox="-24 -80 863 920"
    underline-thickness="50"
    underline-position="-75"
    unicode-range="U+0020-U+203A"
  />
<missing-glyph horiz-adv-x="920" 
d="M57 0v920h806v-920h-806zM806 57v806h-692v-806h692z" />
    <glyph glyph-name=".notdef" horiz-adv-x="920" 
d="M57 0v920h806v-920h-806zM806 57v806h-692v-806h692z" />
    <glyph glyph-name=".null" horiz-adv-x="0" 
 />
    <glyph glyph-name="nonmarkingreturn" 
 />
    <glyph glyph-name="space" unicode=" " 
 />
    <glyph glyph-name="exclam" unicode="!" horiz-adv-x="200" 
d="M106 170q-24 0 -32.5 21t-8.5 56q-11 129 -30 286q-6 50 -6 73q0 43 27 62q18 12 44 12q27 0 41 -9q30 -19 30 -70q0 -29 -3.5 -80t-22.5 -271l-4 -43q-7 -37 -35 -37zM46 71q0 33 15 51t42 18q28 0 40.5 -19t12.5 -50q0 -43 -18 -61q-14 -14 -37 -14q-24 0 -38 16
q-17 19 -17 59z" />
    <glyph glyph-name="quotedbl" unicode="&#x22;" 
d="M80 704q26 0 40.5 -16t14.5 -43q0 -23 -17 -93q-20 -82 -38 -82t-36.5 75t-18.5 100q0 28 13.5 43.5t41.5 15.5zM220 704q26 0 40.5 -16t14.5 -43q0 -23 -17 -93q-20 -82 -38 -82t-36.5 75t-18.5 100q0 28 13.5 43.5t41.5 15.5z" />
    <glyph glyph-name="numbersign" unicode="#" horiz-adv-x="430" 
d="M75 90l26 97h-53q-22 0 -22 23q0 16 16 21q2 0 8 2h63l32 120h-63q-22 0 -22 23q0 16 16 21q2 0 8 2h73l27 100q1 5 4.5 13t17.5 8t21 -8q4 -5 4 -15q0 -3 -2 -11l-24 -87h75l27 100q1 5 4.5 13t17.5 8q25 0 25 -21q0 -3 -2 -13l-24 -87h53q9 0 16 -3.5t7 -19.5t-13 -21
q-6 -2 -10 -2h-65l-32 -120h62q9 0 16 -3.5t7 -19.5t-13 -21q-6 -2 -10 -2h-74l-30 -112q-4 -15 -22 -15q-12 0 -18.5 8.5t-3.5 21.5l26 97h-75l-30 -112q-4 -15 -22 -15q-12 0 -18.5 8.5t-3.5 21.5zM161 233h75l32 120h-75z" />
    <glyph glyph-name="dollar" unicode="$" horiz-adv-x="286" 
d="M192 753v-48q0 -5 7 -6l30 -4.5t36 -18.5q9 -10 9 -23q0 -12 -2.5 -38.5t-2.5 -38.5v-18q3 -21 4 -31l3 -32q0 -14 -5 -19t-14 -5q-7 0 -12.5 5t-10.5 12q-8 15 -18.5 22t-23.5 7q-20 0 -27.5 -13.5t-7.5 -27.5q0 -17 8 -46.5t41 -118.5l45 -121q18 -52 18 -85
q0 -41 -21 -68q-16 -20 -40 -30q-4 -2 -15 -4.5t-11 -8.5v-47q0 -15 -9.5 -21t-20.5 -6q-17 0 -23.5 7.5t-6.5 19.5v45q0 8 -20 10.5t-35 6.5q-36 10 -46 18t-10 21l3 30l3 32q0 6 -0.5 14.5t-3.5 22.5l-3 21q0 13 6.5 18.5t16.5 5.5t17.5 -12l12.5 -20q11 -17 17 -22
q11 -9 27 -9q15 0 24 8.5t9 28.5q0 18 -26.5 79.5t-38.5 93.5q-18 50 -34.5 120t-16.5 108q0 41 19 74.5t56 48.5q11 4 20 5t11 3l2 6v49q0 15 9.5 21t20.5 6q17 0 23.5 -7.5t6.5 -19.5z" />
    <glyph glyph-name="percent" unicode="%" horiz-adv-x="600" 
d="M153 12l251 692q6 16 18 16q10 0 19 -5.5t9 -17.5q0 -3 -2 -9l-252 -694q-5 -14 -18 -14q-10 0 -18.5 5t-8.5 16q0 3 2 11zM30 370v230q0 63 39 89q24 16 60 16q57 0 79 -39q12 -21 12 -55v-219q0 -47 -14 -74q-23 -43 -81 -43q-60 0 -82 36q-13 21 -13 59zM99 557v-152
q0 -13 5 -21.5t21 -8.5q24 0 24 25v157q0 10 -4 16.5t-8.5 9t-12.5 2.5q-9 0 -14 -3q-11 -7 -11 -25zM380 90v230q0 63 39 89q24 16 60 16q57 0 79 -39q12 -21 12 -55v-219q0 -47 -14 -74q-23 -43 -81 -43q-60 0 -82 36q-13 21 -13 59zM450 277v-152q0 -13 5 -21.5t21 -8.5
q24 0 24 25v157q0 20 -16 26q-2 1 -9 2q-9 0 -14 -3q-11 -7 -11 -25z" />
    <glyph glyph-name="ampersand" unicode="&#x26;" horiz-adv-x="380" 
d="M115 357q0 5 -4 14l-17 35q-15 31 -19 47q-7 25 -7 62q0 66 32 121q40 68 109 68q44 0 67.5 -28.5t23.5 -80.5q0 -23 -6.5 -51.5t-23 -68t-29.5 -58.5q-20 -29 -20 -36q0 -8 6.5 -19t12.5 -11q16 0 30 20t40 20q21 0 35.5 -9.5t14.5 -24.5q0 -14 -15 -26q-10 -7 -19 -14
q-18 -14 -29 -30q-14 -20 -14 -37q0 -8 13 -26l16 -23q15 -22 24 -49.5t9 -56.5q0 -67 -26 -87q-16 -12 -58 -12q-31 0 -43 6.5t-12 16.5q0 8 15 16.5t24 22.5t9 27q0 17 -6 24t-14 7q-6 0 -13 -13t-9 -17q-19 -43 -38 -64q-24 -26 -56 -26q-38 0 -64 27q-34 35 -34 106
q0 49 15.5 93t51.5 93q12 14 16 19q12 15 12 23zM155 536q0 -20 7 -37t14 -17q9 0 21 26q8 17 8 29q0 13 -5.5 22.5t-16.5 9.5t-19.5 -7.5t-8.5 -25.5zM156 252q-13 0 -25.5 -26.5t-12.5 -52.5q0 -25 19 -25q15 0 33.5 16.5t18.5 29.5t-12.5 35.5t-20.5 22.5z" />
    <glyph glyph-name="quotesingle" unicode="'" horiz-adv-x="160" 
d="M80 704q26 0 40.5 -16t14.5 -43q0 -23 -17 -93q-20 -82 -38 -82t-36.5 75t-18.5 100q0 28 13.5 43.5t41.5 15.5z" />
    <glyph glyph-name="parenleft" unicode="(" horiz-adv-x="220" 
d="M130 302q0 -114 22 -201l48 -144q0 -17 -15 -17q-36 0 -93 117q-62 127 -62 242q0 84 25 163q22 71 63 133q26 40 42 57.5t23 17.5q17 0 17 -14q0 -5 -17 -48q-13 -33 -23.5 -73.5t-18.5 -95.5q-11 -73 -11 -137z" />
    <glyph glyph-name="parenright" unicode=")" horiz-adv-x="220" 
d="M90 308q0 114 -22 201l-48 144q0 17 15 17q36 0 93 -117q62 -127 62 -242q0 -84 -23.5 -159t-64.5 -137q-26 -40 -42 -57.5t-23 -17.5q-17 0 -17 14q0 5 17 48q13 33 23.5 73.5t20 104.5t9.5 128z" />
    <glyph glyph-name="asterisk" unicode="*" horiz-adv-x="320" 
d="M157 704q24 0 39.5 -5.5t15.5 -23.5q0 -8 -4 -15t-11 -15q-13 -13 -13 -24q0 -9 8 -9q6 0 12 6.5t13.5 17.5t15 17.5t18.5 6.5q17 0 28 -17t11 -40q0 -30 -26 -30l-25 3l-20 1q-13 0 -13 -12q0 -8 11 -12t19 -6.5l18 -5.5q16 -7 16 -22q0 -19 -24 -37t-44 -18
q-16 0 -22.5 14.5t-6.5 36.5q0 12 -1.5 18.5t-10.5 6.5q-10 0 -13 -13t-4 -21q-4 -25 -13 -35.5t-22 -10.5q-18 0 -35 18t-17 32q0 12 12 21q5 4 19 9.5t19 10.5t5 11q0 9 -13 9q-16 0 -28 -3t-19 -3q-22 0 -22 25q0 22 10 39.5t23 17.5q7 0 15.5 -5.5t14 -12t12 -11.5
t12.5 -5q11 0 11 9q0 5 -10.5 18.5t-13 18.5t-2.5 13q0 14 16 23t39 9z" />
    <glyph glyph-name="comma" unicode="," horiz-adv-x="160" 
d="M78 174q30 0 45 -24t15 -69q0 -54 -25.5 -104.5t-58.5 -50.5q-10 0 -15 6t-5 15q0 7 13 30q9 18 9 25q0 6 -4 14q-7 12 -13 24q-10 21 -13.5 34t-3.5 28q0 31 14.5 51.5t41.5 20.5z" />
    <glyph glyph-name="hyphen" unicode="-" horiz-adv-x="240" 
d="M28 271q0 11 -1 18t-1 10q0 17 17 17q8 0 28 -2.5t51 -2.5l44 3l30 2q18 0 18 -12q0 -3 -1 -10t-1 -16q0 -14 1 -19.5t1 -12.5q0 -16 -16 -16q-4 0 -33 3t-44 3l-49 -2l-34 -4q-12 0 -12 13l1 11z" />
    <glyph glyph-name="period" unicode="." horiz-adv-x="160" 
d="M25 77q0 42 18 61q15 15 39 15q25 0 39 -18t14 -58q0 -34 -11 -55q-14 -26 -44 -26q-34 0 -47 32q-8 20 -8 49z" />
    <glyph glyph-name="slash" unicode="/" horiz-adv-x="373" 
d="M28 -48l273 752q6 16 18 16q10 0 19 -5.5t9 -17.5q0 -3 -2 -9l-274 -754q-5 -14 -18 -14q-10 0 -18.5 5t-8.5 16q0 3 2 11z" />
    <glyph glyph-name="zero" unicode="0" 
d="M25 150v383q0 69 20 110q32 65 111 65q58 0 88.5 -39.5t30.5 -116.5v-365q0 -79 -18 -123q-30 -72 -107 -72q-78 0 -107 59q-18 36 -18 99zM119 483v-309q0 -22 4 -32q8 -18 28 -18q11 0 20.5 8.5t9.5 32.5v311q0 30 -7 42t-24 12q-20 0 -25.5 -13.5t-5.5 -33.5z" />
    <glyph glyph-name="one" unicode="1" horiz-adv-x="262" 
d="M108 179v250q0 40 -6 61q-10 36 -40 47q-18 6 -35 13q-7 3 -7 9v12q0 12 2 15.5t15 11.5q23 14 35 25.5t24.5 29l25.5 35.5q10 12 22 12h55q13 0 19 -9t6 -26q0 -37 -1 -58q-5 -104 -5 -152v-170q0 -102 4.5 -152.5t9.5 -96.5q0 -23 -14 -31q-8 -5 -23 -5l-30 2l-31 2
l-68 -4q-20 0 -27 7t-7 15q0 13 25 30q16 11 26 24q14 18 19.5 43.5t5.5 59.5z" />
    <glyph glyph-name="two" unicode="2" 
d="M142 490q0 19 -9.5 29.5t-25.5 10.5q-17 0 -28 -9t-17.5 -21t-7.5 -13q-5 -6 -12 -6q-17 0 -17 21q0 7 1.5 30.5t1.5 39.5q0 32 -1 47.5t-2 29.5q0 32 25.5 45.5t78.5 13.5q70 0 105 -35q32 -32 32 -89q0 -58 -29.5 -139l-45.5 -124q-29 -76 -38.5 -108t-9.5 -46
q0 -17 9 -23q5 -3 17 -3q52 0 72 25t22 25q7 0 12 -3t5 -15q-3 -29 -5 -52.5t-2 -45.5v-38q-2 -16 -7 -23q-8 -11 -29 -11q-11 0 -44 2t-41 2q-26 0 -60 -5q-14 -2 -39 -2q-14 0 -21 5q-12 9 -12 30q0 13 3.5 38.5t18.5 86.5q10 38 32.5 109.5t36.5 109.5q31 84 31 111z" />
    <glyph glyph-name="three" unicode="3" 
d="M178 256q0 61 -31 84q-17 10 -33 21q-17 14 -17 35q0 17 7.5 27t28 20.5t25 18.5t4.5 21q0 21 -11.5 34.5t-34.5 13.5q-18 0 -29 -8q-7 -5 -12 -14t-9.5 -15.5t-14.5 -6.5t-15.5 7t-5.5 19q0 19 2 33t2 42l-2 64q0 23 18 37q24 19 79 19q57 0 91 -26q45 -35 45 -114
q0 -29 -1.5 -46.5t-7 -37.5t-15.5 -37.5t-10 -20.5t5.5 -9l10.5 -12q16 -20 20.5 -41t4.5 -49v-113q0 -110 -18 -150q-27 -60 -111 -60q-69 0 -98 55q-17 33 -17 79q0 44 10 64t23 20q10 0 14.5 -6t9 -23t14.5 -28t25 -11q23 0 36 20q18 28 18 94z" />
    <glyph glyph-name="four" unicode="4" horiz-adv-x="301" 
d="M162 278v64q0 44 11 59.5t37 15.5q28 0 39 -28q7 -18 7 -52v-63q0 -7 3 -9l9 -4q13 -5 21 -17t8 -34q0 -20 -9.5 -35t-18.5 -18t-14 -4q-4 -4 -4 -22q0 -88 -13 -115q-8 -16 -30 -16q-15 0 -24.5 1.5t-25.5 1.5q-19 0 -34.5 -1t-29.5 -2q-9 0 -15 2t-6 11q0 10 18.5 27.5
t24.5 25.5q12 16 20.5 35.5t8.5 35.5q0 9 -5.5 12.5t-20.5 3.5l-27 -1l-26 -2q-29 0 -42.5 12.5t-13.5 31.5q0 15 6 37l12 44q15 59 23 135t8 145q0 46 -1.5 69.5t-2.5 51.5q0 10 1 12q5 12 24 12q11 0 24.5 -2.5t24.5 -2.5q18 0 38 2.5t21 2.5q15 0 22.5 -10.5t7.5 -37.5
q0 -46 -11.5 -97.5t-55.5 -165.5l-24 -61q-19 -47 -19 -56q0 -15 15 -15h26q13 0 13 21z" />
    <glyph glyph-name="five" unicode="5" 
d="M272 335v-154q0 -104 -39 -151q-32 -38 -90 -38q-45 0 -74 23q-41 32 -41 101q0 49 9 67.5t21 18.5q10 0 15 -8q5 -13 8 -19q15 -34 43 -34q33 0 45 35q9 26 9 79q0 40 -8 60q-13 33 -50 33q-20 0 -33 -10q-7 -7 -13 -11.5t-13 -4.5t-12 4q-9 8 -9 25q3 31 5 59.5t2 84.5
q0 86 -2 114t-3 48q0 25 10 34t27 9l26 -3l44 -4l30 -2q18 0 31.5 4.5t29.5 4.5q11 0 14.5 -5t3.5 -13l-1 -46q0 -28 1 -45t2 -32q0 -28 -14 -39q-9 -7 -25 -7q-14 0 -41 4.5t-31 4.5q-15 0 -15 -15v-27q0 -24 15 -24q11 0 20 1.5t17 1.5q44 0 63 -22q23 -27 23 -102z" />
    <glyph glyph-name="six" unicode="6" 
d="M28 157v393q0 77 30 115q34 43 101 43q39 0 70.5 -14t31.5 -41q0 -6 -1.5 -19.5t-1.5 -42.5v-23.5t2 -25.5l3 -28q0 -25 -21 -25q-9 0 -14.5 7.5t-10.5 13.5q-10 12 -21.5 17t-23.5 5q-47 0 -47 -55v-44q0 -5 6 -9l10 4q15 7 18 8q11 4 27 4q33 0 52 -15q34 -26 34 -96
v-184q0 -73 -32 -113t-93 -40q-75 0 -102 56q-17 35 -17 109zM122 266v-95q0 -28 6.5 -38.5t21.5 -10.5q14 0 21 14.5t7 38.5v81q0 19 -3 30q-6 22 -25 22q-17 0 -22.5 -13.5t-5.5 -28.5z" />
    <glyph glyph-name="seven" unicode="7" 
d="M172 470q0 26 -6 37q-10 18 -42 18q-21 0 -31.5 -7t-13 -12.5t-7.5 -17.5t-20 -12h-9q-13 3 -13 22q0 18 1 26q5 40 5 54q0 18 -3 47t-3 35q0 16 6 25q10 15 33 15q19 0 30 -2t37 -2t46 2t51 2q22 0 30.5 -17.5t8.5 -89.5q0 -100 -6 -179q-11 -139 -40 -266l-22.5 -98.5
t-31.5 -49.5q-31 0 -33 2.5t-35 2.5q-20 0 -32 -1l-23 -2q-21 0 -21 19q0 1 40 51q25 32 47 84q27 63 42 155.5t15 158.5z" />
    <glyph glyph-name="eight" unicode="8" 
d="M24 175v79q0 61 10 88l24 40q0 1 -10.5 24t-14 41t-3.5 41v70q0 61 17 95q28 55 101 55q62 0 93 -42q28 -38 28 -104v-84q0 -16 -3 -35.5t-7.5 -27l-10 -16.5t-5.5 -12q0 -10 10 -20q23 -24 23 -103v-98q0 -72 -21 -113q-31 -61 -108 -61q-74 0 -102 54q-21 40 -21 129z
M118 286v-111q0 -27 9.5 -40t24.5 -13q18 0 24 17.5t6 43.5v92q0 31 -7.5 48t-23.5 17q-17 0 -25 -15t-8 -39zM150 430q15 0 22 12.5t7 45.5q0 21 -7.5 32t-21.5 11q-18 0 -23 -13.5t-5 -30.5q0 -29 2 -36q6 -21 26 -21z" />
    <glyph glyph-name="nine" unicode="9" 
d="M24 386v143q0 76 18 115q30 64 111 64q77 0 106 -60q17 -35 17 -95v-384q0 -72 -18 -112q-30 -65 -107 -65q-67 0 -96 47q-19 31 -19 76q0 29 4.5 46.5t21.5 17.5q10 0 15.5 -17.5t17.5 -26.5t31 -9q32 0 46 24q10 18 10 45v60q0 7 -8 11q-2 -2 -4 -3l-19 -14.5t-21 -12
t-25 -4.5q-51 0 -69 47q-12 32 -12 107zM124 475v-44q0 -37 4.5 -53.5t23.5 -16.5q18 0 24 16.5t6 36.5v63q0 57 -31 57q-17 0 -22 -18t-5 -41z" />
    <glyph glyph-name="colon" unicode=":" horiz-adv-x="160" 
d="M25 508q0 42 18 61q15 15 39 15q25 0 39 -18t14 -58q0 -34 -11 -55q-14 -26 -44 -26q-34 0 -47 32q-8 20 -8 49zM25 77q0 42 18 61q15 15 39 15q25 0 39 -18t14 -58q0 -34 -11 -55q-14 -26 -44 -26q-34 0 -47 32q-8 20 -8 49z" />
    <glyph glyph-name="semicolon" unicode=";" horiz-adv-x="160" 
d="M25 508q0 42 18 61q15 15 39 15q25 0 39 -18t14 -58q0 -34 -11 -55q-14 -26 -44 -26q-34 0 -47 32q-8 20 -8 49zM78 174q30 0 45 -24t15 -69q0 -54 -25.5 -104.5t-58.5 -50.5q-10 0 -15 6t-5 15q0 7 13 30q9 18 9 25q0 6 -4 14q-7 12 -13 24q-10 21 -13.5 34t-3.5 28
q0 31 14.5 51.5t41.5 20.5z" />
    <glyph glyph-name="question" unicode="?" 
d="M37 565q-4 39 -4 54q0 27 35 44t75 17q41 0 71 -18q53 -32 53 -113q0 -58 -30 -128l-35 -79.5t-21 -54.5t-9 -39l3 -20l2 -19q0 -39 -38 -39q-19 0 -33 15q-18 20 -18 55q0 30 6 57.5t19.5 63.5l29.5 76q9 26 9 39l-1 18q-3 11 -11.5 19t-23.5 8q-11 0 -18 -4t-18 -15.5
l-13 -13.5q-8 -7 -17 -7q-6 0 -10 4q-7 7 -7 23q0 10 2 28t2 29zM82 71q0 33 15 51t42 18q28 0 40.5 -19t12.5 -50q0 -43 -18 -61q-14 -14 -37 -14q-24 0 -38 16q-17 19 -17 59z" />
    <glyph glyph-name="A" unicode="A" horiz-adv-x="360" 
d="M176 116q-21 0 -33.5 -13.5t-12.5 -33.5q0 -12 4.5 -21.5l7.5 -15.5t3 -11q0 -9 -5 -15t-18 -6q-9 0 -21.5 2.5t-26.5 2.5l-22 -2l-24 -3q-18 0 -18 18q0 5 2 14.5t3.5 16t6.5 38t9.5 73l9.5 88.5q15 123 20 172q11 187 13.5 233t35.5 46q10 0 32.5 -1.5t30.5 -1.5
q25 0 34 2t42 2q16 0 24 -7t8 -29q0 -58 8 -148l10 -109q0 -121 7 -181q3 -24 22 -120l12 -54l6 -17.5t4 -15.5q0 -19 -22 -19l-20 3l-23 3h-19t-18 -3l-21 -3q-10 0 -15.5 7.5t-5.5 13.5q0 10 7.5 21.5t7.5 27.5q0 19 -9 31q-12 15 -36 15zM176 222q17 0 24 12q4 7 4 17v88
q0 61 -7.5 107.5t-18.5 46.5q-12 0 -21 -87.5t-9 -121.5v-17q0 -23 5 -34t23 -11z" />
    <glyph glyph-name="B" unicode="B" horiz-adv-x="341" 
d="M37 199v299q0 29 -1 57.5l-2 55.5q-2 19 -4 35.5t-2 25.5q0 17 7 22.5t19 5.5l41 -2l42 -1q22 0 39.5 1l34.5 2q45 0 70 -51.5t25 -134.5q0 -41 -5 -70.5t-22 -52.5q-5 -6 -11.5 -15t-6.5 -13q0 -6 10 -23t13 -23q17 -33 27 -76t10 -86q0 -64 -28 -107q-31 -48 -86 -48
q-6 0 -28.5 2.5t-52.5 2.5q-41 0 -55 -2t-26 -3q-15 0 -20 7.5t-5 17.5q6 30 11.5 68t5.5 106zM147 527v-37q0 -21 10 -30t23 -9q14 0 21 14t7 44q0 28 -9 40t-25 12q-15 0 -21 -9.5t-6 -24.5zM147 291v-145q0 -17 4.5 -26.5t24.5 -9.5q18 0 24 7q11 13 11 52q0 49 -19.5 98
t-35.5 49q-6 0 -7.5 -7t-1.5 -18z" />
    <glyph glyph-name="C" unicode="C" horiz-adv-x="298" 
d="M30 264v149q0 162 40 231q37 64 116 64q38 0 65 -9t27 -29q0 -3 -2.5 -22t-2.5 -49q0 -22 1 -37t3 -30q0 -20 -6.5 -29t-13.5 -9t-12 3t-16 14.5t-16 14.5q-10 6 -25 6q-33 0 -40.5 -31.5t-7.5 -103.5v-94q0 -84 7 -114q13 -55 56 -55q14 0 22.5 5.5t16.5 15.5
q9 14 21 14q9 0 11.5 -6.5t2.5 -14.5l-1 -50l1 -50q0 -24 -12 -36q-20 -20 -75 -20q-74 0 -113 52q-47 62 -47 220z" />
    <glyph glyph-name="D" unicode="D" horiz-adv-x="345" 
d="M34 179v379q0 46 -5 73.5t-5 43.5q0 25 22 25q8 0 18 -2t31 -2q19 0 46.5 2t45.5 2q55 0 84 -23q44 -35 44 -128v-364q0 -79 -12 -114q-24 -71 -103 -71q-38 0 -46.5 2.5t-28.5 2.5l-43 -2l-39 -3q-23 0 -23 19q5 18 9.5 53.5t4.5 106.5zM144 453v-234v-35q0 -31 5 -48
t20 -17q22 0 29 25.5t7 67.5v37v140v21q0 56 -5 82q-8 42 -30 42q-16 0 -21 -19t-5 -48v-14z" />
    <glyph glyph-name="E" unicode="E" horiz-adv-x="320" 
d="M37 154v401q0 68 -7.5 80t-7.5 40q0 10 8.5 17.5t29.5 7.5q11 0 37 -2.5t60 -2.5q60 0 77.5 2.5t27.5 2.5t17.5 -6t7.5 -23q0 -6 -2 -31t-2 -51q0 -14 0.5 -27t4 -27.5t3.5 -22.5q0 -31 -24 -31q-10 0 -21 13q-7 8 -13 16q-19 20 -42 20q-20 0 -32 -13t-12 -35
q0 -13 3 -19q11 -22 50 -22q8 0 27.5 2t21.5 2q26 0 39 -14q10 -11 10 -28q0 -15 -11.5 -28.5t-35.5 -13.5h-79q-12 0 -18.5 -9t-6.5 -32v-152q0 -33 10 -43q7 -7 24 -7q21 0 36 3t32 17q5 4 17 17q8 9 17 9q17 0 17 -23q0 -20 -2 -28t-2 -22l1 -30l1 -29q0 -16 -5 -22
q-8 -10 -30 -10q-69 0 -79 1q-39 4 -67 4q-40 0 -48.5 -2.5t-28.5 -2.5t-20 18q0 6 3.5 18t7 31.5t4.5 43.5t2 43z" />
    <glyph glyph-name="F" unicode="F" horiz-adv-x="313" 
d="M37 165v365q0 60 -5.5 88l-11.5 57q0 15 9 20t20 5l41 -3l43 -2q31 0 47 1q65 4 72 4q23 0 33 -13t10 -37q0 -33 -2.5 -47.5t-4.5 -30.5l2 -27l2 -29q0 -20 -8 -29t-18 -9q-15 0 -32.5 24.5t-45.5 24.5q-26 0 -36 -18q-6 -11 -6 -28t7 -26q11 -13 39 -13q17 0 32 3t27 3
q52 0 52 -45q0 -19 -10.5 -30.5t-30.5 -11.5h-89q-18 0 -22 -13t-4 -65v-106q0 -47 5 -73t16 -41q6 -8 23 -21q13 -10 13 -21q0 -13 -8.5 -17t-19.5 -4q-19 0 -41.5 1.5t-28.5 1.5q-27 0 -39.5 -1.5t-25.5 -1.5q-19 0 -19 17q6 26 10.5 64.5t4.5 83.5z" />
    <glyph glyph-name="G" unicode="G" horiz-adv-x="352" 
d="M174 370v65q0 16 18 16q13 0 23 -2.5t25 -2.5q25 0 34 2.5t24 2.5q13 0 20 -6.5t7 -12.5q-2 -15 -4 -37.5t-2 -53.5v-231q0 -30 5 -50q2 -8 5 -17.5t3 -20.5q0 -16 -13.5 -23t-54.5 -7q-109 0 -180 128q-64 116 -64 262q0 141 50 229q55 97 158 97q52 0 74 -17
q16 -12 16 -32t-1.5 -30t-1.5 -33q0 -24 3.5 -46t3.5 -33q0 -31 -18 -31q-9 0 -20 9l-18 18q-22 21 -50 21q-45 0 -68 -58q-18 -45 -18 -110q0 -83 31 -157q27 -65 48 -65q9 0 9.5 13t0.5 16v146q0 16 -1 20q-4 14 -18 18l-6 1q-11 0 -15.5 1.5t-4.5 10.5z" />
    <glyph glyph-name="H" unicode="H" horiz-adv-x="376" 
d="M41 156v389q0 41 -7 70l-14 61q0 23 23 23q9 0 27 -1.5t36 -1.5q44 3 53 3q11 0 15.5 -5.5t4.5 -12.5q0 -10 -5 -21t-8 -19t-5.5 -18t-2.5 -25q0 -20 8 -31.5t26 -11.5q14 0 22.5 14.5t8.5 32.5q0 17 -3 26.5t-9.5 22l-9 17.5t-2.5 11q0 8 4.5 14t17.5 6l29 -2l21 -1
q25 0 37 1t26 3q11 0 16.5 -6.5t5.5 -17.5q-10 -28 -17 -75t-7 -120v-278q0 -42 2.5 -71.5t7.5 -50.5q2 -8 10 -37q4 -14 4 -23q0 -12 -7 -16.5t-17 -4.5q-22 0 -26 2t-25 2q-17 0 -29 -2t-26 -2q-20 0 -20 19q0 15 10 68q6 32 6 69v148q0 45 -5 65.5t-28 20.5
q-24 0 -31 -37t-7 -147q0 -75 6 -120l14 -66q0 -13 -7.5 -16t-18.5 -3q-28 0 -36.5 0.5t-15.5 2.5l-33 -2l-22 -2q-17 0 -17 19q0 4 4 16.5t7.5 30.5t6 38.5t2.5 51.5z" />
    <glyph glyph-name="I" unicode="I" horiz-adv-x="176" 
d="M33 201v330q0 52 -4 83t-8 66q0 20 22 20l50 -3q14 0 23.5 1l18.5 2q11 0 16 -4t5 -13q0 -8 -4 -29.5t-4.5 -26t-2.5 -33.5t-2 -61v-336q0 -32 1 -63t3 -53q4 -16 4.5 -29.5t0.5 -30.5q0 -21 -24 -21q-15 0 -31.5 1.5t-18.5 1.5l-20 -1l-22 -2q-16 0 -16 17q0 7 1 12
q5 26 7 46q0 33 2.5 75.5t2.5 50.5z" />
    <glyph glyph-name="J" unicode="J" horiz-adv-x="271" 
d="M121 219v373q0 15 -2.5 30.5t-5 22.5t-6.5 15.5t-4 17.5q0 13 7 17.5t15 4.5q5 0 22 -2t29 -2q14 0 26 1t27 3q12 0 17 -4t5 -14q0 -5 -1 -10q-4 -15 -7 -28q-12 -53 -12 -102v-392q0 -62 -15 -94q-30 -64 -116 -64q-46 0 -71.5 13t-25.5 37q0 3 2 21.5t2 30.5v11
q0 18 -3.5 34.5t-3.5 24.5q0 11 4.5 17.5t15.5 6.5q9 0 16 -10l10 -20q11 -20 33 -20q26 0 36 30q6 19 6 51z" />
    <glyph glyph-name="K" unicode="K" horiz-adv-x="363" 
d="M33 103v471q0 46 -6.5 61t-6.5 43q0 8 5.5 15t19.5 7t24.5 -1.5t18.5 -1.5q23 0 34 1.5t25 1.5q6 0 11.5 -3t5.5 -13l-14 -45.5t-7 -42.5q0 -25 10.5 -38.5t26.5 -13.5q18 0 26.5 16t8.5 36q0 13 -2.5 22t-12.5 30l-9 18t-3 11q0 8 3 13q7 10 23 10q15 0 25 -2t18 -2
q11 0 24 2t22 2q14 0 22.5 -10t8.5 -42q0 -33 -12 -69q-8 -24 -24 -54l-22 -40q-8 -18 -8 -38q0 -27 9 -89q6 -44 16.5 -95.5t21.5 -91.5q8 -29 28 -89q11 -31 12 -34q8 -21 8 -26q0 -22 -15 -22l-49 2q-13 0 -24.5 -0.5t-21.5 -1.5q-24 0 -33.5 63l-19.5 135.5l-16 115.5
q-12 78 -24 78q-7 0 -12 -20t-5 -66v-97q0 -40 3.5 -78t10.5 -65q4 -15 10 -30.5t6 -19.5q0 -8 -6 -12t-14 -4q-4 0 -18 2t-32 2q-17 0 -30 -1.5t-27 -2.5q-10 0 -13.5 6.5t-3.5 18.5q0 6 2 37t2 41z" />
    <glyph glyph-name="L" unicode="L" horiz-adv-x="278" 
d="M29 84v491q0 49 -4.5 63t-4.5 41q0 21 23 21q8 0 20 -1.5t17 -1.5q14 0 30.5 1.5t19.5 1.5q24 0 24 -19q0 -13 -4 -22q-11 -25 -11 -67v-383q0 -40 8 -57.5t36 -17.5q26 0 41.5 20.5t24.5 20.5q19 0 19 -25q0 -20 -2 -27t-2 -31q0 -23 1 -36t1 -24q0 -14 -7.5 -22.5
t-29.5 -8.5q-10 0 -44 1.5t-62 1.5q-35 0 -50.5 -1.5t-30.5 -2.5q-12 0 -15 6t-3 15q0 21 2.5 27t2.5 36z" />
    <glyph glyph-name="M" unicode="M" horiz-adv-x="418" 
d="M37 237v278q0 35 -1 62t-3.5 44.5t-5.5 34t-3 23.5q0 8 5 14t18 6q12 0 23 -2t22 -2q12 0 24.5 2.5t13.5 2.5q19 0 25 -25l11 -46q17 -59 20 -65q9 -18 21 -18q7 0 17 17t24 57l16 48q12 31 32 31q7 0 16 -1.5t18 -1.5q20 0 24 2t21 2q8 0 14.5 -4t6.5 -16q0 -7 -3 -20
l-6 -27t-4 -26t-1 -45v-383q0 -50 4 -81q7 -37 9.5 -55t2.5 -22q0 -15 -6 -18t-20 -3q-9 0 -21.5 1t-26.5 3q-14 0 -25 -2t-24 -2q-22 0 -22 17q8 24 13.5 49.5t5.5 54.5v272q0 7 -3 10q-2 0 -3 1q-7 0 -27 -53q-9 -23 -10 -25q-9 -15 -20 -15q-14 0 -26 23q-1 3 -14 37
l-8 25q-4 8 -9 8q-3 0 -5 -9v-272q0 -38 9.5 -65.5t9.5 -37.5t-7 -15t-16 -5q-4 0 -19 2t-31 2q-19 0 -33 -2t-19 -2q-21 0 -21 21q0 6 4 22.5t7 40t4.5 61t1.5 92.5z" />
    <glyph glyph-name="N" unicode="N" horiz-adv-x="378" 
d="M47 103v420q0 54 -5 80t-18 58q-4 12 -4 17q0 22 20 22q6 0 17 -1.5t20 -1.5q11 0 18.5 1l14.5 2q19 0 36 -19q12 -13 33 -48l37 -60q8 -13 11 -13t5 9v26q0 12 -4 34.5t-9.5 32.5l-11.5 21q0 6 5.5 11.5t18.5 5.5l53 -3q17 0 25.5 1.5t27.5 1.5q8 0 14.5 -3t6.5 -14
q-5 -18 -9.5 -49.5t-4.5 -79.5v-428q0 -34 4 -59t9 -50q0 -17 -20 -17q-7 0 -23 2t-23 2q-17 0 -23 -2t-24 -2q-23 0 -23 21q0 2 8 38q5 23 5 46v136q0 46 -25.5 108.5t-45.5 62.5q-7 0 -7 -25v-13.5t1 -12.5v-244q0 -43 13 -74q7 -17 7 -26t-5 -13t-16 -4l-20 1l-30 2
q-17 0 -29 -1l-23 -2q-14 0 -19 5t-5 14q0 4 1 8t6 17q10 27 10 59z" />
    <glyph glyph-name="O" unicode="O" horiz-adv-x="338" 
d="M30 157v339q0 112 35.5 162t110.5 50q79 0 111 -61q21 -40 21 -102v-378q0 -81 -35 -128t-101 -47q-67 0 -104.5 42.5t-37.5 122.5zM140 492v-319q0 -27 7 -37.5t21 -10.5q15 0 22.5 12.5t7.5 39.5v320q0 23 -3 32q-6 19 -26 19t-24.5 -15t-4.5 -41z" />
    <glyph glyph-name="P" unicode="P" horiz-adv-x="341" 
d="M35 231v265q0 84 -3.5 123t-3.5 53q0 15 8.5 21.5t25.5 6.5q92 0 128 -9q54 -14 87 -61q18 -26 29 -64q15 -52 15 -122q0 -136 -47 -198q-32 -42 -88 -52q-31 -5 -36 -8.5t-5 -24.5q0 -33 7.5 -61t24.5 -49q13 -16 14.5 -19.5t1.5 -13.5q0 -18 -20 -18l-33 3l-36 2
q-26 0 -37 -2.5t-22 -2.5q-16 0 -20.5 8.5t-4.5 13.5q0 27 4 48q11 57 11 161zM145 407q0 -57 2 -70q6 -37 26 -37q16 0 27 26.5t11 84.5q0 47 -12 75t-29 28q-19 0 -22 -31t-3 -59v-17z" />
    <glyph glyph-name="Q" unicode="Q" horiz-adv-x="336" 
d="M30 157v343q0 105 32 153q37 55 114 55q79 0 111 -61q21 -40 21 -102v-374q0 -52 -11.5 -84t-32.5 -53q-8 -7 -20 -13t-12 -10q0 -11 12 -11q10 0 16 6.5t8 7.5q7 6 18 6q14 0 22 -10t8 -24q0 -22 -20.5 -39t-56.5 -17q-32 0 -54.5 18t-34.5 47q-52 0 -86 43.5t-34 118.5
zM140 492v-319v-24q2 -18 12 -18q5 0 7 14.5t14 14.5q7 0 12.5 -5.5t5.5 -14.5q7 10 7 37v320q0 19 -2 29.5t-9 16t-18 5.5q-25 0 -27 -20t-2 -36z" />
    <glyph glyph-name="R" unicode="R" horiz-adv-x="346" 
d="M40 170v390q0 57 -8 91q-4 17 -4 27q0 22 25 22l19 -2q11 -2 21.5 -2h22.5q24 0 42 2t26 2q55 0 92 -31q45 -38 45 -107v-121q0 -46 -4 -66q-7 -35 -31 -66q-5 -6 -9.5 -12.5t-4.5 -14.5q0 -14 3 -32q7 -30 11 -53q17 -87 30 -124l20 -56q0 -6 -4 -11.5t-14 -5.5l-23 2
l-20 2l-18 -2l-23 -2q-21 0 -26 19l-10 67q-30 184 -42 184q-3 0 -4 -4l-2 -8v-120l5 -69q2 -13 6.5 -29t4.5 -19q0 -14 -5 -17.5t-16 -3.5l-21 1l-29 2l-35 -2l-19 -1q-12 0 -16.5 5.5t-4.5 17.5t13 68q7 30 7 79zM150 527v-83q0 -11 8 -19t22 -8q16 0 23.5 8.5t7.5 24.5
v63q0 23 -8.5 34.5t-24.5 11.5q-13 0 -20.5 -9.5t-7.5 -22.5z" />
    <glyph glyph-name="S" unicode="S" horiz-adv-x="286" 
d="M140 166q0 13 -30 85q-23 54 -36 90q-16 44 -26.5 84.5t-17 76t-6.5 65.5q0 65 39 103t108 38q59 0 85 -20q18 -14 18 -35q0 -11 -2.5 -36t-2.5 -41v-18q3 -21 4 -31l3 -32q0 -14 -5 -19t-14 -5q-7 0 -12.5 5t-10.5 12q-4 9 -12 16q-14 13 -30 13q-18 0 -26.5 -13
t-8.5 -28q0 -17 8 -46.5t41 -118.5l45 -121q18 -52 18 -85q0 -61 -46 -91q-34 -22 -79 -22q-41 0 -80 12q-53 16 -53 44l3 30l3 32q0 6 -0.5 14.5t-3.5 22.5l-3 21q0 13 6.5 18.5t16.5 5.5t17.5 -12l12.5 -20q11 -17 17 -22q11 -9 27 -9q15 0 24 8.5t9 28.5z" />
    <glyph glyph-name="T" unicode="T" horiz-adv-x="298" 
d="M91 103v375q0 19 -4 28t-17 9q-14 0 -23 -15l-8 -12.5t-11 -6.5q-18 0 -18 24q0 13 1.5 28t3 26.5t1.5 28v25.5l-1 36l-1 26q0 11 5 18t21 7q18 0 40 -3.5t69 -3.5q55 0 67 3.5t46 3.5q13 0 18 -7t5 -15q0 -12 -1 -30t-1 -38q0 -43 1.5 -65.5t3.5 -41.5q0 -22 -17 -22
q-8 0 -14 8q-6 11 -9 15q-8 14 -23 14q-13 0 -18.5 -11t-5.5 -44v-336q0 -20 2 -38.5t7 -33l8 -23t3 -14.5q0 -11 -5 -14.5t-13 -3.5l-26 3l-29 1q-14 0 -29 -2t-20 -2q-23 0 -23 19q0 8 3 14q8 21 10 29.5t2 40.5z" />
    <glyph glyph-name="U" unicode="U" horiz-adv-x="343" 
d="M33 147v426q0 22 -1 41t-4.5 31.5t-5.5 21.5t-2 17q0 16 18 16q12 0 26.5 -1.5t30.5 -1.5q14 0 19.5 1.5t28.5 1.5q18 0 18 -16q0 -15 -12 -67q-6 -26 -6 -58v-355q0 -26 5 -42t21 -16t21.5 14.5t5.5 41.5v390q0 38 -3.5 50t-7.5 23t-4 17q0 12 5.5 15t13.5 3l18 -1
l30 -1q23 0 36 1t21 1q18 0 18 -16t-5 -32q-12 -39 -12 -101v-394q0 -66 -20 -103q-33 -62 -119 -62q-80 0 -112 54q-22 37 -22 101z" />
    <glyph glyph-name="V" unicode="V" horiz-adv-x="334" 
d="M161 4q-25 -4 -35 -4q-19 0 -34.5 42.5t-40.5 164.5q-13 63 -21 122t-8 115l-2 85q0 108 7 139.5t34 31.5l21 -2l21 -1q15 0 24 1.5t10 1.5q22 0 22 -17q0 -9 -3 -18q-13 -42 -16.5 -58t-6.5 -60t-3 -71q0 -64 6 -144.5t15 -119.5q2 -13 5 -24.5t8 -11.5q4 0 7 10t6 27
q9 37 18 131.5t9 160.5q0 39 -3 66t-7 44.5t-10.5 37.5t-6.5 26q0 21 27 21q10 0 17.5 -1l15.5 -2l18 2l13 1q25 0 33 -21q13 -34 13 -145l-3 -92q0 -67 -11 -127q-3 -17 -29 -123q-31 -124 -45.5 -158t-32.5 -34l-15 2z" />
    <glyph glyph-name="W" unicode="W" horiz-adv-x="486" 
d="M193 258v161q0 67 -13 83q-7 9 -7 30q0 19 21 19l23 -3l29 -3q19 0 34 4t20 4q20 0 20 -18q0 -5 -2 -9q-11 -21 -15 -36.5t-7 -34.5t-3 -41v-189q0 -34 5 -50.5t16 -16.5q20 0 31 77.5t11 191.5q0 146 -48 197q-24 25 -24 57q0 19 20 19q15 0 24 -1.5t17 -1.5
q12 0 26.5 1.5t15.5 1.5q34 0 52 -44q27 -65 27 -228q0 -171 -41.5 -299.5t-90.5 -128.5l-22 3l-23 -3q-14 0 -23 10q-4 4 -8.5 12.5l-7.5 14.5q-7 13 -15 13q-6 0 -14 -10q-4 -5 -12.5 -17.5t-13.5 -17.5t-14 -5l-26 2l-27 -2q-49 0 -82 157q-26 124 -26 225
q0 148 22.5 233t60.5 85q10 0 19.5 -2.5t23.5 -2.5q17 0 26 2l19 3q16 0 16 -16q0 -6 -3 -12l-13 -20q-27 -40 -40 -85q-21 -74 -21 -200q0 -111 13 -167q10 -42 23 -42q18 0 24 37q3 19 3 63z" />
    <glyph glyph-name="X" unicode="X" horiz-adv-x="380" 
d="M128 433l-71 192q-6 15 -18.5 33.5t-12.5 24.5q0 5 2.5 11t18.5 6l27 -2l30 -1l34 1l22 2q19 0 19 -14q0 -4 -3 -13t-3 -16q0 -10 2 -16l19 -71q1 -6 7 -6q5 0 9 18t10 35.5t6 31.5q0 7 -3 12q-7 12 -7 22q0 17 18 17l26 -3l36 -3q17 0 35 3t24 3q15 0 15 -17
q0 -8 -6.5 -15.5l-10.5 -12t-14.5 -29t-13.5 -33.5l-63 -164q-7 -19 -7.5 -21.5t-0.5 -9.5q0 -12 19.5 -80t35.5 -132q12 -50 18 -69.5t21 -64.5q4 -10 6 -16t8 -13t6 -10q0 -13 -21 -13q-17 0 -34.5 2.5t-19.5 2.5q-5 0 -26 -2.5t-34 -2.5q-18 0 -18 15q0 13 6.5 19.5
t6.5 22.5q0 9 -3.5 27t-15.5 59l-16 53q-2 5 -3 10q-2 -1 -3 -2q-5 -7 -6 -14t-4 -19.5t-18 -54.5l-7 -20q-5 -17 -5 -35t8 -29t8 -17t-1 -7q-6 -8 -21 -8q-12 0 -28 2.5t-35 2.5q-25 0 -32.5 -2.5t-16.5 -2.5q-19 0 -19 16q0 6 10.5 23t18.5 41l90 284q7 20 7 33
q0 15 -8 36z" />
    <glyph glyph-name="Y" unicode="Y" horiz-adv-x="330" 
d="M161 161q0 3 -2.5 5t-9.5 6q-38 21 -56 45q-32 43 -44 126q-5 38 -14 190q-3 52 -10 81t-19 47q-6 9 -6 16q0 10 5.5 16.5t20.5 6.5q8 0 18 -2t19 -2q11 0 20 2t29 2q13 0 20 -8t7 -32v-169q0 -78 13 -119t29 -41q15 0 20.5 37.5t5.5 97.5q0 53 -3 90.5t-14 67.5
q-6 17 -17 32.5t-11 23.5q0 20 24 20q13 0 31 -1.5t23 -1.5q21 0 31.5 1.5t15.5 1.5q13 0 18 -9t5 -26q0 -124 -6.5 -227.5t-19 -181.5t-31.5 -149q-29 -107 -56 -107q-3 0 -18 2t-35 2l-32 -2l-30 -2h-11q-15 4 -15 22q0 11 21 26q34 24 39 30q14 15 26 36q19 33 19 47z
" />
    <glyph glyph-name="Z" unicode="Z" horiz-adv-x="299" 
d="M128 487q0 18 -11 22.5t-19 4.5q-19 0 -37 -20q-4 -4 -7 -8q-8 -8 -19 -8q-15 0 -20 9t-5 20q0 15 5 30q19 57 23.5 83l10.5 63q6 17 35 17q9 0 44 -2.5t49 -2.5q40 0 45 2.5t47 2.5q12 0 16 -5.5t4 -13.5q0 -22 -19 -98l-51 -195q-31 -117 -39.5 -156t-8.5 -53
q0 -21 8.5 -27t19.5 -6q15 0 23 5q9 9 14.5 14t14.5 10.5t16 5.5q22 0 22 -23q0 -7 -8 -29.5t-14 -51t-12 -61.5q-6 -16 -34 -16q-30 0 -42.5 2.5t-43.5 2.5q-43 0 -65.5 -2.5t-28.5 -2.5q-9 0 -16 3q-12 6 -12 18q0 4 23 85t47 179q31 128 38 160.5t7 41.5z" />
    <glyph glyph-name="bracketleft" unicode="[" horiz-adv-x="240" 
d="M130 560v-513q0 -27 6 -34q10 -12 50 -12q23 0 28.5 -3t5.5 -18v-19q0 -14 -10 -17.5t-54 -3.5h-84q-20 0 -26 8t-6 21q4 46 7.5 134.5t3.5 204.5q0 99 -3 159q-8 160 -8 163q0 23 8 29q14 11 66 11h24.5t26.5 1q34 0 44.5 -5.5t10.5 -16.5v-22q0 -11 -6 -16t-29 -5
q-38 0 -49 -13q-6 -7 -6 -33z" />
    <glyph glyph-name="bracketright" unicode="]" horiz-adv-x="240" 
d="M110 50v513q0 27 -6 34q-10 12 -50 12h-16q-8 0 -13 3t-5 18v19q0 14 10 17.5t54 3.5h84q20 0 26 -8t6 -21t-5.5 -113.5t-5.5 -229.5q0 -103 3.5 -174t7.5 -144q0 -23 -8 -29q-14 -11 -66 -11h-25t-26 -1q-34 0 -44.5 5.5t-10.5 16.5v22q0 11 6 16t29 5q38 0 49 13
q6 7 6 33z" />
    <glyph glyph-name="grave" unicode="`" horiz-adv-x="190" 
d="M88 709l38 2q11 0 15 -7.5t4 -13.5l-1 -22q0 -10 2 -18t4 -14q5 -9 7.5 -14t2.5 -11l-1 -5q-3 -6 -8 -7t-9 -1q-41 0 -76.5 30.5t-35.5 61.5q0 14 7 18t16 4q13 0 19.5 -1.5t15.5 -1.5z" />
    <glyph glyph-name="a" unicode="a" horiz-adv-x="306" 
d="M267 434v-266q0 -21 1.5 -48t9.5 -59q4 -15 8 -27.5t4 -17.5q0 -8 -6 -12t-14 -4l-20 2l-19 2l-21 -2l-20 -2q-20 0 -20 17l1 13q0 4 -7 8q-3 0 -22 -19q-8 -8 -16 -13q-16 -10 -32 -10q-44 0 -62 45q-12 30 -12 81q0 75 22 119q16 32 66 80l34 33q27 29 27 57
q0 14 -8.5 22.5t-26.5 8.5q-14 0 -24.5 -3.5t-23.5 -16.5q-9 -10 -19.5 -20.5t-19.5 -10.5q-18 0 -18 24q0 11 2.5 29t2.5 25q0 16 -1.5 29.5t-1.5 27.5q0 23 22 37q18 10 40 15.5t62 5.5q31 0 50.5 -8t32.5 -21q20 -22 26 -56q3 -18 3 -65zM173 159v91q0 13 -6 13
q-4 0 -10.5 -6.5t-11.5 -13.5q-31 -42 -31 -87q0 -19 5 -29.5t18 -10.5q17 0 26.5 14t9.5 29z" />
    <glyph glyph-name="b" unicode="b" horiz-adv-x="297" 
d="M32 172v367q0 27 -2.5 47t-8.5 49q-2 9 -6.5 25t-4.5 21q0 10 5 14t14 4l44 -1l26 2q13 0 21.5 -5t8.5 -21q0 -11 -1.5 -20.5t-1.5 -20.5v-83q0 -10 7 -10q6 0 12.5 5.5t7.5 6.5q20 18 44 18q45 0 63 -52q13 -38 13 -106v-281q0 -54 -9 -84q-15 -51 -57 -51
q-16 0 -26.5 6.5t-23.5 20.5q-17 19 -21 19q-10 0 -10 -13l1 -15q0 -8 -6 -12q-2 -1 -6 -2q-9 0 -16.5 2.5t-14.5 2.5l-20 -2l-22 -3q-25 0 -25 23q0 11 5 25.5t6.5 30t2.5 49t1 44.5zM126 339v-159q0 -26 7 -42.5t23 -16.5t21 21q2 9 2 39v165q0 31 -7 46.5t-21 15.5
q-17 0 -21 -19.5t-4 -49.5z" />
    <glyph glyph-name="c" unicode="c" horiz-adv-x="251" 
d="M24 155v268q0 87 40 128q32 33 82 33q26 0 48 -9q32 -13 32 -39q0 -10 -2 -24t-2 -35q0 -24 2 -28t2 -33q0 -15 -6 -20t-12 -5q-13 0 -20 8q-2 2 -9 11q-10 13 -30 13q-16 0 -23.5 -18t-7.5 -60v-147q0 -41 11 -57.5t31 -16.5t32 15q4 8 8.5 14t13.5 6q19 0 19 -20
q0 -9 -1.5 -21.5t-1.5 -21.5q0 -14 2.5 -27.5t2.5 -16.5q0 -27 -25 -41.5t-66 -14.5q-73 0 -101 56q-19 38 -19 103z" />
    <glyph glyph-name="d" unicode="d" horiz-adv-x="303" 
d="M24 132v290q0 53 9 86q17 62 64 62q7 0 16 -1.5t20 -10.5q5 -4 16 -14q8 -7 12 -7q3 0 6 8v61q0 18 -2.5 40.5t-2.5 27.5q0 17 6 21.5t17 4.5q20 0 27.5 -1.5t15.5 -2.5l36 3q19 0 19 -16q0 -9 -1 -13q-5 -14 -9 -28.5t-6.5 -35.5t-2.5 -53v-401q0 -27 2.5 -48
t11.5 -48.5t9 -35.5q0 -20 -20 -20q-15 0 -20 2t-22 2q-18 0 -21.5 -2.5t-15.5 -2.5q-16 0 -16 18v15q0 4 -9 8q-6 0 -14.5 -10.5t-12.5 -14.5q-8 -9 -17.5 -14t-23.5 -5q-43 0 -60 53q-11 34 -11 83zM118 356v-173q0 -34 3.5 -49.5t21.5 -15.5q11 0 17 8q10 12 10 44v190
q0 25 -8 35t-19 10q-15 0 -20 -14.5t-5 -34.5z" />
    <glyph glyph-name="e" unicode="e" horiz-adv-x="280" 
d="M24 179v250q0 92 37 128q27 27 79 27q42 0 70 -19q54 -36 54 -129v-67q0 -89 -94 -150q-44 -29 -44 -68q0 -18 11.5 -26.5t26.5 -8.5q13 0 24.5 6t20.5 22l10 20q7 10 16 10q15 0 15 -22q0 -8 -1.5 -18t-1.5 -25q0 -16 1.5 -35.5t1.5 -20.5q0 -26 -24.5 -41.5
t-65.5 -15.5q-84 0 -116 67q-20 42 -20 116zM118 398v-101q0 -18 12 -18q13 0 28 23q19 29 19 69q0 43 -8.5 57t-25.5 14q-13 0 -19 -9t-6 -35z" />
    <glyph glyph-name="f" unicode="f" horiz-adv-x="190" 
d="M29 106v329v22q0 33 -3 66q0 13 -3 39t-3 39q0 58 30 84q22 19 57 19q24 0 47.5 -7t23.5 -23v-49v-19.5t1 -17.5q0 -19 -14 -19l-24 3q-14 0 -20 -6t-6 -17q0 -10 6.5 -15.5t24.5 -8.5t22.5 -7.5t4.5 -12.5q-1 -10 -1 -14v-41q2 -18 2 -26q0 -9 -3 -13t-10 -7.5t-15 -8.5
q-16 -11 -19.5 -36.5t-3.5 -90.5v-62q0 -68 3 -94.5t17 -48.5l18 -22q13 -16 13 -23q0 -18 -26 -18q-9 0 -19 2t-31 2l-28 -2l-22 -2q-12 0 -17 2q-11 5 -11 19q0 23 2 28q7 18 7 57z" />
    <glyph glyph-name="g" unicode="g" horiz-adv-x="286" 
d="M20 338v70q0 106 32 144l46 32q2 28 10.5 44t34.5 16q29 0 37 -17q4 -8 4 -29q0 -11 5 -14q23 -12 29 -16q26 -18 36 -53.5t10 -85.5v-100q0 -60 -13.5 -96t-42.5 -57l-12.5 -8t-10.5 -9t-6 -11q0 -9 7 -15.5t17 -11.5q28 -16 41 -31q22 -26 22 -67q0 -60 -53 -85
q-34 -16 -85 -16q-60 0 -85 19q-20 15 -20 40l3 18l2 16q0 12 -3 24t-3 25q0 19 16 19q9 0 25 -16q12 -12 25 -20t25 -8q10 0 15.5 5.5t5.5 13.5q0 17 -31 31q-20 8 -22 10q-12 8 -12 21q0 7 4 13l9 9t7.5 8t4.5 10q0 8 -12 17q-21 16 -25 21q-24 29 -30.5 63.5t-6.5 76.5z
M114 400v-71q0 -26 7.5 -41t19.5 -15q14 0 21.5 14.5t7.5 35.5v69q0 25 -6 39q-9 20 -24 20q-12 0 -19 -13.5t-7 -37.5z" />
    <glyph glyph-name="h" unicode="h" horiz-adv-x="310" 
d="M37 119v440q0 15 -0.5 35t-10.5 48l-7 21t-3 14q0 9 5 15t18 6l26 -2l25 2l21 2q24 0 24 -27l-2 -33l-2 -40v-31q0 -21 9 -21q3 0 8.5 7t10.5 11q20 18 47 18q46 0 62 -44q9 -26 9 -86v-343q0 -53 11 -68q6 -8 6 -25q0 -18 -21 -18q-13 0 -23 1.5t-23 1.5t-22 -1t-17 -2
q-18 0 -18 16q4 12 7.5 25.5t4.5 24t1 27.5v276q0 57 -26 57t-26 -62v-269v-20.5t4.5 -26.5t7 -21.5t2.5 -9.5q0 -6 -4 -11.5t-13 -5.5q-18 0 -22 1.5t-19 1.5l-41 -3q-21 0 -21 16q5 18 8.5 37t3.5 66z" />
    <glyph glyph-name="i" unicode="i" horiz-adv-x="170" 
d="M34 136v326q0 50 -7.5 61.5t-7.5 38.5q0 9 4 13t16 4l48 -2q18 0 31.5 1.5t14.5 1.5q11 0 15 -4t4 -10q0 -5 -3 -13q-6 -14 -7 -19q-6 -21 -6 -66v-321q0 -20 4 -61t9 -50.5t5 -18.5q0 -17 -21 -17l-16 2q-7 2 -16 2h-14q-14 0 -20 -2t-25 -2q-20 0 -20 17q0 6 4.5 21
t5.5 23zM16 647q0 20 15 35q19 18 52 18q32 0 49 -14t17 -35t-15 -35q-19 -18 -54 -18q-32 0 -48 14t-16 35z" />
    <glyph glyph-name="j" unicode="j" horiz-adv-x="200" 
d="M66 110v319q0 80 -11 100q-6 11 -6 35q0 16 21 16l20 -2l27 -2q15 0 23 2t17 2q19 0 19 -18q0 -7 -2 -19q-6 -36 -6 -47v-443q0 -77 -28 -107q-19 -20 -57 -20q-25 0 -43 7q-25 10 -25 29q0 18 1.5 25.5t1.5 16.5q0 26 -4 42t-4 20q0 21 17 21q8 0 13 -5t15 -5
q8 0 9.5 7.5t1.5 25.5zM45 647q0 24 16.5 38.5t49.5 14.5q29 0 47 -14t18 -37q0 -24 -18.5 -37.5t-47.5 -13.5q-28 0 -46.5 12t-18.5 37z" />
    <glyph glyph-name="k" unicode="k" horiz-adv-x="320" 
d="M32 144v279q0 85 -3 128.5t-5 65t-6 41t-4 24.5q0 10 6 14t13 4l21 -2l19 -1q19 0 26.5 1t13.5 2q10 0 13.5 -8t3.5 -21q0 -2 -1.5 -28t-1.5 -73q0 -95 33 -95q27 0 27 29q0 11 -2.5 17t-9.5 15q-3 3 -6 7q-6 8 -6 17q0 20 19 20q3 0 15 -2t31 -2q18 0 26 2t16 2
q10 0 20.5 -13t10.5 -38q0 -50 -29.5 -81.5t-29.5 -76.5q0 -22 2 -40.5t10 -53.5q10 -53 21 -105.5t27 -109.5q4 -14 9 -27t5 -18q-1 -3 -1 -4q-5 -12 -17 -12q-9 0 -17.5 2.5t-24.5 2.5q-23 0 -32 -3t-18 -3q-17 0 -17 19q0 14 2 24t2 30q0 34 -18 120q-21 99 -37 99
q-9 0 -10.5 -16t-1.5 -46v-75q0 -53 6.5 -82t13.5 -57q0 -16 -19 -16q-1 0 -15 2.5t-27 2.5l-25 -2l-20 -3q-16 0 -16 17q3 13 5.5 45.5t2.5 81.5z" />
    <glyph glyph-name="l" unicode="l" horiz-adv-x="168" 
d="M33 248v197q0 69 -5.5 124l-11.5 112v10q3 9 19 9q9 0 21.5 -1.5t18.5 -1.5q7 0 20 1.5t25 1.5q11 0 14 -3t3 -19q0 -10 -1 -38t-1 -43v-355q0 -62 1 -94t5 -58.5t7.5 -45.5t3.5 -24q0 -20 -18 -20q-5 0 -19 2t-35 2q-12 0 -26 -2t-17 -2q-19 0 -19 20q0 7 2 11
q7 13 7 49q0 18 3 72t3 96z" />
    <glyph glyph-name="m" unicode="m" horiz-adv-x="449" 
d="M33 175v244q0 51 -5.5 81.5l-11.5 61.5q0 18 21 18q11 0 16 -2t21 -2q20 0 30 2t13 2q17 0 17 -18q0 -5 -1.5 -12t-1.5 -12q0 -12 7 -12q6 0 30 29t56 29q24 0 41 -20q9 -12 14 -17q10 -11 15 -11q17 0 29.5 23.5t45.5 23.5q31 0 44 -32q10 -24 10 -62v-386
q0 -16 5 -44.5t5 -40.5q0 -18 -15 -18q-6 0 -19 2t-23 2t-19 -2t-20 -2q-12 0 -15 5.5t-3 13.5q0 12 3 27q7 34 7 48v274q0 27 -4 44t-20 17q-15 0 -22.5 -11.5t-7.5 -36.5v-292q0 -21 0.5 -24.5t6.5 -23.5l6 -26q0 -15 -16 -15l-26 3l-24 1q-19 0 -23 -2t-12 -2
q-18 0 -18 15q5 21 8.5 41t3.5 35v299q0 21 -7 29t-17 8q-23 0 -26.5 -19t-3.5 -36v-295q0 -32 6 -36t6 -25q0 -16 -21 -16q-7 0 -22 1.5t-18 1.5q-14 0 -25.5 -1.5t-12.5 -1.5q-12 0 -16 6.5t-4 13.5q0 13 4 32q9 44 9 123z" />
    <glyph glyph-name="n" unicode="n" horiz-adv-x="292" 
d="M27 106v350q0 41 -3.5 68t-3.5 35q0 21 17 21l35 -3q12 0 25.5 1.5t19.5 1.5q18 0 18 -19l-1 -13q0 -2 1.5 -3.5l2.5 -2.5q4 0 12 9l16 18q15 15 37 15q26 0 42 -18q24 -27 24 -85v-396q0 -30 3.5 -43t3.5 -24q0 -18 -21 -18q-16 0 -27 1.5t-14 1.5q-10 0 -15.5 -1.5
t-19.5 -1.5q-18 0 -18 16q0 3 1 7q5 17 6 23q7 37 7 83v234q0 25 -4 38t-20 13q-18 0 -24 -20.5t-6 -48.5v-249q0 -23 3 -41t5.5 -25t2.5 -11q0 -13 -7.5 -16t-16.5 -3q-19 0 -27.5 1.5t-10.5 1.5l-18 -2l-16 -1q-20 0 -20 16q0 8 7 51q4 25 4 39z" />
    <glyph glyph-name="o" unicode="o" horiz-adv-x="297" 
d="M24 175v229q0 86 31.5 133t93.5 47q75 0 105 -60q19 -39 19 -110v-225q0 -80 -17 -121q-30 -72 -109 -72q-65 0 -94 46.5t-29 132.5zM118 360v-165q0 -39 5.5 -59t25.5 -20q18 0 24 18.5t6 47.5v17v158q0 33 -4 48q-7 27 -28 27q-15 0 -22 -15t-7 -57z" />
    <glyph glyph-name="p" unicode="p" horiz-adv-x="304" 
d="M37 80v348q0 28 -3 58t-10 48q-2 5 -3 10q-5 14 -5 18q0 18 23 18q2 0 16 -1t25 -1q16 0 28 1t13 1q15 0 17 -14v-19q0 -8 6 -8q4 0 7.5 5l8.5 12q13 13 28 20.5t25 7.5q41 0 57 -56q10 -36 10 -105v-132q0 -103 -14 -151q-23 -80 -90 -80q-16 0 -27 9t-11 22q0 15 8 25
q12 12 18 19q19 22 20.5 61.5t1.5 82.5v22q0 52 -6 85.5t-26 33.5q-14 0 -18.5 -15.5t-4.5 -44.5v-33v-232q0 -88 34 -120q16 -15 16 -27q0 -9 -6.5 -13.5t-17.5 -4.5q-21 0 -37.5 2t-27.5 2q-18 0 -29 -1t-22 -3q-17 0 -17 18q5 21 9 53t4 79z" />
    <glyph glyph-name="q" unicode="q" horiz-adv-x="308" 
d="M173 151v228q0 22 -2 30q-5 18 -19 18q-27 0 -30.5 -58.5t-3.5 -109.5q0 -88 20 -122q4 -6 16 -21q8 -9 8 -21q0 -35 -37 -35q-66 0 -89 84q-12 45 -12 139v129q0 79 7 109q15 63 65 63q17 0 29.5 -8t22 -21.5t16.5 -13.5q6 0 6 8l-1 15q0 10 6 13t13 3q14 0 26 -1.5
t14 -1.5q16 0 26.5 1.5t15.5 1.5q22 0 22 -14q0 -4 -5 -16t-9 -28t-7.5 -39.5t-3.5 -51.5v-384v-31t6 -34q2 -10 4.5 -19t2.5 -14q0 -12 -7 -15.5t-13 -3.5q-10 0 -27.5 2.5t-27.5 2.5q-24 0 -32.5 -2.5t-29.5 -2.5q-10 0 -13.5 5t-3.5 12q0 13 6 19q21 19 28 40.5t10 56
t3 88.5z" />
    <glyph glyph-name="r" unicode="r" horiz-adv-x="234" 
d="M31 169v259q0 27 -1.5 49.5t-3.5 39.5t-4 27t-2 14q0 13 7 17.5t17 4.5q13 -2 37 -2l38 2q10 0 14.5 -6.5t4.5 -13.5l-1 -15q0 -10 7 -10q3 1 5.5 3t7.5 8q15 21 16 22q12 12 29 12q11 0 16.5 -7.5t5.5 -28.5q0 -10 -2 -33.5t-2 -56.5l1 -42l2 -34q0 -13 -4 -25t-17 -12
q-10 0 -16 8q-1 2 -12 19t-12 18q-7 7 -16 7q-17 0 -19 -15t-2 -35v-176q0 -41 5 -66t25 -48l16.5 -18t5.5 -15q0 -14 -7.5 -17t-16.5 -3q-7 0 -27 2t-33 2q-22 0 -27 -2t-26 -2q-12 0 -18 7t-6 19q0 10 3 22l6.5 27t4.5 38.5t1 55.5z" />
    <glyph glyph-name="s" unicode="s" horiz-adv-x="255" 
d="M140 137q0 8 -10 32.5t-46 97.5q-29 60 -42 92q-24 61 -24 99q0 51 26 84q33 42 102 42q35 0 63 -10.5t28 -34.5q0 -12 -2 -21l-3.5 -16t-1.5 -16v-14q0 -16 3 -36t3 -28q0 -10 -5 -17.5t-14 -7.5t-23.5 18.5t-31.5 18.5q-9 0 -17 -5t-8 -18v-9q2 -7 5.5 -18t12 -31
t32.5 -70q34 -73 36 -78q16 -40 16 -75q0 -54 -28 -85q-32 -35 -95 -35q-64 0 -86 16q-14 10 -14 31l2 24l1 28q0 23 -1.5 35t-1.5 18q0 10 3 14t12 6q8 0 14 -9q7 -14 11 -21q11 -17 23 -23.5t26 -6.5q16 0 25.5 8.5t9.5 20.5z" />
    <glyph glyph-name="t" unicode="t" horiz-adv-x="206" 
d="M55 185v179q0 40 -5.5 52.5t-22 21t-16.5 26.5v30v38q0 18 15 25l24 8q7 5 9 16t2 23v49q0 18 17.5 20.5t27.5 7.5t18 8t14 3q15 0 15 -19v-54q0 -27 2 -37t13 -17q12 -3 19.5 -6t7.5 -17q0 -5 -1 -15.5t-1 -23.5q0 -15 1.5 -24t1.5 -16q0 -14 -4 -18t-17 -10t-18 -12
q-8 -10 -8 -30v-263q0 -42 5.5 -58.5t19.5 -28.5l14.5 -12t7.5 -14q0 -17 -27 -17q-9 0 -30 2t-31 2q-8 0 -18 -2t-23 -2q-14 0 -19.5 5.5t-5.5 17.5q0 16 4 33q9 38 9 129z" />
    <glyph glyph-name="u" unicode="u" horiz-adv-x="314" 
d="M37 84v345q0 25 -3.5 61t-10.5 53l-4.5 11.5t-2.5 10.5q0 15 21 15l38 -2l40 2q14 0 19.5 -10t5.5 -22q0 -8 -4.5 -36t-4.5 -70v-241q0 -35 2 -45q6 -28 25 -28t22 19.5t3 28.5v285q0 27 -6 48q-14 49 -14 50q0 15 7.5 18t18.5 3l42 -2l32 2q4 0 11.5 -2.5t7.5 -16.5
q0 -6 -2.5 -23.5t-2.5 -44.5v-324q0 -26 2.5 -53t9.5 -56q4 -14 6.5 -23.5t2.5 -16.5q0 -13 -6.5 -16.5t-14.5 -3.5l-21 2l-16 1q-16 0 -18.5 -1.5t-18.5 -1.5q-9 0 -12.5 5t-5.5 20t-8 15q-5 0 -13.5 -8.5l-16.5 -16.5q-11 -8 -21.5 -13.5t-24.5 -5.5q-24 0 -41 17
q-23 24 -23 71z" />
    <glyph glyph-name="v" unicode="v" horiz-adv-x="284" 
d="M137 2l-22 -2q-41 0 -73 175q-26 143 -26 246q0 97 8 128t25 31l11 -1l17 -1q10 0 19 0.5t18 1.5q19 0 19 -18q0 -7 -3 -20.5t-6 -29.5q-7 -36 -10.5 -73t-3.5 -57q0 -91 11 -154.5t21 -63.5q12 0 22 70t10 150q0 63 -5 103q-7 37 -13 75q0 18 20 18l26 -2l31 2
q21 0 28 -27.5t7 -123.5q0 -92 -9 -165t-30 -142q-24 -78 -38 -100t-32 -22l-10 1z" />
    <glyph glyph-name="w" unicode="w" horiz-adv-x="420" 
d="M165 199v158q0 33 -5 51q-7 18 -13 36q0 11 6 13.5t18 2.5q14 0 21 -1.5t21 -1.5l28 2l19 1q18 0 18 -14q0 -7 -2.5 -13t-9 -18.5t-9 -27t-2.5 -27.5v-160q0 -29 3 -44.5t15 -15.5q15 0 26 60t11 141q0 64 -11 105t-34 79q-2 3 -17 22q-9 11 -9 18q0 15 20 15l20 -2
l24 -1q11 0 18.5 1l14.5 2q31 0 49.5 -72t18.5 -182q0 -105 -25 -204q-31 -122 -80 -122l-21 1l-16 -1q-9 0 -15.5 6t-12 14t-12.5 14t-13 6q-5 0 -8.5 -2.5t-13 -16t-14.5 -17.5t-15 -4l-18 1l-19 -1q-37 0 -69 90q-36 101 -36 249q0 82 17 152q22 89 59 89q11 0 22.5 -1.5
t15.5 -1.5q19 0 26.5 1.5t9.5 1.5q17 0 17 -13q0 -7 -11 -21.5t-17 -24.5q-45 -72 -45 -189q0 -72 10.5 -132.5t27.5 -60.5q8 0 12.5 16t4.5 44z" />
    <glyph glyph-name="x" unicode="x" horiz-adv-x="348" 
d="M113 319q0 9 -14.5 57t-30.5 92t-28 67l-16 28q0 7 6 12t21 5l16 -1l31 -3l26 2l24 2q12 0 16 -6t4 -16l-2 -23l-2 -23q0 -27 8.5 -48.5t15.5 -21.5t15 22t8 37q0 21 -14 38t-14 24q0 10 8 13.5t17 3.5q10 0 24 -2t19 -2q9 0 22 2t17 2q16 0 23.5 -12.5t7.5 -47.5
q0 -44 -19 -88q-10 -24 -32 -55l-28 -41t-14 -38q0 -22 26 -97q20 -56 32 -83q15 -38 28 -64q18 -36 18 -40q0 -14 -24 -14q-14 0 -21.5 1.5t-32.5 1.5l-25 -1l-19 -2q-19 0 -23 14q0 2 -1 7q0 4 2.5 17t2.5 25q0 29 -16 75t-29 46q-8 0 -16 -18t-8 -51q0 -31 10.5 -55
t27.5 -32.5t17 -17.5q0 -8 -14.5 -16.5l-28.5 -16.5q-7 -5 -26 -23q-13 -12 -21 -12q-19 0 -43 42q-28 49 -28 107q0 37 14 78q5 15 21 48.5t42 66.5q20 26 20 35z" />
    <glyph glyph-name="y" unicode="y" horiz-adv-x="312" 
d="M49 336v84q0 47 -7 78.5t-19 47.5q-6 9 -6 17q0 17 20 17q6 0 17 -2t23 -2q14 0 22.5 1t18.5 3q17 0 24 -14q4 -8 4 -21l-1 -21l-2 -38v-130q0 -51 2 -65q6 -42 28 -42q13 0 17 20t4 54v20v83q0 28 -3.5 57.5t-13.5 48.5q-6 12 -12 17t-6 9q0 8 6 15t18 7l39 -2l41 2
q13 0 16.5 -6t3.5 -25v-31q5 -143 5 -158q0 -120 -32 -265q-36 -165 -77 -165q-9 0 -16 2t-23 2l-59 -4q-13 0 -20.5 3t-7.5 14t24 30q32 25 42 37.5t19.5 30t9.5 29.5q-39 30 -67 86q-32 62 -32 176z" />
    <glyph glyph-name="z" unicode="z" horiz-adv-x="290" 
d="M129 397q0 26 -35 26q-25 0 -42 -19q-4 -6 -6 -8q-7 -9 -18 -9q-9 0 -13.5 5.5t-4.5 13.5q0 7 5 19.5t7 18.5q6 16 12 39.5t7 30.5l12 48q6 18 33 18q14 0 39 -2t38 -2q44 4 66 4q14 0 21 -6q11 -10 11 -35q0 -16 -11 -71q-18 -85 -40 -156q-8 -26 -36 -104
q-11 -32 -14.5 -44.5t-3.5 -18.5q0 -12 10 -15.5t29 -3.5q26 0 46 15.5t24 15.5q6 0 10.5 -5.5t4.5 -14.5q0 -11 -8 -35q-11 -32 -13 -45q-6 -36 -14.5 -46.5t-25.5 -10.5q-12 0 -37 2t-50 2q-31 0 -50 -1.5t-38 -2.5q-13 0 -19 7t-6 20t15.5 66.5t39.5 124.5l35 102
q20 60 20 77z" />
    <glyph glyph-name="c128" horiz-adv-x="420" 
d="M91 103v375q0 19 -4 28t-17 9q-14 0 -23 -15l-8 -12.5t-11 -6.5q-18 0 -18 24q0 13 1.5 28t3 26.5t1.5 28v25.5l-1 36l-1 26q0 11 5 18t21 7q26 -3 48 -5t71 -2q59 0 79 2q49 5 54 5q13 0 18 -7t5 -15l-2 -68q0 -52 1.5 -68t4.5 -35q0 -22 -18 -22q-7 0 -15.5 9l-11.5 12
q-8 7 -19 9.5t-20 2.5q-22 0 -28 -13.5t-6 -41.5v-55q0 -13 9 -13q15 6 34 11.5t42 5.5q67 0 90 -45q14 -27 14 -83v-106q0 -91 -19 -133q-24 -53 -87 -53q-25 0 -38 9t-13 32q0 21 1.5 48t1.5 34l-2 52q0 24 15 24q10 0 12 -14q0 -13 8 -13q11 0 11 26v36q0 26 -9 37
t-28 11q-27 0 -34.5 -14t-7.5 -38v-135q0 -24 3 -46t3 -23q0 -11 -5 -14.5t-13 -3.5q-20 0 -23 2t-22 2q-16 0 -24 -2t-21 -2q-23 0 -23 21q0 24 4 30q11 16 11 52z" />
    <glyph glyph-name="c129" horiz-adv-x="305" 
d="M37 165v365q0 60 -5.5 88l-11.5 57q0 15 9 20t20 5q38 0 47.5 -2.5t46.5 -2.5q39 0 70 2.5t49 2.5q22 0 29 -11q4 -6 4 -19q0 -19 -2 -28.5t-2 -14.5l-3 -35q0 -34 1 -47.5t3 -28.5q0 -18 -5.5 -28t-18.5 -10t-21 9q-10 14 -15 20q-9 12 -18.5 16t-25.5 4
q-27 0 -34 -13.5t-7 -52.5v-284q0 -47 5 -73t16 -41q6 -8 23 -21q13 -10 13 -21q0 -13 -8.5 -17t-19.5 -4q-19 0 -41.5 1.5t-28.5 1.5q-27 0 -39.5 -1.5t-25.5 -1.5q-19 0 -19 17q6 26 10.5 64.5t4.5 83.5zM159 819q14 0 20.5 1.5t14.5 1.5q23 0 23 -22q0 -32 -35 -62
t-77 -30q-18 0 -18 13q0 5 4 12.5t6 12.5t4 13.5t2 18.5l-1 22q0 4 1.5 12.5t17.5 8.5z" />
    <glyph glyph-name="c141" horiz-adv-x="363" 
d="M33 103v471q0 46 -6.5 61t-6.5 43q0 8 5.5 15t19.5 7t24.5 -1.5t18.5 -1.5q23 0 34 1.5t25 1.5q6 0 11.5 -3t5.5 -13l-14 -45.5t-7 -42.5q0 -25 10.5 -38.5t26.5 -13.5q18 0 26.5 16t8.5 36q0 13 -2.5 22t-12.5 30l-9 18t-3 11q0 8 3 13q7 10 23 10q15 0 25 -2t18 -2
q11 0 24 2t22 2q14 0 22.5 -10t8.5 -42q0 -33 -12 -69q-8 -24 -24 -54l-22 -40q-8 -18 -8 -38q0 -36 16.5 -128.5t31 -145.5t34.5 -107q13 -35 13 -44q0 -22 -15 -22l-49 2q-13 0 -24.5 -0.5t-21.5 -1.5q-24 0 -33.5 63l-19.5 135.5l-16 115.5q-12 78 -24 78q-7 0 -12 -20
t-5 -66v-97q0 -40 3.5 -78t10.5 -65q4 -15 10 -30.5t6 -19.5q0 -8 -6 -12t-14 -4q-4 0 -18 2t-32 2q-17 0 -30 -1.5t-27 -2.5q-10 0 -13.5 6.5t-3.5 18.5q0 6 2 37t2 41zM188 819q14 0 20.5 1.5t14.5 1.5q23 0 23 -22q0 -32 -35 -62t-77 -30q-18 0 -18 13q0 5 4 12.5t6 12.5
t4 13.5t2 18.5l-1 22q0 4 1.5 12.5t17.5 8.5z" />
    <glyph glyph-name="c142" horiz-adv-x="422" 
d="M91 103v375q0 19 -4 28t-17 9q-14 0 -23 -15l-8 -12.5t-11 -6.5q-18 0 -18 24q0 13 1.5 28t3 26.5t1.5 28v25.5l-1 36l-1 26q0 11 5 18t21 7q26 -3 48 -5t71 -2q59 0 79 2q49 5 54 5q13 0 18 -7t5 -15l-2 -68q0 -52 1.5 -68t4.5 -35q0 -22 -18 -22q-10 0 -16 7t-11 14
q-12 12 -39 12q-19 0 -26.5 -11t-7.5 -44v-55q0 -13 9 -13q17 0 28.5 8.5t44.5 8.5q43 0 68 -23q32 -30 32 -95v-183q0 -18 2 -33.5t7.5 -29t7.5 -20t2 -15.5q0 -13 -16 -13q-6 0 -25 2t-32 2q-11 0 -32 -2t-26 -2q-11 0 -14.5 5t-3.5 12q0 5 1 7q5 9 9.5 19.5t7 28.5
t2.5 31v113q0 28 -9 38t-28 10q-24 0 -29.5 -13t-5.5 -39v-85q0 -21 2.5 -40t7 -32l7.5 -22t3 -15q0 -11 -5 -14.5t-13 -3.5l-26 3l-29 1q-14 0 -29 -2t-20 -2q-23 0 -23 21q0 8 3 15q7 17 8.5 21.5t2.5 19.5t1 26z" />
    <glyph glyph-name="c143" horiz-adv-x="361" 
d="M35 136v429q0 30 -1 47.5t-5 37t-6.5 27.5t-2.5 10q1 4 2 6q5 7 15 7q5 0 23.5 -1.5t35.5 -1.5h23q10 0 14 1l15 2q15 0 15 -12q0 -6 -2 -13q-6 -21 -9 -38.5t-5 -38t-2 -48.5v-349q0 -38 7 -54.5t33 -16.5q15 0 23 13.5t8 54.5v368q0 42 -9 87q-2 11 -5 20t-3 15
q0 3 1 7.5t12 4.5l20 -2l33 -2q13 0 29 2t27 2q20 0 20 -15q0 -16 -4 -31q-11 -42 -11 -108v-412q0 -17 1 -34t3.5 -33t5.5 -31t3 -19q0 -11 -6 -14t-15 -3q-13 0 -30.5 2.5t-25.5 2.5q-24 0 -35 -5q-23 -10 -23 -36q-2 -21 -5 -25q-6 -9 -20 -9q-13 0 -17 9t-4 23
q0 21 -10.5 31.5t-32.5 10.5q-16 0 -40 -2t-33 -2q-20 0 -20 20q0 14 2 22t3 14.5t4.5 33.5t3.5 46z" />
    <glyph glyph-name="c144" horiz-adv-x="301" 
d="M37 119v473q0 8 -7 8q-11 0 -25 -2t-18 -2q-11 0 -11 15v12q0 11 11 11l18 -3l20 -2q7 0 7 6q0 5 -9 19q-7 16 -7 23q0 11 6 16t17 5l26 -2l25 2l21 2q24 0 24 -27l-2 -34q0 -10 6 -10h18q30 0 40 1.5t17 3.5q9 0 9 -9v-20q0 -9 -9 -9q-1 0 -18 2t-39 2h-19q-7 0 -7 -10
v-51q0 -21 9 -21q3 0 8.5 7t10.5 11q20 18 47 18q46 0 62 -44q9 -26 9 -86v-303q0 -119 -23 -161q-18 -34 -63 -34q-26 0 -33.5 8t-7.5 22l2 34l2 38l-4 59v12q1 4 9 9q4 0 8 -3q0 -1 1 -2q5 -5 7 -5q5 0 6.5 6t1.5 17v218q0 57 -26 57t-26 -62v-289q0 -26 -3.5 -35.5
t-18.5 -9.5q-7 0 -13 1.5t-15 1.5q-7 0 -14.5 -1.5t-20.5 -1.5q-21 0 -21 16q5 18 8.5 37t3.5 66z" />
    <glyph glyph-name="c157" horiz-adv-x="322" 
d="M38 157v309q0 24 -3 39.5t-5 23.5l-7 36q0 15 19 15q15 0 30 -1.5t17 -1.5q16 0 19 1.5t23 1.5q19 0 19 -19q0 -4 -4.5 -12.5t-5.5 -11.5q-8 -19 -8 -40v-26q0 -17 2 -24t10 -7q16 0 36.5 24.5t20.5 49.5q0 13 -8 26l-6 9q-6 9 -6 16q0 15 18 15q4 0 18 -2t29 -2
q17 0 26 2t16 2q10 0 16.5 -10t6.5 -33q0 -19 -7 -38.5t-25 -42.5t-24 -35q-10 -19 -10 -41q0 -23 8 -70l32 -185q12 -77 25 -100q4 -7 4 -13q0 -12 -18 -12q-9 0 -27 1.5t-26 1.5q-26 -3 -37 -3q-14 0 -16.5 4.5t-2.5 14.5q0 2 2.5 13t2.5 18q0 40 -8 93.5l-15 98.5t-7 47
q-5 20 -16 20q-9 0 -11.5 -7.5t-2.5 -16.5v-142q0 -24 0.5 -47t4.5 -43l5.5 -27.5t1.5 -12.5q0 -13 -22 -13l-21 2l-22 1q-16 0 -25 -1t-17 -2q-9 0 -12 1q-9 4 -9 15q0 20 6 30q16 28 16 111zM168 709q14 0 20.5 1.5t14.5 1.5q23 0 23 -22q0 -32 -35 -62t-77 -30
q-18 0 -18 13q0 5 4 12.5t6 12.5t4 13.5t2 18.5l-1 22q0 4 1.5 12.5t17.5 8.5z" />
    <glyph glyph-name="c158" horiz-adv-x="310" 
d="M37 119v473q0 8 -7 8q-11 0 -25 -2t-18 -2q-11 0 -11 15v12q0 11 11 11l18 -3l20 -2q7 0 7 6q0 5 -9 19q-7 16 -7 23q0 11 6 16t17 5l26 -2l25 2l21 2q24 0 24 -27l-2 -34q0 -10 6 -10h18q30 0 40 1.5t17 3.5q9 0 9 -9v-20q0 -9 -9 -9q-1 0 -18 2t-39 2h-19q-7 0 -7 -10
v-51q0 -21 9 -21q3 0 8.5 7t10.5 11q20 18 47 18q46 0 62 -44q9 -26 9 -86v-313q0 -53 11 -68q6 -8 6 -25q0 -18 -21 -18q-13 0 -23 1.5t-23 1.5t-22 -1t-17 -2q-18 0 -18 16q4 12 7.5 25.5t4.5 24t1 27.5v246q0 57 -26 57t-26 -62v-239v-20.5t4.5 -26.5t7 -21.5t2.5 -9.5
q0 -6 -4 -11.5t-13 -5.5q-18 0 -22 1.5t-19 1.5l-41 -3q-21 0 -21 16q5 18 8.5 37t3.5 66z" />
    <glyph glyph-name="nonbreakingspace" unicode="&#xa0;" horiz-adv-x="500" 
 />
    <glyph glyph-name="exclamdown" unicode="&#xa1;" horiz-adv-x="330" 
d="M161 161q0 3 -2.5 5t-9.5 6q-38 21 -56 45q-32 43 -44 126q-5 38 -14 190q-3 52 -10 81t-19 47q-6 9 -6 16q0 10 5.5 16.5t20.5 6.5q8 0 18 -2t19 -2q11 0 20 2t29 2q13 0 20 -8t7 -32v-169q0 -78 13 -119t29 -41q15 0 20.5 37.5t5.5 97.5q0 53 -3 90.5t-14 67.5
q-6 17 -17 32.5t-11 23.5q0 20 24 20q13 0 31 -1.5t23 -1.5q21 0 31.5 1.5t15.5 1.5q13 0 18 -9t5 -26q0 -124 -6.5 -227.5t-19 -181.5t-31.5 -149q-29 -107 -56 -107q-3 0 -18 2t-35 2l-32 -2l-30 -2h-11q-15 4 -15 22q0 11 21 26q34 24 39 30q14 15 26 36q19 33 19 47z
M161 754q20 0 28 6t8 14q0 9 -14.5 14t-14.5 11q1 4 2 7t8 3q4 0 13 -1t23 -1l36 2q13 0 20.5 -8.5t7.5 -22.5q0 -28 -27 -45t-90 -17q-75 0 -103 19q-20 14 -20 41q0 21 6.5 27t17.5 6l11 -1l25 -3l38 2q14 0 14 -8q0 -5 -7 -9l-12 -7q-5 -5 -5 -10q0 -10 9 -14.5t26 -4.5z
" />
    <glyph glyph-name="cent" unicode="&#xa2;" horiz-adv-x="312" 
d="M49 336v84q0 25 -3 50.5t-9.5 46.5t-13.5 27t-7 15q0 7 6 14t15 7q6 0 17 -2t23 -2q14 0 22.5 1t18.5 3q17 0 24 -14q4 -8 4 -21l-1 -21l-2 -38v-130q0 -51 2 -65q6 -42 28 -42q13 0 17 20t4 54v20v83q0 28 -3.5 57.5t-13.5 48.5q-6 12 -12 17t-6 9q0 8 6 15t18 7l39 -2
l41 2q13 0 16.5 -6t3.5 -25v-31q5 -143 5 -158q0 -120 -32 -265q-36 -165 -77 -165q-9 0 -16 2t-23 2l-59 -4q-13 0 -20.5 3t-7.5 14t24 30q32 25 42 37.5t19.5 30t9.5 29.5q-39 30 -67 86q-32 62 -32 176zM155 646q11 0 19 2t8 12q0 9 -10 14.5t-10 12.5q0 13 18 13l28 -3
l30 2q28 0 28 -33q0 -25 -21 -40q-28 -20 -89 -20q-65 0 -91 20q-19 15 -19 41q0 16 3.5 24.5t18.5 8.5l32 -3l32 2q16 0 16 -11q0 -7 -11.5 -11.5t-11.5 -12.5q0 -6 7.5 -12t22.5 -6z" />
    <glyph glyph-name="sterling" unicode="&#xa3;" horiz-adv-x="271" 
d="M121 219v373q0 15 -2.5 30.5t-5 22.5t-6.5 15.5t-4 17.5q0 13 7 17.5t15 4.5q5 0 22 -2t29 -2q14 0 26 1t27 3q12 0 17 -4t5 -14q0 -5 -1 -10q-4 -15 -7 -28q-12 -53 -12 -102v-392q0 -62 -15 -94q-30 -64 -116 -64q-46 0 -71.5 13t-25.5 37q0 3 2 21.5t2 30.5v11
q0 18 -3.5 34.5t-3.5 24.5q0 11 4.5 17.5t15.5 6.5q9 0 16 -10l10 -20q11 -20 33 -20q26 0 36 30q6 19 6 51z" />
    <glyph glyph-name="yen" unicode="&#xa5;" horiz-adv-x="308" 
d="M37 165v365q0 60 -5.5 88l-11.5 57q0 18 10 21.5t32 3.5q11 0 36 -2.5t35 -2.5q43 0 62.5 6.5t38.5 31.5t20 26q10 11 24 11q12 0 16 -8.5t4 -19.5q0 -10 -5 -52t-5 -76q0 -17 2 -31t2 -27q0 -24 -7 -31t-21 -7q-11 0 -17.5 1.5t-15 3l-16.5 3t-20 1.5q-30 0 -39 -12.5
t-9 -53.5v-284q0 -47 5 -73t16 -41q6 -8 23 -21q13 -10 13 -21q0 -13 -8.5 -17t-19.5 -4q-19 0 -41.5 1.5t-28.5 1.5q-27 0 -39.5 -1.5t-25.5 -1.5q-19 0 -19 17q6 26 10.5 64.5t4.5 83.5z" />
    <glyph glyph-name="section" unicode="&#xa7;" horiz-adv-x="360" 
d="M176 708q71 0 99 -21q20 -15 20 -38q0 -33 -4 -42t-4 -34q0 -16 2 -25t2 -26q0 -15 -6.5 -21.5t-17.5 -6.5q-13 0 -20.5 9t-14.5 20q-22 26 -43 26q-20 0 -20 -21q0 -19 25 -45q10 -11 38 -37q48 -44 72 -81q33 -50 33 -102q0 -22 -5.5 -40.5t-18.5 -40.5l-14 -22
q-6 -9 -6 -14q0 -4 5.5 -15t8 -17t5.5 -25t3 -32q0 -56 -34.5 -86.5t-96.5 -30.5q-66 0 -109.5 19t-43.5 50q1 11 2.5 29.5t1.5 29.5l-1 25l-3 27q0 17 9 24t20 7q14 0 25 -16l18 -34q13 -23 30 -33q11 -6 21 -6q14 0 21.5 6.5t7.5 16.5q0 13 -5.5 21.5t-19.5 22.5
q-135 130 -135 199q0 25 6.5 45.5t22.5 40.5q9 11 19 19t10 11q-15 24 -27 55t-12 77q0 50 19 80q32 52 115 52zM114 350q0 -24 34 -60l36 -36q22 -22 31.5 -29t13.5 -7q16 0 16 23q0 21 -15 43q-8 12 -29 33q-66 67 -70 67q-5 0 -11 -12.5t-6 -21.5z" />
    <glyph glyph-name="dieresis" unicode="&#xa8;" horiz-adv-x="320" 
d="M37 154v401q0 68 -7.5 80t-7.5 40q0 10 8.5 17.5t29.5 7.5q11 0 37 -2.5t60 -2.5q60 0 77.5 2.5t27.5 2.5t17.5 -6t7.5 -23q0 -6 -2 -31t-2 -51q0 -14 0.5 -27t4 -27.5t3.5 -22.5q0 -31 -24 -31q-10 0 -21 13q-7 8 -13 16q-19 20 -42 20q-20 0 -32 -13t-12 -35
q0 -13 3 -19q11 -22 50 -22q8 0 27.5 2t21.5 2q26 0 39 -14q10 -11 10 -28q0 -15 -11.5 -28.5t-35.5 -13.5h-79q-12 0 -18.5 -9t-6.5 -32v-152q0 -33 10 -43q7 -7 24 -7q21 0 36 3t32 17q5 4 17 17q8 9 17 9q17 0 17 -23q0 -20 -2 -28t-2 -22l1 -30l1 -29q0 -16 -5 -22
q-8 -10 -30 -10q-69 0 -79 1q-39 4 -67 4q-40 0 -48.5 -2.5t-28.5 -2.5t-20 18q0 6 3.5 18t7 31.5t4.5 43.5t2 43zM44 761q0 21 15 35t42 14q25 0 39 -13.5t14 -31.5q0 -19 -12 -32q-15 -17 -44 -17q-26 0 -40 13t-14 32zM174 761q0 21 15 35t42 14q25 0 39 -13.5t14 -31.5
q0 -19 -12 -32q-15 -17 -44 -17q-26 0 -40 13t-14 32z" />
    <glyph glyph-name="ordfeminine" unicode="&#xaa;" horiz-adv-x="297" 
d="M30 264v149q0 126 22 190q36 105 134 105q35 0 56 -8q34 -13 34 -42q0 -8 -1 -25.5t-1 -32.5l1 -46l2 -42q0 -11 -4.5 -16t-9.5 -5q-6 0 -14 8.5t-15 17.5q-8 7 -20 12.5t-25 5.5q-24 0 -35 -13q-15 -17 -15 -62q0 -31 10.5 -41.5t46.5 -10.5l17 1l22 2q18 0 28.5 -9
t10.5 -29q0 -19 -11.5 -28t-30.5 -9h-48q-30 0 -39 -17q-5 -9 -5 -28v-32q0 -54 9 -81q15 -44 54 -44q14 0 22.5 5.5t16.5 15.5q9 14 21 14q9 0 11.5 -6.5t2.5 -14.5l-1 -50l1 -50q0 -24 -12 -36q-20 -20 -75 -20q-74 0 -113 52q-47 62 -47 220z" />
    <glyph glyph-name="guillemotleft" unicode="&#xab;" 
d="M92 310l67 -99q4 -6 2 -9q-1 -2 -8 -2l-22 1l-16 -1q-9 0 -15 9l-59 93l-3 8l3 8l59 93q6 9 15 9l16 -1l22 1q7 0 8 -2q2 -3 -2 -9zM192 310l67 -99q4 -6 2 -9q-1 -2 -8 -2l-22 1l-16 -1q-9 0 -15 9l-59 93q-3 5 -3 8t3 8l59 93q6 9 15 9l16 -1l22 1q9 0 9 -4l-3 -7z" />
    <glyph glyph-name="minus" unicode="&#xad;" horiz-adv-x="240" 
d="M28 271q0 11 -1 18t-1 10q0 17 17 17q8 0 28 -2.5t51 -2.5l44 3l30 2q18 0 18 -12q0 -3 -1 -10t-1 -16q0 -14 1 -19.5t1 -12.5q0 -16 -16 -16q-4 0 -33 3t-44 3l-49 -2l-34 -4q-12 0 -12 13l1 11z" />
    <glyph glyph-name="macron" unicode="&#xaf;" horiz-adv-x="220" 
d="M55 201v330q0 52 -4 83t-8 66q0 20 22 20l50 -3q14 0 23.5 1l18.5 2q11 0 16 -4t5 -13q0 -8 -4 -29.5t-4.5 -26t-2.5 -33.5t-2 -61v-336q0 -84 4.5 -86t4.5 -90q0 -21 -24 -21q-15 0 -31.5 1.5t-18.5 1.5l-20 -1l-22 -2q-16 0 -16 17q0 7 1 12q5 26 7 46q0 33 2.5 75.5
t2.5 50.5zM10 761q0 17 12.5 33t35.5 16q42 0 42 -45q0 -23 -12 -36t-33 -13q-23 0 -34 14.5t-11 30.5zM120 761q0 23 13 36t34 13q22 0 32.5 -13.5t10.5 -31.5q0 -19 -9 -32q-12 -17 -37 -17q-44 0 -44 45z" />
    <glyph glyph-name="twosuperior" unicode="&#xb2;" horiz-adv-x="176" 
d="M33 201v330q0 52 -4 83t-8 66q0 20 22 20l50 -3q14 0 23.5 1l18.5 2q11 0 16 -4t5 -13q0 -8 -4 -29.5t-4.5 -26t-2.5 -33.5t-2 -61v-336q0 -32 1 -63t3 -53q4 -16 4.5 -29.5t0.5 -30.5q0 -21 -24 -21q-15 0 -31.5 1.5t-18.5 1.5l-20 -1l-22 -2q-16 0 -16 17q0 7 1 12
q5 26 7 46q0 33 2.5 75.5t2.5 50.5z" />
    <glyph glyph-name="threesuperior" unicode="&#xb3;" horiz-adv-x="170" 
d="M34 136v326q0 50 -7.5 61.5t-7.5 38.5q0 9 4 13t16 4l48 -2q18 0 31.5 1.5t14.5 1.5q11 0 15 -4t4 -10q0 -5 -3 -13q-6 -14 -7 -19q-6 -21 -6 -66v-321q0 -20 4 -61t9 -50.5t5 -18.5q0 -17 -21 -17l-16 2q-7 2 -16 2h-14q-14 0 -20 -2t-25 -2q-20 0 -20 17q0 6 4.5 21
t5.5 23zM16 647q0 20 15 35q19 18 52 18q32 0 49 -14t17 -35t-15 -35q-19 -18 -54 -18q-32 0 -48 14t-16 35z" />
    <glyph glyph-name="acute" unicode="&#xb4;" horiz-adv-x="243" 
d="M33 148v297q0 43 -4.5 70t-7 36t-2.5 11q0 12 6.5 15t16.5 3q22 0 38.5 -2.5t32.5 -2.5q27 0 43 7t31 31l13 24t17 13q7 0 11.5 -5.5t4.5 -22.5q0 -27 -5 -71t-5 -61q0 -16 2 -27t2 -33q0 -10 -2 -16.5t-11 -6.5q-14 8 -29 14.5t-34 6.5q-16 0 -20 -14t-4 -66v-34v-141
q0 -54 4.5 -81.5t14.5 -41.5q10 -11 14 -17q9 -11 9 -19q0 -9 -6.5 -11.5t-14.5 -2.5q-5 0 -29 2.5t-38 2.5l-26 -2l-21 -3q-18 0 -18 19q0 7 2.5 15.5t6 23t6 41t2.5 49.5z" />
    <glyph glyph-name="paragraph" unicode="&#xb6;" horiz-adv-x="420" 
d="M193 185v185q0 18 -3 27q-6 17 -22 17q-3 0 -13 -3t-28 -3q-47 0 -72 28t-25 86q0 85 48.5 135.5t132.5 50.5q19 0 35.5 -2.5t51 -10t50.5 -7.5q9 0 20.5 1t25.5 3q10 0 10 -13q0 -19 -12 -34q-16 -20 -46 -20q-12 0 -21 2t-27 2q-23 0 -30.5 -12.5t-7.5 -28.5
q0 -28 5 -146.5l8.5 -207.5t3.5 -137q0 -77 -13 -113q-23 -64 -91 -64q-42 0 -70 24q-34 29 -34 85q0 31 10 47t30 16q11 0 16 -2t10.5 -7t11.5 -8.5t13 -3.5q23 0 30 39q3 18 3 75z" />
    <glyph glyph-name="periodcentered" unicode="&#xb7;" horiz-adv-x="160" 
d="M25 275q0 42 18 61q15 15 39 15q25 0 39 -18t14 -58q0 -34 -11 -55q-14 -26 -44 -26q-34 0 -47 32q-8 20 -8 49z" />
    <glyph glyph-name="periodcentered" unicode="&#x2219;" horiz-adv-x="160" 
d="M25 275q0 42 18 61q15 15 39 15q25 0 39 -18t14 -58q0 -34 -11 -55q-14 -26 -44 -26q-34 0 -47 32q-8 20 -8 49z" />
    <glyph glyph-name="cedilla" unicode="&#xb8;" horiz-adv-x="280" 
d="M24 179v250q0 92 37 128q27 27 79 27q42 0 70 -19q54 -36 54 -129v-67q0 -89 -94 -150q-44 -29 -44 -68q0 -18 11.5 -26.5t26.5 -8.5q13 0 24.5 6t20.5 22l10 20q7 10 16 10q15 0 15 -22q0 -8 -1.5 -18t-1.5 -25q0 -16 1.5 -35.5t1.5 -20.5q0 -26 -24.5 -41.5
t-65.5 -15.5q-84 0 -116 67q-20 42 -20 116zM118 398v-101q0 -18 12 -18q13 0 28 23q19 29 19 69q0 43 -8.5 57t-25.5 14q-13 0 -19 -9t-6 -35zM24 651q0 21 15 35t42 14q25 0 39 -13.5t14 -31.5q0 -19 -12 -32q-15 -17 -44 -17q-26 0 -40 13t-14 32zM154 651q0 21 15 35
t42 14q25 0 39 -13.5t14 -31.5q0 -19 -12 -32q-15 -17 -44 -17q-26 0 -40 13t-14 32z" />
    <glyph glyph-name="onesuperior" unicode="&#xb9;" horiz-adv-x="640" 
d="M47 103v420q0 62 -8 91q-10 30 -19 60q0 13 5.5 19.5t14.5 6.5q6 0 17 -1.5t20 -1.5q11 0 18.5 1l14.5 2q19 0 36 -19q12 -13 33 -48l37 -60q8 -13 11 -13t5 9v26q0 12 -4 34.5t-9.5 32.5l-11.5 21q0 6 5.5 11.5t18.5 5.5l53 -3q17 0 25.5 1.5t27.5 1.5q8 0 14.5 -3
t6.5 -14q-5 -18 -9.5 -49.5t-4.5 -79.5v-428q0 -34 4 -59t9 -50q0 -17 -20 -17q-7 0 -23 2t-23 2q-17 0 -23 -2t-24 -2q-23 0 -23 21q0 2 8 38q5 23 5 46v136q0 46 -25.5 108.5t-45.5 62.5q-7 0 -7 -25v-13.5t1 -12.5v-244q0 -43 13 -74q7 -17 7 -26t-5 -13t-16 -4l-20 1
l-30 2q-17 0 -29 -1l-23 -2q-14 0 -19 5t-5 14q0 4 1 8t6 17q10 27 10 59zM410 290v190q0 63 39 89q24 16 60 16q57 0 79 -39q12 -21 12 -55v-179q0 -47 -14 -74q-23 -43 -81 -43q-60 0 -82 36q-13 21 -13 59zM480 437v-112q0 -12 4.5 -21t21.5 -9q24 0 24 25v117
q0 20 -16 26q-2 1 -9 2q-9 0 -14 -3q-11 -7 -11 -25zM413 115q0 11 -1 18t-1 10q0 17 17 17q8 0 28 -2.5t51 -2.5l44 3l30 2q18 0 18 -12q0 -3 -1 -10t-1 -16q0 -14 1 -19.5t1 -12.5q0 -16 -16 -16q-4 0 -33 3t-44 3l-49 -2l-34 -4q-12 0 -12 13l1 11z" />
    <glyph glyph-name="ordmasculine" unicode="&#xba;" horiz-adv-x="251" 
d="M24 155v268q0 87 40 128q32 33 82 33q26 0 48 -9q32 -13 32 -39l-2 -23l-2 -36q0 -12 2 -27t2 -24q0 -16 -5 -20.5t-13 -4.5q-13 0 -21 5.5t-13 8.5q-11 8 -25 8q-21 0 -26 -13.5t-5 -44.5q0 -18 6 -24t15 -6h42q23 0 30 -10q4 -6 4 -21q0 -19 -7 -27t-22 -8h-40
q-18 0 -23 -8t-5 -20v-43q0 -41 11 -57.5t31 -16.5t32 15q4 8 8.5 14t13.5 6q19 0 19 -20q0 -9 -1.5 -21.5t-1.5 -21.5q0 -14 2.5 -27.5t2.5 -16.5q0 -27 -25 -41.5t-66 -14.5q-73 0 -101 56q-19 38 -19 103z" />
    <glyph glyph-name="guillemotright" unicode="&#xbb;" 
d="M208 310l-67 99q-4 6 -2 9q1 2 8 2l22 -1l16 1q9 0 15 -9l59 -93l3 -8l-3 -8l-59 -93q-6 -9 -15 -9l-16 1l-22 -1q-7 0 -8 2q-2 3 2 9zM108 310l-67 99l-3 7q0 4 9 4l22 -1l16 1q9 0 15 -9l59 -93q3 -5 3 -8t-3 -8l-59 -93q-6 -9 -15 -9l-16 1l-22 -1q-7 0 -8 2q-2 3 2 9
z" />
    <glyph glyph-name="onequarter" unicode="&#xbc;" horiz-adv-x="200" 
d="M66 110v319q0 80 -11 100q-6 11 -6 35q0 16 21 16l20 -2l27 -2q15 0 23 2t17 2q19 0 19 -18q0 -7 -2 -19q-6 -36 -6 -47v-443q0 -77 -28 -107q-19 -20 -57 -20q-25 0 -43 7q-25 10 -25 29q0 18 1.5 25.5t1.5 16.5q0 26 -4 42t-4 20q0 21 17 21q8 0 13 -5t15 -5
q8 0 9.5 7.5t1.5 25.5zM45 647q0 24 16.5 38.5t49.5 14.5q29 0 47 -14t18 -37q0 -24 -18.5 -37.5t-47.5 -13.5q-28 0 -46.5 12t-18.5 37z" />
    <glyph glyph-name="onehalf" unicode="&#xbd;" horiz-adv-x="286" 
d="M140 166q0 13 -30 85q-23 54 -36 90q-16 44 -26.5 84.5t-17 76t-6.5 65.5q0 65 39 103t108 38q59 0 85 -20q18 -14 18 -35q0 -11 -2.5 -36t-2.5 -41v-18q3 -21 4 -31l3 -32q0 -14 -5 -19t-14 -5q-7 0 -12.5 5t-10.5 12q-4 9 -12 16q-14 13 -30 13q-18 0 -26.5 -13
t-8.5 -28q0 -17 8 -46.5t41 -118.5l45 -121q18 -52 18 -85q0 -61 -46 -91q-34 -22 -79 -22q-41 0 -80 12q-53 16 -53 44l3 30l3 32q0 6 -0.5 14.5t-3.5 22.5l-3 21q0 13 6.5 18.5t16.5 5.5t17.5 -12l12.5 -20q11 -17 17 -22q11 -9 27 -9q15 0 24 8.5t9 28.5z" />
    <glyph glyph-name="threequarters" unicode="&#xbe;" horiz-adv-x="255" 
d="M140 137q0 8 -10 32.5t-46 97.5q-29 60 -42 92q-24 61 -24 99q0 51 26 84q33 42 102 42q35 0 63 -10.5t28 -34.5q0 -12 -2 -21l-3.5 -16t-1.5 -16v-14q0 -16 3 -36t3 -28q0 -10 -5 -17.5t-14 -7.5t-23.5 18.5t-31.5 18.5q-9 0 -17 -5t-8 -18v-9q2 -7 5.5 -18t12 -31
t32.5 -70q34 -73 36 -78q16 -40 16 -75q0 -54 -28 -85q-32 -35 -95 -35q-64 0 -86 16q-14 10 -14 31l2 24l1 28q0 23 -1.5 35t-1.5 18q0 10 3 14t12 6q8 0 14 -9q7 -14 11 -21q11 -17 23 -23.5t26 -6.5q16 0 25.5 8.5t9.5 20.5z" />
    <glyph glyph-name="questiondown" unicode="&#xbf;" horiz-adv-x="197" 
d="M46 136v326q0 50 -7.5 61.5t-7.5 38.5q0 9 4 13t16 4l48 -2q18 0 31.5 1.5t14.5 1.5q11 0 15 -4t4 -10q0 -5 -3 -13q-6 -14 -7 -19q-6 -21 -6 -66v-321q0 -20 4 -61t9 -50.5t5 -18.5q0 -17 -21 -17l-16 2q-7 2 -16 2h-14q-14 0 -20 -2t-25 -2q-20 0 -20 17q0 6 4.5 21
t5.5 23zM10 651q0 23 12 36t29 13q18 0 27.5 -14t9.5 -31q0 -22 -10 -35.5t-30 -13.5q-38 0 -38 45zM109 651q0 23 12 36t29 13q18 0 27.5 -14t9.5 -31q0 -22 -10 -35.5t-30 -13.5q-38 0 -38 45z" />
    <glyph glyph-name="Agrave" unicode="&#xc0;" horiz-adv-x="360" 
d="M176 116q-26 0 -38 -19q-8 -13 -8 -31q0 -10 4.5 -19l7.5 -15t3 -14q0 -18 -23 -18q-9 0 -21.5 2.5t-26.5 2.5l-22 -2l-24 -3q-18 0 -18 18q23 33 41 147.5t18 339.5l8 170q6 24 33 24q10 0 32.5 -1.5t30.5 -1.5q25 0 34 2t42 2q36 0 43 -45.5t7 -247.5q0 -121 7 -181
q3 -24 22 -120l12 -54l6 -17.5t4 -15.5q0 -19 -22 -19l-20 3l-23 3h-19t-18 -3l-21 -3q-10 0 -15.5 7.5t-5.5 13.5q0 10 7.5 21.5t7.5 27.5q0 19 -9 31q-12 15 -36 15zM176 222q17 0 24 12q4 7 4 17v88q0 61 -7.5 107.5t-18.5 46.5q-12 0 -21 -87.5t-9 -121.5v-17
q0 -23 5 -34t23 -11z" />
    <glyph glyph-name="Agrave" unicode="&#x410;" horiz-adv-x="360" 
d="M176 116q-26 0 -38 -19q-8 -13 -8 -31q0 -10 4.5 -19l7.5 -15t3 -14q0 -18 -23 -18q-9 0 -21.5 2.5t-26.5 2.5l-22 -2l-24 -3q-18 0 -18 18q23 33 41 147.5t18 339.5l8 170q6 24 33 24q10 0 32.5 -1.5t30.5 -1.5q25 0 34 2t42 2q36 0 43 -45.5t7 -247.5q0 -121 7 -181
q3 -24 22 -120l12 -54l6 -17.5t4 -15.5q0 -19 -22 -19l-20 3l-23 3h-19t-18 -3l-21 -3q-10 0 -15.5 7.5t-5.5 13.5q0 10 7.5 21.5t7.5 27.5q0 19 -9 31q-12 15 -36 15zM176 222q17 0 24 12q4 7 4 17v88q0 61 -7.5 107.5t-18.5 46.5q-12 0 -21 -87.5t-9 -121.5v-17
q0 -23 5 -34t23 -11z" />
    <glyph glyph-name="Aacute" unicode="&#xc1;" horiz-adv-x="362" 
d="M41 154v389q0 21 -1 47.5t-3.5 43t-6 32t-3.5 19.5q0 14 19 14q20 0 65 -2.5t66 -2.5l51 2h19q27 4 37 4q12 0 16 -6.5t4 -16.5l-2 -65q0 -18 0.5 -34t1.5 -31v-15q0 -17 -3 -21t-12 -4q-11 0 -17 10q-12 19 -13 20q-9 10 -21 16t-28 6q-33 0 -45 -17.5t-12 -51.5v-51
v-10q2 -8 7 -8q3 1 5 2q9 5 14 7q14 6 26 8.5t28 2.5q52 0 75.5 -30.5t23.5 -83.5v-198q0 -64 -33.5 -96.5t-93.5 -32.5q-29 0 -48 2.5t-33 2.5h-23.5t-25.5 -2l-35 -3q-20 0 -20 15q0 5 4 18.5t6.5 26.5t6.5 36t4 58zM151 269v-113q0 -31 13 -43q8 -7 21 -7q22 0 31 17
q6 11 6 27v112q0 26 -8 39t-29 13q-19 0 -26.5 -10.5t-7.5 -34.5z" />
    <glyph glyph-name="Aacute" unicode="&#x411;" horiz-adv-x="362" 
d="M41 154v389q0 21 -1 47.5t-3.5 43t-6 32t-3.5 19.5q0 14 19 14q20 0 65 -2.5t66 -2.5l51 2h19q27 4 37 4q12 0 16 -6.5t4 -16.5l-2 -65q0 -18 0.5 -34t1.5 -31v-15q0 -17 -3 -21t-12 -4q-11 0 -17 10q-12 19 -13 20q-9 10 -21 16t-28 6q-33 0 -45 -17.5t-12 -51.5v-51
v-10q2 -8 7 -8q3 1 5 2q9 5 14 7q14 6 26 8.5t28 2.5q52 0 75.5 -30.5t23.5 -83.5v-198q0 -64 -33.5 -96.5t-93.5 -32.5q-29 0 -48 2.5t-33 2.5h-23.5t-25.5 -2l-35 -3q-20 0 -20 15q0 5 4 18.5t6.5 26.5t6.5 36t4 58zM151 269v-113q0 -31 13 -43q8 -7 21 -7q22 0 31 17
q6 11 6 27v112q0 26 -8 39t-29 13q-19 0 -26.5 -10.5t-7.5 -34.5z" />
    <glyph glyph-name="Acircumflex" unicode="&#xc2;" horiz-adv-x="341" 
d="M37 199v299q0 29 -1 57.5l-2 55.5q-2 19 -4 35.5t-2 25.5q0 17 7 22.5t19 5.5l41 -2l42 -1q22 0 39.5 1l34.5 2q45 0 70 -51.5t25 -134.5q0 -41 -5 -70.5t-22 -52.5q-5 -6 -11.5 -15t-6.5 -13q0 -6 10 -23t13 -23q17 -33 27 -76t10 -86q0 -64 -28 -107q-31 -48 -86 -48
q-6 0 -28.5 2.5t-52.5 2.5q-41 0 -55 -2t-26 -3q-15 0 -20 7.5t-5 17.5q6 30 11.5 68t5.5 106zM147 527v-37q0 -21 10 -30t23 -9q14 0 21 14t7 44q0 28 -9 40t-25 12q-15 0 -21 -9.5t-6 -24.5zM147 291v-145q0 -17 4.5 -26.5t24.5 -9.5q18 0 24 7q11 13 11 52q0 49 -19.5 98
t-35.5 49q-6 0 -7.5 -7t-1.5 -18z" />
    <glyph glyph-name="Acircumflex" unicode="&#x412;" horiz-adv-x="341" 
d="M37 199v299q0 29 -1 57.5l-2 55.5q-2 19 -4 35.5t-2 25.5q0 17 7 22.5t19 5.5l41 -2l42 -1q22 0 39.5 1l34.5 2q45 0 70 -51.5t25 -134.5q0 -41 -5 -70.5t-22 -52.5q-5 -6 -11.5 -15t-6.5 -13q0 -6 10 -23t13 -23q17 -33 27 -76t10 -86q0 -64 -28 -107q-31 -48 -86 -48
q-6 0 -28.5 2.5t-52.5 2.5q-41 0 -55 -2t-26 -3q-15 0 -20 7.5t-5 17.5q6 30 11.5 68t5.5 106zM147 527v-37q0 -21 10 -30t23 -9q14 0 21 14t7 44q0 28 -9 40t-25 12q-15 0 -21 -9.5t-6 -24.5zM147 291v-145q0 -17 4.5 -26.5t24.5 -9.5q18 0 24 7q11 13 11 52q0 49 -19.5 98
t-35.5 49q-6 0 -7.5 -7t-1.5 -18z" />
    <glyph glyph-name="Atilde" unicode="&#xc3;" horiz-adv-x="305" 
d="M37 165v365q0 60 -5.5 88l-11.5 57q0 15 9 20t20 5q38 0 47.5 -2.5t46.5 -2.5q39 0 70 2.5t49 2.5q22 0 29 -11q4 -6 4 -19q0 -19 -2 -28.5t-2 -14.5l-3 -35q0 -34 1 -47.5t3 -28.5q0 -18 -5.5 -28t-18.5 -10t-21 9q-10 14 -15 20q-9 12 -18.5 16t-25.5 4
q-27 0 -34 -13.5t-7 -52.5v-284q0 -47 5 -73t16 -41q6 -8 23 -21q13 -10 13 -21q0 -13 -8.5 -17t-19.5 -4q-19 0 -41.5 1.5t-28.5 1.5q-27 0 -39.5 -1.5t-25.5 -1.5q-19 0 -19 17q6 26 10.5 64.5t4.5 83.5z" />
    <glyph glyph-name="Atilde" unicode="&#x413;" horiz-adv-x="305" 
d="M37 165v365q0 60 -5.5 88l-11.5 57q0 15 9 20t20 5q38 0 47.5 -2.5t46.5 -2.5q39 0 70 2.5t49 2.5q22 0 29 -11q4 -6 4 -19q0 -19 -2 -28.5t-2 -14.5l-3 -35q0 -34 1 -47.5t3 -28.5q0 -18 -5.5 -28t-18.5 -10t-21 9q-10 14 -15 20q-9 12 -18.5 16t-25.5 4
q-27 0 -34 -13.5t-7 -52.5v-284q0 -47 5 -73t16 -41q6 -8 23 -21q13 -10 13 -21q0 -13 -8.5 -17t-19.5 -4q-19 0 -41.5 1.5t-28.5 1.5q-27 0 -39.5 -1.5t-25.5 -1.5q-19 0 -19 17q6 26 10.5 64.5t4.5 83.5z" />
    <glyph glyph-name="Adieresis" unicode="&#xc4;" horiz-adv-x="374" 
d="M326 551v-397q0 -51 2 -65t8 -19q3 -2 15.5 -6t12.5 -20l-2 -44l1 -34l1 -21q0 -14 -4 -19.5t-15 -5.5q-13 0 -21 14q-25 45 -33.5 51t-40.5 10.5t-79 4.5q-45 0 -66.5 -6.5t-37.5 -31.5l-14 -28q-8 -14 -21 -14q-10 0 -16 6.5t-6 15.5q0 3 2 18t2 37q0 20 -2 29t-2 22
q0 12 6 16q10 4 18.5 7t13 18.5t18 196t13.5 242.5q0 56 -4 80q-9 55 -9 74q0 13 6.5 15.5t15.5 2.5l113 -5q58 0 69 1q43 4 56 4q20 0 20 -16q0 -4 -3.5 -16t-7.5 -30t-6.5 -42t-2.5 -45zM216 155v361q0 27 -20 27q-16 0 -20 -18t-4 -79q0 -85 -4 -117q-9 -71 -9 -88
q0 -47 -3.5 -66t-5.5 -33q0 -18 8 -26t27 -8q21 0 26 11.5t5 35.5z" />
    <glyph glyph-name="Adieresis" unicode="&#x414;" horiz-adv-x="374" 
d="M326 551v-397q0 -51 2 -65t8 -19q3 -2 15.5 -6t12.5 -20l-2 -44l1 -34l1 -21q0 -14 -4 -19.5t-15 -5.5q-13 0 -21 14q-25 45 -33.5 51t-40.5 10.5t-79 4.5q-45 0 -66.5 -6.5t-37.5 -31.5l-14 -28q-8 -14 -21 -14q-10 0 -16 6.5t-6 15.5q0 3 2 18t2 37q0 20 -2 29t-2 22
q0 12 6 16q10 4 18.5 7t13 18.5t18 196t13.5 242.5q0 56 -4 80q-9 55 -9 74q0 13 6.5 15.5t15.5 2.5l113 -5q58 0 69 1q43 4 56 4q20 0 20 -16q0 -4 -3.5 -16t-7.5 -30t-6.5 -42t-2.5 -45zM216 155v361q0 27 -20 27q-16 0 -20 -18t-4 -79q0 -85 -4 -117q-9 -71 -9 -88
q0 -47 -3.5 -66t-5.5 -33q0 -18 8 -26t27 -8q21 0 26 11.5t5 35.5z" />
    <glyph glyph-name="Aring" unicode="&#xc5;" horiz-adv-x="320" 
d="M37 154v401q0 68 -7.5 80t-7.5 40q0 10 8.5 17.5t29.5 7.5q11 0 37 -2.5t60 -2.5q60 0 77.5 2.5t27.5 2.5t17.5 -6t7.5 -23q0 -6 -2 -31t-2 -51q0 -14 0.5 -27t4 -27.5t3.5 -22.5q0 -31 -24 -31q-10 0 -21 13q-7 8 -13 16q-19 20 -42 20q-20 0 -32 -13t-12 -35
q0 -13 3 -19q11 -22 50 -22q8 0 27.5 2t21.5 2q26 0 39 -14q10 -11 10 -28q0 -15 -11.5 -28.5t-35.5 -13.5h-79q-12 0 -18.5 -9t-6.5 -32v-152q0 -33 10 -43q7 -7 24 -7q21 0 36 3t32 17q5 4 17 17q8 9 17 9q17 0 17 -23q0 -20 -2 -28t-2 -22l1 -30l1 -29q0 -16 -5 -22
q-8 -10 -30 -10q-69 0 -79 1q-39 4 -67 4q-40 0 -48.5 -2.5t-28.5 -2.5t-20 18q0 6 3.5 18t7 31.5t4.5 43.5t2 43z" />
    <glyph glyph-name="Aring" unicode="&#x415;" horiz-adv-x="320" 
d="M37 154v401q0 68 -7.5 80t-7.5 40q0 10 8.5 17.5t29.5 7.5q11 0 37 -2.5t60 -2.5q60 0 77.5 2.5t27.5 2.5t17.5 -6t7.5 -23q0 -6 -2 -31t-2 -51q0 -14 0.5 -27t4 -27.5t3.5 -22.5q0 -31 -24 -31q-10 0 -21 13q-7 8 -13 16q-19 20 -42 20q-20 0 -32 -13t-12 -35
q0 -13 3 -19q11 -22 50 -22q8 0 27.5 2t21.5 2q26 0 39 -14q10 -11 10 -28q0 -15 -11.5 -28.5t-35.5 -13.5h-79q-12 0 -18.5 -9t-6.5 -32v-152q0 -33 10 -43q7 -7 24 -7q21 0 36 3t32 17q5 4 17 17q8 9 17 9q17 0 17 -23q0 -20 -2 -28t-2 -22l1 -30l1 -29q0 -16 -5 -22
q-8 -10 -30 -10q-69 0 -79 1q-39 4 -67 4q-40 0 -48.5 -2.5t-28.5 -2.5t-20 18q0 6 3.5 18t7 31.5t4.5 43.5t2 43z" />
    <glyph glyph-name="AE" unicode="&#xc6;" horiz-adv-x="525" 
d="M205 150v175v18q0 20 -3 32t-12 12q-17 0 -26 -69l-15 -171q-10 -105 -15.5 -126t-22.5 -21q-10 0 -26.5 1.5t-23.5 1.5q-16 0 -25 -1l-18 -2q-18 0 -18 16q0 10 17 47q12 27 23 85q23 125 34.5 201t11.5 111q0 18 -3 31t-12 32l-26 51q-15 34 -15 72q0 23 2 30
q6 23 28 23q18 0 22.5 -1.5t20.5 -1.5q5 1 18 2t30 1t17 -12q0 -6 -12.5 -26.5t-12.5 -50.5q0 -29 16.5 -54t32.5 -25q19 0 21 20.5t2 48.5q0 29 -3 39q-6 12 -9 19q-11 25 -11 27q0 9 5 11t12 3q8 0 23 -1.5t34 -1.5q23 0 34 2t19 2q18 0 18 -13q0 -10 -9.5 -26.5
t-12.5 -42.5t-3 -40q0 -29 6 -38t19 -9q20 0 35.5 29t15.5 60q0 23 -13 45q-7 12 -7 21q0 13 15 13l24 -1l26 -2q19 0 30 1l22 2q23 0 23 -43q0 -30 -15 -68q-8 -22 -25.5 -53t-21 -42t-3.5 -30q0 -40 17 -155q12 -83 26 -156q11 -60 22 -87q17 -43 17 -47q0 -17 -14 -17
q-5 0 -14.5 1t-35.5 1l-28 -1l-18 -2q-19 0 -24 27.5t-20 170.5q-4 35 -9 112t-23 77q-14 0 -19 -33.5t-5 -126.5q0 -33 3 -78t7 -71.5t11 -44.5q3 -7 3 -15q0 -9 -4.5 -13.5t-15.5 -4.5q-7 0 -23 2t-33 2q-12 0 -34 -2t-27 -2q-18 0 -18 16q0 7 4.5 21t6.5 21q10 43 10 92z
" />
    <glyph glyph-name="AE" unicode="&#x416;" horiz-adv-x="525" 
d="M205 150v175v18q0 20 -3 32t-12 12q-17 0 -26 -69l-15 -171q-10 -105 -15.5 -126t-22.5 -21q-10 0 -26.5 1.5t-23.5 1.5q-16 0 -25 -1l-18 -2q-18 0 -18 16q0 10 17 47q12 27 23 85q23 125 34.5 201t11.5 111q0 18 -3 31t-12 32l-26 51q-15 34 -15 72q0 23 2 30
q6 23 28 23q18 0 22.5 -1.5t20.5 -1.5q5 1 18 2t30 1t17 -12q0 -6 -12.5 -26.5t-12.5 -50.5q0 -29 16.5 -54t32.5 -25q19 0 21 20.5t2 48.5q0 29 -3 39q-6 12 -9 19q-11 25 -11 27q0 9 5 11t12 3q8 0 23 -1.5t34 -1.5q23 0 34 2t19 2q18 0 18 -13q0 -10 -9.5 -26.5
t-12.5 -42.5t-3 -40q0 -29 6 -38t19 -9q20 0 35.5 29t15.5 60q0 23 -13 45q-7 12 -7 21q0 13 15 13l24 -1l26 -2q19 0 30 1l22 2q23 0 23 -43q0 -30 -15 -68q-8 -22 -25.5 -53t-21 -42t-3.5 -30q0 -40 17 -155q12 -83 26 -156q11 -60 22 -87q17 -43 17 -47q0 -17 -14 -17
q-5 0 -14.5 1t-35.5 1l-28 -1l-18 -2q-19 0 -24 27.5t-20 170.5q-4 35 -9 112t-23 77q-14 0 -19 -33.5t-5 -126.5q0 -33 3 -78t7 -71.5t11 -44.5q3 -7 3 -15q0 -9 -4.5 -13.5t-15.5 -4.5q-7 0 -23 2t-33 2q-12 0 -34 -2t-27 -2q-18 0 -18 16q0 7 4.5 21t6.5 21q10 43 10 92z
" />
    <glyph glyph-name="Ccedilla" unicode="&#xc7;" 
d="M170 201v80q0 25 -13 39t-36 14h-51q-19 0 -25 6q-10 10 -10 29q0 17 9 27t26 10h51q19 0 31.5 14.5t12.5 37.5q0 28 -6 46q-12 34 -43 34q-19 0 -32 -6q-7 -3 -16 -11q-1 -1 -17 -21q-9 -11 -16 -11q-14 0 -14 22q0 6 1.5 23t1.5 48v16v13q-2 10 -2 14l-2 26q0 35 48 49
q27 8 60 8q72 0 102 -35q42 -49 42 -190q0 -34 -3 -53.5t-19 -38.5l-9 -10.5t-3 -6.5l4 -6q23 -18 28 -31q10 -24 10 -61v-126q0 -82 -54 -124q-43 -34 -103 -34q-34 0 -65 14q-37 17 -37 42q0 8 1 22t1 32q0 26 -1 37.5t-2 21.5q0 10 4 14.5t9 4.5q8 0 14.5 -9t11.5 -17
q9 -14 21.5 -21t29.5 -7q26 0 43 19t17 56z" />
    <glyph glyph-name="Ccedilla" unicode="&#x417;" 
d="M170 201v80q0 25 -13 39t-36 14h-51q-19 0 -25 6q-10 10 -10 29q0 17 9 27t26 10h51q19 0 31.5 14.5t12.5 37.5q0 28 -6 46q-12 34 -43 34q-19 0 -32 -6q-7 -3 -16 -11q-1 -1 -17 -21q-9 -11 -16 -11q-14 0 -14 22q0 6 1.5 23t1.5 48v16v13q-2 10 -2 14l-2 26q0 35 48 49
q27 8 60 8q72 0 102 -35q42 -49 42 -190q0 -34 -3 -53.5t-19 -38.5l-9 -10.5t-3 -6.5l4 -6q23 -18 28 -31q10 -24 10 -61v-126q0 -82 -54 -124q-43 -34 -103 -34q-34 0 -65 14q-37 17 -37 42q0 8 1 22t1 32q0 26 -1 37.5t-2 21.5q0 10 4 14.5t9 4.5q8 0 14.5 -9t11.5 -17
q9 -14 21.5 -21t29.5 -7q26 0 43 19t17 56z" />
    <glyph glyph-name="Egrave" unicode="&#xc8;" horiz-adv-x="391" 
d="M38 177v393q0 54 -5 79q-7 19 -13 38q0 9 5.5 11t15.5 2q12 0 24 -2t28 -2h24q10 0 15 1l26 3q15 0 15 -13q0 -7 -5 -16q-10 -18 -10 -19q-6 -13 -8 -33t-2 -34v-133q5 0 10 1q8 10 35 58t35.5 69t8.5 45q0 14 -2.5 23t-7.5 19q-8 16 -8 20q0 13 20 13q18 0 25 -2t22 -2
t25 2t40 2q6 0 12 -1t6 -9q-7 -23 -12.5 -49.5t-5.5 -58.5v-398q0 -54 2.5 -82.5t5.5 -40.5q5 -13 6 -19q6 -20 6 -28q0 -9 -6.5 -11.5t-13.5 -2.5q-30 0 -37.5 2.5t-21.5 2.5q-19 0 -27.5 -2.5t-24.5 -2.5q-10 0 -14.5 5.5t-4.5 12.5q0 4 4.5 15t8 23t5.5 38t2 48v159l2 39
q-2 7 -4 7q-6 0 -19.5 -24t-35.5 -68l-19 -42q-17 -40 -17 -73q0 -29 1.5 -42.5t7 -29.5l10.5 -29.5t5 -19.5q0 -19 -22 -19q-20 0 -24 2t-30 2q-21 0 -29 -2t-25 -2q-21 0 -21 16q0 6 2.5 16.5l6 25.5t6 56.5t2.5 62.5z" />
    <glyph glyph-name="Egrave" unicode="&#x418;" horiz-adv-x="391" 
d="M38 177v393q0 54 -5 79q-7 19 -13 38q0 9 5.5 11t15.5 2q12 0 24 -2t28 -2h24q10 0 15 1l26 3q15 0 15 -13q0 -7 -5 -16q-10 -18 -10 -19q-6 -13 -8 -33t-2 -34v-133q5 0 10 1q8 10 35 58t35.5 69t8.5 45q0 14 -2.5 23t-7.5 19q-8 16 -8 20q0 13 20 13q18 0 25 -2t22 -2
t25 2t40 2q6 0 12 -1t6 -9q-7 -23 -12.5 -49.5t-5.5 -58.5v-398q0 -54 2.5 -82.5t5.5 -40.5q5 -13 6 -19q6 -20 6 -28q0 -9 -6.5 -11.5t-13.5 -2.5q-30 0 -37.5 2.5t-21.5 2.5q-19 0 -27.5 -2.5t-24.5 -2.5q-10 0 -14.5 5.5t-4.5 12.5q0 4 4.5 15t8 23t5.5 38t2 48v159l2 39
q-2 7 -4 7q-6 0 -19.5 -24t-35.5 -68l-19 -42q-17 -40 -17 -73q0 -29 1.5 -42.5t7 -29.5l10.5 -29.5t5 -19.5q0 -19 -22 -19q-20 0 -24 2t-30 2q-21 0 -29 -2t-25 -2q-21 0 -21 16q0 6 2.5 16.5l6 25.5t6 56.5t2.5 62.5z" />
    <glyph glyph-name="Eacute" unicode="&#xc9;" horiz-adv-x="391" 
d="M38 177v393q0 54 -5 79q-7 19 -13 38q0 9 5.5 11t15.5 2q12 0 24 -2t28 -2h24q10 0 15 1l26 3q15 0 15 -13q0 -7 -5 -16q-10 -18 -10 -19q-6 -13 -8 -33t-2 -34v-133q5 0 10 1q8 10 35 58t35.5 69t8.5 45q0 14 -2.5 23t-7.5 19q-8 16 -8 20q0 13 20 13q18 0 25 -2t22 -2
t25 2t40 2q6 0 12 -1t6 -9q-7 -23 -12.5 -49.5t-5.5 -58.5v-398q0 -54 2.5 -82.5t5.5 -40.5q5 -13 6 -19q6 -20 6 -28q0 -9 -6.5 -11.5t-13.5 -2.5q-30 0 -37.5 2.5t-21.5 2.5q-19 0 -27.5 -2.5t-24.5 -2.5q-10 0 -14.5 5.5t-4.5 12.5q0 4 4.5 15t8 23t5.5 38t2 48v159l2 39
q-2 7 -4 7q-6 0 -19.5 -24t-35.5 -68l-19 -42q-17 -40 -17 -73q0 -29 1.5 -42.5t7 -29.5l10.5 -29.5t5 -19.5q0 -19 -22 -19q-20 0 -24 2t-30 2q-21 0 -29 -2t-25 -2q-21 0 -21 16q0 6 2.5 16.5l6 25.5t6 56.5t2.5 62.5zM197 755q20 0 28 6t8 14q0 9 -14.5 14t-14.5 11
q1 4 2 7t8 3q4 0 13 -1t23 -1l36 2q13 0 20.5 -8.5t7.5 -22.5q0 -28 -27 -45t-90 -17q-75 0 -103 19q-20 14 -20 41q0 21 6.5 27t17.5 6l11 -1l25 -3l38 2q14 0 14 -10q0 -13 -12 -14t-12 -10q0 -10 9 -14.5t26 -4.5z" />
    <glyph glyph-name="Eacute" unicode="&#x419;" horiz-adv-x="391" 
d="M38 177v393q0 54 -5 79q-7 19 -13 38q0 9 5.5 11t15.5 2q12 0 24 -2t28 -2h24q10 0 15 1l26 3q15 0 15 -13q0 -7 -5 -16q-10 -18 -10 -19q-6 -13 -8 -33t-2 -34v-133q5 0 10 1q8 10 35 58t35.5 69t8.5 45q0 14 -2.5 23t-7.5 19q-8 16 -8 20q0 13 20 13q18 0 25 -2t22 -2
t25 2t40 2q6 0 12 -1t6 -9q-7 -23 -12.5 -49.5t-5.5 -58.5v-398q0 -54 2.5 -82.5t5.5 -40.5q5 -13 6 -19q6 -20 6 -28q0 -9 -6.5 -11.5t-13.5 -2.5q-30 0 -37.5 2.5t-21.5 2.5q-19 0 -27.5 -2.5t-24.5 -2.5q-10 0 -14.5 5.5t-4.5 12.5q0 4 4.5 15t8 23t5.5 38t2 48v159l2 39
q-2 7 -4 7q-6 0 -19.5 -24t-35.5 -68l-19 -42q-17 -40 -17 -73q0 -29 1.5 -42.5t7 -29.5l10.5 -29.5t5 -19.5q0 -19 -22 -19q-20 0 -24 2t-30 2q-21 0 -29 -2t-25 -2q-21 0 -21 16q0 6 2.5 16.5l6 25.5t6 56.5t2.5 62.5zM197 755q20 0 28 6t8 14q0 9 -14.5 14t-14.5 11
q1 4 2 7t8 3q4 0 13 -1t23 -1l36 2q13 0 20.5 -8.5t7.5 -22.5q0 -28 -27 -45t-90 -17q-75 0 -103 19q-20 14 -20 41q0 21 6.5 27t17.5 6l11 -1l25 -3l38 2q14 0 14 -10q0 -13 -12 -14t-12 -10q0 -10 9 -14.5t26 -4.5z" />
    <glyph glyph-name="Ecircumflex" unicode="&#xca;" horiz-adv-x="363" 
d="M33 103v471q0 46 -6.5 61t-6.5 43q0 8 5.5 15t19.5 7t24.5 -1.5t18.5 -1.5q23 0 34 1.5t25 1.5q6 0 11.5 -3t5.5 -13l-14 -45.5t-7 -42.5q0 -25 10.5 -38.5t26.5 -13.5q18 0 26.5 16t8.5 36q0 13 -2.5 22t-12.5 30l-9 18t-3 11q0 8 3 13q7 10 23 10q15 0 25 -2t18 -2
q11 0 24 2t22 2q14 0 22.5 -10t8.5 -42q0 -33 -12 -69q-8 -24 -24 -54l-22 -40q-8 -18 -8 -38q0 -36 16.5 -128.5t31 -145.5t34.5 -107q13 -35 13 -44q0 -22 -15 -22l-49 2q-13 0 -24.5 -0.5t-21.5 -1.5q-24 0 -33.5 63l-19.5 135.5l-16 115.5q-12 78 -24 78q-7 0 -12 -20
t-5 -66v-97q0 -40 3.5 -78t10.5 -65q4 -15 10 -30.5t6 -19.5q0 -8 -6 -12t-14 -4q-4 0 -18 2t-32 2q-17 0 -30 -1.5t-27 -2.5q-10 0 -13.5 6.5t-3.5 18.5q0 6 2 37t2 41z" />
    <glyph glyph-name="Ecircumflex" unicode="&#x41a;" horiz-adv-x="363" 
d="M33 103v471q0 46 -6.5 61t-6.5 43q0 8 5.5 15t19.5 7t24.5 -1.5t18.5 -1.5q23 0 34 1.5t25 1.5q6 0 11.5 -3t5.5 -13l-14 -45.5t-7 -42.5q0 -25 10.5 -38.5t26.5 -13.5q18 0 26.5 16t8.5 36q0 13 -2.5 22t-12.5 30l-9 18t-3 11q0 8 3 13q7 10 23 10q15 0 25 -2t18 -2
q11 0 24 2t22 2q14 0 22.5 -10t8.5 -42q0 -33 -12 -69q-8 -24 -24 -54l-22 -40q-8 -18 -8 -38q0 -36 16.5 -128.5t31 -145.5t34.5 -107q13 -35 13 -44q0 -22 -15 -22l-49 2q-13 0 -24.5 -0.5t-21.5 -1.5q-24 0 -33.5 63l-19.5 135.5l-16 115.5q-12 78 -24 78q-7 0 -12 -20
t-5 -66v-97q0 -40 3.5 -78t10.5 -65q4 -15 10 -30.5t6 -19.5q0 -8 -6 -12t-14 -4q-4 0 -18 2t-32 2q-17 0 -30 -1.5t-27 -2.5q-10 0 -13.5 6.5t-3.5 18.5q0 6 2 37t2 41z" />
    <glyph glyph-name="Edieresis" unicode="&#xcb;" horiz-adv-x="348" 
d="M204 165v348q0 9 -4.5 16.5t-10.5 7.5q-15 0 -20 -16.5t-5 -42.5q0 -101 -6 -178q-11 -108 -18 -186q0 -56 -13 -83q-19 -39 -66 -39q-25 0 -38 9t-13 32l3 102l-2 52q0 24 15 24q9 0 10 -10.5t5 -14.5l5 -2q5 0 7.5 8t4.5 28t6 98q8 147 8 193v19q0 37 -2 60t-5 46.5
t-5 30.5t-2 15q0 18 24 18q17 0 52.5 -1.5l58.5 -2.5l67 2l56 2q7 0 14.5 -2.5t7.5 -16.5q0 -8 -1 -11q-9 -25 -13 -43q-10 -50 -10 -101v-411q0 -16 1 -30t4.5 -27l6.5 -25t3 -16q0 -16 -17 -16q-10 0 -33.5 1.5t-30.5 1.5q-24 0 -33 -1.5t-18 -2.5q-15 0 -15 14q0 7 4 20
t6 22q6 21 9 44.5t3 64.5z" />
    <glyph glyph-name="Edieresis" unicode="&#x41b;" horiz-adv-x="348" 
d="M204 165v348q0 9 -4.5 16.5t-10.5 7.5q-15 0 -20 -16.5t-5 -42.5q0 -101 -6 -178q-11 -108 -18 -186q0 -56 -13 -83q-19 -39 -66 -39q-25 0 -38 9t-13 32l3 102l-2 52q0 24 15 24q9 0 10 -10.5t5 -14.5l5 -2q5 0 7.5 8t4.5 28t6 98q8 147 8 193v19q0 37 -2 60t-5 46.5
t-5 30.5t-2 15q0 18 24 18q17 0 52.5 -1.5l58.5 -2.5l67 2l56 2q7 0 14.5 -2.5t7.5 -16.5q0 -8 -1 -11q-9 -25 -13 -43q-10 -50 -10 -101v-411q0 -16 1 -30t4.5 -27l6.5 -25t3 -16q0 -16 -17 -16q-10 0 -33.5 1.5t-30.5 1.5q-24 0 -33 -1.5t-18 -2.5q-15 0 -15 14q0 7 4 20
t6 22q6 21 9 44.5t3 64.5z" />
    <glyph glyph-name="Igrave" unicode="&#xcc;" horiz-adv-x="418" 
d="M37 237v278q0 35 -1 62t-3.5 44.5t-5.5 34t-3 23.5q0 8 5 14t18 6q12 0 23 -2t22 -2q12 0 24.5 2.5t13.5 2.5q19 0 25 -25l11 -46q17 -59 20 -65q9 -18 21 -18q7 0 17 17t24 57l16 48q12 31 32 31q7 0 16 -1.5t18 -1.5q20 0 24 2t21 2q8 0 14.5 -4t6.5 -16q0 -7 -3 -20
l-6 -27t-4 -26t-1 -45v-383q0 -50 4 -81q7 -37 9.5 -55t2.5 -22q0 -15 -6 -18t-20 -3q-9 0 -21.5 1t-26.5 3q-14 0 -25 -2t-24 -2q-22 0 -22 17q8 24 13.5 49.5t5.5 54.5v272q0 7 -3 10q-2 0 -3 1q-7 0 -27 -53q-9 -23 -10 -25q-9 -15 -20 -15q-14 0 -26 23q-1 3 -14 37
l-8 25q-4 8 -9 8q-3 0 -5 -9v-272q0 -38 9.5 -65.5t9.5 -37.5t-7 -15t-16 -5q-4 0 -19 2t-31 2q-19 0 -33 -2t-19 -2q-21 0 -21 21q0 6 4 22.5t7 40t4.5 61t1.5 92.5z" />
    <glyph glyph-name="Igrave" unicode="&#x41c;" horiz-adv-x="418" 
d="M37 237v278q0 35 -1 62t-3.5 44.5t-5.5 34t-3 23.5q0 8 5 14t18 6q12 0 23 -2t22 -2q12 0 24.5 2.5t13.5 2.5q19 0 25 -25l11 -46q17 -59 20 -65q9 -18 21 -18q7 0 17 17t24 57l16 48q12 31 32 31q7 0 16 -1.5t18 -1.5q20 0 24 2t21 2q8 0 14.5 -4t6.5 -16q0 -7 -3 -20
l-6 -27t-4 -26t-1 -45v-383q0 -50 4 -81q7 -37 9.5 -55t2.5 -22q0 -15 -6 -18t-20 -3q-9 0 -21.5 1t-26.5 3q-14 0 -25 -2t-24 -2q-22 0 -22 17q8 24 13.5 49.5t5.5 54.5v272q0 7 -3 10q-2 0 -3 1q-7 0 -27 -53q-9 -23 -10 -25q-9 -15 -20 -15q-14 0 -26 23q-1 3 -14 37
l-8 25q-4 8 -9 8q-3 0 -5 -9v-272q0 -38 9.5 -65.5t9.5 -37.5t-7 -15t-16 -5q-4 0 -19 2t-31 2q-19 0 -33 -2t-19 -2q-21 0 -21 21q0 6 4 22.5t7 40t4.5 61t1.5 92.5z" />
    <glyph glyph-name="Iacute" unicode="&#xcd;" horiz-adv-x="376" 
d="M41 156v389q0 41 -7 70l-14 61q0 23 23 23q9 0 27 -1.5t36 -1.5q44 3 53 3q11 0 15.5 -5.5t4.5 -12.5q0 -10 -5 -21t-8 -19t-5.5 -18t-2.5 -25q0 -20 8 -31.5t26 -11.5q14 0 22.5 14.5t8.5 32.5q0 17 -3 26.5t-9.5 22l-9 17.5t-2.5 11q0 8 4.5 14t17.5 6l29 -2l21 -1
q25 0 37 1t26 3q11 0 16.5 -6.5t5.5 -17.5q-10 -28 -17 -75t-7 -120v-278q0 -42 2.5 -71.5t7.5 -50.5q2 -8 10 -37q4 -14 4 -23q0 -12 -7 -16.5t-17 -4.5q-22 0 -26 2t-25 2q-17 0 -29 -2t-26 -2q-20 0 -20 19q0 15 10 68q6 32 6 69v148q0 45 -5 65.5t-28 20.5
q-24 0 -31 -37t-7 -147q0 -75 6 -120l14 -66q0 -13 -7.5 -16t-18.5 -3q-28 0 -36.5 0.5t-15.5 2.5l-33 -2l-22 -2q-17 0 -17 19q0 4 4 16.5t7.5 30.5t6 38.5t2.5 51.5z" />
    <glyph glyph-name="Iacute" unicode="&#x41d;" horiz-adv-x="376" 
d="M41 156v389q0 41 -7 70l-14 61q0 23 23 23q9 0 27 -1.5t36 -1.5q44 3 53 3q11 0 15.5 -5.5t4.5 -12.5q0 -10 -5 -21t-8 -19t-5.5 -18t-2.5 -25q0 -20 8 -31.5t26 -11.5q14 0 22.5 14.5t8.5 32.5q0 17 -3 26.5t-9.5 22l-9 17.5t-2.5 11q0 8 4.5 14t17.5 6l29 -2l21 -1
q25 0 37 1t26 3q11 0 16.5 -6.5t5.5 -17.5q-10 -28 -17 -75t-7 -120v-278q0 -42 2.5 -71.5t7.5 -50.5q2 -8 10 -37q4 -14 4 -23q0 -12 -7 -16.5t-17 -4.5q-22 0 -26 2t-25 2q-17 0 -29 -2t-26 -2q-20 0 -20 19q0 15 10 68q6 32 6 69v148q0 45 -5 65.5t-28 20.5
q-24 0 -31 -37t-7 -147q0 -75 6 -120l14 -66q0 -13 -7.5 -16t-18.5 -3q-28 0 -36.5 0.5t-15.5 2.5l-33 -2l-22 -2q-17 0 -17 19q0 4 4 16.5t7.5 30.5t6 38.5t2.5 51.5z" />
    <glyph glyph-name="Icircumflex" unicode="&#xce;" horiz-adv-x="338" 
d="M30 157v339q0 112 35.5 162t110.5 50q79 0 111 -61q21 -40 21 -102v-378q0 -81 -35 -128t-101 -47q-67 0 -104.5 42.5t-37.5 122.5zM140 492v-319q0 -27 7 -37.5t21 -10.5q15 0 22.5 12.5t7.5 39.5v320q0 23 -3 32q-6 19 -26 19t-24.5 -15t-4.5 -41z" />
    <glyph glyph-name="Icircumflex" unicode="&#x41e;" horiz-adv-x="338" 
d="M30 157v339q0 112 35.5 162t110.5 50q79 0 111 -61q21 -40 21 -102v-378q0 -81 -35 -128t-101 -47q-67 0 -104.5 42.5t-37.5 122.5zM140 492v-319q0 -27 7 -37.5t21 -10.5q15 0 22.5 12.5t7.5 39.5v320q0 23 -3 32q-6 19 -26 19t-24.5 -15t-4.5 -41z" />
    <glyph glyph-name="Idieresis" unicode="&#xcf;" horiz-adv-x="364" 
d="M39 133v421q0 21 -3 44.5t-7.5 44t-6.5 28.5t-2 11q0 11 6 14.5t14 3.5q9 0 30 -2.5t32 -2.5l97 -3q17 0 63 4t55 4q15 0 20 -3.5t5 -12.5q0 -28 -4 -38q-11 -28 -11 -88v-420q0 -46 5.5 -70.5t11.5 -48.5q0 -19 -16 -19q-18 0 -30 2.5t-30 2.5t-29.5 -2.5t-19.5 -2.5
q-7 1 -10 2q-10 5 -10 18q0 14 5 28q13 37 13 72v358q0 25 -4 36q-8 23 -30 23t-30 -21q-4 -11 -4 -38v-357q0 -48 13 -80q6 -15 6 -21q0 -9 -5.5 -14.5t-19.5 -5.5q-10 0 -19.5 2.5t-29.5 2.5q-27 0 -38 -2t-20 -3q-16 0 -16 17q0 6 4 19t6 21q9 38 9 76z" />
    <glyph glyph-name="Idieresis" unicode="&#x41f;" horiz-adv-x="364" 
d="M39 133v421q0 21 -3 44.5t-7.5 44t-6.5 28.5t-2 11q0 11 6 14.5t14 3.5q9 0 30 -2.5t32 -2.5l97 -3q17 0 63 4t55 4q15 0 20 -3.5t5 -12.5q0 -28 -4 -38q-11 -28 -11 -88v-420q0 -46 5.5 -70.5t11.5 -48.5q0 -19 -16 -19q-18 0 -30 2.5t-30 2.5t-29.5 -2.5t-19.5 -2.5
q-7 1 -10 2q-10 5 -10 18q0 14 5 28q13 37 13 72v358q0 25 -4 36q-8 23 -30 23t-30 -21q-4 -11 -4 -38v-357q0 -48 13 -80q6 -15 6 -21q0 -9 -5.5 -14.5t-19.5 -5.5q-10 0 -19.5 2.5t-29.5 2.5q-27 0 -38 -2t-20 -3q-16 0 -16 17q0 6 4 19t6 21q9 38 9 76z" />
    <glyph glyph-name="Eth" unicode="&#xd0;" horiz-adv-x="341" 
d="M35 231v265q0 84 -3.5 123t-3.5 53q0 15 8.5 21.5t25.5 6.5q153 0 206 -54t53 -202q0 -136 -47 -198q-32 -42 -88 -52q-31 -5 -36 -8.5t-5 -24.5q0 -33 7.5 -61t24.5 -49q13 -16 14.5 -19.5t1.5 -13.5q0 -18 -20 -18l-33 3l-36 2q-26 0 -37 -2.5t-22 -2.5
q-16 0 -20.5 8.5t-4.5 13.5q0 27 4 48q11 57 11 161zM145 407q0 -57 2 -70q6 -37 26 -37q16 0 27 26.5t11 84.5q0 47 -12 75t-29 28q-19 0 -22 -31t-3 -59v-17z" />
    <glyph glyph-name="Eth" unicode="&#x420;" horiz-adv-x="341" 
d="M35 231v265q0 84 -3.5 123t-3.5 53q0 15 8.5 21.5t25.5 6.5q153 0 206 -54t53 -202q0 -136 -47 -198q-32 -42 -88 -52q-31 -5 -36 -8.5t-5 -24.5q0 -33 7.5 -61t24.5 -49q13 -16 14.5 -19.5t1.5 -13.5q0 -18 -20 -18l-33 3l-36 2q-26 0 -37 -2.5t-22 -2.5
q-16 0 -20.5 8.5t-4.5 13.5q0 27 4 48q11 57 11 161zM145 407q0 -57 2 -70q6 -37 26 -37q16 0 27 26.5t11 84.5q0 47 -12 75t-29 28q-19 0 -22 -31t-3 -59v-17z" />
    <glyph glyph-name="Ntilde" unicode="&#xd1;" horiz-adv-x="298" 
d="M30 264v149q0 162 40 231q37 64 116 64q38 0 65 -9t27 -29q0 -3 -2.5 -22t-2.5 -49q0 -22 1 -37t3 -30q0 -20 -6.5 -29t-13.5 -9t-12 3t-16 14.5t-16 14.5q-10 6 -25 6q-33 0 -40.5 -31.5t-7.5 -103.5v-94q0 -84 7 -114q13 -55 56 -55q14 0 22.5 5.5t16.5 15.5
q9 14 21 14q9 0 11.5 -6.5t2.5 -14.5l-1 -50l1 -50q0 -24 -12 -36q-20 -20 -75 -20q-74 0 -113 52q-47 62 -47 220z" />
    <glyph glyph-name="Ntilde" unicode="&#x421;" horiz-adv-x="298" 
d="M30 264v149q0 162 40 231q37 64 116 64q38 0 65 -9t27 -29q0 -3 -2.5 -22t-2.5 -49q0 -22 1 -37t3 -30q0 -20 -6.5 -29t-13.5 -9t-12 3t-16 14.5t-16 14.5q-10 6 -25 6q-33 0 -40.5 -31.5t-7.5 -103.5v-94q0 -84 7 -114q13 -55 56 -55q14 0 22.5 5.5t16.5 15.5
q9 14 21 14q9 0 11.5 -6.5t2.5 -14.5l-1 -50l1 -50q0 -24 -12 -36q-20 -20 -75 -20q-74 0 -113 52q-47 62 -47 220z" />
    <glyph glyph-name="Ograve" unicode="&#xd2;" horiz-adv-x="298" 
d="M91 103v375q0 19 -4 28t-17 9q-14 0 -23 -15l-8 -12.5t-11 -6.5q-18 0 -18 24q0 13 1.5 28t3 26.5t1.5 28v25.5l-1 36l-1 26q0 11 5 18t21 7q18 0 40 -3.5t69 -3.5q55 0 67 3.5t46 3.5q13 0 18 -7t5 -15q0 -12 -1 -30t-1 -38q0 -43 1.5 -65.5t3.5 -41.5q0 -22 -17 -22
q-8 0 -14 8q-6 11 -9 15q-8 14 -23 14q-13 0 -18.5 -11t-5.5 -44v-336q0 -20 2 -38.5t7 -33l8 -23t3 -14.5q0 -11 -5 -14.5t-13 -3.5l-26 3l-29 1q-14 0 -29 -2t-20 -2q-23 0 -23 19q0 8 3 14q8 21 10 29.5t2 40.5z" />
    <glyph glyph-name="Ograve" unicode="&#x422;" horiz-adv-x="298" 
d="M91 103v375q0 19 -4 28t-17 9q-14 0 -23 -15l-8 -12.5t-11 -6.5q-18 0 -18 24q0 13 1.5 28t3 26.5t1.5 28v25.5l-1 36l-1 26q0 11 5 18t21 7q18 0 40 -3.5t69 -3.5q55 0 67 3.5t46 3.5q13 0 18 -7t5 -15q0 -12 -1 -30t-1 -38q0 -43 1.5 -65.5t3.5 -41.5q0 -22 -17 -22
q-8 0 -14 8q-6 11 -9 15q-8 14 -23 14q-13 0 -18.5 -11t-5.5 -44v-336q0 -20 2 -38.5t7 -33l8 -23t3 -14.5q0 -11 -5 -14.5t-13 -3.5l-26 3l-29 1q-14 0 -29 -2t-20 -2q-23 0 -23 19q0 8 3 14q8 21 10 29.5t2 40.5z" />
    <glyph glyph-name="Oacute" unicode="&#xd3;" horiz-adv-x="330" 
d="M161 161q0 3 -2.5 5t-9.5 6q-38 21 -56 45q-32 43 -44 126q-5 38 -14 190q-3 52 -10 81t-19 47q-6 9 -6 16q0 10 5.5 16.5t20.5 6.5q8 0 18 -2t19 -2q11 0 20 2t29 2q13 0 20 -8t7 -32v-169q0 -78 13 -119t29 -41q15 0 20.5 37.5t5.5 97.5q0 53 -3 90.5t-14 67.5
q-6 17 -17 32.5t-11 23.5q0 20 24 20q13 0 31 -1.5t23 -1.5q21 0 31.5 1.5t15.5 1.5q13 0 18 -9t5 -26q0 -124 -6.5 -227.5t-19 -181.5t-31.5 -149q-29 -107 -56 -107q-3 0 -18 2t-35 2l-32 -2l-30 -2h-11q-15 4 -15 22q0 11 21 26q34 24 39 30q14 15 26 36q19 33 19 47z
" />
    <glyph glyph-name="Oacute" unicode="&#x423;" horiz-adv-x="330" 
d="M161 161q0 3 -2.5 5t-9.5 6q-38 21 -56 45q-32 43 -44 126q-5 38 -14 190q-3 52 -10 81t-19 47q-6 9 -6 16q0 10 5.5 16.5t20.5 6.5q8 0 18 -2t19 -2q11 0 20 2t29 2q13 0 20 -8t7 -32v-169q0 -78 13 -119t29 -41q15 0 20.5 37.5t5.5 97.5q0 53 -3 90.5t-14 67.5
q-6 17 -17 32.5t-11 23.5q0 20 24 20q13 0 31 -1.5t23 -1.5q21 0 31.5 1.5t15.5 1.5q13 0 18 -9t5 -26q0 -124 -6.5 -227.5t-19 -181.5t-31.5 -149q-29 -107 -56 -107q-3 0 -18 2t-35 2l-32 -2l-30 -2h-11q-15 4 -15 22q0 11 21 26q34 24 39 30q14 15 26 36q19 33 19 47z
" />
    <glyph glyph-name="Ocircumflex" unicode="&#xd4;" horiz-adv-x="488" 
d="M30 253v152q0 105 33 148q26 35 88 44q16 2 33 5q5 2 5 12q0 22 -7 43q-3 9 -7 17t-4 12q0 9 6 11.5t15 2.5q12 0 24 -2t29 -2q22 0 33.5 1t23.5 3q8 0 11 -3t5 -10q0 -6 -3 -13q-6 -15 -10 -27t-6 -22.5t-2 -14.5q0 -9 13.5 -10.5t46.5 -9.5q61 -15 85 -63
q16 -32 16 -90v-156q0 -117 -57 -156q-11 -7 -93 -28q-8 -2 -8 -12q0 -30 8.5 -49t8.5 -24q0 -12 -17 -12q-10 0 -28 1.5t-27 1.5q-23 0 -39.5 -1.5t-18.5 -1.5q-14 0 -14 14q0 7 7.5 26t7.5 38q0 12 -14.5 15.5t-24.5 5t-20 4.5q-58 18 -82 65q-17 34 -17 85zM193 213v250
q0 13 -9 13q-17 0 -27 -13q-17 -22 -17 -74v-118q0 -35 11.5 -54.5t33.5 -19.5q8 0 8 16zM295 468v-261q0 -10 8 -10q15 0 26 14q19 24 19 78v114q0 43 -15 62q-11 14 -28 14q-10 0 -10 -11z" />
    <glyph glyph-name="Ocircumflex" unicode="&#x424;" horiz-adv-x="488" 
d="M30 253v152q0 105 33 148q26 35 88 44q16 2 33 5q5 2 5 12q0 22 -7 43q-3 9 -7 17t-4 12q0 9 6 11.5t15 2.5q12 0 24 -2t29 -2q22 0 33.5 1t23.5 3q8 0 11 -3t5 -10q0 -6 -3 -13q-6 -15 -10 -27t-6 -22.5t-2 -14.5q0 -9 13.5 -10.5t46.5 -9.5q61 -15 85 -63
q16 -32 16 -90v-156q0 -117 -57 -156q-11 -7 -93 -28q-8 -2 -8 -12q0 -30 8.5 -49t8.5 -24q0 -12 -17 -12q-10 0 -28 1.5t-27 1.5q-23 0 -39.5 -1.5t-18.5 -1.5q-14 0 -14 14q0 7 7.5 26t7.5 38q0 12 -14.5 15.5t-24.5 5t-20 4.5q-58 18 -82 65q-17 34 -17 85zM193 213v250
q0 13 -9 13q-17 0 -27 -13q-17 -22 -17 -74v-118q0 -35 11.5 -54.5t33.5 -19.5q8 0 8 16zM295 468v-261q0 -10 8 -10q15 0 26 14q19 24 19 78v114q0 43 -15 62q-11 14 -28 14q-10 0 -10 -11z" />
    <glyph glyph-name="Otilde" unicode="&#xd5;" horiz-adv-x="380" 
d="M128 433l-71 192q-6 15 -18.5 33.5t-12.5 24.5q0 5 2.5 11t18.5 6l27 -2l30 -1l34 1l22 2q19 0 19 -14q0 -4 -3 -13t-3 -16q0 -10 2 -16l19 -71q1 -6 7 -6q5 0 9 18t10 35.5t6 31.5q0 7 -3 12q-7 12 -7 22q0 17 18 17l26 -3l36 -3q17 0 35 3t24 3q15 0 15 -17
q0 -8 -6.5 -15.5l-10.5 -12t-14.5 -29t-13.5 -33.5l-63 -164q-7 -19 -7.5 -21.5t-0.5 -9.5q0 -12 19.5 -80t35.5 -132q12 -50 18 -69.5t21 -64.5q4 -10 6 -16t8 -13t6 -10q0 -13 -21 -13q-17 0 -34.5 2.5t-19.5 2.5q-5 0 -26 -2.5t-34 -2.5q-18 0 -18 15q0 13 6.5 19.5
t6.5 22.5q0 9 -3.5 27t-15.5 59l-16 53q-2 5 -3 10q-2 -1 -3 -2q-5 -7 -6 -14t-4 -19.5t-18 -54.5l-7 -20q-5 -17 -5 -35t8 -29t8 -17t-1 -7q-6 -8 -21 -8q-12 0 -28 2.5t-35 2.5q-25 0 -32.5 -2.5t-16.5 -2.5q-19 0 -19 16q0 6 10.5 23t18.5 41l90 284q7 20 7 33
q0 15 -8 36z" />
    <glyph glyph-name="Otilde" unicode="&#x425;" horiz-adv-x="380" 
d="M128 433l-71 192q-6 15 -18.5 33.5t-12.5 24.5q0 5 2.5 11t18.5 6l27 -2l30 -1l34 1l22 2q19 0 19 -14q0 -4 -3 -13t-3 -16q0 -10 2 -16l19 -71q1 -6 7 -6q5 0 9 18t10 35.5t6 31.5q0 7 -3 12q-7 12 -7 22q0 17 18 17l26 -3l36 -3q17 0 35 3t24 3q15 0 15 -17
q0 -8 -6.5 -15.5l-10.5 -12t-14.5 -29t-13.5 -33.5l-63 -164q-7 -19 -7.5 -21.5t-0.5 -9.5q0 -12 19.5 -80t35.5 -132q12 -50 18 -69.5t21 -64.5q4 -10 6 -16t8 -13t6 -10q0 -13 -21 -13q-17 0 -34.5 2.5t-19.5 2.5q-5 0 -26 -2.5t-34 -2.5q-18 0 -18 15q0 13 6.5 19.5
t6.5 22.5q0 9 -3.5 27t-15.5 59l-16 53q-2 5 -3 10q-2 -1 -3 -2q-5 -7 -6 -14t-4 -19.5t-18 -54.5l-7 -20q-5 -17 -5 -35t8 -29t8 -17t-1 -7q-6 -8 -21 -8q-12 0 -28 2.5t-35 2.5q-25 0 -32.5 -2.5t-16.5 -2.5q-19 0 -19 16q0 6 10.5 23t18.5 41l90 284q7 20 7 33
q0 15 -8 36z" />
    <glyph glyph-name="Odieresis" unicode="&#xd6;" horiz-adv-x="362" 
d="M35 136v429q0 30 -1 47.5t-5 37t-6.5 27.5t-2.5 10q1 4 2 6q5 7 15 7q5 0 23.5 -1.5t35.5 -1.5h23q10 0 14 1l15 2q15 0 15 -12q0 -25 -9 -49t-9 -89v-349q0 -46 9.5 -58.5t30.5 -12.5q16 0 23.5 13t7.5 55v368q0 40 -5 61q-12 50 -12 61q0 3 1 7.5t12 4.5l20 -2l33 -2
q13 0 29 2t27 2q20 0 20 -15q0 -16 -4 -31q-11 -42 -11 -108v-430q0 -23 4 -33t11.5 -15t11 -8.5t3.5 -14.5l-2 -30q0 -9 2 -27t2 -30q0 -16 -4 -22t-14 -6q-17 0 -33 27q-11 19 -20 26q-18 14 -45.5 18.5t-80.5 4.5q-54 0 -73.5 -2t-45.5 -4q-13 0 -16.5 6t-3.5 14
q0 48 6.5 66.5t6.5 49.5z" />
    <glyph glyph-name="Odieresis" unicode="&#x426;" horiz-adv-x="362" 
d="M35 136v429q0 30 -1 47.5t-5 37t-6.5 27.5t-2.5 10q1 4 2 6q5 7 15 7q5 0 23.5 -1.5t35.5 -1.5h23q10 0 14 1l15 2q15 0 15 -12q0 -25 -9 -49t-9 -89v-349q0 -46 9.5 -58.5t30.5 -12.5q16 0 23.5 13t7.5 55v368q0 40 -5 61q-12 50 -12 61q0 3 1 7.5t12 4.5l20 -2l33 -2
q13 0 29 2t27 2q20 0 20 -15q0 -16 -4 -31q-11 -42 -11 -108v-430q0 -23 4 -33t11.5 -15t11 -8.5t3.5 -14.5l-2 -30q0 -9 2 -27t2 -30q0 -16 -4 -22t-14 -6q-17 0 -33 27q-11 19 -20 26q-18 14 -45.5 18.5t-80.5 4.5q-54 0 -73.5 -2t-45.5 -4q-13 0 -16.5 6t-3.5 14
q0 48 6.5 66.5t6.5 49.5z" />
    <glyph glyph-name="multiply" unicode="&#xd7;" horiz-adv-x="350" 
d="M29 487v102q0 24 -6 46q-13 48 -13 52q0 13 16 13q11 0 32.5 -2t24.5 -2q9 0 26 2t22 2q18 0 18 -17q0 -4 -4 -11.5t-7.5 -16.5t-6 -27t-2.5 -31v-123q0 -28 9 -38t28 -10q24 0 31 17q4 9 4 35v134q0 37 -8.5 48.5t-8.5 25.5q0 9 6.5 11.5t14.5 2.5q18 0 31 -2t22 -2
q14 0 29 2t26 2q17 0 17 -14q0 -6 -3 -14.5t-6 -18.5q-10 -37 -10 -79v-470q0 -41 11 -64q6 -13 6 -25q0 -15 -20 -15q-27 0 -37 2.5t-32 2.5l-31 -2l-26 -3q-15 0 -19.5 3.5t-4.5 9.5q0 7 4 14l19 33.5t14.5 44t5.5 51.5v95q1 17 1 24q0 12 -6 12q-4 0 -10 -3
q-19 -9 -47 -9q-67 0 -94 33q-18 22 -18 60q0 13 1 48.5t1 70.5z" />
    <glyph glyph-name="multiply" unicode="&#x427;" horiz-adv-x="350" 
d="M29 487v102q0 24 -6 46q-13 48 -13 52q0 13 16 13q11 0 32.5 -2t24.5 -2q9 0 26 2t22 2q18 0 18 -17q0 -4 -4 -11.5t-7.5 -16.5t-6 -27t-2.5 -31v-123q0 -28 9 -38t28 -10q24 0 31 17q4 9 4 35v134q0 37 -8.5 48.5t-8.5 25.5q0 9 6.5 11.5t14.5 2.5q18 0 31 -2t22 -2
q14 0 29 2t26 2q17 0 17 -14q0 -6 -3 -14.5t-6 -18.5q-10 -37 -10 -79v-470q0 -41 11 -64q6 -13 6 -25q0 -15 -20 -15q-27 0 -37 2.5t-32 2.5l-31 -2l-26 -3q-15 0 -19.5 3.5t-4.5 9.5q0 7 4 14l19 33.5t14.5 44t5.5 51.5v95q1 17 1 24q0 12 -6 12q-4 0 -10 -3
q-19 -9 -47 -9q-67 0 -94 33q-18 22 -18 60q0 13 1 48.5t1 70.5z" />
    <glyph glyph-name="Oslash" unicode="&#xd8;" horiz-adv-x="546" 
d="M37 135v430q0 44 -5.5 70t-11.5 51q0 14 16 14q4 0 20 -2t37 -2q17 0 29 1t25 3q17 0 17 -12q-6 -18 -11.5 -40.5t-5.5 -61.5v-397q0 -28 6 -40.5t29 -12.5q36 0 36 28v414q0 24 -2 36t-8 40q-5 16 -9 33q0 13 19 13l22 -2l33 -1l31 1l26 2q10 0 13.5 -3.5t3.5 -8.5
q0 -4 -4.5 -15.5t-8.5 -24.5t-5 -30t-1 -35v-379q0 -37 7 -52.5t28 -15.5q23 0 31 17q5 10 5 34v370q0 38 -3.5 57.5l-5.5 31t-6 22.5t-4 16q0 16 21 16q5 0 25 -2t30 -2q19 0 32 2t16 2q21 0 21 -14q0 -7 -10 -50q-6 -26 -6 -66v-398q0 -64 5 -84q12 -48 12 -70
q0 -18 -21 -18q-57 3 -110.5 5t-113.5 2q-155 0 -203 -5q-19 -2 -34 -2q-20 0 -20 17l6 39q4 27 5.5 40.5t1.5 38.5z" />
    <glyph glyph-name="Oslash" unicode="&#x428;" horiz-adv-x="546" 
d="M37 135v430q0 44 -5.5 70t-11.5 51q0 14 16 14q4 0 20 -2t37 -2q17 0 29 1t25 3q17 0 17 -12q-6 -18 -11.5 -40.5t-5.5 -61.5v-397q0 -28 6 -40.5t29 -12.5q36 0 36 28v414q0 24 -2 36t-8 40q-5 16 -9 33q0 13 19 13l22 -2l33 -1l31 1l26 2q10 0 13.5 -3.5t3.5 -8.5
q0 -4 -4.5 -15.5t-8.5 -24.5t-5 -30t-1 -35v-379q0 -37 7 -52.5t28 -15.5q23 0 31 17q5 10 5 34v370q0 38 -3.5 57.5l-5.5 31t-6 22.5t-4 16q0 16 21 16q5 0 25 -2t30 -2q19 0 32 2t16 2q21 0 21 -14q0 -7 -10 -50q-6 -26 -6 -66v-398q0 -64 5 -84q12 -48 12 -70
q0 -18 -21 -18q-57 3 -110.5 5t-113.5 2q-155 0 -203 -5q-19 -2 -34 -2q-20 0 -20 17l6 39q4 27 5.5 40.5t1.5 38.5z" />
    <glyph glyph-name="Ugrave" unicode="&#xd9;" horiz-adv-x="554" 
d="M37 135v430q0 44 -5.5 70t-11.5 51q0 14 16 14q4 0 20 -2t37 -2q17 0 29 1t25 3q17 0 17 -12q-6 -18 -11.5 -40.5t-5.5 -61.5v-397q0 -28 6 -40.5t29 -12.5q36 0 36 28v414q0 24 -2 36t-8 40q-5 16 -9 33q0 13 19 13l22 -2l33 -1l31 1l26 2q10 0 13.5 -3.5t3.5 -8.5
q0 -4 -4.5 -15.5t-8.5 -24.5t-5 -30t-1 -35v-379q0 -37 7 -52.5t28 -15.5q23 0 31 17q5 10 5 34v370q0 38 -3.5 57.5l-5.5 31t-6 22.5t-4 16q0 16 21 16q5 0 25 -2t30 -2q19 0 32 2t16 2q21 0 21 -14q0 -22 -8 -42t-8 -84v-409v-23q0 -22 2.5 -32.5t12 -17t18.5 -11.5
q8 -8 8 -25q0 -9 -1.5 -22.5t-1.5 -21.5q0 -17 1 -26.5l2 -19.5q0 -22 -19 -22q-16 0 -26 16q-17 26 -31 38t-51 18t-146 6q-141 0 -178 -4t-55 -4q-20 0 -20 17l6 39q4 27 5.5 40.5t1.5 38.5z" />
    <glyph glyph-name="Ugrave" unicode="&#x429;" horiz-adv-x="554" 
d="M37 135v430q0 44 -5.5 70t-11.5 51q0 14 16 14q4 0 20 -2t37 -2q17 0 29 1t25 3q17 0 17 -12q-6 -18 -11.5 -40.5t-5.5 -61.5v-397q0 -28 6 -40.5t29 -12.5q36 0 36 28v414q0 24 -2 36t-8 40q-5 16 -9 33q0 13 19 13l22 -2l33 -1l31 1l26 2q10 0 13.5 -3.5t3.5 -8.5
q0 -4 -4.5 -15.5t-8.5 -24.5t-5 -30t-1 -35v-379q0 -37 7 -52.5t28 -15.5q23 0 31 17q5 10 5 34v370q0 38 -3.5 57.5l-5.5 31t-6 22.5t-4 16q0 16 21 16q5 0 25 -2t30 -2q19 0 32 2t16 2q21 0 21 -14q0 -22 -8 -42t-8 -84v-409v-23q0 -22 2.5 -32.5t12 -17t18.5 -11.5
q8 -8 8 -25q0 -9 -1.5 -22.5t-1.5 -21.5q0 -17 1 -26.5l2 -19.5q0 -22 -19 -22q-16 0 -26 16q-17 26 -31 38t-51 18t-146 6q-141 0 -178 -4t-55 -4q-20 0 -20 17l6 39q4 27 5.5 40.5t1.5 38.5z" />
    <glyph glyph-name="Uacute" unicode="&#xda;" horiz-adv-x="418" 
d="M96 160v312q0 24 -5 33t-18 9q-10 0 -14.5 -4t-10.5 -12t-10.5 -11t-8.5 -3q-6 0 -10 4q-7 8 -7 24q0 11 1.5 35t1.5 46q0 40 -2 54t-3 25q0 17 9.5 22.5t33.5 5.5l54 -3l26 -3.5t19 -1.5q16 0 36 2.5t21 2.5q14 0 14 -12q0 -7 -5 -25t-6.5 -25.5t-3 -29.5t-2.5 -35v-135
q0 -11 8 -11q9 3 20 7.5t24.5 7t25.5 2.5q65 0 90 -56q14 -32 14 -81v-184q0 -76 -57 -104q-31 -15 -78 -15l-41 1l-52 2q-28 0 -34 -2t-30 -2q-12 0 -16.5 5.5t-4.5 15.5q0 8 3.5 18.5l7.5 23t7 46.5t3 51zM206 250v-67q0 -47 6 -60.5t25 -13.5q21 0 29 7q12 10 12 42v97
q0 24 -5 36q-8 20 -30 20q-23 0 -30 -14.5t-7 -37.5v-9z" />
    <glyph glyph-name="Uacute" unicode="&#x42a;" horiz-adv-x="418" 
d="M96 160v312q0 24 -5 33t-18 9q-10 0 -14.5 -4t-10.5 -12t-10.5 -11t-8.5 -3q-6 0 -10 4q-7 8 -7 24q0 11 1.5 35t1.5 46q0 40 -2 54t-3 25q0 17 9.5 22.5t33.5 5.5l54 -3l26 -3.5t19 -1.5q16 0 36 2.5t21 2.5q14 0 14 -12q0 -7 -5 -25t-6.5 -25.5t-3 -29.5t-2.5 -35v-135
q0 -11 8 -11q9 3 20 7.5t24.5 7t25.5 2.5q65 0 90 -56q14 -32 14 -81v-184q0 -76 -57 -104q-31 -15 -78 -15l-41 1l-52 2q-28 0 -34 -2t-30 -2q-12 0 -16.5 5.5t-4.5 15.5q0 8 3.5 18.5l7.5 23t7 46.5t3 51zM206 250v-67q0 -47 6 -60.5t25 -13.5q21 0 29 7q12 10 12 42v97
q0 24 -5 36q-8 20 -30 20q-23 0 -30 -14.5t-7 -37.5v-9z" />
    <glyph glyph-name="Ucircumflex" unicode="&#xdb;" horiz-adv-x="524" 
d="M41 170v394q0 16 -3 41.5t-7.5 39.5t-7.5 24.5t-3 16.5q0 13 22 13l23 -2l33 -2q16 0 30 1.5t26 3.5q15 0 15 -15q0 -14 -4 -26t-6.5 -21t-5 -36t-2.5 -43q0 -47 0.5 -90.5t11.5 -43.5t28 8t47 8q38 0 61 -19q36 -30 36 -101v-177q0 -80 -40 -116q-31 -28 -83 -28
q-37 0 -55 2.5t-49 2.5t-44.5 -2.5t-20.5 -2.5q-20 0 -20 21q0 19 5 38q13 49 13 111zM151 251v-77q0 -36 6.5 -49t26.5 -13q31 0 38 31q3 14 3 31v83q0 22 -4 32q-9 22 -35 22q-23 0 -29 -17t-6 -43zM372 132v438q0 21 -1 35t-6.5 34t-7.5 25q-6 16 -6 19q0 17 19 17
q12 0 33.5 -2t31.5 -2q42 4 53 4q15 0 15 -13t-6 -25q-15 -30 -15 -94v-405q0 -32 1 -46.5t9 -52.5q3 -14 7.5 -28t4.5 -20q0 -16 -18 -16q-9 0 -17 2t-35 2q-28 0 -33 -2t-26 -2q-11 0 -14.5 5.5t-3.5 14.5q0 6 10 57q5 26 5 55z" />
    <glyph glyph-name="Ucircumflex" unicode="&#x42b;" horiz-adv-x="524" 
d="M41 170v394q0 16 -3 41.5t-7.5 39.5t-7.5 24.5t-3 16.5q0 13 22 13l23 -2l33 -2q16 0 30 1.5t26 3.5q15 0 15 -15q0 -14 -4 -26t-6.5 -21t-5 -36t-2.5 -43q0 -47 0.5 -90.5t11.5 -43.5t28 8t47 8q38 0 61 -19q36 -30 36 -101v-177q0 -80 -40 -116q-31 -28 -83 -28
q-37 0 -55 2.5t-49 2.5t-44.5 -2.5t-20.5 -2.5q-20 0 -20 21q0 19 5 38q13 49 13 111zM151 251v-77q0 -36 6.5 -49t26.5 -13q31 0 38 31q3 14 3 31v83q0 22 -4 32q-9 22 -35 22q-23 0 -29 -17t-6 -43zM372 132v438q0 21 -1 35t-6.5 34t-7.5 25q-6 16 -6 19q0 17 19 17
q12 0 33.5 -2t31.5 -2q42 4 53 4q15 0 15 -13t-6 -25q-15 -30 -15 -94v-405q0 -32 1 -46.5t9 -52.5q3 -14 7.5 -28t4.5 -20q0 -16 -18 -16q-9 0 -17 2t-35 2q-28 0 -33 -2t-26 -2q-11 0 -14.5 5.5t-3.5 14.5q0 6 10 57q5 26 5 55z" />
    <glyph glyph-name="Udieresis" unicode="&#xdc;" horiz-adv-x="368" 
d="M41 170v394q0 16 -3 41.5t-7.5 39.5t-7.5 24.5t-3 16.5q0 13 22 13l23 -2l33 -2q16 0 30 1.5t26 3.5q15 0 15 -15q0 -14 -4 -26t-6.5 -21t-5 -36t-2.5 -43q0 -47 0.5 -90.5t11.5 -43.5q5 0 35 10q18 6 40 6q39 0 63 -19q37 -30 37 -101v-177q0 -80 -41 -116
q-32 -28 -85 -28q-35 0 -55 2.5t-49 2.5q-30 0 -42.5 -2.5t-22.5 -2.5q-20 0 -20 21q0 19 5 38q13 49 13 111zM151 251v-77q0 -37 5.5 -49.5t29.5 -12.5q28 0 37 21q5 11 5 41v83q0 22 -5 34q-9 20 -33 20q-27 0 -35 -21q-4 -10 -4 -39z" />
    <glyph glyph-name="Udieresis" unicode="&#x42c;" horiz-adv-x="368" 
d="M41 170v394q0 16 -3 41.5t-7.5 39.5t-7.5 24.5t-3 16.5q0 13 22 13l23 -2l33 -2q16 0 30 1.5t26 3.5q15 0 15 -15q0 -14 -4 -26t-6.5 -21t-5 -36t-2.5 -43q0 -47 0.5 -90.5t11.5 -43.5q5 0 35 10q18 6 40 6q39 0 63 -19q37 -30 37 -101v-177q0 -80 -41 -116
q-32 -28 -85 -28q-35 0 -55 2.5t-49 2.5q-30 0 -42.5 -2.5t-22.5 -2.5q-20 0 -20 21q0 19 5 38q13 49 13 111zM151 251v-77q0 -37 5.5 -49.5t29.5 -12.5q28 0 37 21q5 11 5 41v83q0 22 -5 34q-9 20 -33 20q-27 0 -35 -21q-4 -10 -4 -39z" />
    <glyph glyph-name="Yacute" unicode="&#xdd;" horiz-adv-x="315" 
d="M175 249v42q0 25 -10 35t-34 10h-48q-25 0 -33.5 11t-8.5 26q0 14 6 23q10 15 33 15l22 -2l17 -1q35 0 46 10t11 42q0 45 -15 62q-11 13 -35 13q-11 0 -22.5 -3.5t-25.5 -14.5q-11 -11 -15 -16q-9 -10 -16 -10q-9 0 -11.5 9t-2.5 17l1 42l2 41q0 20 -1 33.5t-1 20.5
q0 30 34 44q24 10 59 10q96 0 131 -70q27 -54 27 -177v-203q0 -114 -26 -174q-40 -92 -143 -92q-36 0 -66 16t-30 43q0 14 1.5 27.5t1.5 32.5q0 21 -1 31l-2 20q0 21 15 21q9 0 17 -12q8 -15 12 -21q9 -13 19 -17.5t26 -4.5q26 0 41 17q25 29 25 104z" />
    <glyph glyph-name="Yacute" unicode="&#x42d;" horiz-adv-x="315" 
d="M175 249v42q0 25 -10 35t-34 10h-48q-25 0 -33.5 11t-8.5 26q0 14 6 23q10 15 33 15l22 -2l17 -1q35 0 46 10t11 42q0 45 -15 62q-11 13 -35 13q-11 0 -22.5 -3.5t-25.5 -14.5q-11 -11 -15 -16q-9 -10 -16 -10q-9 0 -11.5 9t-2.5 17l1 42l2 41q0 20 -1 33.5t-1 20.5
q0 30 34 44q24 10 59 10q96 0 131 -70q27 -54 27 -177v-203q0 -114 -26 -174q-40 -92 -143 -92q-36 0 -66 16t-30 43q0 14 1.5 27.5t1.5 32.5q0 21 -1 31l-2 20q0 21 15 21q9 0 17 -12q8 -15 12 -21q9 -13 19 -17.5t26 -4.5q26 0 41 17q25 29 25 104z" />
    <glyph glyph-name="Thorn" unicode="&#xde;" horiz-adv-x="516" 
d="M216 157v122q0 15 -4 24q-7 15 -25 15q-22 0 -29 -13.5t-7 -40.5v-122q0 -41 6 -70l14 -53q0 -19 -21 -19q-20 0 -25 2.5t-33 2.5q-27 0 -36 -1.5l-20 -3.5q-11 0 -13.5 7t-2.5 13q0 14 14 71q7 28 7 68v397q0 55 -7.5 80t-7.5 45q0 19 19 19q8 0 14.5 -1.5t14.5 -2.5
l22 -1h14q8 0 22 2l22 3q19 0 19 -16q0 -11 -5 -21l-9 -18t-6 -22t-2 -43v-70q0 -24 7 -34.5t24 -10.5q27 0 30 28t3 57q0 61 24 100q35 58 115 58q56 0 89 -31q43 -41 43 -132v-378q0 -80 -35.5 -127.5t-100.5 -47.5q-69 0 -104 49q-30 42 -30 116zM318 492v-319
q0 -27 7 -37.5t21 -10.5q15 0 22.5 12.5t7.5 39.5v320q0 23 -3 32q-6 19 -26 19t-24.5 -15t-4.5 -41z" />
    <glyph glyph-name="Thorn" unicode="&#x42e;" horiz-adv-x="516" 
d="M216 157v122q0 15 -4 24q-7 15 -25 15q-22 0 -29 -13.5t-7 -40.5v-122q0 -41 6 -70l14 -53q0 -19 -21 -19q-20 0 -25 2.5t-33 2.5q-27 0 -36 -1.5l-20 -3.5q-11 0 -13.5 7t-2.5 13q0 14 14 71q7 28 7 68v397q0 55 -7.5 80t-7.5 45q0 19 19 19q8 0 14.5 -1.5t14.5 -2.5
l22 -1h14q8 0 22 2l22 3q19 0 19 -16q0 -11 -5 -21l-9 -18t-6 -22t-2 -43v-70q0 -24 7 -34.5t24 -10.5q27 0 30 28t3 57q0 61 24 100q35 58 115 58q56 0 89 -31q43 -41 43 -132v-378q0 -80 -35.5 -127.5t-100.5 -47.5q-69 0 -104 49q-30 42 -30 116zM318 492v-319
q0 -27 7 -37.5t21 -10.5q15 0 22.5 12.5t7.5 39.5v320q0 23 -3 32q-6 19 -26 19t-24.5 -15t-4.5 -41z" />
    <glyph glyph-name="germandbls" unicode="&#xdf;" horiz-adv-x="357" 
d="M211 130v145q0 8 -2.5 11.5t-8.5 6.5q-15 0 -26 -80q-2 -12 -12 -82q-6 -47 -11 -94q-7 -37 -30 -37l-17 2l-22 1l-33 -1l-21 -2q-18 0 -18 16q0 6 17 53t30.5 99t21.5 91l7 39q-21 9 -36 37t-15 84v143q0 87 41 118q26 20 78 20q36 0 63.5 -2.5t30.5 -2.5l39 3l30 2
q18 0 18 -16q-5 -27 -9.5 -61t-4.5 -66v-413q0 -29 1 -47.5t4.5 -33t7 -27.5t3.5 -19q0 -8 -5.5 -12.5t-16.5 -4.5q-2 0 -15 2t-37 2q-22 0 -33 -2t-19 -2q-19 0 -19 14q0 6 4.5 19.5t6.5 23.5t5 34.5t3 38.5zM145 515v-66q0 -36 33 -36t33 41v61q0 15 -5 24q-8 15 -28 15
q-15 0 -24 -11t-9 -28z" />
    <glyph glyph-name="germandbls" unicode="&#x42f;" horiz-adv-x="357" 
d="M211 130v145q0 8 -2.5 11.5t-8.5 6.5q-15 0 -26 -80q-2 -12 -12 -82q-6 -47 -11 -94q-7 -37 -30 -37l-17 2l-22 1l-33 -1l-21 -2q-18 0 -18 16q0 6 17 53t30.5 99t21.5 91l7 39q-21 9 -36 37t-15 84v143q0 87 41 118q26 20 78 20q36 0 63.5 -2.5t30.5 -2.5l39 3l30 2
q18 0 18 -16q-5 -27 -9.5 -61t-4.5 -66v-413q0 -29 1 -47.5t4.5 -33t7 -27.5t3.5 -19q0 -8 -5.5 -12.5t-16.5 -4.5q-2 0 -15 2t-37 2q-22 0 -33 -2t-19 -2q-19 0 -19 14q0 6 4.5 19.5t6.5 23.5t5 34.5t3 38.5zM145 515v-66q0 -36 33 -36t33 41v61q0 15 -5 24q-8 15 -28 15
q-15 0 -24 -11t-9 -28z" />
    <glyph glyph-name="agrave" unicode="&#xe0;" horiz-adv-x="306" 
d="M267 434v-266q0 -21 1.5 -48t9.5 -59q4 -15 8 -27.5t4 -17.5q0 -8 -6 -12t-14 -4l-20 2l-19 2l-21 -2l-20 -2q-20 0 -20 17l1 13q0 4 -7 8q-3 0 -22 -19q-8 -8 -16 -13q-16 -10 -32 -10q-44 0 -62 45q-12 30 -12 81q0 75 22 119q16 32 66 80l34 33q27 29 27 57
q0 14 -8.5 22.5t-26.5 8.5q-14 0 -24.5 -3.5t-23.5 -16.5q-9 -10 -19.5 -20.5t-19.5 -10.5q-18 0 -18 24q0 11 2.5 29t2.5 25q0 16 -1.5 29.5t-1.5 27.5q0 23 22 37q18 10 40 15.5t62 5.5q31 0 50.5 -8t32.5 -21q20 -22 26 -56q3 -18 3 -65zM173 159v91q0 13 -6 13
q-4 0 -10.5 -6.5t-11.5 -13.5q-31 -42 -31 -87q0 -19 5 -29.5t18 -10.5q17 0 26.5 14t9.5 29z" />
    <glyph glyph-name="agrave" unicode="&#x430;" horiz-adv-x="306" 
d="M267 434v-266q0 -21 1.5 -48t9.5 -59q4 -15 8 -27.5t4 -17.5q0 -8 -6 -12t-14 -4l-20 2l-19 2l-21 -2l-20 -2q-20 0 -20 17l1 13q0 4 -7 8q-3 0 -22 -19q-8 -8 -16 -13q-16 -10 -32 -10q-44 0 -62 45q-12 30 -12 81q0 75 22 119q16 32 66 80l34 33q27 29 27 57
q0 14 -8.5 22.5t-26.5 8.5q-14 0 -24.5 -3.5t-23.5 -16.5q-9 -10 -19.5 -20.5t-19.5 -10.5q-18 0 -18 24q0 11 2.5 29t2.5 25q0 16 -1.5 29.5t-1.5 27.5q0 23 22 37q18 10 40 15.5t62 5.5q31 0 50.5 -8t32.5 -21q20 -22 26 -56q3 -18 3 -65zM173 159v91q0 13 -6 13
q-4 0 -10.5 -6.5t-11.5 -13.5q-31 -42 -31 -87q0 -19 5 -29.5t18 -10.5q17 0 26.5 14t9.5 29z" />
    <glyph glyph-name="aacute" unicode="&#xe1;" horiz-adv-x="297" 
d="M24 150v306q0 137 23.5 189t87.5 52q13 0 18.5 -0.5t18.5 -3.5t29 -3q14 0 24 7t15 7q13 0 13 -20q0 -42 -20.5 -62.5t-54.5 -20.5l-35 1q-32 0 -51 -15t-19 -33q0 -9 2.5 -11t6.5 -3q3 0 6 2q8 6 17 11.5t23 9.5t28 4q45 0 76 -24q41 -32 41 -98v-295q0 -56 -17 -91
q-30 -63 -108 -63q-71 0 -102 53q-22 38 -22 101zM118 377v-221q0 -16 3 -23q7 -17 27 -17q21 0 28 16q3 7 3 24v221q0 21 -6.5 30.5t-24.5 9.5q-23 0 -26.5 -14.5t-3.5 -25.5z" />
    <glyph glyph-name="aacute" unicode="&#x431;" horiz-adv-x="297" 
d="M24 150v306q0 137 23.5 189t87.5 52q13 0 18.5 -0.5t18.5 -3.5t29 -3q14 0 24 7t15 7q13 0 13 -20q0 -42 -20.5 -62.5t-54.5 -20.5l-35 1q-32 0 -51 -15t-19 -33q0 -9 2.5 -11t6.5 -3q3 0 6 2q8 6 17 11.5t23 9.5t28 4q45 0 76 -24q41 -32 41 -98v-295q0 -56 -17 -91
q-30 -63 -108 -63q-71 0 -102 53q-22 38 -22 101zM118 377v-221q0 -16 3 -23q7 -17 27 -17q21 0 28 16q3 7 3 24v221q0 21 -6.5 30.5t-24.5 9.5q-23 0 -26.5 -14.5t-3.5 -25.5z" />
    <glyph glyph-name="acircumflex" unicode="&#xe2;" horiz-adv-x="304" 
d="M35 150v293q0 26 -1.5 42.5t-5.5 34.5t-6.5 28t-2.5 15q0 17 24 17q22 0 32 -1.5t28 -1.5l44 2l30 1q40 0 61 -20q36 -34 36 -127q0 -36 -2.5 -56t-10 -36.5t-20.5 -25.5q-9 -6 -9 -11q0 -1 15 -21q22 -29 29 -71q4 -24 4 -63q0 -94 -24.5 -121.5t-75.5 -27.5l-42 3
l-29 1q-28 0 -43 -1.5t-30 -2.5q-20 0 -20 17q0 7 5.5 23.5t9.5 52t4 57.5zM129 436v-34q0 -15 30 -32q11 5 16 16.5t5 30.5q0 16 -3 25q-6 18 -26 18q-11 0 -16.5 -4.5t-5.5 -19.5zM129 221v-68q0 -20 2 -32.5t23 -12.5q25 0 30 21q2 8 2 28q0 28 -9 52q-13 34 -46 61
q-1 -7 -1.5 -16t-0.5 -19v-14z" />
    <glyph glyph-name="acircumflex" unicode="&#x432;" horiz-adv-x="304" 
d="M35 150v293q0 26 -1.5 42.5t-5.5 34.5t-6.5 28t-2.5 15q0 17 24 17q22 0 32 -1.5t28 -1.5l44 2l30 1q40 0 61 -20q36 -34 36 -127q0 -36 -2.5 -56t-10 -36.5t-20.5 -25.5q-9 -6 -9 -11q0 -1 15 -21q22 -29 29 -71q4 -24 4 -63q0 -94 -24.5 -121.5t-75.5 -27.5l-42 3
l-29 1q-28 0 -43 -1.5t-30 -2.5q-20 0 -20 17q0 7 5.5 23.5t9.5 52t4 57.5zM129 436v-34q0 -15 30 -32q11 5 16 16.5t5 30.5q0 16 -3 25q-6 18 -26 18q-11 0 -16.5 -4.5t-5.5 -19.5zM129 221v-68q0 -20 2 -32.5t23 -12.5q25 0 30 21q2 8 2 28q0 28 -9 52q-13 34 -46 61
q-1 -7 -1.5 -16t-0.5 -19v-14z" />
    <glyph glyph-name="atilde" unicode="&#xe3;" horiz-adv-x="238" 
d="M33 148v297q0 43 -4.5 70t-7 36t-2.5 11q0 12 6.5 15t16.5 3q15 0 40 -2.5t42 -2.5q25 0 30 1q21 4 48 4q16 0 21 -7t5 -18q0 -27 -1 -37q-4 -40 -4 -48l2 -33l2 -27q0 -23 -13 -23q-10 0 -19 15.5t-20.5 20.5t-23.5 5q-16 0 -20 -14t-4 -67v-33v-141q0 -54 4.5 -81.5
t14.5 -41.5q10 -11 14 -17q9 -11 9 -19q0 -9 -6.5 -11.5t-14.5 -2.5q-5 0 -29 2.5t-38 2.5l-26 -2l-21 -3q-18 0 -18 19q0 7 2.5 15.5t6 23t6 41t2.5 49.5z" />
    <glyph glyph-name="atilde" unicode="&#x433;" horiz-adv-x="238" 
d="M33 148v297q0 43 -4.5 70t-7 36t-2.5 11q0 12 6.5 15t16.5 3q15 0 40 -2.5t42 -2.5q25 0 30 1q21 4 48 4q16 0 21 -7t5 -18q0 -27 -1 -37q-4 -40 -4 -48l2 -33l2 -27q0 -23 -13 -23q-10 0 -19 15.5t-20.5 20.5t-23.5 5q-16 0 -20 -14t-4 -67v-33v-141q0 -54 4.5 -81.5
t14.5 -41.5q10 -11 14 -17q9 -11 9 -19q0 -9 -6.5 -11.5t-14.5 -2.5q-5 0 -29 2.5t-38 2.5l-26 -2l-21 -3q-18 0 -18 19q0 7 2.5 15.5t6 23t6 41t2.5 49.5z" />
    <glyph glyph-name="adieresis" unicode="&#xe4;" horiz-adv-x="334" 
d="M186 0h-57q-28 0 -43 -5q-32 -10 -45 -41q-3 -7 -4 -10q-5 -11 -14 -11q-15 0 -15 16q0 7 1.5 19.5t1.5 23.5l-2 48q0 10 14 22q9 6 13.5 14.5t10.5 36.5q13 58 24.5 175t11.5 180q0 36 -4.5 55.5l-9.5 39.5q0 9 4.5 12.5t21.5 3.5l89 -4q66 5 87 5q16 0 22 -4t6 -14
q0 -4 -2 -11.5l-5 -18.5q-7 -32 -7 -66v-337q0 -21 4 -41t13 -27l12 -6q8 -6 8 -19l-3 -21l-1 -21q4 -34 4 -45t-4.5 -14t-9.5 -3q-8 0 -14.5 11t-11.5 21q-16 23 -39 29.5t-57 6.5zM191 138v268q0 14 -2 22.5t-12 8.5q-13 0 -17.5 -23.5t-4.5 -59.5v-22t1 -19
q0 -63 -5 -107q-7 -43 -13 -85q0 -19 25 -19q20 0 24 8.5t4 27.5z" />
    <glyph glyph-name="adieresis" unicode="&#x434;" horiz-adv-x="334" 
d="M186 0h-57q-28 0 -43 -5q-32 -10 -45 -41q-3 -7 -4 -10q-5 -11 -14 -11q-15 0 -15 16q0 7 1.5 19.5t1.5 23.5l-2 48q0 10 14 22q9 6 13.5 14.5t10.5 36.5q13 58 24.5 175t11.5 180q0 36 -4.5 55.5l-9.5 39.5q0 9 4.5 12.5t21.5 3.5l89 -4q66 5 87 5q16 0 22 -4t6 -14
q0 -4 -2 -11.5l-5 -18.5q-7 -32 -7 -66v-337q0 -21 4 -41t13 -27l12 -6q8 -6 8 -19l-3 -21l-1 -21q4 -34 4 -45t-4.5 -14t-9.5 -3q-8 0 -14.5 11t-11.5 21q-16 23 -39 29.5t-57 6.5zM191 138v268q0 14 -2 22.5t-12 8.5q-13 0 -17.5 -23.5t-4.5 -59.5v-22t1 -19
q0 -63 -5 -107q-7 -43 -13 -85q0 -19 25 -19q20 0 24 8.5t4 27.5z" />
    <glyph glyph-name="aring" unicode="&#xe5;" horiz-adv-x="280" 
d="M24 179v250q0 92 37 128q27 27 79 27q42 0 70 -19q54 -36 54 -129v-67q0 -89 -94 -150q-44 -29 -44 -68q0 -18 11.5 -26.5t26.5 -8.5q13 0 24.5 6t20.5 22l10 20q7 10 16 10q15 0 15 -22q0 -8 -1.5 -18t-1.5 -25q0 -16 1.5 -35.5t1.5 -20.5q0 -26 -24.5 -41.5
t-65.5 -15.5q-84 0 -116 67q-20 42 -20 116zM118 398v-101q0 -18 12 -18q13 0 28 23q19 29 19 69q0 43 -8.5 57t-25.5 14q-13 0 -19 -9t-6 -35z" />
    <glyph glyph-name="aring" unicode="&#x435;" horiz-adv-x="280" 
d="M24 179v250q0 92 37 128q27 27 79 27q42 0 70 -19q54 -36 54 -129v-67q0 -89 -94 -150q-44 -29 -44 -68q0 -18 11.5 -26.5t26.5 -8.5q13 0 24.5 6t20.5 22l10 20q7 10 16 10q15 0 15 -22q0 -8 -1.5 -18t-1.5 -25q0 -16 1.5 -35.5t1.5 -20.5q0 -26 -24.5 -41.5
t-65.5 -15.5q-84 0 -116 67q-20 42 -20 116zM118 398v-101q0 -18 12 -18q13 0 28 23q19 29 19 69q0 43 -8.5 57t-25.5 14q-13 0 -19 -9t-6 -35z" />
    <glyph glyph-name="ae" unicode="&#xe6;" horiz-adv-x="475" 
d="M198 123v170q0 16 -8 16q-16 0 -28 -70q-5 -29 -9 -58q-10 -56 -13 -81.5t-3 -41.5l3 -40q0 -18 -17 -18h-12q-23 3 -32 3q-17 0 -27.5 -1l-20.5 -2q-19 0 -19 16q0 5 7 23q13 33 22 63q3 11 28.5 137t25.5 142q0 20 -10 37q-14 18 -19 26q-13 19 -21 37q-14 30 -14 54
q0 23 7.5 34t23.5 11l21 -2l25 -1q15 0 23 1t15 2q15 0 15 -15q0 -7 -4.5 -15t-7.5 -14q-8 -14 -8 -33q0 -20 15.5 -39.5t29.5 -19.5q9 0 14.5 9t5.5 32q0 30 -5.5 48.5t-9.5 29.5q0 17 17 17q22 0 27 -2t18 -2q7 0 22.5 2t17.5 2q17 0 17 -14q0 -5 -3 -13q-7 -15 -10.5 -37
t-3.5 -45q0 -29 14 -29q17 0 34.5 25.5t17.5 47.5q0 16 -11 29.5t-11 22.5q0 13 14 13q7 0 20.5 -1.5t20.5 -1.5q18 0 25.5 1l15.5 2q10 0 16 -10t6 -37q0 -20 -7 -39q-3 -9 -18 -35.5l-20 -35.5q-13 -23 -13 -52q0 -24 14.5 -121t27.5 -155q7 -34 15.5 -56.5t8.5 -24.5
q0 -14 -15 -14q-13 0 -23 1.5t-23 1.5l-21 -1l-21 -2q-18 0 -18 16q0 22 2.5 25.5t2.5 21.5q0 21 -1 30q-8 47 -13.5 88.5t-9.5 80.5q-8 47 -22 47q-5 0 -7 -9.5t-2 -33.5v-139q0 -78 7 -98q4 -11 4 -17q0 -12 -19 -12q-6 0 -21 1.5t-22 1.5q-18 0 -22.5 -1.5t-18.5 -1.5
q-19 0 -19 18q0 4 3 14.5l6.5 23t5.5 32t2 35.5z" />
    <glyph glyph-name="ae" unicode="&#x436;" horiz-adv-x="475" 
d="M198 123v170q0 16 -8 16q-16 0 -28 -70q-5 -29 -9 -58q-10 -56 -13 -81.5t-3 -41.5l3 -40q0 -18 -17 -18h-12q-23 3 -32 3q-17 0 -27.5 -1l-20.5 -2q-19 0 -19 16q0 5 7 23q13 33 22 63q3 11 28.5 137t25.5 142q0 20 -10 37q-14 18 -19 26q-13 19 -21 37q-14 30 -14 54
q0 23 7.5 34t23.5 11l21 -2l25 -1q15 0 23 1t15 2q15 0 15 -15q0 -7 -4.5 -15t-7.5 -14q-8 -14 -8 -33q0 -20 15.5 -39.5t29.5 -19.5q9 0 14.5 9t5.5 32q0 30 -5.5 48.5t-9.5 29.5q0 17 17 17q22 0 27 -2t18 -2q7 0 22.5 2t17.5 2q17 0 17 -14q0 -5 -3 -13q-7 -15 -10.5 -37
t-3.5 -45q0 -29 14 -29q17 0 34.5 25.5t17.5 47.5q0 16 -11 29.5t-11 22.5q0 13 14 13q7 0 20.5 -1.5t20.5 -1.5q18 0 25.5 1l15.5 2q10 0 16 -10t6 -37q0 -20 -7 -39q-3 -9 -18 -35.5l-20 -35.5q-13 -23 -13 -52q0 -24 14.5 -121t27.5 -155q7 -34 15.5 -56.5t8.5 -24.5
q0 -14 -15 -14q-13 0 -23 1.5t-23 1.5l-21 -1l-21 -2q-18 0 -18 16q0 22 2.5 25.5t2.5 21.5q0 21 -1 30q-8 47 -13.5 88.5t-9.5 80.5q-8 47 -22 47q-5 0 -7 -9.5t-2 -33.5v-139q0 -78 7 -98q4 -11 4 -17q0 -12 -19 -12q-6 0 -21 1.5t-22 1.5q-18 0 -22.5 -1.5t-18.5 -1.5
q-19 0 -19 18q0 4 3 14.5l6.5 23t5.5 32t2 35.5z" />
    <glyph glyph-name="ccedilla" unicode="&#xe7;" horiz-adv-x="247" 
d="M60 335h27q15 0 23 4q14 7 14 27v32q0 11 -3 17q-6 12 -20 12q-20 0 -25 -18.5t-30 -18.5q-14 0 -16 5.5t-2 10.5t2 31t2 30q0 19 -1.5 33.5t-2.5 31.5q0 26 23.5 39t58.5 13q52 0 78 -29q30 -33 30 -106v-78q0 -43 -21 -54q-11 -6 -11 -13q9 -9 18 -19q19 -21 19 -69
v-78q0 -83 -43 -118q-30 -24 -79 -24q-46 0 -65 18q-12 12 -12 31q0 8 1.5 26.5t1.5 23.5l-1 23l-1 24q0 15 13 15q11 0 17.5 -10t9.5 -16q7 -13 15.5 -17.5t20.5 -4.5q19 0 25 18q3 9 3 29v51q0 42 -7.5 51.5t-29.5 9.5h-25q-15 0 -22.5 5t-7.5 25q0 17 4 27t19 10z" />
    <glyph glyph-name="ccedilla" unicode="&#x437;" horiz-adv-x="247" 
d="M60 335h27q15 0 23 4q14 7 14 27v32q0 11 -3 17q-6 12 -20 12q-20 0 -25 -18.5t-30 -18.5q-14 0 -16 5.5t-2 10.5t2 31t2 30q0 19 -1.5 33.5t-2.5 31.5q0 26 23.5 39t58.5 13q52 0 78 -29q30 -33 30 -106v-78q0 -43 -21 -54q-11 -6 -11 -13q9 -9 18 -19q19 -21 19 -69
v-78q0 -83 -43 -118q-30 -24 -79 -24q-46 0 -65 18q-12 12 -12 31q0 8 1.5 26.5t1.5 23.5l-1 23l-1 24q0 15 13 15q11 0 17.5 -10t9.5 -16q7 -13 15.5 -17.5t20.5 -4.5q19 0 25 18q3 9 3 29v51q0 42 -7.5 51.5t-29.5 9.5h-25q-15 0 -22.5 5t-7.5 25q0 17 4 27t19 10z" />
    <glyph glyph-name="egrave" unicode="&#xe8;" horiz-adv-x="312" 
d="M30 155v309q0 39 -3.5 63t-5.5 41q0 12 14 12q9 0 29.5 -1.5t25.5 -1.5l24 1l16 2q15 0 15 -14q0 -6 -2 -12l-9 -28t-7 -28.5t-3 -28.5v-61l5 -7q5 0 13.5 13l16.5 26q19 29 22.5 37t3.5 24q0 20 -7 38q-10 27 -10 29q0 12 18 12q7 0 20.5 -1.5t22.5 -1.5q20 0 32 1.5
t17 1.5q18 0 18 -14q0 -8 -6 -24t-9 -25q-7 -25 -7 -113v-243q0 -56 3.5 -84l7.5 -58q0 -19 -17 -19l-24 3l-25 1q-20 0 -31 -2t-12 -2q-17 0 -17 18l14.5 56.5t6.5 51.5v137l-4 5q-5 0 -13.5 -16.5l-18 -36.5t-13.5 -27q-7 -14 -7 -23v-87q0 -12 2.5 -22.5t5.5 -20.5l5 -20
q0 -15 -19 -15t-26 2t-23 2q-33 -4 -43 -4t-10 14q0 13 4 32q10 47 10 109z" />
    <glyph glyph-name="egrave" unicode="&#x438;" horiz-adv-x="312" 
d="M30 155v309q0 39 -3.5 63t-5.5 41q0 12 14 12q9 0 29.5 -1.5t25.5 -1.5l24 1l16 2q15 0 15 -14q0 -6 -2 -12l-9 -28t-7 -28.5t-3 -28.5v-61l5 -7q5 0 13.5 13l16.5 26q19 29 22.5 37t3.5 24q0 20 -7 38q-10 27 -10 29q0 12 18 12q7 0 20.5 -1.5t22.5 -1.5q20 0 32 1.5
t17 1.5q18 0 18 -14q0 -8 -6 -24t-9 -25q-7 -25 -7 -113v-243q0 -56 3.5 -84l7.5 -58q0 -19 -17 -19l-24 3l-25 1q-20 0 -31 -2t-12 -2q-17 0 -17 18l14.5 56.5t6.5 51.5v137l-4 5q-5 0 -13.5 -16.5l-18 -36.5t-13.5 -27q-7 -14 -7 -23v-87q0 -12 2.5 -22.5t5.5 -20.5l5 -20
q0 -15 -19 -15t-26 2t-23 2q-33 -4 -43 -4t-10 14q0 13 4 32q10 47 10 109z" />
    <glyph glyph-name="eacute" unicode="&#xe9;" horiz-adv-x="312" 
d="M30 155v309q0 39 -3.5 63t-5.5 41q0 12 14 12q9 0 29.5 -1.5t25.5 -1.5l24 1l16 2q15 0 15 -14q0 -6 -2 -12l-9 -28t-7 -28.5t-3 -28.5v-61l5 -7q9 0 32.5 38t23.5 62q0 20 -7 38q-10 27 -10 29q0 12 18 12q7 0 20.5 -1.5t22.5 -1.5q20 0 32 1.5t17 1.5q18 0 18 -14
q0 -8 -6 -24t-9 -25q-7 -25 -7 -113v-243q0 -56 3.5 -84l7.5 -58q0 -19 -17 -19l-24 3l-25 1q-20 0 -31 -2t-12 -2q-17 0 -17 18l14.5 56.5t6.5 51.5v137l-4 5q-6 0 -29 -42.5t-23 -60.5v-87q0 -12 2.5 -22.5t5.5 -20.5l5 -20q0 -15 -19 -15t-26 2t-23 2q-33 -4 -43 -4
t-10 14q0 13 4 32q10 47 10 109zM159 646q11 0 19 2t8 12q0 9 -10 14.5t-10 12.5q0 13 18 13l28 -3l30 2q28 0 28 -33q0 -25 -21 -40q-28 -20 -89 -20q-65 0 -91 20q-19 15 -19 41q0 16 3.5 24.5t18.5 8.5l32 -3l32 2q16 0 16 -11q0 -16 -11 -16q-4 0 -8 -0.5t-4 -7.5
q0 -6 7.5 -12t22.5 -6z" />
    <glyph glyph-name="eacute" unicode="&#x439;" horiz-adv-x="312" 
d="M30 155v309q0 39 -3.5 63t-5.5 41q0 12 14 12q9 0 29.5 -1.5t25.5 -1.5l24 1l16 2q15 0 15 -14q0 -6 -2 -12l-9 -28t-7 -28.5t-3 -28.5v-61l5 -7q9 0 32.5 38t23.5 62q0 20 -7 38q-10 27 -10 29q0 12 18 12q7 0 20.5 -1.5t22.5 -1.5q20 0 32 1.5t17 1.5q18 0 18 -14
q0 -8 -6 -24t-9 -25q-7 -25 -7 -113v-243q0 -56 3.5 -84l7.5 -58q0 -19 -17 -19l-24 3l-25 1q-20 0 -31 -2t-12 -2q-17 0 -17 18l14.5 56.5t6.5 51.5v137l-4 5q-6 0 -29 -42.5t-23 -60.5v-87q0 -12 2.5 -22.5t5.5 -20.5l5 -20q0 -15 -19 -15t-26 2t-23 2q-33 -4 -43 -4
t-10 14q0 13 4 32q10 47 10 109zM159 646q11 0 19 2t8 12q0 9 -10 14.5t-10 12.5q0 13 18 13l28 -3l30 2q28 0 28 -33q0 -25 -21 -40q-28 -20 -89 -20q-65 0 -91 20q-19 15 -19 41q0 16 3.5 24.5t18.5 8.5l32 -3l32 2q16 0 16 -11q0 -16 -11 -16q-4 0 -8 -0.5t-4 -7.5
q0 -6 7.5 -12t22.5 -6z" />
    <glyph glyph-name="ecircumflex" unicode="&#xea;" horiz-adv-x="322" 
d="M38 157v309q0 24 -3 39.5t-5 23.5l-7 36q0 15 19 15q15 0 30 -1.5t17 -1.5q16 0 19 1.5t23 1.5q19 0 19 -19q0 -4 -4.5 -12.5t-5.5 -11.5q-8 -19 -8 -40v-26q0 -17 2 -24t10 -7q16 0 36.5 24.5t20.5 49.5q0 13 -8 26l-6 9q-6 9 -6 16q0 15 18 15q4 0 18 -2t29 -2
q17 0 26 2t16 2q10 0 16.5 -10t6.5 -33q0 -19 -7 -38.5t-25 -42.5t-24 -35q-10 -19 -10 -41q0 -23 8 -70l32 -185q12 -77 25 -100q4 -7 4 -13q0 -12 -18 -12q-9 0 -27 1.5t-26 1.5q-26 -3 -37 -3q-14 0 -16.5 4.5t-2.5 14.5q0 2 2.5 13t2.5 18q0 40 -8 93.5l-15 98.5t-7 47
q-5 20 -16 20q-9 0 -11.5 -7.5t-2.5 -16.5v-142q0 -24 0.5 -47t4.5 -43l5.5 -27.5t1.5 -12.5q0 -13 -22 -13l-21 2l-22 1q-16 0 -25 -1t-17 -2q-9 0 -12 1q-9 4 -9 15q0 20 6 30q16 28 16 111z" />
    <glyph glyph-name="ecircumflex" unicode="&#x43a;" horiz-adv-x="322" 
d="M38 157v309q0 24 -3 39.5t-5 23.5l-7 36q0 15 19 15q15 0 30 -1.5t17 -1.5q16 0 19 1.5t23 1.5q19 0 19 -19q0 -4 -4.5 -12.5t-5.5 -11.5q-8 -19 -8 -40v-26q0 -17 2 -24t10 -7q16 0 36.5 24.5t20.5 49.5q0 13 -8 26l-6 9q-6 9 -6 16q0 15 18 15q4 0 18 -2t29 -2
q17 0 26 2t16 2q10 0 16.5 -10t6.5 -33q0 -19 -7 -38.5t-25 -42.5t-24 -35q-10 -19 -10 -41q0 -23 8 -70l32 -185q12 -77 25 -100q4 -7 4 -13q0 -12 -18 -12q-9 0 -27 1.5t-26 1.5q-26 -3 -37 -3q-14 0 -16.5 4.5t-2.5 14.5q0 2 2.5 13t2.5 18q0 40 -8 93.5l-15 98.5t-7 47
q-5 20 -16 20q-9 0 -11.5 -7.5t-2.5 -16.5v-142q0 -24 0.5 -47t4.5 -43l5.5 -27.5t1.5 -12.5q0 -13 -22 -13l-21 2l-22 1q-16 0 -25 -1t-17 -2q-9 0 -12 1q-9 4 -9 15q0 20 6 30q16 28 16 111z" />
    <glyph glyph-name="edieresis" unicode="&#xeb;" horiz-adv-x="306" 
d="M274 420v-273q0 -62 3 -82.5t7.5 -31.5t4.5 -16q0 -17 -22 -17q-15 0 -20.5 1.5t-21.5 1.5l-21 -1l-17 -2q-21 0 -21 17q0 9 4 22q10 33 10 93v273q0 15 -7 20l-6 2q-27 0 -27 -173q0 -124 -4 -157q-12 -101 -85 -101q-26 0 -33.5 11.5t-7.5 31.5q0 25 1 42l2 33
q0 18 -1 29.5l-2 23.5q0 4 1.5 12.5t13.5 8.5t12 -14l-1 -10q0 -2 2 -3l4 -2q9 0 14.5 31t5.5 120q0 52 1.5 79.5t4.5 62.5q0 50 -5 69t-10 41q0 9 6.5 13.5t21.5 4.5q34 0 56.5 -2.5t40.5 -2.5q25 0 46 1.5t39 3.5q12 0 19.5 -3t7.5 -15q0 -2 -4.5 -17t-7 -31.5t-3.5 -44.5
t-1 -49z" />
    <glyph glyph-name="edieresis" unicode="&#x43b;" horiz-adv-x="306" 
d="M274 420v-273q0 -62 3 -82.5t7.5 -31.5t4.5 -16q0 -17 -22 -17q-15 0 -20.5 1.5t-21.5 1.5l-21 -1l-17 -2q-21 0 -21 17q0 9 4 22q10 33 10 93v273q0 15 -7 20l-6 2q-27 0 -27 -173q0 -124 -4 -157q-12 -101 -85 -101q-26 0 -33.5 11.5t-7.5 31.5q0 25 1 42l2 33
q0 18 -1 29.5l-2 23.5q0 4 1.5 12.5t13.5 8.5t12 -14l-1 -10q0 -2 2 -3l4 -2q9 0 14.5 31t5.5 120q0 52 1.5 79.5t4.5 62.5q0 50 -5 69t-10 41q0 9 6.5 13.5t21.5 4.5q34 0 56.5 -2.5t40.5 -2.5q25 0 46 1.5t39 3.5q12 0 19.5 -3t7.5 -15q0 -2 -4.5 -17t-7 -31.5t-3.5 -44.5
t-1 -49z" />
    <glyph glyph-name="igrave" unicode="&#xec;" horiz-adv-x="412" 
d="M33 148v322q0 10 -3 28.5t-6 32t-5.5 22.5t-2.5 13q0 14 17 14l17 -2l29 -2q25 0 31 2t26 2q18 0 24.5 -25.5l10.5 -42.5q10 -36 10 -37q14 -45 23 -45q10 0 21 31q4 11 15 50l16 54q6 15 22 15q6 0 16 -2t31 -2q9 0 26 2t27 2q18 0 18 -14q0 -7 -7 -34.5t-10.5 -55.5
t-3.5 -79v-259q0 -54 8 -88q5 -21 5 -34q0 -16 -20 -16q-8 0 -20 1.5t-28 1.5l-22 -1l-21 -2q-18 0 -18 13q9 23 15.5 54.5t6.5 73.5v193q-2 8 -5 8q-6 0 -14 -23.5l-17 -50.5t-21 -41t-22 -14q-7 0 -18 17t-29 62q-7 25 -10.5 34.5t-8.5 9.5q-6 0 -7.5 -9t-1.5 -23v-194
q0 -51 4 -71q5 -13 11 -26q0 -8 -7 -10.5t-14 -2.5l-27 2l-26 1q-15 0 -22 -1.5t-12 -1.5q-18 0 -18 17q6 26 11.5 57.5t5.5 73.5z" />
    <glyph glyph-name="igrave" unicode="&#x43c;" horiz-adv-x="412" 
d="M33 148v322q0 10 -3 28.5t-6 32t-5.5 22.5t-2.5 13q0 14 17 14l17 -2l29 -2q25 0 31 2t26 2q18 0 24.5 -25.5l10.5 -42.5q10 -36 10 -37q14 -45 23 -45q10 0 21 31q4 11 15 50l16 54q6 15 22 15q6 0 16 -2t31 -2q9 0 26 2t27 2q18 0 18 -14q0 -7 -7 -34.5t-10.5 -55.5
t-3.5 -79v-259q0 -54 8 -88q5 -21 5 -34q0 -16 -20 -16q-8 0 -20 1.5t-28 1.5l-22 -1l-21 -2q-18 0 -18 13q9 23 15.5 54.5t6.5 73.5v193q-2 8 -5 8q-6 0 -14 -23.5l-17 -50.5t-21 -41t-22 -14q-7 0 -18 17t-29 62q-7 25 -10.5 34.5t-8.5 9.5q-6 0 -7.5 -9t-1.5 -23v-194
q0 -51 4 -71q5 -13 11 -26q0 -8 -7 -10.5t-14 -2.5l-27 2l-26 1q-15 0 -22 -1.5t-12 -1.5q-18 0 -18 17q6 26 11.5 57.5t5.5 73.5z" />
    <glyph glyph-name="iacute" unicode="&#xed;" horiz-adv-x="311" 
d="M34 135v324q0 60 -6.5 78t-6.5 29q0 14 15 14l18 -2l28 -2q20 0 29.5 1t20.5 3q14 0 14 -14q0 -6 -7.5 -30.5t-7.5 -46.5q0 -20 2 -26q6 -19 26 -19q14 0 21.5 11.5t7.5 31.5q0 18 -1 24q-4 12 -7 20q-9 24 -9 35q0 14 17 14q14 0 20.5 -1.5t32.5 -1.5l23 2l13 1
q10 0 14 -4t4 -9q0 -10 -3.5 -20.5t-7.5 -27t-5.5 -34t-1.5 -27.5v-329q0 -34 4 -59t9 -51q0 -19 -21 -19q-12 0 -16.5 1.5t-19.5 1.5l-26 -1l-19 -2q-20 0 -20 15q6 27 10.5 56.5t4.5 63.5v117q0 22 -3 31q-6 16 -24 16t-23 -14t-5 -40v-121q0 -38 7 -70t7 -39
q0 -15 -18 -15q-8 0 -23 1.5t-22 1.5q-18 0 -27 -1t-17 -2h-7q-12 3 -12 15q0 4 2 9q7 18 10.5 35.5t4.5 37.5t1 38z" />
    <glyph glyph-name="iacute" unicode="&#x43d;" horiz-adv-x="311" 
d="M34 135v324q0 60 -6.5 78t-6.5 29q0 14 15 14l18 -2l28 -2q20 0 29.5 1t20.5 3q14 0 14 -14q0 -6 -7.5 -30.5t-7.5 -46.5q0 -20 2 -26q6 -19 26 -19q14 0 21.5 11.5t7.5 31.5q0 18 -1 24q-4 12 -7 20q-9 24 -9 35q0 14 17 14q14 0 20.5 -1.5t32.5 -1.5l23 2l13 1
q10 0 14 -4t4 -9q0 -10 -3.5 -20.5t-7.5 -27t-5.5 -34t-1.5 -27.5v-329q0 -34 4 -59t9 -51q0 -19 -21 -19q-12 0 -16.5 1.5t-19.5 1.5l-26 -1l-19 -2q-20 0 -20 15q6 27 10.5 56.5t4.5 63.5v117q0 22 -3 31q-6 16 -24 16t-23 -14t-5 -40v-121q0 -38 7 -70t7 -39
q0 -15 -18 -15q-8 0 -23 1.5t-22 1.5q-18 0 -27 -1t-17 -2h-7q-12 3 -12 15q0 4 2 9q7 18 10.5 35.5t4.5 37.5t1 38z" />
    <glyph glyph-name="icircumflex" unicode="&#xee;" horiz-adv-x="297" 
d="M24 175v229q0 86 31.5 133t93.5 47q75 0 105 -60q19 -39 19 -110v-225q0 -80 -17 -121q-30 -72 -109 -72q-65 0 -94 46.5t-29 132.5zM118 360v-165q0 -39 5.5 -59t25.5 -20q18 0 24 18.5t6 47.5v17v158q0 33 -4 48q-7 27 -28 27q-15 0 -22 -15t-7 -57z" />
    <glyph glyph-name="icircumflex" unicode="&#x43e;" horiz-adv-x="297" 
d="M24 175v229q0 86 31.5 133t93.5 47q75 0 105 -60q19 -39 19 -110v-225q0 -80 -17 -121q-30 -72 -109 -72q-65 0 -94 46.5t-29 132.5zM118 360v-165q0 -39 5.5 -59t25.5 -20q18 0 24 18.5t6 47.5v17v158q0 33 -4 48q-7 27 -28 27q-15 0 -22 -15t-7 -57z" />
    <glyph glyph-name="idieresis" unicode="&#xef;" horiz-adv-x="306" 
d="M32 126v340q0 21 -1.5 37.5t-5.5 27.5q-7 15 -7.5 17.5t-0.5 11.5q0 10 5 15t20 5l45 -3q9 -1 26.5 -1h25.5h17q14 0 41.5 1t39.5 1l31 2q10 0 16 -3t6 -16q0 -15 -10 -55q-5 -20 -5 -55v-344q0 -27 6 -56l3.5 -14t1.5 -20q0 -17 -14 -17l-19 2l-25 1q-21 0 -29 -1
t-15 -2q-19 0 -19 18q6 27 11 55t5 53v279q0 30 -28 30q-13 0 -20 -13.5t-7 -45.5v-271q0 -12 2 -28.5t4.5 -28.5t5 -21t2.5 -14q0 -13 -18 -13q-14 0 -20 2t-26 2l-21 -1l-20 -3q-19 0 -19 13q6 24 11 54.5t5 58.5z" />
    <glyph glyph-name="idieresis" unicode="&#x43f;" horiz-adv-x="306" 
d="M32 126v340q0 21 -1.5 37.5t-5.5 27.5q-7 15 -7.5 17.5t-0.5 11.5q0 10 5 15t20 5l45 -3q9 -1 26.5 -1h25.5h17q14 0 41.5 1t39.5 1l31 2q10 0 16 -3t6 -16q0 -15 -10 -55q-5 -20 -5 -55v-344q0 -27 6 -56l3.5 -14t1.5 -20q0 -17 -14 -17l-19 2l-25 1q-21 0 -29 -1
t-15 -2q-19 0 -19 18q6 27 11 55t5 53v279q0 30 -28 30q-13 0 -20 -13.5t-7 -45.5v-271q0 -12 2 -28.5t4.5 -28.5t5 -21t2.5 -14q0 -13 -18 -13q-14 0 -20 2t-26 2l-21 -1l-20 -3q-19 0 -19 13q6 24 11 54.5t5 58.5z" />
    <glyph glyph-name="eth" unicode="&#xf0;" horiz-adv-x="304" 
d="M37 80v348q0 28 -3 58t-10 48q-2 5 -3 10q-5 14 -5 18q0 18 23 18q2 0 16 -1t25 -1q16 0 28 1t13 1q15 0 17 -14v-19q0 -8 6 -8q4 0 7.5 5l8.5 12q13 13 28 20.5t25 7.5q41 0 57 -56q10 -36 10 -105v-132q0 -103 -14 -151q-23 -80 -90 -80q-16 0 -27 9t-11 22q0 15 8 25
q12 12 18 19q19 22 20.5 61.5t1.5 82.5v22q0 52 -6 85.5t-26 33.5q-14 0 -18.5 -15.5t-4.5 -44.5v-33v-232q0 -88 34 -120q16 -15 16 -27q0 -9 -6.5 -13.5t-17.5 -4.5q-21 0 -37.5 2t-27.5 2q-18 0 -29 -1t-22 -3q-17 0 -17 18q5 21 9 53t4 79z" />
    <glyph glyph-name="eth" unicode="&#x440;" horiz-adv-x="304" 
d="M37 80v348q0 28 -3 58t-10 48q-2 5 -3 10q-5 14 -5 18q0 18 23 18q2 0 16 -1t25 -1q16 0 28 1t13 1q15 0 17 -14v-19q0 -8 6 -8q4 0 7.5 5l8.5 12q13 13 28 20.5t25 7.5q41 0 57 -56q10 -36 10 -105v-132q0 -103 -14 -151q-23 -80 -90 -80q-16 0 -27 9t-11 22q0 15 8 25
q12 12 18 19q19 22 20.5 61.5t1.5 82.5v22q0 52 -6 85.5t-26 33.5q-14 0 -18.5 -15.5t-4.5 -44.5v-33v-232q0 -88 34 -120q16 -15 16 -27q0 -9 -6.5 -13.5t-17.5 -4.5q-21 0 -37.5 2t-27.5 2q-18 0 -29 -1t-22 -3q-17 0 -17 18q5 21 9 53t4 79z" />
    <glyph glyph-name="ntilde" unicode="&#xf1;" horiz-adv-x="251" 
d="M24 155v268q0 87 40 128q32 33 82 33q26 0 48 -9q32 -13 32 -39q0 -10 -2 -24t-2 -35q0 -24 2 -28t2 -33q0 -14 -4.5 -19.5t-13.5 -5.5q-7 0 -11 2l-6 3q-10 12 -15 17q-10 10 -27 10q-16 0 -23.5 -18t-7.5 -60v-147q0 -41 11 -57.5t31 -16.5t32 15q4 8 8.5 14t13.5 6
q19 0 19 -20q0 -9 -1.5 -21.5t-1.5 -21.5q0 -14 2.5 -27.5t2.5 -16.5q0 -27 -25 -41.5t-66 -14.5q-73 0 -101 56q-19 38 -19 103z" />
    <glyph glyph-name="ntilde" unicode="&#x441;" horiz-adv-x="251" 
d="M24 155v268q0 87 40 128q32 33 82 33q26 0 48 -9q32 -13 32 -39q0 -10 -2 -24t-2 -35q0 -24 2 -28t2 -33q0 -14 -4.5 -19.5t-13.5 -5.5q-7 0 -11 2l-6 3q-10 12 -15 17q-10 10 -27 10q-16 0 -23.5 -18t-7.5 -60v-147q0 -41 11 -57.5t31 -16.5t32 15q4 8 8.5 14t13.5 6
q19 0 19 -20q0 -9 -1.5 -21.5t-1.5 -21.5q0 -14 2.5 -27.5t2.5 -16.5q0 -27 -25 -41.5t-66 -14.5q-73 0 -101 56q-19 38 -19 103z" />
    <glyph glyph-name="ograve" unicode="&#xf2;" horiz-adv-x="263" 
d="M84 107v317q0 15 -11 15q-6 0 -9.5 -3.5t-9.5 -14.5q-6 -16 -10.5 -21.5t-11.5 -5.5q-16 0 -16 22q0 20 3 40t3 41q0 20 -1.5 28.5t-1.5 28.5q0 14 6 20t29 6q8 0 38 -2t50 -2q33 0 47 2t28 2q18 0 24 -10t6 -24q0 -15 -1 -22q-5 -33 -5 -53q0 -17 1.5 -36t1.5 -22
q0 -9 -2 -15t-12 -6q-9 0 -15 10q-5 13 -7 17q-8 19 -21 19q-6 0 -7.5 -5t-1.5 -12v-328q0 -12 0.5 -22.5t3 -22t5 -21t2.5 -13.5q0 -14 -16 -14q-19 0 -23 2t-22 2q-10 0 -22 -2t-16 -2q-20 0 -20 16q5 23 9.5 46.5t4.5 44.5z" />
    <glyph glyph-name="ograve" unicode="&#x442;" horiz-adv-x="263" 
d="M84 107v317q0 15 -11 15q-6 0 -9.5 -3.5t-9.5 -14.5q-6 -16 -10.5 -21.5t-11.5 -5.5q-16 0 -16 22q0 20 3 40t3 41q0 20 -1.5 28.5t-1.5 28.5q0 14 6 20t29 6q8 0 38 -2t50 -2q33 0 47 2t28 2q18 0 24 -10t6 -24q0 -15 -1 -22q-5 -33 -5 -53q0 -17 1.5 -36t1.5 -22
q0 -9 -2 -15t-12 -6q-9 0 -15 10q-5 13 -7 17q-8 19 -21 19q-6 0 -7.5 -5t-1.5 -12v-328q0 -12 0.5 -22.5t3 -22t5 -21t2.5 -13.5q0 -14 -16 -14q-19 0 -23 2t-22 2q-10 0 -22 -2t-16 -2q-20 0 -20 16q5 23 9.5 46.5t4.5 44.5z" />
    <glyph glyph-name="oacute" unicode="&#xf3;" horiz-adv-x="312" 
d="M49 336v84q0 25 -3 50.5t-9.5 46.5t-13.5 27t-7 15q0 7 6 14t15 7q6 0 17 -2t23 -2q14 0 22.5 1t18.5 3q17 0 24 -14q4 -8 4 -21l-1 -21l-2 -38v-130q0 -51 2 -65q6 -42 28 -42q13 0 17 20t4 54v20v83q0 28 -3.5 57.5t-13.5 48.5q-6 12 -12 17t-6 9q0 8 6 15t18 7l39 -2
l41 2q13 0 16.5 -6t3.5 -25v-31q5 -143 5 -158q0 -120 -32 -265q-36 -165 -77 -165q-9 0 -16 2t-23 2l-59 -4q-13 0 -20.5 3t-7.5 14t24 30q32 25 42 37.5t19.5 30t9.5 29.5q-39 30 -67 86q-32 62 -32 176z" />
    <glyph glyph-name="oacute" unicode="&#x443;" horiz-adv-x="312" 
d="M49 336v84q0 25 -3 50.5t-9.5 46.5t-13.5 27t-7 15q0 7 6 14t15 7q6 0 17 -2t23 -2q14 0 22.5 1t18.5 3q17 0 24 -14q4 -8 4 -21l-1 -21l-2 -38v-130q0 -51 2 -65q6 -42 28 -42q13 0 17 20t4 54v20v83q0 28 -3.5 57.5t-13.5 48.5q-6 12 -12 17t-6 9q0 8 6 15t18 7l39 -2
l41 2q13 0 16.5 -6t3.5 -25v-31q5 -143 5 -158q0 -120 -32 -265q-36 -165 -77 -165q-9 0 -16 2t-23 2l-59 -4q-13 0 -20.5 3t-7.5 14t24 30q32 25 42 37.5t19.5 30t9.5 29.5q-39 30 -67 86q-32 62 -32 176z" />
    <glyph glyph-name="ocircumflex" unicode="&#xf4;" horiz-adv-x="414" 
d="M24 138v332q0 49 10 74q16 40 55 40q23 0 42 -13q26 -18 26 -24v28q0 31 -7 59l-16 52q0 14 21 14q6 0 17 -2t24 -2q9 0 20 2t19 2q24 0 24 -23q0 -13 -2.5 -43t-2.5 -65v-24q4 2 9 5q30 34 63 34q43 0 56 -45q8 -27 8 -90v-311q0 -83 -17.5 -112.5t-55.5 -29.5
q-40 0 -60 35q-3 3 -5 6v-6q0 -16 2 -28.5t3.5 -19.5t6.5 -21t5 -18q0 -9 -6.5 -11.5t-16.5 -2.5q-16 0 -20 2t-25 2q-12 0 -19 -2t-20 -2q-17 0 -17 16q0 8 2.5 16t7.5 20q8 27 8 45v14l-6 -6q-22 -39 -62 -39q-45 0 -60 41q-11 30 -11 101zM118 370v-208q0 -27 3 -36.5
t19 -9.5q10 0 15 6t5 27v243q0 16 -6.5 23t-13.5 7q-11 0 -16.5 -8t-5.5 -35v-9zM254 373v-195v-21q0 -19 3.5 -30t15.5 -11q14 0 18.5 11.5t4.5 32.5v22v192q0 24 -2 31q-5 17 -20 17q-14 0 -17 -12t-3 -37z" />
    <glyph glyph-name="ocircumflex" unicode="&#x444;" horiz-adv-x="414" 
d="M24 138v332q0 49 10 74q16 40 55 40q23 0 42 -13q26 -18 26 -24v28q0 31 -7 59l-16 52q0 14 21 14q6 0 17 -2t24 -2q9 0 20 2t19 2q24 0 24 -23q0 -13 -2.5 -43t-2.5 -65v-24q4 2 9 5q30 34 63 34q43 0 56 -45q8 -27 8 -90v-311q0 -83 -17.5 -112.5t-55.5 -29.5
q-40 0 -60 35q-3 3 -5 6v-6q0 -16 2 -28.5t3.5 -19.5t6.5 -21t5 -18q0 -9 -6.5 -11.5t-16.5 -2.5q-16 0 -20 2t-25 2q-12 0 -19 -2t-20 -2q-17 0 -17 16q0 8 2.5 16t7.5 20q8 27 8 45v14l-6 -6q-22 -39 -62 -39q-45 0 -60 41q-11 30 -11 101zM118 370v-208q0 -27 3 -36.5
t19 -9.5q10 0 15 6t5 27v243q0 16 -6.5 23t-13.5 7q-11 0 -16.5 -8t-5.5 -35v-9zM254 373v-195v-21q0 -19 3.5 -30t15.5 -11q14 0 18.5 11.5t4.5 32.5v22v192q0 24 -2 31q-5 17 -20 17q-14 0 -17 -12t-3 -37z" />
    <glyph glyph-name="otilde" unicode="&#xf5;" horiz-adv-x="348" 
d="M113 319q0 9 -14.5 57t-30.5 92t-28 67l-16 28q0 7 6 12t21 5l16 -1l31 -3l26 2l24 2q12 0 16 -6t4 -16l-2 -23l-2 -23q0 -27 8.5 -48.5t15.5 -21.5t15 22t8 37q0 21 -14 38t-14 24q0 10 8 13.5t17 3.5q10 0 24 -2t19 -2q9 0 22 2t17 2q16 0 23.5 -12.5t7.5 -47.5
q0 -44 -19 -88q-10 -24 -32 -55l-28 -41t-14 -38q0 -22 26 -97q20 -56 32 -83q15 -38 28 -64q18 -36 18 -40q0 -14 -24 -14q-14 0 -21.5 1.5t-32.5 1.5l-25 -1l-19 -2q-19 0 -23 14q0 2 -1 7q0 4 2.5 17t2.5 25q0 29 -16 75t-29 46q-8 0 -16 -18t-8 -51q0 -31 10.5 -55
t27.5 -32.5t17 -17.5q0 -8 -14.5 -16.5l-28.5 -16.5q-7 -5 -26 -23q-13 -12 -21 -12q-19 0 -43 42q-28 49 -28 107q0 37 14 78q5 15 21 48.5t42 66.5q20 26 20 35z" />
    <glyph glyph-name="otilde" unicode="&#x445;" horiz-adv-x="348" 
d="M113 319q0 9 -14.5 57t-30.5 92t-28 67l-16 28q0 7 6 12t21 5l16 -1l31 -3l26 2l24 2q12 0 16 -6t4 -16l-2 -23l-2 -23q0 -27 8.5 -48.5t15.5 -21.5t15 22t8 37q0 21 -14 38t-14 24q0 10 8 13.5t17 3.5q10 0 24 -2t19 -2q9 0 22 2t17 2q16 0 23.5 -12.5t7.5 -47.5
q0 -44 -19 -88q-10 -24 -32 -55l-28 -41t-14 -38q0 -22 26 -97q20 -56 32 -83q15 -38 28 -64q18 -36 18 -40q0 -14 -24 -14q-14 0 -21.5 1.5t-32.5 1.5l-25 -1l-19 -2q-19 0 -23 14q0 2 -1 7q0 4 2.5 17t2.5 25q0 29 -16 75t-29 46q-8 0 -16 -18t-8 -51q0 -31 10.5 -55
t27.5 -32.5t17 -17.5q0 -8 -14.5 -16.5l-28.5 -16.5q-7 -5 -26 -23q-13 -12 -21 -12q-19 0 -43 42q-28 49 -28 107q0 37 14 78q5 15 21 48.5t42 66.5q20 26 20 35z" />
    <glyph glyph-name="odieresis" unicode="&#xf6;" horiz-adv-x="310" 
d="M32 122v374q0 14 -1 21t-3.5 21t-5 19.5t-2.5 8.5q0 14 19 14q11 0 20 -1.5t21 -1.5q24 0 27 1.5t19 1.5q18 0 18 -13q0 -6 -12 -62q-6 -28 -6 -57v-297q0 -22 6 -32t18 -10q17 0 23 14q3 7 3 20v352q0 20 -5 39t-5 26q0 20 19 20l22 -3l23 -1q12 0 24 2t16 2
q18 0 18 -18q0 -7 -3.5 -20t-5.5 -24q-9 -53 -9 -82v-328q0 -12 2.5 -24.5t11.5 -23.5q2 -2 10 -9q5 -4 5 -12q0 -5 -1 -15t-1 -22q0 -10 1.5 -25.5t1.5 -18.5q0 -17 -4.5 -22.5t-11.5 -5.5q-10 0 -19 16q-15 27 -18 30q-13 15 -39 21.5t-91 6.5q-30 0 -53 -2t-30 -2
q-18 0 -18 17q0 22 8 49t8 56z" />
    <glyph glyph-name="odieresis" unicode="&#x446;" horiz-adv-x="310" 
d="M32 122v374q0 14 -1 21t-3.5 21t-5 19.5t-2.5 8.5q0 14 19 14q11 0 20 -1.5t21 -1.5q24 0 27 1.5t19 1.5q18 0 18 -13q0 -6 -12 -62q-6 -28 -6 -57v-297q0 -22 6 -32t18 -10q17 0 23 14q3 7 3 20v352q0 20 -5 39t-5 26q0 20 19 20l22 -3l23 -1q12 0 24 2t16 2
q18 0 18 -18q0 -7 -3.5 -20t-5.5 -24q-9 -53 -9 -82v-328q0 -12 2.5 -24.5t11.5 -23.5q2 -2 10 -9q5 -4 5 -12q0 -5 -1 -15t-1 -22q0 -10 1.5 -25.5t1.5 -18.5q0 -17 -4.5 -22.5t-11.5 -5.5q-10 0 -19 16q-15 27 -18 30q-13 15 -39 21.5t-91 6.5q-30 0 -53 -2t-30 -2
q-18 0 -18 17q0 22 8 49t8 56z" />
    <glyph glyph-name="divide" unicode="&#xf7;" horiz-adv-x="302" 
d="M175 122v112q0 7 -6 7q-17 -5 -34 -9t-29 -4q-39 0 -57 18q-22 21 -22 74q0 5 2 43t2 80q0 43 -1.5 62t-4 28.5t-6 18.5t-3.5 12q0 16 19 16q23 0 30 -1l14 -2l32 2l16 1q14 0 14 -15q0 -28 -8 -47t-8 -49v-62q0 -12 4.5 -23.5t20.5 -11.5q15 0 20 11.5t5 22.5v83
q0 33 -7 49.5t-7 22.5q0 12 6.5 15.5t13.5 3.5q11 0 25.5 -1.5t21.5 -1.5l23 2l14 1q21 0 21 -19q0 -6 -3.5 -16.5t-5.5 -18.5q-5 -18 -6.5 -39t-1.5 -32v-303q0 -40 1.5 -60.5t3.5 -29t6 -23t4 -23.5q0 -16 -23 -16l-30 3l-32 1q-21 0 -32 -1.5t-23 -2.5q-20 0 -20 15
q0 9 6 17l16 18q13 16 21 34.5t8 37.5z" />
    <glyph glyph-name="divide" unicode="&#x447;" horiz-adv-x="302" 
d="M175 122v112q0 7 -6 7q-17 -5 -34 -9t-29 -4q-39 0 -57 18q-22 21 -22 74q0 5 2 43t2 80q0 43 -1.5 62t-4 28.5t-6 18.5t-3.5 12q0 16 19 16q23 0 30 -1l14 -2l32 2l16 1q14 0 14 -15q0 -28 -8 -47t-8 -49v-62q0 -12 4.5 -23.5t20.5 -11.5q15 0 20 11.5t5 22.5v83
q0 33 -7 49.5t-7 22.5q0 12 6.5 15.5t13.5 3.5q11 0 25.5 -1.5t21.5 -1.5l23 2l14 1q21 0 21 -19q0 -6 -3.5 -16.5t-5.5 -18.5q-5 -18 -6.5 -39t-1.5 -32v-303q0 -40 1.5 -60.5t3.5 -29t6 -23t4 -23.5q0 -16 -23 -16l-30 3l-32 1q-21 0 -32 -1.5t-23 -2.5q-20 0 -20 15
q0 9 6 17l16 18q13 16 21 34.5t8 37.5z" />
    <glyph glyph-name="oslash" unicode="&#xf8;" horiz-adv-x="443" 
d="M29 96v379q0 27 -4 50q-5 20 -9 41q0 14 15 14q6 0 20 -1.5t20 -1.5l26 1l21 2q18 0 18 -14q0 -3 -6.5 -30t-6.5 -46v-346q0 -18 7.5 -24t17.5 -6q26 0 26 20v340v13q0 10 -0.5 20t-4.5 23.5l-6.5 21.5t-2.5 11q0 10 6.5 13.5t12.5 3.5l44 -2l37 2q12 0 18 -8q2 -2 4 -9
q-5 -12 -9.5 -32.5t-4.5 -49.5v-339q0 -28 26 -28q12 0 18.5 9.5t6.5 27.5v314q0 33 -5 53.5t-10 43.5q0 18 19 18l18 -2l19 -1q25 0 36.5 1.5t12.5 1.5q17 0 17 -15q0 -13 -6.5 -40t-6.5 -58v-350q0 -35 5 -64q2 -11 5.5 -22t3.5 -16q0 -10 -6.5 -12.5t-22.5 -2.5l-84 3
h-33l-66 1q-41 0 -78.5 -2t-101.5 -2q-19 0 -19 15v6t5 20q2 9 5 21t3 34z" />
    <glyph glyph-name="oslash" unicode="&#x448;" horiz-adv-x="443" 
d="M29 96v379q0 27 -4 50q-5 20 -9 41q0 14 15 14q6 0 20 -1.5t20 -1.5l26 1l21 2q18 0 18 -14q0 -3 -6.5 -30t-6.5 -46v-346q0 -18 7.5 -24t17.5 -6q26 0 26 20v340v13q0 10 -0.5 20t-4.5 23.5l-6.5 21.5t-2.5 11q0 10 6.5 13.5t12.5 3.5l44 -2l37 2q12 0 18 -8q2 -2 4 -9
q-5 -12 -9.5 -32.5t-4.5 -49.5v-339q0 -28 26 -28q12 0 18.5 9.5t6.5 27.5v314q0 33 -5 53.5t-10 43.5q0 18 19 18l18 -2l19 -1q25 0 36.5 1.5t12.5 1.5q17 0 17 -15q0 -13 -6.5 -40t-6.5 -58v-350q0 -35 5 -64q2 -11 5.5 -22t3.5 -16q0 -10 -6.5 -12.5t-22.5 -2.5l-84 3
h-33l-66 1q-41 0 -78.5 -2t-101.5 -2q-19 0 -19 15v6t5 20q2 9 5 21t3 34z" />
    <glyph glyph-name="ugrave" unicode="&#xf9;" horiz-adv-x="453" 
d="M29 96v379q0 27 -4 50q-5 20 -9 41q0 14 15 14q6 0 20 -1.5t20 -1.5l26 1l21 2q18 0 18 -14q0 -3 -6.5 -30t-6.5 -46v-346q0 -18 7.5 -24t17.5 -6q26 0 26 20v340v13q0 10 -0.5 20t-4.5 23.5l-6.5 21.5t-2.5 11q0 10 6.5 13.5t12.5 3.5l44 -2l37 2q12 0 18 -8q2 -2 4 -9
q-5 -12 -9.5 -32.5t-4.5 -49.5v-339q0 -28 26 -28q12 0 18.5 9.5t6.5 27.5v314q0 33 -5 53.5t-10 43.5q0 18 19 18l18 -2l19 -1q25 0 36.5 1.5t12.5 1.5q17 0 17 -15q0 -13 -6.5 -40t-6.5 -58v-359q0 -12 2.5 -24.5t11.5 -23.5q2 -2 10 -9q5 -4 5 -12q0 -5 -1 -15t-1 -22
q0 -10 1.5 -25.5t1.5 -18.5q0 -17 -4.5 -22.5t-11.5 -5.5q-10 0 -19 16q-15 27 -18 30q-16 19 -49 23.5t-126 4.5l-97 -2l-83 -2q-19 0 -19 15v6t5 20q2 9 5 21t3 34z" />
    <glyph glyph-name="ugrave" unicode="&#x449;" horiz-adv-x="453" 
d="M29 96v379q0 27 -4 50q-5 20 -9 41q0 14 15 14q6 0 20 -1.5t20 -1.5l26 1l21 2q18 0 18 -14q0 -3 -6.5 -30t-6.5 -46v-346q0 -18 7.5 -24t17.5 -6q26 0 26 20v340v13q0 10 -0.5 20t-4.5 23.5l-6.5 21.5t-2.5 11q0 10 6.5 13.5t12.5 3.5l44 -2l37 2q12 0 18 -8q2 -2 4 -9
q-5 -12 -9.5 -32.5t-4.5 -49.5v-339q0 -28 26 -28q12 0 18.5 9.5t6.5 27.5v314q0 33 -5 53.5t-10 43.5q0 18 19 18l18 -2l19 -1q25 0 36.5 1.5t12.5 1.5q17 0 17 -15q0 -13 -6.5 -40t-6.5 -58v-359q0 -12 2.5 -24.5t11.5 -23.5q2 -2 10 -9q5 -4 5 -12q0 -5 -1 -15t-1 -22
q0 -10 1.5 -25.5t1.5 -18.5q0 -17 -4.5 -22.5t-11.5 -5.5q-10 0 -19 16q-15 27 -18 30q-16 19 -49 23.5t-126 4.5l-97 -2l-83 -2q-19 0 -19 15v6t5 20q2 9 5 21t3 34z" />
    <glyph glyph-name="uacute" unicode="&#xfa;" horiz-adv-x="328" 
d="M68 115v314q0 5 -3.5 7.5t-7.5 2.5q-10 0 -19 -23t-19 -23q-15 0 -15 15q0 7 2.5 30.5t2.5 63.5q0 20 -1 30l-2 20q0 17 8.5 22.5t36.5 5.5q21 0 36.5 -1.5t20.5 -1.5q17 0 33.5 1.5t18.5 1.5q16 0 16 -14q0 -9 -9 -37q-5 -16 -5 -37v-115q2 -7 5 -7l16 6q22 8 45 8
q18 0 33 -7q47 -21 47 -94v-162q0 -67 -31 -97q-25 -24 -70 -24q-25 0 -44.5 2.5t-32.5 2.5l-25 -2l-32 -3q-19 0 -19 16q0 13 9 54q5 23 5 45zM162 223v-70q0 -25 8 -33q5 -5 18 -5q9 0 13 2q13 6 13 36v73q0 16 -6.5 22.5t-19.5 6.5q-17 0 -21.5 -9t-4.5 -23z" />
    <glyph glyph-name="uacute" unicode="&#x44a;" horiz-adv-x="328" 
d="M68 115v314q0 5 -3.5 7.5t-7.5 2.5q-10 0 -19 -23t-19 -23q-15 0 -15 15q0 7 2.5 30.5t2.5 63.5q0 20 -1 30l-2 20q0 17 8.5 22.5t36.5 5.5q21 0 36.5 -1.5t20.5 -1.5q17 0 33.5 1.5t18.5 1.5q16 0 16 -14q0 -9 -9 -37q-5 -16 -5 -37v-115q2 -7 5 -7l16 6q22 8 45 8
q18 0 33 -7q47 -21 47 -94v-162q0 -67 -31 -97q-25 -24 -70 -24q-25 0 -44.5 2.5t-32.5 2.5l-25 -2l-32 -3q-19 0 -19 16q0 13 9 54q5 23 5 45zM162 223v-70q0 -25 8 -33q5 -5 18 -5q9 0 13 2q13 6 13 36v73q0 16 -6.5 22.5t-19.5 6.5q-17 0 -21.5 -9t-4.5 -23z" />
    <glyph glyph-name="ucircumflex" unicode="&#xfb;" horiz-adv-x="436" 
d="M33 120v360q0 21 -5 47t-5 37q0 16 17 16q10 0 18 -2t24 -2l33 3l12 1q7 -1 11.5 -4.5t4.5 -12.5q0 -2 -10 -46q-6 -26 -6 -43v-96q0 -8 7 -8q11 0 18 2q22 6 38 6q42 0 62.5 -27t20.5 -76v-154q0 -48 -16 -77q-24 -44 -85 -44l-35 2l-48 2q-20 0 -27 -2t-23 -2
q-11 0 -17 3.5t-6 12.5q0 4 3 15.5t5.5 22.5t5.5 29.5t3 36.5zM127 215v-78q0 -10 4 -18t21 -8q11 0 19 7t8 18v84q0 16 -8 22.5t-20 6.5q-16 0 -20 -11t-4 -23zM310 128v342q0 39 -5 56.5t-10 37.5q0 16 18 16q15 0 22.5 -1.5t24.5 -1.5q20 0 27.5 1.5t13.5 1.5
q19 0 19 -16q-6 -24 -11 -55t-5 -67v-335q0 -33 6 -55t6 -30q0 -14 -6.5 -18t-13.5 -4q-10 0 -15.5 1.5t-26.5 1.5q-11 0 -23 -1.5t-16 -1.5q-21 0 -21 15l7.5 35t6.5 35.5t2 42.5z" />
    <glyph glyph-name="ucircumflex" unicode="&#x44b;" horiz-adv-x="436" 
d="M33 120v360q0 21 -5 47t-5 37q0 16 17 16q10 0 18 -2t24 -2l33 3l12 1q7 -1 11.5 -4.5t4.5 -12.5q0 -2 -10 -46q-6 -26 -6 -43v-96q0 -8 7 -8q11 0 18 2q22 6 38 6q42 0 62.5 -27t20.5 -76v-154q0 -48 -16 -77q-24 -44 -85 -44l-35 2l-48 2q-20 0 -27 -2t-23 -2
q-11 0 -17 3.5t-6 12.5q0 4 3 15.5t5.5 22.5t5.5 29.5t3 36.5zM127 215v-78q0 -10 4 -18t21 -8q11 0 19 7t8 18v84q0 16 -8 22.5t-20 6.5q-16 0 -20 -11t-4 -23zM310 128v342q0 39 -5 56.5t-10 37.5q0 16 18 16q15 0 22.5 -1.5t24.5 -1.5q20 0 27.5 1.5t13.5 1.5
q19 0 19 -16q-6 -24 -11 -55t-5 -67v-335q0 -33 6 -55t6 -30q0 -14 -6.5 -18t-13.5 -4q-10 0 -15.5 1.5t-26.5 1.5q-11 0 -23 -1.5t-16 -1.5q-21 0 -21 15l7.5 35t6.5 35.5t2 42.5z" />
    <glyph glyph-name="udieresis" unicode="&#xfc;" horiz-adv-x="292" 
d="M32 120v360q0 21 -5 47t-5 37q0 16 17 16q10 0 18 -2t24 -2l33 3l12 1q7 -1 11.5 -4.5t4.5 -12.5q0 -2 -10 -46q-6 -26 -6 -43v-96q0 -8 7 -8q1 0 11.5 2.5t27.5 4.5l17 1q42 0 62.5 -27t20.5 -76v-154q0 -48 -16 -77q-24 -44 -85 -44l-35 2l-48 2q-21 0 -25 -2t-25 -2
q-22 0 -22 16q6 27 11 54t5 50zM126 215v-78q0 -10 4 -18t21 -8q11 0 19 7t8 18v84q0 16 -8 22.5t-20 6.5q-16 0 -20 -11t-4 -23z" />
    <glyph glyph-name="udieresis" unicode="&#x44c;" horiz-adv-x="292" 
d="M32 120v360q0 21 -5 47t-5 37q0 16 17 16q10 0 18 -2t24 -2l33 3l12 1q7 -1 11.5 -4.5t4.5 -12.5q0 -2 -10 -46q-6 -26 -6 -43v-96q0 -8 7 -8q1 0 11.5 2.5t27.5 4.5l17 1q42 0 62.5 -27t20.5 -76v-154q0 -48 -16 -77q-24 -44 -85 -44l-35 2l-48 2q-21 0 -25 -2t-25 -2
q-22 0 -22 16q6 27 11 54t5 50zM126 215v-78q0 -10 4 -18t21 -8q11 0 19 7t8 18v84q0 16 -8 22.5t-20 6.5q-16 0 -20 -11t-4 -23z" />
    <glyph glyph-name="yacute" unicode="&#xfd;" horiz-adv-x="240" 
d="M122 169v72q0 15 -6.5 21.5t-21.5 6.5h-40q-18 0 -23.5 10.5t-5.5 24.5t5.5 22.5t28.5 8.5h42q21 0 21 19v44q0 13 -7 21t-18 8q-17 0 -31 -18l-13.5 -15t-16.5 -7q-8 0 -10.5 6t-2.5 17q0 18 2 39t2 30l-2 26l-2 25q0 32 33 45q22 9 49 9q67 0 94 -56q17 -35 17 -94
v-284q0 -59 -16 -94q-28 -60 -100 -60q-31 0 -57 14.5t-26 36.5q0 6 2 22t2 24q0 15 -2.5 27.5t-2.5 21.5q0 24 15 24q8 0 13.5 -8.5l12 -19t15.5 -18.5t22 -8q19 0 25 21q3 11 3 36z" />
    <glyph glyph-name="yacute" unicode="&#x44d;" horiz-adv-x="240" 
d="M122 169v72q0 15 -6.5 21.5t-21.5 6.5h-40q-18 0 -23.5 10.5t-5.5 24.5t5.5 22.5t28.5 8.5h42q21 0 21 19v44q0 13 -7 21t-18 8q-17 0 -31 -18l-13.5 -15t-16.5 -7q-8 0 -10.5 6t-2.5 17q0 18 2 39t2 30l-2 26l-2 25q0 32 33 45q22 9 49 9q67 0 94 -56q17 -35 17 -94
v-284q0 -59 -16 -94q-28 -60 -100 -60q-31 0 -57 14.5t-26 36.5q0 6 2 22t2 24q0 15 -2.5 27.5t-2.5 21.5q0 24 15 24q8 0 13.5 -8.5l12 -19t15.5 -18.5t22 -8q19 0 25 21q3 11 3 36z" />
    <glyph glyph-name="thorn" unicode="&#xfe;" horiz-adv-x="443" 
d="M33 136v301q0 48 -4 78l-10 48q0 17 18 17q15 0 24 -2t17 -2l48 4q18 0 18 -16q0 -3 -2.5 -12t-5.5 -23t-6 -31t-3 -35q0 -39 7 -50q4 -7 19 -7q18 0 20 10t7.5 53t23.5 71q30 44 89 44q80 0 109 -68q17 -40 17 -119v-229q0 -87 -32 -129t-89 -42q-77 0 -106 60
q-17 35 -17 100v74q0 24 -25 24q-10 0 -16.5 -8t-6.5 -23v-102q0 -45 8 -69t8 -34q0 -7 -5 -13t-18 -6l-22 2l-24 1q-18 0 -26 -1.5t-13 -1.5q-19 0 -19 19q0 2 11 63q6 33 6 54zM269 378v-207q0 -27 3.5 -40.5t22.5 -13.5t26 17q4 10 4 32v216q0 27 -7 36.5t-23 9.5
q-10 0 -16 -8q-10 -13 -10 -42z" />
    <glyph glyph-name="thorn" unicode="&#x44e;" horiz-adv-x="443" 
d="M33 136v301q0 48 -4 78l-10 48q0 17 18 17q15 0 24 -2t17 -2l48 4q18 0 18 -16q0 -3 -2.5 -12t-5.5 -23t-6 -31t-3 -35q0 -39 7 -50q4 -7 19 -7q18 0 20 10t7.5 53t23.5 71q30 44 89 44q80 0 109 -68q17 -40 17 -119v-229q0 -87 -32 -129t-89 -42q-77 0 -106 60
q-17 35 -17 100v74q0 24 -25 24q-10 0 -16.5 -8t-6.5 -23v-102q0 -45 8 -69t8 -34q0 -7 -5 -13t-18 -6l-22 2l-24 1q-18 0 -26 -1.5t-13 -1.5q-19 0 -19 19q0 2 11 63q6 33 6 54zM269 378v-207q0 -27 3.5 -40.5t22.5 -13.5t26 17q4 10 4 32v216q0 27 -7 36.5t-23 9.5
q-10 0 -16 -8q-10 -13 -10 -42z" />
    <glyph glyph-name="ydieresis" unicode="&#xff;" horiz-adv-x="303" 
d="M273 464v-336v-32t4 -33l8 -44q0 -19 -16 -19l-18 1l-24 2q-17 0 -32 -1.5t-16 -1.5q-10 0 -13.5 6t-3.5 13q0 9 11 51q6 23 6 51v88q0 14 -10 14t-14.5 -27.5l-9.5 -59.5q-11 -64 -14 -85q-9 -51 -32 -51l-39 2l-35 -2q-17 0 -17 14q0 9 13.5 40t25 78.5t14.5 63.5t3 29
q0 11 -13 24.5t-17.5 35.5t-4.5 41v102q0 95 29 128q21 24 70 24l40 -2l43 -2q22 0 33.5 1t24.5 3q18 0 18 -17q0 -9 -3 -19.5l-5 -18t-4 -28.5t-2 -33zM123 419v-66q0 -9 1 -13q6 -22 28 -22q27 0 27 34v74q0 9 -3 15q-6 12 -23 12q-14 0 -22 -8t-8 -26z" />
    <glyph glyph-name="ydieresis" unicode="&#x44f;" horiz-adv-x="303" 
d="M273 464v-336v-32t4 -33l8 -44q0 -19 -16 -19l-18 1l-24 2q-17 0 -32 -1.5t-16 -1.5q-10 0 -13.5 6t-3.5 13q0 9 11 51q6 23 6 51v88q0 14 -10 14t-14.5 -27.5l-9.5 -59.5q-11 -64 -14 -85q-9 -51 -32 -51l-39 2l-35 -2q-17 0 -17 14q0 9 13.5 40t25 78.5t14.5 63.5t3 29
q0 11 -13 24.5t-17.5 35.5t-4.5 41v102q0 95 29 128q21 24 70 24l40 -2l43 -2q22 0 33.5 1t24.5 3q18 0 18 -17q0 -9 -3 -19.5l-5 -18t-4 -28.5t-2 -33zM123 419v-66q0 -9 1 -13q6 -22 28 -22q27 0 27 34v74q0 9 -3 15q-6 12 -23 12q-14 0 -22 -8t-8 -26z" />
    <glyph glyph-name="OE" unicode="&#x152;" horiz-adv-x="549" 
d="M41 156v389q0 41 -7 70l-14 61q0 23 23 23q9 0 27 -1.5t36 -1.5q44 3 53 3q11 0 15.5 -5.5t4.5 -12.5q0 -10 -5 -21t-8 -19t-5.5 -18t-2.5 -25q0 -20 8 -31.5t26 -11.5q14 0 22.5 14.5t8.5 32.5q0 17 -3 26.5t-9.5 22l-9 17.5t-2.5 11q0 8 4.5 14t17.5 6l29 -2l21 -1
q27 0 39 1t25 3q15 0 15 -15q-7 -20 -12.5 -45t-5.5 -61v-25q0 -18 2.5 -23.5t9.5 -5.5q10 0 30 8t45 8q39 0 63 -19q37 -30 37 -101v-277q0 -80 -41 -116q-32 -28 -85 -28q-35 0 -55 2.5t-49 2.5q-30 0 -42.5 -2.5t-22.5 -2.5q-20 0 -20 21q0 19 5 38q13 49 13 111v134
q0 45 -5 65.5t-28 20.5q-24 0 -31 -37t-7 -147q0 -75 6 -120l14 -66q0 -13 -7.5 -16t-18.5 -3q-28 0 -36.5 0.5t-15.5 2.5l-33 -2l-22 -2q-17 0 -17 19q0 4 4 16.5t7.5 30.5t6 38.5t2.5 51.5zM332 331v-157q0 -37 5.5 -49.5t29.5 -12.5q28 0 37 21q5 11 5 41v163q0 22 -5 34
q-9 20 -33 20q-27 0 -35 -21q-4 -10 -4 -39z" />
    <glyph glyph-name="oe" unicode="&#x153;" horiz-adv-x="443" 
d="M34 135v324q0 60 -6.5 78t-6.5 29q0 14 15 14l18 -2l28 -2q20 0 29.5 1t20.5 3q14 0 14 -14q0 -6 -7.5 -30.5t-7.5 -46.5q0 -20 2 -26q6 -19 26 -19q14 0 21.5 11.5t7.5 31.5q0 18 -1 24q-4 12 -7 20q-9 24 -9 35q0 14 17 14q14 0 20.5 -1.5t32.5 -1.5l23 2l13 1
q7 -1 11.5 -4.5t4.5 -12.5q0 -2 -10 -46q-6 -26 -6 -43v-36q6 3 19 6t33 3q52 0 75 -28q19 -23 19 -70v-233q0 -44 -13 -69q-24 -47 -86 -47l-37 2l-48 2q-21 0 -25 -2t-25 -2q-22 0 -22 16q6 27 11 54t5 50v132q0 22 -3 31q-6 16 -24 16t-23 -14t-5 -40v-121q0 -38 7 -70
t7 -39q0 -15 -18 -15q-8 0 -23 1.5t-22 1.5q-18 0 -27 -1t-17 -2h-7q-12 3 -12 15q0 4 2 9q7 18 10.5 35.5t4.5 37.5t1 38zM277 265v-128q0 -10 4 -18t21 -8q11 0 19 7t8 18v134q0 16 -8 22.5t-20 6.5q-16 0 -20 -11t-4 -23z" />
    <glyph glyph-name="Scaron" unicode="&#x160;" horiz-adv-x="531" 
d="M204 170v343q0 9 -4.5 16.5t-10.5 7.5q-15 0 -20 -16.5t-5 -42.5q0 -101 -6 -178q-11 -108 -18 -186q0 -56 -13 -83q-19 -39 -66 -39q-25 0 -38 9t-13 32l3 102l-2 52q0 24 15 24q10 0 12 -14q0 -13 8 -13q5 0 7.5 8t4.5 28t6 98q8 147 8 193v19q0 37 -2 60t-5 46.5
t-5 30.5t-2 15q0 18 24 18q19 0 60.5 -2t50.5 -2q33 0 62 1t62 3q15 0 15 -15q-7 -20 -12.5 -45t-5.5 -61v-45q0 -18 2.5 -23.5t9.5 -5.5q10 0 30 8t45 8q39 0 63 -19q37 -30 37 -101v-257q0 -80 -41 -116q-32 -28 -85 -28q-35 0 -55 2.5t-49 2.5q-30 0 -42.5 -2.5
t-22.5 -2.5q-20 0 -20 21q0 19 5 38q13 49 13 111zM314 311v-137q0 -37 5.5 -49.5t29.5 -12.5q28 0 37 21q5 11 5 41v143q0 22 -5 34q-9 20 -33 20q-27 0 -35 -21q-4 -10 -4 -39z" />
    <glyph glyph-name="scaron" unicode="&#x161;" horiz-adv-x="440" 
d="M180 120v285q0 10 -2 16t-11 6q-29 0 -29 -207q0 -97 -5 -133q-13 -91 -82 -91q-26 0 -33.5 11.5t-7.5 31.5q0 25 1 42l2 33q0 18 -1 29.5l-2 23.5q0 4 1.5 12.5t13.5 8.5t12 -14l-1 -10q0 -2 2 -3l4 -2q7 0 9.5 26l5.5 60l9 135v46.5t1 39.5q0 27 -3 47t-7 33t-4 16
q0 9 6.5 13.5t21.5 4.5q34 0 56.5 -2.5t40.5 -2.5q34 0 49 2.5t47 2.5q16 0 16 -17q0 -2 -10 -46q-6 -26 -6 -43v-66q6 3 19 6t33 3q52 0 75 -28q19 -23 19 -70v-203q0 -44 -13 -69q-24 -47 -86 -47l-37 2l-48 2q-21 0 -25 -2t-25 -2q-22 0 -22 16q6 27 11 54t5 50zM274 255
v-118q0 -10 4 -18t21 -8q11 0 19 7t8 18v124q0 16 -8 22.5t-20 6.5q-16 0 -20 -11t-4 -23z" />
    <glyph glyph-name="Ydieresis" unicode="&#x178;" horiz-adv-x="298" 
d="M32 132v364q0 21 -4 38t-8 32q0 14 19 14q11 0 20 -1.5t21 -1.5q24 0 27 1.5t19 1.5q18 0 18 -13q0 -6 -12 -62q-6 -28 -6 -57v-297q0 -22 6 -32t18 -10q17 0 23 14q3 7 3 20v352q0 20 -5 39t-5 26q0 20 19 20l22 -3l23 -1q12 0 24 2t16 2q18 0 18 -18q0 -9 -3 -18.5
t-4 -14.5q-5 -16 -8 -43t-3 -50v-334q0 -25 4 -39q9 -33 9 -46q0 -9 -4 -13t-15 -4q-15 0 -31.5 2.5t-18.5 2.5q-20 0 -32 -11t-12 -30q0 -16 -3 -25t-16 -9t-17 9t-4 23q0 19 -10 31t-33 12q-13 0 -31 -2.5t-22 -2.5q-18 0 -18 17q0 5 4 21t5 22q7 34 7 72z" />
    <glyph glyph-name="florin" unicode="&#x192;" horiz-adv-x="238" 
d="M33 148v297q0 43 -4.5 70t-7 36t-2.5 11q0 12 6.5 15t16.5 3q15 0 40 -2.5t42 -2.5q25 0 30 1q21 4 48 4q16 0 21 -7t5 -18q0 -27 -1 -37q-4 -40 -4 -48l2 -33l2 -27q0 -23 -13 -23q-10 0 -19 15.5t-20.5 20.5t-23.5 5q-16 0 -20 -14t-4 -67v-33v-141q0 -54 4.5 -81.5
t14.5 -41.5q10 -11 14 -17q9 -11 9 -19q0 -9 -6.5 -11.5t-14.5 -2.5q-5 0 -29 2.5t-38 2.5l-26 -2l-21 -3q-18 0 -18 19q0 7 2.5 15.5t6 23t6 41t2.5 49.5zM126 709q14 0 20.5 1.5t14.5 1.5q23 0 23 -22q0 -32 -35 -62t-77 -30q-18 0 -18 13q0 5 4 12.5t6 12.5t4 13.5
t2 18.5l-1 22q0 4 1.5 12.5t17.5 8.5z" />
    <glyph glyph-name="endash" unicode="&#x2013;" 
d="M35 296h231q3 -1 5.5 -2.5t2.5 -8.5v-24q0 -11 -10 -11h-230q-8 5 -8 12v22q0 12 9 12z" />
    <glyph glyph-name="emdash" unicode="&#x2014;" horiz-adv-x="440" 
d="M35 296h371q3 -1 5.5 -2.5t2.5 -8.5v-24q0 -11 -10 -11h-370q-8 5 -8 12v22q0 12 9 12z" />
    <glyph glyph-name="quoteleft" unicode="&#x2018;" horiz-adv-x="160" 
d="M82 456q-30 0 -45 24t-15 69q0 54 25.5 104.5t58.5 50.5q10 0 15 -6t5 -15q0 -7 -13 -30q-9 -18 -9 -25q0 -6 5 -16t12 -22q10 -21 13.5 -34t3.5 -28q0 -31 -14.5 -51.5t-41.5 -20.5z" />
    <glyph glyph-name="quoteright" unicode="&#x2019;" horiz-adv-x="160" 
d="M78 704q30 0 45 -24t15 -69q0 -54 -25.5 -104.5t-58.5 -50.5q-10 0 -15 6t-5 15q0 7 13 30q9 18 9 25q0 6 -4 14q-7 12 -13 24q-10 21 -13.5 34t-3.5 28q0 31 14.5 51.5t41.5 20.5z" />
    <glyph glyph-name="quotesinglbase" unicode="&#x201a;" horiz-adv-x="160" 
d="M78 174q30 0 45 -24t15 -69q0 -54 -25.5 -104.5t-58.5 -50.5q-10 0 -15 6t-5 15q0 7 13 30q9 18 9 25q0 6 -4 14q-7 12 -13 24q-10 21 -13.5 34t-3.5 28q0 31 14.5 51.5t41.5 20.5z" />
    <glyph glyph-name="quotedblleft" unicode="&#x201c;" 
d="M221 477q-28 0 -42 21t-14 61q0 51 24.5 98t53.5 47q10 0 15 -6t5 -15q0 -5 -2 -10q-8 -13 -12 -21.5t-5.5 -14.5t-2.5 -9q0 -5 4 -11q12 -18 13 -20q7 -13 12 -26.5t5 -28.5q0 -27 -14 -46t-40 -19zM81 477q-28 0 -42 21t-14 61q0 51 24.5 98t53.5 47q10 0 15 -6t5 -15
q0 -5 -2 -10q-8 -13 -12 -21.5t-5.5 -14.5t-2.5 -9q0 -5 4 -11q12 -18 13 -20q7 -13 12 -26.5t5 -28.5q0 -27 -14 -46t-40 -19z" />
    <glyph glyph-name="quotedblright" unicode="&#x201d;" 
d="M79 704q28 0 42 -21t14 -61q0 -51 -24.5 -98t-53.5 -47q-10 0 -15 6t-5 15q0 5 4 13l9 17.5t8 20.5q0 1 1 4q0 5 -4 11q-12 18 -13 20q-7 13 -12 26.5t-5 28.5q0 27 14 46t40 19zM219 704q28 0 42 -21t14 -61q0 -51 -24.5 -98t-53.5 -47q-20 0 -20 19q0 8 6 19
q16 30 16 38q0 5 -4 11q-12 18 -13 20q-7 13 -12 26.5t-5 28.5q0 27 14 46t40 19z" />
    <glyph glyph-name="quotedblbase" unicode="&#x201e;" 
d="M79 153q28 0 42 -21t14 -61q0 -51 -24.5 -98t-53.5 -47q-10 0 -15 6t-5 15q0 5 4 13.5t9 17.5t8 20q0 1 1 4q0 5 -4 11q-12 18 -13 20q-7 13 -12 26.5t-5 28.5q0 27 14 46t40 19zM219 153q28 0 42 -21t14 -61q0 -51 -24.5 -98t-53.5 -47q-10 0 -15 6t-5 15q0 5 4 13.5
t9 17.5t8 20q0 1 1 4q0 5 -4 11q-12 18 -13 20q-7 13 -12 26.5t-5 28.5q0 27 14 46t40 19z" />
    <glyph glyph-name="dagger" unicode="&#x2020;" horiz-adv-x="380" 
d="M194 698l41 2q26 0 26 -30q0 -9 -6 -44t-6 -65q0 -18 16 -18l27 2l34 4q13 0 18.5 -6.5t5.5 -22.5q0 -7 -2 -18t-2 -22q0 -16 1 -24t2 -15q0 -14 -9 -19q-4 -2 -13 -2l-34 3q-13 1 -24.5 3t-12.5 2q-22 0 -22 -19q0 -6 3 -16t4 -21q2 -7 3 -18q5 -40 5 -127
q0 -35 2.5 -76t2.5 -48q0 -25 3 -49t3 -33q0 -21 -26 -21q-7 0 -19.5 1.5t-21.5 1.5q-14 0 -23 -1.5t-16 -1.5q-15 0 -20 11t-5 24q0 17 1 27q5 48 5 77l2 129v64.5t2 35t5 27t3 15.5q0 11 -6 14t-14 3q-33 0 -44.5 -4.5t-24.5 -4.5t-19.5 5.5t-6.5 15.5q0 5 1 18t1 28
q0 11 -2 24t-2 18q0 19 19 19q9 0 29 -2t38 -2q10 0 17 6t7 20q0 10 -5 41t-5 57q0 34 24 34q3 0 13.5 -1t26.5 -1z" />
    <glyph glyph-name="bullet" unicode="&#x2022;" horiz-adv-x="340" 
d="M30 310q0 58 41 99t99 41t99 -41t41 -99t-41 -99t-99 -41t-99 41t-41 99z" />
    <glyph glyph-name="ellipsis" unicode="&#x2026;" horiz-adv-x="480" 
d="M25 77q0 42 18 61q15 15 39 15q25 0 39 -18t14 -58q0 -34 -11 -55q-14 -26 -44 -26q-34 0 -47 32q-8 20 -8 49zM185 77q0 42 18 61q15 15 39 15q25 0 39 -18t14 -58q0 -34 -11 -55q-14 -26 -44 -26q-34 0 -47 32q-8 20 -8 49zM345 77q0 42 18 61q15 15 39 15q25 0 39 -18
t14 -58q0 -34 -11 -55q-14 -26 -44 -26q-34 0 -47 32q-8 20 -8 49z" />
    <glyph glyph-name="perthousand" unicode="&#x2030;" horiz-adv-x="840" 
d="M153 12l251 692q6 16 18 16q10 0 19 -5.5t9 -17.5q0 -3 -2 -9l-252 -694q-5 -14 -18 -14q-10 0 -18.5 5t-8.5 16q0 3 2 11zM30 370v230q0 63 39 89q24 16 60 16q57 0 79 -39q12 -21 12 -55v-219q0 -47 -14 -74q-23 -43 -81 -43q-60 0 -82 36q-13 21 -13 59zM99 557v-152
q0 -13 5 -21.5t21 -8.5q24 0 24 25v157q0 20 -16 26q-2 1 -9 2q-9 0 -14 -3q-11 -7 -11 -25zM380 90v230q0 63 39 89q24 16 60 16q57 0 79 -39q12 -21 12 -55v-219q0 -47 -14 -74q-23 -43 -81 -43q-60 0 -82 36q-13 21 -13 59zM450 277v-152q0 -13 5 -21.5t21 -8.5
q24 0 24 25v157q0 20 -16 26q-2 1 -9 2q-9 0 -14 -3q-11 -7 -11 -25zM620 90v230q0 63 39 89q24 16 60 16q57 0 79 -39q12 -21 12 -55v-219q0 -47 -14 -74q-23 -43 -81 -43q-60 0 -82 36q-13 21 -13 59zM690 277v-152q0 -13 5 -21.5t21 -8.5q24 0 24 25v157q0 20 -16 26
q-2 1 -9 2q-9 0 -14 -3q-11 -7 -11 -25z" />
    <glyph glyph-name="guilsinglleft" unicode="&#x2039;" horiz-adv-x="200" 
d="M92 310l67 -99q4 -6 2 -9q-1 -2 -8 -2l-22 1l-16 -1q-9 0 -15 9l-59 93l-3 8l3 8l59 93q6 9 15 9l16 -1l22 1q9 0 9 -4l-3 -7z" />
    <glyph glyph-name="guilsinglright" unicode="&#x203a;" horiz-adv-x="200" 
d="M108 310l-67 99l-3 7q0 4 9 4l22 -1l16 1q9 0 15 -9l59 -93l3 -8l-3 -8l-59 -93q-6 -9 -15 -9l-16 1l-22 -1q-7 0 -8 2q-2 3 2 9z" />
  </font>
</defs>
</svg>
